<?xml version="1.0" encoding="utf-8"?>
<svg xmlns="http://www.w3.org/2000/svg" xmlns:xlink="http://www.w3.org/1999/xlink" width="600" height="400" viewBox="0 0 2400 1600">
<defs>
  <clipPath id="clip370">
    <rect x="0" y="0" width="2400" height="1600"/>
  </clipPath>
</defs>
<path clip-path="url(#clip370)" d="M0 1600 L2400 1600 L2400 0 L0 0  Z" fill="#ffffff" fill-rule="evenodd" fill-opacity="1"/>
<defs>
  <clipPath id="clip371">
    <rect x="480" y="0" width="1681" height="1600"/>
  </clipPath>
</defs>
<path clip-path="url(#clip370)" d="M219.033 1418.94 L2352.76 1418.94 L2352.76 123.472 L219.033 123.472  Z" fill="#ffffff" fill-rule="evenodd" fill-opacity="1"/>
<defs>
  <clipPath id="clip372">
    <rect x="219" y="123" width="2135" height="1296"/>
  </clipPath>
</defs>
<polyline clip-path="url(#clip372)" style="stroke:#000000; stroke-linecap:round; stroke-linejoin:round; stroke-width:2; stroke-opacity:0.1; fill:none" points="481.464,1418.94 481.464,123.472 "/>
<polyline clip-path="url(#clip372)" style="stroke:#000000; stroke-linecap:round; stroke-linejoin:round; stroke-width:2; stroke-opacity:0.1; fill:none" points="780.787,1418.94 780.787,123.472 "/>
<polyline clip-path="url(#clip372)" style="stroke:#000000; stroke-linecap:round; stroke-linejoin:round; stroke-width:2; stroke-opacity:0.1; fill:none" points="1080.11,1418.94 1080.11,123.472 "/>
<polyline clip-path="url(#clip372)" style="stroke:#000000; stroke-linecap:round; stroke-linejoin:round; stroke-width:2; stroke-opacity:0.1; fill:none" points="1379.43,1418.94 1379.43,123.472 "/>
<polyline clip-path="url(#clip372)" style="stroke:#000000; stroke-linecap:round; stroke-linejoin:round; stroke-width:2; stroke-opacity:0.1; fill:none" points="1678.76,1418.94 1678.76,123.472 "/>
<polyline clip-path="url(#clip372)" style="stroke:#000000; stroke-linecap:round; stroke-linejoin:round; stroke-width:2; stroke-opacity:0.1; fill:none" points="1978.08,1418.94 1978.08,123.472 "/>
<polyline clip-path="url(#clip372)" style="stroke:#000000; stroke-linecap:round; stroke-linejoin:round; stroke-width:2; stroke-opacity:0.1; fill:none" points="2277.4,1418.94 2277.4,123.472 "/>
<polyline clip-path="url(#clip372)" style="stroke:#000000; stroke-linecap:round; stroke-linejoin:round; stroke-width:2; stroke-opacity:0.1; fill:none" points="219.033,1352.94 2352.76,1352.94 "/>
<polyline clip-path="url(#clip372)" style="stroke:#000000; stroke-linecap:round; stroke-linejoin:round; stroke-width:2; stroke-opacity:0.1; fill:none" points="219.033,1079.18 2352.76,1079.18 "/>
<polyline clip-path="url(#clip372)" style="stroke:#000000; stroke-linecap:round; stroke-linejoin:round; stroke-width:2; stroke-opacity:0.1; fill:none" points="219.033,805.425 2352.76,805.425 "/>
<polyline clip-path="url(#clip372)" style="stroke:#000000; stroke-linecap:round; stroke-linejoin:round; stroke-width:2; stroke-opacity:0.1; fill:none" points="219.033,531.666 2352.76,531.666 "/>
<polyline clip-path="url(#clip372)" style="stroke:#000000; stroke-linecap:round; stroke-linejoin:round; stroke-width:2; stroke-opacity:0.1; fill:none" points="219.033,257.907 2352.76,257.907 "/>
<polyline clip-path="url(#clip370)" style="stroke:#000000; stroke-linecap:round; stroke-linejoin:round; stroke-width:4; stroke-opacity:1; fill:none" points="219.033,1418.94 2352.76,1418.94 "/>
<polyline clip-path="url(#clip370)" style="stroke:#000000; stroke-linecap:round; stroke-linejoin:round; stroke-width:4; stroke-opacity:1; fill:none" points="481.464,1418.94 481.464,1400.04 "/>
<polyline clip-path="url(#clip370)" style="stroke:#000000; stroke-linecap:round; stroke-linejoin:round; stroke-width:4; stroke-opacity:1; fill:none" points="780.787,1418.94 780.787,1400.04 "/>
<polyline clip-path="url(#clip370)" style="stroke:#000000; stroke-linecap:round; stroke-linejoin:round; stroke-width:4; stroke-opacity:1; fill:none" points="1080.11,1418.94 1080.11,1400.04 "/>
<polyline clip-path="url(#clip370)" style="stroke:#000000; stroke-linecap:round; stroke-linejoin:round; stroke-width:4; stroke-opacity:1; fill:none" points="1379.43,1418.94 1379.43,1400.04 "/>
<polyline clip-path="url(#clip370)" style="stroke:#000000; stroke-linecap:round; stroke-linejoin:round; stroke-width:4; stroke-opacity:1; fill:none" points="1678.76,1418.94 1678.76,1400.04 "/>
<polyline clip-path="url(#clip370)" style="stroke:#000000; stroke-linecap:round; stroke-linejoin:round; stroke-width:4; stroke-opacity:1; fill:none" points="1978.08,1418.94 1978.08,1400.04 "/>
<polyline clip-path="url(#clip370)" style="stroke:#000000; stroke-linecap:round; stroke-linejoin:round; stroke-width:4; stroke-opacity:1; fill:none" points="2277.4,1418.94 2277.4,1400.04 "/>
<path clip-path="url(#clip370)" d="M469.636 1450.85 L457.83 1469.3 L469.636 1469.3 L469.636 1450.85 M468.409 1446.78 L474.288 1446.78 L474.288 1469.3 L479.219 1469.3 L479.219 1473.19 L474.288 1473.19 L474.288 1481.34 L469.636 1481.34 L469.636 1473.19 L454.034 1473.19 L454.034 1468.68 L468.409 1446.78 Z" fill="#000000" fill-rule="nonzero" fill-opacity="1" /><path clip-path="url(#clip370)" d="M496.95 1449.86 Q493.339 1449.86 491.51 1453.42 Q489.705 1456.96 489.705 1464.09 Q489.705 1471.2 491.51 1474.76 Q493.339 1478.31 496.95 1478.31 Q500.585 1478.31 502.39 1474.76 Q504.219 1471.2 504.219 1464.09 Q504.219 1456.96 502.39 1453.42 Q500.585 1449.86 496.95 1449.86 M496.95 1446.15 Q502.76 1446.15 505.816 1450.76 Q508.895 1455.34 508.895 1464.09 Q508.895 1472.82 505.816 1477.43 Q502.76 1482.01 496.95 1482.01 Q491.14 1482.01 488.061 1477.43 Q485.006 1472.82 485.006 1464.09 Q485.006 1455.34 488.061 1450.76 Q491.14 1446.15 496.95 1446.15 Z" fill="#000000" fill-rule="nonzero" fill-opacity="1" /><path clip-path="url(#clip370)" d="M766.192 1462.19 Q763.044 1462.19 761.192 1464.35 Q759.364 1466.5 759.364 1470.25 Q759.364 1473.98 761.192 1476.15 Q763.044 1478.31 766.192 1478.31 Q769.34 1478.31 771.169 1476.15 Q773.021 1473.98 773.021 1470.25 Q773.021 1466.5 771.169 1464.35 Q769.34 1462.19 766.192 1462.19 M775.475 1447.54 L775.475 1451.8 Q773.715 1450.97 771.91 1450.53 Q770.127 1450.09 768.368 1450.09 Q763.739 1450.09 761.285 1453.21 Q758.854 1456.34 758.507 1462.66 Q759.873 1460.64 761.933 1459.58 Q763.993 1458.49 766.47 1458.49 Q771.678 1458.49 774.688 1461.66 Q777.72 1464.81 777.72 1470.25 Q777.72 1475.57 774.572 1478.79 Q771.424 1482.01 766.192 1482.01 Q760.197 1482.01 757.026 1477.43 Q753.854 1472.82 753.854 1464.09 Q753.854 1455.9 757.743 1451.04 Q761.632 1446.15 768.183 1446.15 Q769.942 1446.15 771.725 1446.5 Q773.53 1446.85 775.475 1447.54 Z" fill="#000000" fill-rule="nonzero" fill-opacity="1" /><path clip-path="url(#clip370)" d="M795.775 1449.86 Q792.164 1449.86 790.336 1453.42 Q788.53 1456.96 788.53 1464.09 Q788.53 1471.2 790.336 1474.76 Q792.164 1478.31 795.775 1478.31 Q799.41 1478.31 801.215 1474.76 Q803.044 1471.2 803.044 1464.09 Q803.044 1456.96 801.215 1453.42 Q799.41 1449.86 795.775 1449.86 M795.775 1446.15 Q801.586 1446.15 804.641 1450.76 Q807.72 1455.34 807.72 1464.09 Q807.72 1472.82 804.641 1477.43 Q801.586 1482.01 795.775 1482.01 Q789.965 1482.01 786.887 1477.43 Q783.831 1472.82 783.831 1464.09 Q783.831 1455.34 786.887 1450.76 Q789.965 1446.15 795.775 1446.15 Z" fill="#000000" fill-rule="nonzero" fill-opacity="1" /><path clip-path="url(#clip370)" d="M1064.98 1464.93 Q1061.65 1464.93 1059.73 1466.71 Q1057.83 1468.49 1057.83 1471.62 Q1057.83 1474.74 1059.73 1476.52 Q1061.65 1478.31 1064.98 1478.31 Q1068.32 1478.31 1070.24 1476.52 Q1072.16 1474.72 1072.16 1471.62 Q1072.16 1468.49 1070.24 1466.71 Q1068.34 1464.93 1064.98 1464.93 M1060.31 1462.94 Q1057.3 1462.19 1055.61 1460.13 Q1053.94 1458.07 1053.94 1455.11 Q1053.94 1450.97 1056.88 1448.56 Q1059.84 1446.15 1064.98 1446.15 Q1070.14 1446.15 1073.08 1448.56 Q1076.02 1450.97 1076.02 1455.11 Q1076.02 1458.07 1074.33 1460.13 Q1072.67 1462.19 1069.68 1462.94 Q1073.06 1463.72 1074.94 1466.01 Q1076.83 1468.31 1076.83 1471.62 Q1076.83 1476.64 1073.76 1479.32 Q1070.7 1482.01 1064.98 1482.01 Q1059.27 1482.01 1056.19 1479.32 Q1053.13 1476.64 1053.13 1471.62 Q1053.13 1468.31 1055.03 1466.01 Q1056.93 1463.72 1060.31 1462.94 M1058.59 1455.55 Q1058.59 1458.24 1060.26 1459.74 Q1061.95 1461.25 1064.98 1461.25 Q1067.99 1461.25 1069.68 1459.74 Q1071.39 1458.24 1071.39 1455.55 Q1071.39 1452.87 1069.68 1451.36 Q1067.99 1449.86 1064.98 1449.86 Q1061.95 1449.86 1060.26 1451.36 Q1058.59 1452.87 1058.59 1455.55 Z" fill="#000000" fill-rule="nonzero" fill-opacity="1" /><path clip-path="url(#clip370)" d="M1095.14 1449.86 Q1091.53 1449.86 1089.7 1453.42 Q1087.9 1456.96 1087.9 1464.09 Q1087.9 1471.2 1089.7 1474.76 Q1091.53 1478.31 1095.14 1478.31 Q1098.78 1478.31 1100.58 1474.76 Q1102.41 1471.2 1102.41 1464.09 Q1102.41 1456.96 1100.58 1453.42 Q1098.78 1449.86 1095.14 1449.86 M1095.14 1446.15 Q1100.95 1446.15 1104.01 1450.76 Q1107.09 1455.34 1107.09 1464.09 Q1107.09 1472.82 1104.01 1477.43 Q1100.95 1482.01 1095.14 1482.01 Q1089.33 1482.01 1086.26 1477.43 Q1083.2 1472.82 1083.2 1464.09 Q1083.2 1455.34 1086.26 1450.76 Q1089.33 1446.15 1095.14 1446.15 Z" fill="#000000" fill-rule="nonzero" fill-opacity="1" /><path clip-path="url(#clip370)" d="M1339.04 1477.4 L1346.68 1477.4 L1346.68 1451.04 L1338.37 1452.7 L1338.37 1448.44 L1346.63 1446.78 L1351.31 1446.78 L1351.31 1477.4 L1358.95 1477.4 L1358.95 1481.34 L1339.04 1481.34 L1339.04 1477.4 Z" fill="#000000" fill-rule="nonzero" fill-opacity="1" /><path clip-path="url(#clip370)" d="M1378.39 1449.86 Q1374.78 1449.86 1372.95 1453.42 Q1371.15 1456.96 1371.15 1464.09 Q1371.15 1471.2 1372.95 1474.76 Q1374.78 1478.31 1378.39 1478.31 Q1382.03 1478.31 1383.83 1474.76 Q1385.66 1471.2 1385.66 1464.09 Q1385.66 1456.96 1383.83 1453.42 Q1382.03 1449.86 1378.39 1449.86 M1378.39 1446.15 Q1384.2 1446.15 1387.26 1450.76 Q1390.34 1455.34 1390.34 1464.09 Q1390.34 1472.82 1387.26 1477.43 Q1384.2 1482.01 1378.39 1482.01 Q1372.58 1482.01 1369.5 1477.43 Q1366.45 1472.82 1366.45 1464.09 Q1366.45 1455.34 1369.5 1450.76 Q1372.58 1446.15 1378.39 1446.15 Z" fill="#000000" fill-rule="nonzero" fill-opacity="1" /><path clip-path="url(#clip370)" d="M1408.55 1449.86 Q1404.94 1449.86 1403.11 1453.42 Q1401.31 1456.96 1401.31 1464.09 Q1401.31 1471.2 1403.11 1474.76 Q1404.94 1478.31 1408.55 1478.31 Q1412.19 1478.31 1413.99 1474.76 Q1415.82 1471.2 1415.82 1464.09 Q1415.82 1456.96 1413.99 1453.42 Q1412.19 1449.86 1408.55 1449.86 M1408.55 1446.15 Q1414.36 1446.15 1417.42 1450.76 Q1420.5 1455.34 1420.5 1464.09 Q1420.5 1472.82 1417.42 1477.43 Q1414.36 1482.01 1408.55 1482.01 Q1402.74 1482.01 1399.66 1477.43 Q1396.61 1472.82 1396.61 1464.09 Q1396.61 1455.34 1399.66 1450.76 Q1402.74 1446.15 1408.55 1446.15 Z" fill="#000000" fill-rule="nonzero" fill-opacity="1" /><path clip-path="url(#clip370)" d="M1638.36 1477.4 L1646 1477.4 L1646 1451.04 L1637.69 1452.7 L1637.69 1448.44 L1645.95 1446.78 L1650.63 1446.78 L1650.63 1477.4 L1658.27 1477.4 L1658.27 1481.34 L1638.36 1481.34 L1638.36 1477.4 Z" fill="#000000" fill-rule="nonzero" fill-opacity="1" /><path clip-path="url(#clip370)" d="M1671.74 1477.4 L1688.06 1477.4 L1688.06 1481.34 L1666.12 1481.34 L1666.12 1477.4 Q1668.78 1474.65 1673.36 1470.02 Q1677.97 1465.37 1679.15 1464.02 Q1681.39 1461.5 1682.27 1459.76 Q1683.18 1458 1683.18 1456.32 Q1683.18 1453.56 1681.23 1451.82 Q1679.31 1450.09 1676.21 1450.09 Q1674.01 1450.09 1671.56 1450.85 Q1669.13 1451.62 1666.35 1453.17 L1666.35 1448.44 Q1669.17 1447.31 1671.63 1446.73 Q1674.08 1446.15 1676.12 1446.15 Q1681.49 1446.15 1684.68 1448.84 Q1687.88 1451.52 1687.88 1456.01 Q1687.88 1458.14 1687.07 1460.07 Q1686.28 1461.96 1684.17 1464.56 Q1683.59 1465.23 1680.49 1468.44 Q1677.39 1471.64 1671.74 1477.4 Z" fill="#000000" fill-rule="nonzero" fill-opacity="1" /><path clip-path="url(#clip370)" d="M1707.88 1449.86 Q1704.26 1449.86 1702.44 1453.42 Q1700.63 1456.96 1700.63 1464.09 Q1700.63 1471.2 1702.44 1474.76 Q1704.26 1478.31 1707.88 1478.31 Q1711.51 1478.31 1713.32 1474.76 Q1715.14 1471.2 1715.14 1464.09 Q1715.14 1456.96 1713.32 1453.42 Q1711.51 1449.86 1707.88 1449.86 M1707.88 1446.15 Q1713.69 1446.15 1716.74 1450.76 Q1719.82 1455.34 1719.82 1464.09 Q1719.82 1472.82 1716.74 1477.43 Q1713.69 1482.01 1707.88 1482.01 Q1702.07 1482.01 1698.99 1477.43 Q1695.93 1472.82 1695.93 1464.09 Q1695.93 1455.34 1698.99 1450.76 Q1702.07 1446.15 1707.88 1446.15 Z" fill="#000000" fill-rule="nonzero" fill-opacity="1" /><path clip-path="url(#clip370)" d="M1937.69 1477.4 L1945.32 1477.4 L1945.32 1451.04 L1937.01 1452.7 L1937.01 1448.44 L1945.28 1446.78 L1949.95 1446.78 L1949.95 1477.4 L1957.59 1477.4 L1957.59 1481.34 L1937.69 1481.34 L1937.69 1477.4 Z" fill="#000000" fill-rule="nonzero" fill-opacity="1" /><path clip-path="url(#clip370)" d="M1979.88 1450.85 L1968.08 1469.3 L1979.88 1469.3 L1979.88 1450.85 M1978.66 1446.78 L1984.54 1446.78 L1984.54 1469.3 L1989.47 1469.3 L1989.47 1473.19 L1984.54 1473.19 L1984.54 1481.34 L1979.88 1481.34 L1979.88 1473.19 L1964.28 1473.19 L1964.28 1468.68 L1978.66 1446.78 Z" fill="#000000" fill-rule="nonzero" fill-opacity="1" /><path clip-path="url(#clip370)" d="M2007.2 1449.86 Q2003.59 1449.86 2001.76 1453.42 Q1999.95 1456.96 1999.95 1464.09 Q1999.95 1471.2 2001.76 1474.76 Q2003.59 1478.31 2007.2 1478.31 Q2010.83 1478.31 2012.64 1474.76 Q2014.47 1471.2 2014.47 1464.09 Q2014.47 1456.96 2012.64 1453.42 Q2010.83 1449.86 2007.2 1449.86 M2007.2 1446.15 Q2013.01 1446.15 2016.06 1450.76 Q2019.14 1455.34 2019.14 1464.09 Q2019.14 1472.82 2016.06 1477.43 Q2013.01 1482.01 2007.2 1482.01 Q2001.39 1482.01 1998.31 1477.43 Q1995.25 1472.82 1995.25 1464.09 Q1995.25 1455.34 1998.31 1450.76 Q2001.39 1446.15 2007.2 1446.15 Z" fill="#000000" fill-rule="nonzero" fill-opacity="1" /><path clip-path="url(#clip370)" d="M2237.01 1477.4 L2244.65 1477.4 L2244.65 1451.04 L2236.34 1452.7 L2236.34 1448.44 L2244.6 1446.78 L2249.28 1446.78 L2249.28 1477.4 L2256.92 1477.4 L2256.92 1481.34 L2237.01 1481.34 L2237.01 1477.4 Z" fill="#000000" fill-rule="nonzero" fill-opacity="1" /><path clip-path="url(#clip370)" d="M2276.94 1462.19 Q2273.79 1462.19 2271.94 1464.35 Q2270.11 1466.5 2270.11 1470.25 Q2270.11 1473.98 2271.94 1476.15 Q2273.79 1478.31 2276.94 1478.31 Q2280.09 1478.31 2281.92 1476.15 Q2283.77 1473.98 2283.77 1470.25 Q2283.77 1466.5 2281.92 1464.35 Q2280.09 1462.19 2276.94 1462.19 M2286.22 1447.54 L2286.22 1451.8 Q2284.46 1450.97 2282.66 1450.53 Q2280.87 1450.09 2279.11 1450.09 Q2274.48 1450.09 2272.03 1453.21 Q2269.6 1456.34 2269.25 1462.66 Q2270.62 1460.64 2272.68 1459.58 Q2274.74 1458.49 2277.22 1458.49 Q2282.42 1458.49 2285.43 1461.66 Q2288.47 1464.81 2288.47 1470.25 Q2288.47 1475.57 2285.32 1478.79 Q2282.17 1482.01 2276.94 1482.01 Q2270.94 1482.01 2267.77 1477.43 Q2264.6 1472.82 2264.6 1464.09 Q2264.6 1455.9 2268.49 1451.04 Q2272.38 1446.15 2278.93 1446.15 Q2280.69 1446.15 2282.47 1446.5 Q2284.28 1446.85 2286.22 1447.54 Z" fill="#000000" fill-rule="nonzero" fill-opacity="1" /><path clip-path="url(#clip370)" d="M2306.52 1449.86 Q2302.91 1449.86 2301.08 1453.42 Q2299.28 1456.96 2299.28 1464.09 Q2299.28 1471.2 2301.08 1474.76 Q2302.91 1478.31 2306.52 1478.31 Q2310.16 1478.31 2311.96 1474.76 Q2313.79 1471.2 2313.79 1464.09 Q2313.79 1456.96 2311.96 1453.42 Q2310.16 1449.86 2306.52 1449.86 M2306.52 1446.15 Q2312.33 1446.15 2315.39 1450.76 Q2318.47 1455.34 2318.47 1464.09 Q2318.47 1472.82 2315.39 1477.43 Q2312.33 1482.01 2306.52 1482.01 Q2300.71 1482.01 2297.63 1477.43 Q2294.58 1472.82 2294.58 1464.09 Q2294.58 1455.34 2297.63 1450.76 Q2300.71 1446.15 2306.52 1446.15 Z" fill="#000000" fill-rule="nonzero" fill-opacity="1" /><path clip-path="url(#clip370)" d="M873.647 1541.01 L879.503 1541.01 L879.503 1576.66 L873.647 1576.66 L873.647 1541.01 M873.647 1527.13 L879.503 1527.13 L879.503 1534.55 L873.647 1534.55 L873.647 1527.13 Z" fill="#000000" fill-rule="nonzero" fill-opacity="1" /><path clip-path="url(#clip370)" d="M921.389 1555.14 L921.389 1576.66 L915.533 1576.66 L915.533 1555.33 Q915.533 1550.27 913.56 1547.76 Q911.586 1545.24 907.639 1545.24 Q902.897 1545.24 900.16 1548.27 Q897.422 1551.29 897.422 1556.51 L897.422 1576.66 L891.534 1576.66 L891.534 1541.01 L897.422 1541.01 L897.422 1546.55 Q899.523 1543.33 902.356 1541.74 Q905.22 1540.15 908.944 1540.15 Q915.087 1540.15 918.238 1543.97 Q921.389 1547.76 921.389 1555.14 Z" fill="#000000" fill-rule="nonzero" fill-opacity="1" /><path clip-path="url(#clip370)" d="M928.869 1541.01 L935.076 1541.01 L946.216 1570.93 L957.356 1541.01 L963.562 1541.01 L950.194 1576.66 L942.237 1576.66 L928.869 1541.01 Z" fill="#000000" fill-rule="nonzero" fill-opacity="1" /><path clip-path="url(#clip370)" d="M1002.14 1557.37 L1002.14 1560.23 L975.211 1560.23 Q975.593 1566.28 978.84 1569.46 Q982.118 1572.61 987.943 1572.61 Q991.317 1572.61 994.468 1571.79 Q997.65 1570.96 1000.77 1569.3 L1000.77 1574.84 Q997.619 1576.18 994.309 1576.88 Q990.998 1577.58 987.593 1577.58 Q979.063 1577.58 974.066 1572.61 Q969.1 1567.65 969.1 1559.18 Q969.1 1550.43 973.811 1545.31 Q978.553 1540.15 986.574 1540.15 Q993.767 1540.15 997.937 1544.8 Q1002.14 1549.41 1002.14 1557.37 M996.282 1555.65 Q996.218 1550.84 993.576 1547.98 Q990.967 1545.11 986.638 1545.11 Q981.736 1545.11 978.776 1547.88 Q975.848 1550.65 975.402 1555.68 L996.282 1555.65 Z" fill="#000000" fill-rule="nonzero" fill-opacity="1" /><path clip-path="url(#clip370)" d="M1032.41 1546.48 Q1031.42 1545.91 1030.24 1545.66 Q1029.1 1545.37 1027.7 1545.37 Q1022.73 1545.37 1020.06 1548.62 Q1017.42 1551.83 1017.42 1557.88 L1017.42 1576.66 L1011.53 1576.66 L1011.53 1541.01 L1017.42 1541.01 L1017.42 1546.55 Q1019.26 1543.3 1022.22 1541.74 Q1025.18 1540.15 1029.42 1540.15 Q1030.02 1540.15 1030.75 1540.24 Q1031.48 1540.31 1032.38 1540.47 L1032.41 1546.48 Z" fill="#000000" fill-rule="nonzero" fill-opacity="1" /><path clip-path="url(#clip370)" d="M1061.28 1542.06 L1061.28 1547.6 Q1058.79 1546.32 1056.12 1545.69 Q1053.45 1545.05 1050.58 1545.05 Q1046.22 1545.05 1044.02 1546.39 Q1041.86 1547.72 1041.86 1550.4 Q1041.86 1552.43 1043.42 1553.61 Q1044.98 1554.76 1049.69 1555.81 L1051.7 1556.25 Q1057.93 1557.59 1060.54 1560.04 Q1063.19 1562.46 1063.19 1566.82 Q1063.19 1571.79 1059.24 1574.68 Q1055.32 1577.58 1048.45 1577.58 Q1045.58 1577.58 1042.47 1577.01 Q1039.38 1576.47 1035.94 1575.35 L1035.94 1569.3 Q1039.19 1570.99 1042.34 1571.85 Q1045.49 1572.68 1048.58 1572.68 Q1052.71 1572.68 1054.94 1571.28 Q1057.17 1569.85 1057.17 1567.27 Q1057.17 1564.88 1055.55 1563.61 Q1053.96 1562.33 1048.51 1561.16 L1046.48 1560.68 Q1041.03 1559.53 1038.61 1557.18 Q1036.19 1554.79 1036.19 1550.65 Q1036.19 1545.62 1039.76 1542.89 Q1043.32 1540.15 1049.88 1540.15 Q1053.13 1540.15 1055.99 1540.63 Q1058.86 1541.1 1061.28 1542.06 Z" fill="#000000" fill-rule="nonzero" fill-opacity="1" /><path clip-path="url(#clip370)" d="M1103 1557.37 L1103 1560.23 L1076.08 1560.23 Q1076.46 1566.28 1079.7 1569.46 Q1082.98 1572.61 1088.81 1572.61 Q1092.18 1572.61 1095.33 1571.79 Q1098.52 1570.96 1101.63 1569.3 L1101.63 1574.84 Q1098.48 1576.18 1095.17 1576.88 Q1091.86 1577.58 1088.46 1577.58 Q1079.93 1577.58 1074.93 1572.61 Q1069.96 1567.65 1069.96 1559.18 Q1069.96 1550.43 1074.68 1545.31 Q1079.42 1540.15 1087.44 1540.15 Q1094.63 1540.15 1098.8 1544.8 Q1103 1549.41 1103 1557.37 M1097.15 1555.65 Q1097.08 1550.84 1094.44 1547.98 Q1091.83 1545.11 1087.5 1545.11 Q1082.6 1545.11 1079.64 1547.88 Q1076.71 1550.65 1076.27 1555.68 L1097.15 1555.65 Z" fill="#000000" fill-rule="nonzero" fill-opacity="1" /><path clip-path="url(#clip370)" d="M1129.93 1541.01 L1135.79 1541.01 L1143.11 1568.83 L1150.4 1541.01 L1157.3 1541.01 L1164.62 1568.83 L1171.91 1541.01 L1177.77 1541.01 L1168.44 1576.66 L1161.54 1576.66 L1153.86 1547.44 L1146.16 1576.66 L1139.26 1576.66 L1129.93 1541.01 Z" fill="#000000" fill-rule="nonzero" fill-opacity="1" /><path clip-path="url(#clip370)" d="M1202.85 1558.74 Q1195.75 1558.74 1193.01 1560.36 Q1190.28 1561.98 1190.28 1565.9 Q1190.28 1569.02 1192.31 1570.86 Q1194.38 1572.68 1197.92 1572.68 Q1202.79 1572.68 1205.71 1569.24 Q1208.67 1565.77 1208.67 1560.04 L1208.67 1558.74 L1202.85 1558.74 M1214.53 1556.32 L1214.53 1576.66 L1208.67 1576.66 L1208.67 1571.25 Q1206.67 1574.49 1203.68 1576.05 Q1200.68 1577.58 1196.36 1577.58 Q1190.88 1577.58 1187.64 1574.52 Q1184.42 1571.44 1184.42 1566.28 Q1184.42 1560.26 1188.43 1557.21 Q1192.47 1554.15 1200.46 1554.15 L1208.67 1554.15 L1208.67 1553.58 Q1208.67 1549.54 1206 1547.34 Q1203.36 1545.11 1198.55 1545.11 Q1195.5 1545.11 1192.6 1545.85 Q1189.7 1546.58 1187.03 1548.04 L1187.03 1542.63 Q1190.24 1541.39 1193.27 1540.79 Q1196.29 1540.15 1199.16 1540.15 Q1206.89 1540.15 1210.71 1544.16 Q1214.53 1548.17 1214.53 1556.32 Z" fill="#000000" fill-rule="nonzero" fill-opacity="1" /><path clip-path="url(#clip370)" d="M1222.39 1541.01 L1228.6 1541.01 L1239.74 1570.93 L1250.88 1541.01 L1257.08 1541.01 L1243.72 1576.66 L1235.76 1576.66 L1222.39 1541.01 Z" fill="#000000" fill-rule="nonzero" fill-opacity="1" /><path clip-path="url(#clip370)" d="M1295.66 1557.37 L1295.66 1560.23 L1268.73 1560.23 Q1269.12 1566.28 1272.36 1569.46 Q1275.64 1572.61 1281.47 1572.61 Q1284.84 1572.61 1287.99 1571.79 Q1291.17 1570.96 1294.29 1569.3 L1294.29 1574.84 Q1291.14 1576.18 1287.83 1576.88 Q1284.52 1577.58 1281.12 1577.58 Q1272.59 1577.58 1267.59 1572.61 Q1262.62 1567.65 1262.62 1559.18 Q1262.62 1550.43 1267.33 1545.31 Q1272.08 1540.15 1280.1 1540.15 Q1287.29 1540.15 1291.46 1544.8 Q1295.66 1549.41 1295.66 1557.37 M1289.8 1555.65 Q1289.74 1550.84 1287.1 1547.98 Q1284.49 1545.11 1280.16 1545.11 Q1275.26 1545.11 1272.3 1547.88 Q1269.37 1550.65 1268.93 1555.68 L1289.8 1555.65 Z" fill="#000000" fill-rule="nonzero" fill-opacity="1" /><path clip-path="url(#clip370)" d="M1305.27 1527.13 L1311.13 1527.13 L1311.13 1576.66 L1305.27 1576.66 L1305.27 1527.13 Z" fill="#000000" fill-rule="nonzero" fill-opacity="1" /><path clip-path="url(#clip370)" d="M1353.88 1557.37 L1353.88 1560.23 L1326.95 1560.23 Q1327.33 1566.28 1330.58 1569.46 Q1333.86 1572.61 1339.68 1572.61 Q1343.05 1572.61 1346.2 1571.79 Q1349.39 1570.96 1352.51 1569.3 L1352.51 1574.84 Q1349.36 1576.18 1346.05 1576.88 Q1342.74 1577.58 1339.33 1577.58 Q1330.8 1577.58 1325.8 1572.61 Q1320.84 1567.65 1320.84 1559.18 Q1320.84 1550.43 1325.55 1545.31 Q1330.29 1540.15 1338.31 1540.15 Q1345.5 1540.15 1349.67 1544.8 Q1353.88 1549.41 1353.88 1557.37 M1348.02 1555.65 Q1347.96 1550.84 1345.31 1547.98 Q1342.7 1545.11 1338.37 1545.11 Q1333.47 1545.11 1330.51 1547.88 Q1327.59 1550.65 1327.14 1555.68 L1348.02 1555.65 Z" fill="#000000" fill-rule="nonzero" fill-opacity="1" /><path clip-path="url(#clip370)" d="M1393.12 1555.14 L1393.12 1576.66 L1387.26 1576.66 L1387.26 1555.33 Q1387.26 1550.27 1385.29 1547.76 Q1383.32 1545.24 1379.37 1545.24 Q1374.63 1545.24 1371.89 1548.27 Q1369.15 1551.29 1369.15 1556.51 L1369.15 1576.66 L1363.26 1576.66 L1363.26 1541.01 L1369.15 1541.01 L1369.15 1546.55 Q1371.25 1543.33 1374.09 1541.74 Q1376.95 1540.15 1380.68 1540.15 Q1386.82 1540.15 1389.97 1543.97 Q1393.12 1547.76 1393.12 1555.14 Z" fill="#000000" fill-rule="nonzero" fill-opacity="1" /><path clip-path="url(#clip370)" d="M1428.26 1558.42 Q1428.26 1552.05 1425.62 1548.55 Q1423.01 1545.05 1418.26 1545.05 Q1413.55 1545.05 1410.91 1548.55 Q1408.3 1552.05 1408.3 1558.42 Q1408.3 1564.75 1410.91 1568.25 Q1413.55 1571.75 1418.26 1571.75 Q1423.01 1571.75 1425.62 1568.25 Q1428.26 1564.75 1428.26 1558.42 M1434.12 1572.23 Q1434.12 1581.34 1430.07 1585.76 Q1426.03 1590.22 1417.69 1590.22 Q1414.6 1590.22 1411.87 1589.74 Q1409.13 1589.29 1406.55 1588.34 L1406.55 1582.64 Q1409.13 1584.04 1411.64 1584.71 Q1414.16 1585.38 1416.77 1585.38 Q1422.53 1585.38 1425.39 1582.35 Q1428.26 1579.36 1428.26 1573.28 L1428.26 1570.39 Q1426.44 1573.54 1423.61 1575.1 Q1420.78 1576.66 1416.83 1576.66 Q1410.28 1576.66 1406.27 1571.66 Q1402.25 1566.66 1402.25 1558.42 Q1402.25 1550.14 1406.27 1545.15 Q1410.28 1540.15 1416.83 1540.15 Q1420.78 1540.15 1423.61 1541.71 Q1426.44 1543.27 1428.26 1546.42 L1428.26 1541.01 L1434.12 1541.01 L1434.12 1572.23 Z" fill="#000000" fill-rule="nonzero" fill-opacity="1" /><path clip-path="url(#clip370)" d="M1451.97 1530.89 L1451.97 1541.01 L1464.03 1541.01 L1464.03 1545.56 L1451.97 1545.56 L1451.97 1564.91 Q1451.97 1569.27 1453.15 1570.51 Q1454.36 1571.75 1458.02 1571.75 L1464.03 1571.75 L1464.03 1576.66 L1458.02 1576.66 Q1451.24 1576.66 1448.66 1574.14 Q1446.08 1571.6 1446.08 1564.91 L1446.08 1545.56 L1441.79 1545.56 L1441.79 1541.01 L1446.08 1541.01 L1446.08 1530.89 L1451.97 1530.89 Z" fill="#000000" fill-rule="nonzero" fill-opacity="1" /><path clip-path="url(#clip370)" d="M1501.37 1555.14 L1501.37 1576.66 L1495.51 1576.66 L1495.51 1555.33 Q1495.51 1550.27 1493.54 1547.76 Q1491.57 1545.24 1487.62 1545.24 Q1482.88 1545.24 1480.14 1548.27 Q1477.4 1551.29 1477.4 1556.51 L1477.4 1576.66 L1471.51 1576.66 L1471.51 1527.13 L1477.4 1527.13 L1477.4 1546.55 Q1479.5 1543.33 1482.34 1541.74 Q1485.2 1540.15 1488.92 1540.15 Q1495.07 1540.15 1498.22 1543.97 Q1501.37 1547.76 1501.37 1555.14 Z" fill="#000000" fill-rule="nonzero" fill-opacity="1" /><path clip-path="url(#clip370)" d="M1547.84 1527.19 Q1543.57 1534.52 1541.5 1541.68 Q1539.44 1548.84 1539.44 1556.19 Q1539.44 1563.54 1541.5 1570.77 Q1543.61 1577.96 1547.84 1585.25 L1542.75 1585.25 Q1537.97 1577.77 1535.58 1570.55 Q1533.23 1563.32 1533.23 1556.19 Q1533.23 1549.09 1535.58 1541.9 Q1537.94 1534.71 1542.75 1527.19 L1547.84 1527.19 Z" fill="#000000" fill-rule="nonzero" fill-opacity="1" /><path clip-path="url(#clip370)" d="M1586.96 1547.85 Q1589.15 1543.9 1592.21 1542.03 Q1595.26 1540.15 1599.4 1540.15 Q1604.97 1540.15 1607.99 1544.06 Q1611.02 1547.95 1611.02 1555.14 L1611.02 1576.66 L1605.13 1576.66 L1605.13 1555.33 Q1605.13 1550.21 1603.32 1547.72 Q1601.5 1545.24 1597.78 1545.24 Q1593.23 1545.24 1590.58 1548.27 Q1587.94 1551.29 1587.94 1556.51 L1587.94 1576.66 L1582.05 1576.66 L1582.05 1555.33 Q1582.05 1550.18 1580.24 1547.72 Q1578.43 1545.24 1574.64 1545.24 Q1570.15 1545.24 1567.51 1548.3 Q1564.87 1551.32 1564.87 1556.51 L1564.87 1576.66 L1558.98 1576.66 L1558.98 1541.01 L1564.87 1541.01 L1564.87 1546.55 Q1566.87 1543.27 1569.67 1541.71 Q1572.47 1540.15 1576.33 1540.15 Q1580.21 1540.15 1582.91 1542.12 Q1585.65 1544.1 1586.96 1547.85 Z" fill="#000000" fill-rule="nonzero" fill-opacity="1" /><path clip-path="url(#clip370)" d="M1648.54 1517.28 Q1648.81 1517.55 1648.81 1517.93 Q1648.81 1518.32 1648.54 1518.59 Q1648.27 1518.86 1647.88 1518.86 L1618.98 1518.86 Q1618.6 1518.86 1618.33 1518.59 Q1618.06 1518.32 1618.06 1517.93 Q1618.06 1517.55 1618.33 1517.28 Q1618.6 1517.01 1618.98 1517.01 L1647.88 1517.01 Q1648.27 1517.01 1648.54 1517.28 Z" fill="#000000" fill-rule="nonzero" fill-opacity="1" /><path clip-path="url(#clip370)" d="M1653.63 1503.12 L1653.63 1501.68 Q1659.17 1501.68 1662.04 1498.72 Q1662.83 1498.72 1662.96 1498.9 Q1663.1 1499.09 1663.1 1499.92 L1663.1 1525.82 Q1663.1 1527.2 1663.77 1527.63 Q1664.45 1528.05 1667.4 1528.05 L1668.87 1528.05 L1668.87 1529.47 Q1667.24 1529.34 1661.38 1529.34 Q1655.52 1529.34 1653.92 1529.47 L1653.92 1528.05 L1655.39 1528.05 Q1658.29 1528.05 1658.99 1527.65 Q1659.69 1527.22 1659.69 1525.82 L1659.69 1501.9 Q1657.28 1503.12 1653.63 1503.12 Z" fill="#000000" fill-rule="nonzero" fill-opacity="1" /><path clip-path="url(#clip370)" d="M1683.53 1527.19 L1688.63 1527.19 Q1693.4 1534.71 1695.76 1541.9 Q1698.14 1549.09 1698.14 1556.19 Q1698.14 1563.32 1695.76 1570.55 Q1693.4 1577.77 1688.63 1585.25 L1683.53 1585.25 Q1687.77 1577.96 1689.84 1570.77 Q1691.94 1563.54 1691.94 1556.19 Q1691.94 1548.84 1689.84 1541.68 Q1687.77 1534.52 1683.53 1527.19 Z" fill="#000000" fill-rule="nonzero" fill-opacity="1" /><polyline clip-path="url(#clip370)" style="stroke:#000000; stroke-linecap:round; stroke-linejoin:round; stroke-width:4; stroke-opacity:1; fill:none" points="219.033,1418.94 219.033,123.472 "/>
<polyline clip-path="url(#clip370)" style="stroke:#000000; stroke-linecap:round; stroke-linejoin:round; stroke-width:4; stroke-opacity:1; fill:none" points="219.033,1352.94 237.931,1352.94 "/>
<polyline clip-path="url(#clip370)" style="stroke:#000000; stroke-linecap:round; stroke-linejoin:round; stroke-width:4; stroke-opacity:1; fill:none" points="219.033,1079.18 237.931,1079.18 "/>
<polyline clip-path="url(#clip370)" style="stroke:#000000; stroke-linecap:round; stroke-linejoin:round; stroke-width:4; stroke-opacity:1; fill:none" points="219.033,805.425 237.931,805.425 "/>
<polyline clip-path="url(#clip370)" style="stroke:#000000; stroke-linecap:round; stroke-linejoin:round; stroke-width:4; stroke-opacity:1; fill:none" points="219.033,531.666 237.931,531.666 "/>
<polyline clip-path="url(#clip370)" style="stroke:#000000; stroke-linecap:round; stroke-linejoin:round; stroke-width:4; stroke-opacity:1; fill:none" points="219.033,257.907 237.931,257.907 "/>
<path clip-path="url(#clip370)" d="M126.853 1338.74 Q123.242 1338.74 121.413 1342.31 Q119.607 1345.85 119.607 1352.98 Q119.607 1360.08 121.413 1363.65 Q123.242 1367.19 126.853 1367.19 Q130.487 1367.19 132.292 1363.65 Q134.121 1360.08 134.121 1352.98 Q134.121 1345.85 132.292 1342.31 Q130.487 1338.74 126.853 1338.74 M126.853 1335.04 Q132.663 1335.04 135.718 1339.64 Q138.797 1344.23 138.797 1352.98 Q138.797 1361.7 135.718 1366.31 Q132.663 1370.89 126.853 1370.89 Q121.043 1370.89 117.964 1366.31 Q114.908 1361.7 114.908 1352.98 Q114.908 1344.23 117.964 1339.64 Q121.043 1335.04 126.853 1335.04 Z" fill="#000000" fill-rule="nonzero" fill-opacity="1" /><path clip-path="url(#clip370)" d="M147.015 1364.34 L151.899 1364.34 L151.899 1370.22 L147.015 1370.22 L147.015 1364.34 Z" fill="#000000" fill-rule="nonzero" fill-opacity="1" /><path clip-path="url(#clip370)" d="M162.13 1335.66 L180.487 1335.66 L180.487 1339.6 L166.413 1339.6 L166.413 1348.07 Q167.431 1347.72 168.45 1347.56 Q169.468 1347.38 170.487 1347.38 Q176.274 1347.38 179.653 1350.55 Q183.033 1353.72 183.033 1359.13 Q183.033 1364.71 179.561 1367.82 Q176.089 1370.89 169.769 1370.89 Q167.593 1370.89 165.325 1370.52 Q163.079 1370.15 160.672 1369.41 L160.672 1364.71 Q162.755 1365.85 164.977 1366.4 Q167.2 1366.96 169.677 1366.96 Q173.681 1366.96 176.019 1364.85 Q178.357 1362.75 178.357 1359.13 Q178.357 1355.52 176.019 1353.42 Q173.681 1351.31 169.677 1351.31 Q167.802 1351.31 165.927 1351.73 Q164.075 1352.14 162.13 1353.02 L162.13 1335.66 Z" fill="#000000" fill-rule="nonzero" fill-opacity="1" /><path clip-path="url(#clip370)" d="M116.668 1092.53 L124.306 1092.53 L124.306 1066.16 L115.996 1067.83 L115.996 1063.57 L124.26 1061.9 L128.936 1061.9 L128.936 1092.53 L136.575 1092.53 L136.575 1096.46 L116.668 1096.46 L116.668 1092.53 Z" fill="#000000" fill-rule="nonzero" fill-opacity="1" /><path clip-path="url(#clip370)" d="M146.019 1090.58 L150.903 1090.58 L150.903 1096.46 L146.019 1096.46 L146.019 1090.58 Z" fill="#000000" fill-rule="nonzero" fill-opacity="1" /><path clip-path="url(#clip370)" d="M171.089 1064.98 Q167.477 1064.98 165.649 1068.55 Q163.843 1072.09 163.843 1079.22 Q163.843 1086.32 165.649 1089.89 Q167.477 1093.43 171.089 1093.43 Q174.723 1093.43 176.528 1089.89 Q178.357 1086.32 178.357 1079.22 Q178.357 1072.09 176.528 1068.55 Q174.723 1064.98 171.089 1064.98 M171.089 1061.28 Q176.899 1061.28 179.954 1065.89 Q183.033 1070.47 183.033 1079.22 Q183.033 1087.95 179.954 1092.55 Q176.899 1097.14 171.089 1097.14 Q165.278 1097.14 162.2 1092.55 Q159.144 1087.95 159.144 1079.22 Q159.144 1070.47 162.2 1065.89 Q165.278 1061.28 171.089 1061.28 Z" fill="#000000" fill-rule="nonzero" fill-opacity="1" /><path clip-path="url(#clip370)" d="M117.663 818.77 L125.302 818.77 L125.302 792.404 L116.992 794.071 L116.992 789.812 L125.255 788.145 L129.931 788.145 L129.931 818.77 L137.57 818.77 L137.57 822.705 L117.663 822.705 L117.663 818.77 Z" fill="#000000" fill-rule="nonzero" fill-opacity="1" /><path clip-path="url(#clip370)" d="M147.015 816.825 L151.899 816.825 L151.899 822.705 L147.015 822.705 L147.015 816.825 Z" fill="#000000" fill-rule="nonzero" fill-opacity="1" /><path clip-path="url(#clip370)" d="M162.13 788.145 L180.487 788.145 L180.487 792.08 L166.413 792.08 L166.413 800.552 Q167.431 800.205 168.45 800.043 Q169.468 799.858 170.487 799.858 Q176.274 799.858 179.653 803.029 Q183.033 806.2 183.033 811.617 Q183.033 817.196 179.561 820.298 Q176.089 823.376 169.769 823.376 Q167.593 823.376 165.325 823.006 Q163.079 822.636 160.672 821.895 L160.672 817.196 Q162.755 818.33 164.977 818.886 Q167.2 819.441 169.677 819.441 Q173.681 819.441 176.019 817.335 Q178.357 815.228 178.357 811.617 Q178.357 808.006 176.019 805.899 Q173.681 803.793 169.677 803.793 Q167.802 803.793 165.927 804.21 Q164.075 804.626 162.13 805.506 L162.13 788.145 Z" fill="#000000" fill-rule="nonzero" fill-opacity="1" /><path clip-path="url(#clip370)" d="M119.885 545.011 L136.204 545.011 L136.204 548.946 L114.26 548.946 L114.26 545.011 Q116.922 542.256 121.505 537.627 Q126.112 532.974 127.292 531.631 Q129.538 529.108 130.417 527.372 Q131.32 525.613 131.32 523.923 Q131.32 521.168 129.376 519.432 Q127.455 517.696 124.353 517.696 Q122.154 517.696 119.7 518.46 Q117.269 519.224 114.492 520.775 L114.492 516.053 Q117.316 514.919 119.769 514.34 Q122.223 513.761 124.26 513.761 Q129.63 513.761 132.825 516.446 Q136.019 519.131 136.019 523.622 Q136.019 525.752 135.209 527.673 Q134.422 529.571 132.316 532.164 Q131.737 532.835 128.635 536.053 Q125.533 539.247 119.885 545.011 Z" fill="#000000" fill-rule="nonzero" fill-opacity="1" /><path clip-path="url(#clip370)" d="M146.019 543.067 L150.903 543.067 L150.903 548.946 L146.019 548.946 L146.019 543.067 Z" fill="#000000" fill-rule="nonzero" fill-opacity="1" /><path clip-path="url(#clip370)" d="M171.089 517.465 Q167.477 517.465 165.649 521.03 Q163.843 524.571 163.843 531.701 Q163.843 538.807 165.649 542.372 Q167.477 545.914 171.089 545.914 Q174.723 545.914 176.528 542.372 Q178.357 538.807 178.357 531.701 Q178.357 524.571 176.528 521.03 Q174.723 517.465 171.089 517.465 M171.089 513.761 Q176.899 513.761 179.954 518.368 Q183.033 522.951 183.033 531.701 Q183.033 540.428 179.954 545.034 Q176.899 549.617 171.089 549.617 Q165.278 549.617 162.2 545.034 Q159.144 540.428 159.144 531.701 Q159.144 522.951 162.2 518.368 Q165.278 513.761 171.089 513.761 Z" fill="#000000" fill-rule="nonzero" fill-opacity="1" /><path clip-path="url(#clip370)" d="M120.88 271.252 L137.2 271.252 L137.2 275.187 L115.256 275.187 L115.256 271.252 Q117.918 268.497 122.501 263.868 Q127.107 259.215 128.288 257.873 Q130.533 255.349 131.413 253.613 Q132.316 251.854 132.316 250.164 Q132.316 247.41 130.371 245.674 Q128.45 243.937 125.348 243.937 Q123.149 243.937 120.695 244.701 Q118.265 245.465 115.487 247.016 L115.487 242.294 Q118.311 241.16 120.765 240.581 Q123.218 240.002 125.255 240.002 Q130.626 240.002 133.82 242.687 Q137.015 245.373 137.015 249.863 Q137.015 251.993 136.204 253.914 Q135.417 255.812 133.311 258.405 Q132.732 259.076 129.63 262.294 Q126.529 265.488 120.88 271.252 Z" fill="#000000" fill-rule="nonzero" fill-opacity="1" /><path clip-path="url(#clip370)" d="M147.015 269.308 L151.899 269.308 L151.899 275.187 L147.015 275.187 L147.015 269.308 Z" fill="#000000" fill-rule="nonzero" fill-opacity="1" /><path clip-path="url(#clip370)" d="M162.13 240.627 L180.487 240.627 L180.487 244.562 L166.413 244.562 L166.413 253.035 Q167.431 252.687 168.45 252.525 Q169.468 252.34 170.487 252.34 Q176.274 252.34 179.653 255.511 Q183.033 258.683 183.033 264.099 Q183.033 269.678 179.561 272.78 Q176.089 275.859 169.769 275.859 Q167.593 275.859 165.325 275.488 Q163.079 275.118 160.672 274.377 L160.672 269.678 Q162.755 270.812 164.977 271.368 Q167.2 271.923 169.677 271.923 Q173.681 271.923 176.019 269.817 Q178.357 267.71 178.357 264.099 Q178.357 260.488 176.019 258.382 Q173.681 256.275 169.677 256.275 Q167.802 256.275 165.927 256.692 Q164.075 257.109 162.13 257.988 L162.13 240.627 Z" fill="#000000" fill-rule="nonzero" fill-opacity="1" /><path clip-path="url(#clip370)" d="M14.479 985.841 L19.3487 985.841 L19.3487 991.443 Q19.3487 994.594 20.6219 995.835 Q21.895 997.044 25.2052 997.044 L28.3562 997.044 L28.3562 987.4 L32.9077 987.4 L32.9077 997.044 L64.0042 997.044 L64.0042 1002.93 L32.9077 1002.93 L32.9077 1008.53 L28.3562 1008.53 L28.3562 1002.93 L25.8736 1002.93 Q19.9216 1002.93 17.2162 1000.16 Q14.479 997.395 14.479 991.379 L14.479 985.841 Z" fill="#000000" fill-rule="nonzero" fill-opacity="1" /><path clip-path="url(#clip370)" d="M33.8307 960.283 Q33.2578 961.269 33.0032 962.447 Q32.7167 963.593 32.7167 964.993 Q32.7167 969.958 35.9632 972.632 Q39.1779 975.274 45.2253 975.274 L64.0042 975.274 L64.0042 981.162 L28.3562 981.162 L28.3562 975.274 L33.8944 975.274 Q30.6479 973.428 29.0883 970.468 Q27.4968 967.508 27.4968 963.274 Q27.4968 962.67 27.5923 961.938 Q27.656 961.206 27.8151 960.314 L33.8307 960.283 Z" fill="#000000" fill-rule="nonzero" fill-opacity="1" /><path clip-path="url(#clip370)" d="M44.7161 925.08 L47.5806 925.08 L47.5806 952.007 Q53.6281 951.625 56.8109 948.379 Q59.9619 945.1 59.9619 939.276 Q59.9619 935.902 59.1344 932.751 Q58.3069 929.568 56.6518 926.449 L62.1899 926.449 Q63.5267 929.6 64.227 932.91 Q64.9272 936.22 64.9272 939.626 Q64.9272 948.156 59.9619 953.153 Q54.9967 958.118 46.5303 958.118 Q37.7774 958.118 32.6531 953.408 Q27.4968 948.665 27.4968 940.644 Q27.4968 933.451 32.1438 929.282 Q36.7589 925.08 44.7161 925.08 M42.9973 930.937 Q38.1912 931 35.3266 933.642 Q32.4621 936.252 32.4621 940.581 Q32.4621 945.482 35.2312 948.442 Q38.0002 951.371 43.0292 951.816 L42.9973 930.937 Z" fill="#000000" fill-rule="nonzero" fill-opacity="1" /><path clip-path="url(#clip370)" d="M46.212 911.967 Q52.6732 911.967 56.3653 909.325 Q60.0256 906.651 60.0256 902.004 Q60.0256 897.357 56.3653 894.684 Q52.6732 892.01 46.212 892.01 Q39.7508 892.01 36.0905 894.684 Q32.3984 897.357 32.3984 902.004 Q32.3984 906.651 36.0905 909.325 Q39.7508 911.967 46.212 911.967 M58.657 892.01 Q61.8398 893.856 63.3994 896.689 Q64.9272 899.49 64.9272 903.437 Q64.9272 909.898 59.771 913.972 Q54.6147 918.014 46.212 918.014 Q37.8093 918.014 32.6531 913.972 Q27.4968 909.898 27.4968 903.437 Q27.4968 899.49 29.0564 896.689 Q30.5842 893.856 33.7671 892.01 L28.3562 892.01 L28.3562 886.154 L77.5631 886.154 L77.5631 892.01 L58.657 892.01 Z" fill="#000000" fill-rule="nonzero" fill-opacity="1" /><path clip-path="url(#clip370)" d="M49.9359 874.696 L28.3562 874.696 L28.3562 868.839 L49.7131 868.839 Q54.7739 868.839 57.3202 866.866 Q59.8346 864.892 59.8346 860.946 Q59.8346 856.203 56.8109 853.466 Q53.7872 850.697 48.5673 850.697 L28.3562 850.697 L28.3562 844.84 L64.0042 844.84 L64.0042 850.697 L58.5296 850.697 Q61.7762 852.829 63.3676 855.662 Q64.9272 858.463 64.9272 862.187 Q64.9272 868.33 61.1078 871.513 Q57.2883 874.696 49.9359 874.696 M27.4968 859.959 L27.4968 859.959 Z" fill="#000000" fill-rule="nonzero" fill-opacity="1" /><path clip-path="url(#clip370)" d="M44.7161 802.286 L47.5806 802.286 L47.5806 829.213 Q53.6281 828.831 56.8109 825.584 Q59.9619 822.306 59.9619 816.481 Q59.9619 813.107 59.1344 809.956 Q58.3069 806.773 56.6518 803.654 L62.1899 803.654 Q63.5267 806.805 64.227 810.115 Q64.9272 813.426 64.9272 816.831 Q64.9272 825.361 59.9619 830.358 Q54.9967 835.324 46.5303 835.324 Q37.7774 835.324 32.6531 830.613 Q27.4968 825.871 27.4968 817.85 Q27.4968 810.657 32.1438 806.487 Q36.7589 802.286 44.7161 802.286 M42.9973 808.142 Q38.1912 808.206 35.3266 810.848 Q32.4621 813.457 32.4621 817.786 Q32.4621 822.688 35.2312 825.648 Q38.0002 828.576 43.0292 829.022 L42.9973 808.142 Z" fill="#000000" fill-rule="nonzero" fill-opacity="1" /><path clip-path="url(#clip370)" d="M42.4881 763.041 L64.0042 763.041 L64.0042 768.898 L42.679 768.898 Q37.6183 768.898 35.1038 770.871 Q32.5894 772.844 32.5894 776.791 Q32.5894 781.533 35.6131 784.271 Q38.6368 787.008 43.8567 787.008 L64.0042 787.008 L64.0042 792.896 L28.3562 792.896 L28.3562 787.008 L33.8944 787.008 Q30.6797 784.907 29.0883 782.075 Q27.4968 779.21 27.4968 775.486 Q27.4968 769.343 31.3163 766.192 Q35.1038 763.041 42.4881 763.041 Z" fill="#000000" fill-rule="nonzero" fill-opacity="1" /><path clip-path="url(#clip370)" d="M29.7248 725.706 L35.1993 725.706 Q33.8307 728.189 33.1623 730.703 Q32.4621 733.186 32.4621 735.732 Q32.4621 741.43 36.0905 744.581 Q39.6872 747.732 46.212 747.732 Q52.7369 747.732 56.3653 744.581 Q59.9619 741.43 59.9619 735.732 Q59.9619 733.186 59.2935 730.703 Q58.5933 728.189 57.2247 725.706 L62.6355 725.706 Q63.7814 728.157 64.3543 730.799 Q64.9272 733.409 64.9272 736.369 Q64.9272 744.421 59.8664 749.164 Q54.8057 753.906 46.212 753.906 Q37.491 753.906 32.4939 749.132 Q27.4968 744.326 27.4968 735.987 Q27.4968 733.281 28.0697 730.703 Q28.6108 728.125 29.7248 725.706 Z" fill="#000000" fill-rule="nonzero" fill-opacity="1" /><path clip-path="url(#clip370)" d="M67.3143 700.689 Q73.68 703.172 75.6216 705.527 Q77.5631 707.882 77.5631 711.829 L77.5631 716.508 L72.6615 716.508 L72.6615 713.07 Q72.6615 710.651 71.5157 709.315 Q70.3699 707.978 66.1048 706.354 L63.4312 705.304 L28.3562 719.722 L28.3562 713.516 L56.238 702.376 L28.3562 691.236 L28.3562 685.029 L67.3143 700.689 Z" fill="#000000" fill-rule="nonzero" fill-opacity="1" /><path clip-path="url(#clip370)" d="M14.5426 642.156 Q21.8632 646.421 29.0246 648.49 Q36.186 650.559 43.5384 650.559 Q50.8908 650.559 58.1159 648.49 Q65.3091 646.39 72.5979 642.156 L72.5979 647.249 Q65.1182 652.023 57.8931 654.41 Q50.668 656.766 43.5384 656.766 Q36.4406 656.766 29.2474 654.41 Q22.0542 652.055 14.5426 647.249 L14.5426 642.156 Z" fill="#000000" fill-rule="nonzero" fill-opacity="1" /><path clip-path="url(#clip370)" d="M16.4842 630.539 L16.4842 624.11 L35.9632 624.11 L35.9632 600.747 L16.4842 600.747 L16.4842 594.318 L64.0042 594.318 L64.0042 600.747 L41.3741 600.747 L41.3741 624.11 L64.0042 624.11 L64.0042 630.539 L16.4842 630.539 Z" fill="#000000" fill-rule="nonzero" fill-opacity="1" /><path clip-path="url(#clip370)" d="M28.3562 584.324 L28.3562 556.506 L33.7034 556.506 L59.3254 578.531 L59.3254 556.506 L64.0042 556.506 L64.0042 585.12 L58.657 585.12 L33.035 563.094 L33.035 584.324 L28.3562 584.324 Z" fill="#000000" fill-rule="nonzero" fill-opacity="1" /><path clip-path="url(#clip370)" d="M14.5426 548.485 L14.5426 543.392 Q22.0542 538.618 29.2474 536.263 Q36.4406 533.876 43.5384 533.876 Q50.668 533.876 57.8931 536.263 Q65.1182 538.618 72.5979 543.392 L72.5979 548.485 Q65.3091 544.252 58.1159 542.183 Q50.8908 540.082 43.5384 540.082 Q36.186 540.082 29.0246 542.183 Q21.8632 544.252 14.5426 548.485 Z" fill="#000000" fill-rule="nonzero" fill-opacity="1" /><path clip-path="url(#clip370)" d="M813.498 12.096 L821.681 12.096 L821.681 65.6895 L851.131 65.6895 L851.131 72.576 L813.498 72.576 L813.498 12.096 Z" fill="#000000" fill-rule="nonzero" fill-opacity="1" /><path clip-path="url(#clip370)" d="M859.395 27.2059 L866.849 27.2059 L866.849 72.576 L859.395 72.576 L859.395 27.2059 M859.395 9.54393 L866.849 9.54393 L866.849 18.9825 L859.395 18.9825 L859.395 9.54393 Z" fill="#000000" fill-rule="nonzero" fill-opacity="1" /><path clip-path="url(#clip370)" d="M920.159 45.1919 L920.159 72.576 L912.705 72.576 L912.705 45.4349 Q912.705 38.994 910.193 35.7938 Q907.682 32.5936 902.659 32.5936 Q896.623 32.5936 893.139 36.4419 Q889.655 40.2903 889.655 46.9338 L889.655 72.576 L882.161 72.576 L882.161 27.2059 L889.655 27.2059 L889.655 34.2544 Q892.329 30.163 895.934 28.1376 Q899.58 26.1121 904.319 26.1121 Q912.138 26.1121 916.148 30.9732 Q920.159 35.7938 920.159 45.1919 Z" fill="#000000" fill-rule="nonzero" fill-opacity="1" /><path clip-path="url(#clip370)" d="M973.833 48.0275 L973.833 51.6733 L939.562 51.6733 Q940.048 59.3701 944.18 63.421 Q948.353 67.4314 955.766 67.4314 Q960.06 67.4314 964.07 66.3781 Q968.121 65.3249 972.091 63.2184 L972.091 70.267 Q968.081 71.9684 963.868 72.8596 Q959.655 73.7508 955.32 73.7508 Q944.464 73.7508 938.104 67.4314 Q931.785 61.1119 931.785 50.3365 Q931.785 39.1965 937.78 32.6746 Q943.816 26.1121 954.024 26.1121 Q963.179 26.1121 968.486 32.0264 Q973.833 37.9003 973.833 48.0275 M966.379 45.84 Q966.298 39.7232 962.936 36.0774 Q959.614 32.4315 954.105 32.4315 Q947.867 32.4315 944.099 35.9558 Q940.373 39.4801 939.805 45.8805 L966.379 45.84 Z" fill="#000000" fill-rule="nonzero" fill-opacity="1" /><path clip-path="url(#clip370)" d="M1006.69 49.7694 Q997.652 49.7694 994.169 51.8354 Q990.685 53.9013 990.685 58.8839 Q990.685 62.8538 993.277 65.2034 Q995.91 67.5124 1000.41 67.5124 Q1006.6 67.5124 1010.33 63.1374 Q1014.1 58.7219 1014.1 51.4303 L1014.1 49.7694 L1006.69 49.7694 M1021.55 46.6907 L1021.55 72.576 L1014.1 72.576 L1014.1 65.6895 Q1011.55 69.8214 1007.74 71.8063 Q1003.93 73.7508 998.422 73.7508 Q991.454 73.7508 987.323 69.8619 Q983.231 65.9325 983.231 59.3701 Q983.231 51.7138 988.335 47.825 Q993.48 43.9361 1003.65 43.9361 L1014.1 43.9361 L1014.1 43.2069 Q1014.1 38.0623 1010.7 35.2672 Q1007.33 32.4315 1001.22 32.4315 Q997.328 32.4315 993.642 33.3632 Q989.956 34.295 986.553 36.1584 L986.553 29.2718 Q990.644 27.692 994.493 26.9223 Q998.341 26.1121 1001.99 26.1121 Q1011.83 26.1121 1016.69 31.2163 Q1021.55 36.3204 1021.55 46.6907 Z" fill="#000000" fill-rule="nonzero" fill-opacity="1" /><path clip-path="url(#clip370)" d="M1063.2 34.1734 Q1061.94 33.4443 1060.44 33.1202 Q1058.98 32.7556 1057.2 32.7556 Q1050.88 32.7556 1047.48 36.8875 Q1044.12 40.9789 1044.12 48.6757 L1044.12 72.576 L1036.62 72.576 L1036.62 27.2059 L1044.12 27.2059 L1044.12 34.2544 Q1046.47 30.1225 1050.23 28.1376 Q1054 26.1121 1059.39 26.1121 Q1060.16 26.1121 1061.09 26.2337 Q1062.02 26.3147 1063.16 26.5172 L1063.2 34.1734 Z" fill="#000000" fill-rule="nonzero" fill-opacity="1" /><path clip-path="url(#clip370)" d="M1071.01 27.2059 L1078.47 27.2059 L1078.47 72.576 L1071.01 72.576 L1071.01 27.2059 M1071.01 9.54393 L1078.47 9.54393 L1078.47 18.9825 L1071.01 18.9825 L1071.01 9.54393 Z" fill="#000000" fill-rule="nonzero" fill-opacity="1" /><path clip-path="url(#clip370)" d="M1090.82 27.2059 L1126.23 27.2059 L1126.23 34.0114 L1098.2 66.6212 L1126.23 66.6212 L1126.23 72.576 L1089.81 72.576 L1089.81 65.7705 L1117.84 33.1607 L1090.82 33.1607 L1090.82 27.2059 Z" fill="#000000" fill-rule="nonzero" fill-opacity="1" /><path clip-path="url(#clip370)" d="M1158.23 49.7694 Q1149.2 49.7694 1145.71 51.8354 Q1142.23 53.9013 1142.23 58.8839 Q1142.23 62.8538 1144.82 65.2034 Q1147.45 67.5124 1151.95 67.5124 Q1158.15 67.5124 1161.88 63.1374 Q1165.64 58.7219 1165.64 51.4303 L1165.64 49.7694 L1158.23 49.7694 M1173.1 46.6907 L1173.1 72.576 L1165.64 72.576 L1165.64 65.6895 Q1163.09 69.8214 1159.28 71.8063 Q1155.48 73.7508 1149.97 73.7508 Q1143 73.7508 1138.87 69.8619 Q1134.78 65.9325 1134.78 59.3701 Q1134.78 51.7138 1139.88 47.825 Q1145.02 43.9361 1155.19 43.9361 L1165.64 43.9361 L1165.64 43.2069 Q1165.64 38.0623 1162.24 35.2672 Q1158.88 32.4315 1152.76 32.4315 Q1148.87 32.4315 1145.19 33.3632 Q1141.5 34.295 1138.1 36.1584 L1138.1 29.2718 Q1142.19 27.692 1146.04 26.9223 Q1149.89 26.1121 1153.53 26.1121 Q1163.37 26.1121 1168.24 31.2163 Q1173.1 36.3204 1173.1 46.6907 Z" fill="#000000" fill-rule="nonzero" fill-opacity="1" /><path clip-path="url(#clip370)" d="M1195.82 14.324 L1195.82 27.2059 L1211.18 27.2059 L1211.18 32.9987 L1195.82 32.9987 L1195.82 57.6282 Q1195.82 63.1779 1197.32 64.7578 Q1198.86 66.3376 1203.52 66.3376 L1211.18 66.3376 L1211.18 72.576 L1203.52 72.576 Q1194.89 72.576 1191.61 69.3758 Q1188.33 66.1351 1188.33 57.6282 L1188.33 32.9987 L1182.86 32.9987 L1182.86 27.2059 L1188.33 27.2059 L1188.33 14.324 L1195.82 14.324 Z" fill="#000000" fill-rule="nonzero" fill-opacity="1" /><path clip-path="url(#clip370)" d="M1220.98 27.2059 L1228.43 27.2059 L1228.43 72.576 L1220.98 72.576 L1220.98 27.2059 M1220.98 9.54393 L1228.43 9.54393 L1228.43 18.9825 L1220.98 18.9825 L1220.98 9.54393 Z" fill="#000000" fill-rule="nonzero" fill-opacity="1" /><path clip-path="url(#clip370)" d="M1261.61 32.4315 Q1255.61 32.4315 1252.13 37.1306 Q1248.65 41.7891 1248.65 49.9314 Q1248.65 58.0738 1252.09 62.7728 Q1255.57 67.4314 1261.61 67.4314 Q1267.56 67.4314 1271.05 62.7323 Q1274.53 58.0333 1274.53 49.9314 Q1274.53 41.8701 1271.05 37.1711 Q1267.56 32.4315 1261.61 32.4315 M1261.61 26.1121 Q1271.33 26.1121 1276.88 32.4315 Q1282.43 38.7509 1282.43 49.9314 Q1282.43 61.0714 1276.88 67.4314 Q1271.33 73.7508 1261.61 73.7508 Q1251.85 73.7508 1246.3 67.4314 Q1240.79 61.0714 1240.79 49.9314 Q1240.79 38.7509 1246.3 32.4315 Q1251.85 26.1121 1261.61 26.1121 Z" fill="#000000" fill-rule="nonzero" fill-opacity="1" /><path clip-path="url(#clip370)" d="M1332.5 45.1919 L1332.5 72.576 L1325.05 72.576 L1325.05 45.4349 Q1325.05 38.994 1322.53 35.7938 Q1320.02 32.5936 1315 32.5936 Q1308.96 32.5936 1305.48 36.4419 Q1302 40.2903 1302 46.9338 L1302 72.576 L1294.5 72.576 L1294.5 27.2059 L1302 27.2059 L1302 34.2544 Q1304.67 30.163 1308.28 28.1376 Q1311.92 26.1121 1316.66 26.1121 Q1324.48 26.1121 1328.49 30.9732 Q1332.5 35.7938 1332.5 45.1919 Z" fill="#000000" fill-rule="nonzero" fill-opacity="1" /><path clip-path="url(#clip370)" d="M1391.32 32.4315 Q1385.32 32.4315 1381.84 37.1306 Q1378.36 41.7891 1378.36 49.9314 Q1378.36 58.0738 1381.8 62.7728 Q1385.28 67.4314 1391.32 67.4314 Q1397.27 67.4314 1400.76 62.7323 Q1404.24 58.0333 1404.24 49.9314 Q1404.24 41.8701 1400.76 37.1711 Q1397.27 32.4315 1391.32 32.4315 M1391.32 26.1121 Q1401.04 26.1121 1406.59 32.4315 Q1412.14 38.7509 1412.14 49.9314 Q1412.14 61.0714 1406.59 67.4314 Q1401.04 73.7508 1391.32 73.7508 Q1381.56 73.7508 1376.01 67.4314 Q1370.5 61.0714 1370.5 49.9314 Q1370.5 38.7509 1376.01 32.4315 Q1381.56 26.1121 1391.32 26.1121 Z" fill="#000000" fill-rule="nonzero" fill-opacity="1" /><path clip-path="url(#clip370)" d="M1447.46 9.54393 L1447.46 15.7418 L1440.34 15.7418 Q1436.32 15.7418 1434.74 17.3622 Q1433.21 18.9825 1433.21 23.1955 L1433.21 27.2059 L1445.48 27.2059 L1445.48 32.9987 L1433.21 32.9987 L1433.21 72.576 L1425.71 72.576 L1425.71 32.9987 L1418.58 32.9987 L1418.58 27.2059 L1425.71 27.2059 L1425.71 24.0462 Q1425.71 16.471 1429.24 13.0277 Q1432.76 9.54393 1440.42 9.54393 L1447.46 9.54393 Z" fill="#000000" fill-rule="nonzero" fill-opacity="1" /><path clip-path="url(#clip370)" d="M1472.01 12.096 L1523.18 12.096 L1523.18 18.9825 L1501.71 18.9825 L1501.71 72.576 L1493.48 72.576 L1493.48 18.9825 L1472.01 18.9825 L1472.01 12.096 Z" fill="#000000" fill-rule="nonzero" fill-opacity="1" /><path clip-path="url(#clip370)" d="M1537.64 49.7694 Q1528.6 49.7694 1525.12 51.8354 Q1521.64 53.9013 1521.64 58.8839 Q1521.64 62.8538 1524.23 65.2034 Q1526.86 67.5124 1531.36 67.5124 Q1537.56 67.5124 1541.28 63.1374 Q1545.05 58.7219 1545.05 51.4303 L1545.05 49.7694 L1537.64 49.7694 M1552.5 46.6907 L1552.5 72.576 L1545.05 72.576 L1545.05 65.6895 Q1542.5 69.8214 1538.69 71.8063 Q1534.88 73.7508 1529.37 73.7508 Q1522.41 73.7508 1518.27 69.8619 Q1514.18 65.9325 1514.18 59.3701 Q1514.18 51.7138 1519.29 47.825 Q1524.43 43.9361 1534.6 43.9361 L1545.05 43.9361 L1545.05 43.2069 Q1545.05 38.0623 1541.65 35.2672 Q1538.29 32.4315 1532.17 32.4315 Q1528.28 32.4315 1524.59 33.3632 Q1520.91 34.295 1517.5 36.1584 L1517.5 29.2718 Q1521.6 27.692 1525.44 26.9223 Q1529.29 26.1121 1532.94 26.1121 Q1542.78 26.1121 1547.64 31.2163 Q1552.5 36.3204 1552.5 46.6907 Z" fill="#000000" fill-rule="nonzero" fill-opacity="1" /><path clip-path="url(#clip370)" d="M1600.43 49.9314 Q1600.43 41.7081 1597.02 37.0496 Q1593.66 32.3505 1587.75 32.3505 Q1581.83 32.3505 1578.43 37.0496 Q1575.07 41.7081 1575.07 49.9314 Q1575.07 58.1548 1578.43 62.8538 Q1581.83 67.5124 1587.75 67.5124 Q1593.66 67.5124 1597.02 62.8538 Q1600.43 58.1548 1600.43 49.9314 M1575.07 34.0924 Q1577.42 30.0415 1580.98 28.0971 Q1584.59 26.1121 1589.57 26.1121 Q1597.83 26.1121 1602.98 32.6746 Q1608.16 39.2371 1608.16 49.9314 Q1608.16 60.6258 1602.98 67.1883 Q1597.83 73.7508 1589.57 73.7508 Q1584.59 73.7508 1580.98 71.8063 Q1577.42 69.8214 1575.07 65.7705 L1575.07 72.576 L1567.57 72.576 L1567.57 9.54393 L1575.07 9.54393 L1575.07 34.0924 Z" fill="#000000" fill-rule="nonzero" fill-opacity="1" /><path clip-path="url(#clip370)" d="M1620.52 9.54393 L1627.97 9.54393 L1627.97 72.576 L1620.52 72.576 L1620.52 9.54393 Z" fill="#000000" fill-rule="nonzero" fill-opacity="1" /><path clip-path="url(#clip370)" d="M1682.38 48.0275 L1682.38 51.6733 L1648.11 51.6733 Q1648.59 59.3701 1652.72 63.421 Q1656.9 67.4314 1664.31 67.4314 Q1668.6 67.4314 1672.61 66.3781 Q1676.66 65.3249 1680.63 63.2184 L1680.63 70.267 Q1676.62 71.9684 1672.41 72.8596 Q1668.2 73.7508 1663.86 73.7508 Q1653.01 73.7508 1646.65 67.4314 Q1640.33 61.1119 1640.33 50.3365 Q1640.33 39.1965 1646.32 32.6746 Q1652.36 26.1121 1662.57 26.1121 Q1671.72 26.1121 1677.03 32.0264 Q1682.38 37.9003 1682.38 48.0275 M1674.92 45.84 Q1674.84 39.7232 1671.48 36.0774 Q1668.16 32.4315 1662.65 32.4315 Q1656.41 32.4315 1652.64 35.9558 Q1648.92 39.4801 1648.35 45.8805 L1674.92 45.84 Z" fill="#000000" fill-rule="nonzero" fill-opacity="1" /><path clip-path="url(#clip370)" d="M1723.45 65.6895 L1736.82 65.6895 L1736.82 19.5497 L1722.28 22.4663 L1722.28 15.0127 L1736.74 12.096 L1744.92 12.096 L1744.92 65.6895 L1758.29 65.6895 L1758.29 72.576 L1723.45 72.576 L1723.45 65.6895 Z" fill="#000000" fill-rule="nonzero" fill-opacity="1" /><circle clip-path="url(#clip372)" cx="279.421" cy="1382.27" r="14.4" fill="#009af9" fill-rule="evenodd" fill-opacity="1" stroke="#000000" stroke-opacity="1" stroke-width="3.2"/>
<circle clip-path="url(#clip372)" cx="676.024" cy="1137.85" r="14.4" fill="#009af9" fill-rule="evenodd" fill-opacity="1" stroke="#000000" stroke-opacity="1" stroke-width="3.2"/>
<circle clip-path="url(#clip372)" cx="1080.11" cy="893.419" r="14.4" fill="#009af9" fill-rule="evenodd" fill-opacity="1" stroke="#000000" stroke-opacity="1" stroke-width="3.2"/>
<circle clip-path="url(#clip372)" cx="1484.2" cy="648.991" r="14.4" fill="#009af9" fill-rule="evenodd" fill-opacity="1" stroke="#000000" stroke-opacity="1" stroke-width="3.2"/>
<circle clip-path="url(#clip372)" cx="1895.76" cy="404.564" r="14.4" fill="#009af9" fill-rule="evenodd" fill-opacity="1" stroke="#000000" stroke-opacity="1" stroke-width="3.2"/>
<circle clip-path="url(#clip372)" cx="2292.37" cy="160.136" r="14.4" fill="#009af9" fill-rule="evenodd" fill-opacity="1" stroke="#000000" stroke-opacity="1" stroke-width="3.2"/>
<polyline clip-path="url(#clip372)" style="stroke:#e26f46; stroke-linecap:round; stroke-linejoin:round; stroke-width:4; stroke-opacity:1; fill:none" points="279.421,1379.89 2292.37,161.015 "/>
<path clip-path="url(#clip370)" d="M290.157 348.795 L1186.25 348.795 L1186.25 166.654 L290.157 166.654  Z" fill="#ffffff" fill-rule="evenodd" fill-opacity="1"/>
<polyline clip-path="url(#clip370)" style="stroke:#000000; stroke-linecap:round; stroke-linejoin:round; stroke-width:4; stroke-opacity:1; fill:none" points="290.157,348.795 1186.25,348.795 1186.25,166.654 290.157,166.654 290.157,348.795 "/>
<circle clip-path="url(#clip370)" cx="384.989" cy="227.368" r="20.48" fill="#009af9" fill-rule="evenodd" fill-opacity="1" stroke="#000000" stroke-opacity="1" stroke-width="4.55111"/>
<path clip-path="url(#clip370)" d="M479.821 233.667 Q479.821 225.563 482.843 219.028 Q484.131 216.287 485.935 213.992 Q487.738 211.696 488.933 210.689 Q490.127 209.682 490.455 209.682 Q490.924 209.682 490.947 210.151 Q490.947 210.385 490.315 210.97 Q482.585 218.84 482.609 233.667 Q482.609 248.54 490.127 256.105 Q490.947 256.925 490.947 257.183 Q490.947 257.651 490.455 257.651 Q490.127 257.651 488.979 256.691 Q487.832 255.731 486.052 253.529 Q484.272 251.327 482.983 248.634 Q479.821 242.099 479.821 233.667 Z" fill="#000000" fill-rule="nonzero" fill-opacity="1" /><path clip-path="url(#clip370)" d="M521.964 245.706 Q521.964 246.151 521.448 246.198 L520.394 246.198 Q519.317 246.198 518.849 246.034 Q518.38 245.87 517.841 245.12 Q517.513 244.652 516.694 242.474 Q515.897 240.272 514.726 236.946 Q513.579 233.62 512.806 231.652 L501.258 245.284 Q500.462 246.291 499.666 246.291 Q499.08 246.291 498.658 245.893 Q498.237 245.495 498.237 244.886 Q498.237 244.441 498.401 244.183 Q498.588 243.926 499.08 243.41 L512.337 230.27 L507.676 217.224 Q506.786 214.812 506.271 214.203 Q505.779 213.594 504.561 213.383 Q504.116 213.266 504.116 212.891 Q504.116 212.376 504.982 212.376 Q509.62 212.376 510.838 215.772 L520.629 243.059 Q521.167 244.628 521.73 245.284 Q521.964 245.589 521.964 245.706 Z" fill="#000000" fill-rule="nonzero" fill-opacity="1" /><path clip-path="url(#clip370)" d="M549.008 210.48 Q549.205 210.677 549.205 210.956 Q549.205 211.234 549.008 211.431 Q548.811 211.628 548.533 211.628 L527.513 211.628 Q527.235 211.628 527.038 211.431 Q526.841 211.234 526.841 210.956 Q526.841 210.677 527.038 210.48 Q527.235 210.284 527.513 210.284 L548.533 210.284 Q548.811 210.284 549.008 210.48 Z" fill="#000000" fill-rule="nonzero" fill-opacity="1" /><path clip-path="url(#clip370)" d="M552.704 200.184 L552.704 199.134 Q556.737 199.134 558.82 196.987 Q559.394 196.987 559.492 197.118 Q559.59 197.249 559.59 197.856 L559.59 216.694 Q559.59 217.694 560.082 218.006 Q560.574 218.317 562.722 218.317 L563.788 218.317 L563.788 219.35 Q562.607 219.252 558.344 219.252 Q554.081 219.252 552.917 219.35 L552.917 218.317 L553.983 218.317 Q556.098 218.317 556.606 218.022 Q557.115 217.711 557.115 216.694 L557.115 199.298 Q555.36 200.184 552.704 200.184 Z" fill="#000000" fill-rule="nonzero" fill-opacity="1" /><path clip-path="url(#clip370)" d="M575.128 244.886 Q574.449 244.113 574.449 243.106 Q574.449 242.099 575.105 241.349 Q575.784 240.576 577.002 240.576 Q578.431 240.576 579.251 241.958 Q580.071 243.317 580.071 245.612 Q580.071 248.095 579.063 250.39 Q578.056 252.709 577.072 253.81 Q576.089 254.911 575.691 254.911 Q575.222 254.911 575.222 254.396 Q575.222 254.208 575.55 253.857 Q578.993 250.156 579.016 245.612 Q579.016 244.886 578.923 244.886 L578.806 244.98 Q577.986 245.659 577.002 245.659 Q575.808 245.659 575.128 244.886 Z" fill="#000000" fill-rule="nonzero" fill-opacity="1" /><path clip-path="url(#clip370)" d="M619.117 215.14 Q619.117 216.428 618.297 217.224 Q617.501 218.02 616.493 218.02 Q615.767 218.02 615.229 217.575 Q614.713 217.13 614.713 216.357 Q614.713 215.561 615.322 214.718 Q615.931 213.875 617.313 213.758 Q616.4 212.891 614.948 212.891 Q614.221 212.891 613.612 213.359 Q613.027 213.804 612.699 214.531 Q612.348 215.28 611.551 219.52 Q611.294 220.901 611.059 222.237 Q610.825 223.572 610.544 224.977 L614.526 224.977 Q615.041 224.977 615.252 225 Q615.463 225.024 615.627 225.141 Q615.814 225.258 615.814 225.516 Q615.814 226.171 615.51 226.335 Q615.229 226.476 614.385 226.476 L610.263 226.476 L607.382 241.677 Q607.312 242.122 607.007 243.528 Q606.726 244.909 606.047 247.181 Q605.368 249.477 604.689 250.835 Q604.314 251.608 603.822 252.334 Q603.353 253.084 602.674 253.833 Q601.995 254.583 601.105 255.028 Q600.215 255.496 599.278 255.496 Q597.685 255.496 596.444 254.606 Q595.202 253.716 595.202 252.194 Q595.202 250.906 595.999 250.109 Q596.819 249.313 597.826 249.313 Q598.552 249.313 599.067 249.758 Q599.606 250.203 599.606 250.976 Q599.606 251.304 599.489 251.679 Q599.372 252.053 599.114 252.475 Q598.856 252.92 598.294 253.224 Q597.732 253.529 596.959 253.576 Q597.873 254.442 599.278 254.442 Q599.723 254.442 600.121 254.255 Q600.519 254.091 600.847 253.669 Q601.199 253.248 601.456 252.826 Q601.714 252.428 601.972 251.655 Q602.229 250.906 602.393 250.343 Q602.557 249.781 602.768 248.774 Q603.002 247.767 603.119 247.158 Q603.236 246.572 603.447 245.425 L607.031 226.476 L603.869 226.476 Q603.307 226.476 603.072 226.453 Q602.862 226.429 602.698 226.312 Q602.534 226.171 602.534 225.89 Q602.534 225.445 602.721 225.258 Q602.932 225.047 603.166 225.024 Q603.4 224.977 603.962 224.977 L607.288 224.977 Q608.413 219.051 608.858 217.458 Q609.373 215.772 610.169 214.601 Q610.966 213.406 611.856 212.844 Q612.746 212.282 613.472 212.071 Q614.221 211.837 614.948 211.837 Q616.587 211.837 617.852 212.727 Q619.117 213.594 619.117 215.14 Z" fill="#000000" fill-rule="nonzero" fill-opacity="1" /><path clip-path="url(#clip370)" d="M623.841 257.183 Q623.841 256.949 624.45 256.363 Q632.18 248.493 632.18 233.667 Q632.18 218.793 624.755 211.275 Q623.841 210.408 623.841 210.151 Q623.841 209.682 624.31 209.682 Q624.638 209.682 625.785 210.642 Q626.957 211.603 628.713 213.804 Q630.493 216.006 631.805 218.7 Q634.967 225.235 634.967 233.667 Q634.967 241.771 631.946 248.306 Q630.657 251.046 628.854 253.342 Q627.05 255.637 625.856 256.644 Q624.661 257.651 624.31 257.651 Q623.841 257.651 623.841 257.183 Z" fill="#000000" fill-rule="nonzero" fill-opacity="1" /><polyline clip-path="url(#clip370)" style="stroke:#e26f46; stroke-linecap:round; stroke-linejoin:round; stroke-width:4; stroke-opacity:1; fill:none" points="313.865,288.082 456.113,288.082 "/>
<path clip-path="url(#clip370)" d="M508.842 277.247 Q508.842 276.474 508.631 275.842 Q508.444 275.186 508.139 274.741 Q507.858 274.272 507.319 273.921 Q506.781 273.546 506.336 273.312 Q505.89 273.078 505.141 272.937 Q504.391 272.773 503.9 272.703 Q503.408 272.609 502.564 272.563 Q501.721 272.516 501.3 272.516 Q500.902 272.516 500.105 272.516 Q497.599 272.516 497.177 272.563 Q496.545 272.656 496.311 273.031 Q496.076 273.382 495.842 274.343 L492.727 286.85 L498.091 286.85 Q501.019 286.85 503.033 286.03 Q505.047 285.211 506.195 284.063 Q507.46 282.798 508.139 280.76 Q508.842 278.723 508.842 277.247 M514.065 299.334 Q514.065 299.592 513.854 300.178 Q513.667 300.763 513.198 301.583 Q512.73 302.379 512.097 303.105 Q511.465 303.832 510.458 304.323 Q509.451 304.839 508.303 304.839 Q508.022 304.839 507.741 304.815 Q507.46 304.815 506.757 304.698 Q506.078 304.604 505.516 304.417 Q504.954 304.253 504.251 303.855 Q503.548 303.48 503.056 302.965 Q502.588 302.426 502.26 301.583 Q501.932 300.716 501.932 299.662 Q501.932 298.725 502.705 295.587 Q503.384 292.917 503.384 292.261 Q503.384 291.535 503.15 290.856 Q502.939 290.176 502.401 289.474 Q501.885 288.771 500.784 288.349 Q499.684 287.904 498.138 287.904 L492.446 287.904 L489.261 300.623 Q489.261 300.646 489.19 300.974 Q489.12 301.278 489.12 301.442 Q489.12 301.747 489.307 301.934 Q489.518 302.122 490.033 302.215 Q490.549 302.286 490.947 302.309 Q491.369 302.309 492.235 302.309 Q493.313 302.309 493.5 302.496 Q493.594 302.614 493.594 302.824 Q493.594 303.152 493.5 303.387 Q493.43 303.597 493.242 303.668 Q493.078 303.738 492.961 303.761 Q492.844 303.785 492.633 303.785 L486.544 303.644 L480.501 303.785 Q479.821 303.785 479.821 303.246 Q479.821 302.778 479.985 302.59 Q480.149 302.379 480.36 302.356 Q480.571 302.309 481.11 302.309 Q482.281 302.309 482.983 302.239 Q483.686 302.169 484.131 302.075 Q484.599 301.958 484.834 301.63 Q485.091 301.302 485.208 301.021 Q485.326 300.716 485.49 300.037 L491.907 274.272 Q492.095 273.499 492.095 273.382 Q492.095 272.937 491.814 272.82 Q491.556 272.68 490.806 272.609 L488.979 272.516 Q488.417 272.516 488.183 272.492 Q487.972 272.469 487.808 272.352 Q487.644 272.235 487.644 271.977 Q487.644 271.321 487.925 271.181 Q488.207 271.017 489.026 271.017 L502.705 271.017 Q507.366 271.017 510.317 273.054 Q513.292 275.092 513.292 278.207 Q513.292 279.613 512.66 280.924 Q512.027 282.236 510.973 283.267 Q509.943 284.297 508.561 285.164 Q507.179 286.007 505.703 286.593 Q504.251 287.155 502.752 287.483 Q503.408 287.717 504.017 288.068 Q504.649 288.42 505.445 289.075 Q506.265 289.731 506.757 290.785 Q507.249 291.839 507.249 293.127 Q507.249 294.041 507.062 295.399 Q506.593 299.264 506.593 300.857 Q506.593 302.379 506.991 303.082 Q507.39 303.785 508.514 303.785 Q509.615 303.785 510.833 302.801 Q512.074 301.794 512.87 299.428 Q513.058 298.749 513.503 298.749 Q513.526 298.749 513.55 298.749 Q513.596 298.749 513.69 298.796 Q513.784 298.819 513.854 298.889 Q513.948 298.936 513.995 299.053 Q514.065 299.17 514.065 299.334 Z" fill="#000000" fill-rule="nonzero" fill-opacity="1" /><path clip-path="url(#clip370)" d="M529.168 296.5 Q529.215 295.915 530.129 295.915 L559.524 295.915 Q560.906 295.915 560.929 296.453 Q560.929 297.039 559.618 297.016 L530.457 297.016 Q529.168 297.039 529.168 296.5 M529.168 287.131 Q529.168 286.546 530.176 286.569 L559.477 286.569 Q560.906 286.569 560.929 287.131 Q560.929 287.67 559.711 287.67 L530.129 287.67 Q529.168 287.67 529.168 287.131 Z" fill="#000000" fill-rule="nonzero" fill-opacity="1" /><path clip-path="url(#clip370)" d="M579.42 288.443 Q579.42 281.393 581.2 277.552 Q583.683 271.836 589.539 271.836 Q590.78 271.836 592.068 272.188 Q593.38 272.516 595.02 273.804 Q596.683 275.092 597.69 277.2 Q599.61 281.276 599.61 288.443 Q599.61 295.446 597.83 299.264 Q595.23 304.839 589.492 304.839 Q587.337 304.839 585.135 303.738 Q582.957 302.637 581.575 299.99 Q579.42 296.032 579.42 288.443 M583.402 287.857 Q583.402 295.095 583.917 297.976 Q584.503 301.091 586.096 302.45 Q587.712 303.785 589.492 303.785 Q591.412 303.785 593.005 302.356 Q594.621 300.904 595.113 297.789 Q595.652 294.72 595.629 287.857 Q595.629 281.182 595.16 278.512 Q594.528 275.397 592.841 274.155 Q591.178 272.89 589.492 272.89 Q588.859 272.89 588.18 273.078 Q587.524 273.265 586.564 273.804 Q585.604 274.343 584.854 275.678 Q584.128 277.013 583.777 279.027 Q583.402 281.627 583.402 287.857 Z" fill="#000000" fill-rule="nonzero" fill-opacity="1" /><path clip-path="url(#clip370)" d="M603.896 303.012 Q603.17 302.239 603.17 301.232 Q603.17 300.224 603.896 299.498 Q604.622 298.749 605.723 298.749 Q606.777 298.749 607.48 299.452 Q608.206 300.131 608.206 301.255 Q608.206 302.356 607.433 303.082 Q606.684 303.785 605.723 303.785 Q604.622 303.785 603.896 303.012 Z" fill="#000000" fill-rule="nonzero" fill-opacity="1" /><path clip-path="url(#clip370)" d="M616.367 288.443 Q616.367 281.393 618.147 277.552 Q620.63 271.836 626.486 271.836 Q627.727 271.836 629.015 272.188 Q630.327 272.516 631.967 273.804 Q633.63 275.092 634.637 277.2 Q636.557 281.276 636.557 288.443 Q636.557 295.446 634.777 299.264 Q632.177 304.839 626.439 304.839 Q624.284 304.839 622.082 303.738 Q619.904 302.637 618.522 299.99 Q616.367 296.032 616.367 288.443 M620.349 287.857 Q620.349 295.095 620.864 297.976 Q621.45 301.091 623.043 302.45 Q624.659 303.785 626.439 303.785 Q628.36 303.785 629.952 302.356 Q631.568 300.904 632.06 297.789 Q632.599 294.72 632.576 287.857 Q632.576 281.182 632.107 278.512 Q631.475 275.397 629.788 274.155 Q628.125 272.89 626.439 272.89 Q625.806 272.89 625.127 273.078 Q624.471 273.265 623.511 273.804 Q622.551 274.343 621.801 275.678 Q621.075 277.013 620.724 279.027 Q620.349 281.627 620.349 287.857 Z" fill="#000000" fill-rule="nonzero" fill-opacity="1" /><path clip-path="url(#clip370)" d="M638.662 276.404 L638.662 274.905 Q644.424 274.905 647.399 271.836 Q648.219 271.836 648.359 272.024 Q648.5 272.211 648.5 273.078 L648.5 299.99 Q648.5 301.419 649.202 301.864 Q649.905 302.309 652.973 302.309 L654.496 302.309 L654.496 303.785 Q652.809 303.644 646.72 303.644 Q640.63 303.644 638.967 303.785 L638.967 302.309 L640.489 302.309 Q643.511 302.309 644.237 301.887 Q644.963 301.442 644.963 299.99 L644.963 275.139 Q642.457 276.404 638.662 276.404 Z" fill="#000000" fill-rule="nonzero" fill-opacity="1" /><path clip-path="url(#clip370)" d="M656.184 288.63 Q656.184 281.088 660.026 276.474 Q663.867 271.836 668.809 271.836 Q671.69 271.836 673.283 273.312 Q674.899 274.764 674.899 277.013 Q674.899 278.254 674.173 278.793 Q673.447 279.332 672.697 279.332 Q671.83 279.332 671.151 278.746 Q670.472 278.161 670.472 277.107 Q670.472 274.952 673.119 274.952 Q671.877 273.031 668.903 273.031 Q667.989 273.031 667.052 273.312 Q666.115 273.57 664.897 274.46 Q663.679 275.35 662.743 276.755 Q661.806 278.161 661.15 280.807 Q660.494 283.454 660.494 286.897 L660.494 288.045 Q662.461 283.29 666.49 283.313 Q670.519 283.313 673.306 286.382 Q676.093 289.45 676.093 293.994 Q676.093 298.655 673.189 301.747 Q670.285 304.839 666.209 304.839 Q664.382 304.839 662.719 304.066 Q661.08 303.316 659.534 301.583 Q658.011 299.85 657.098 296.524 Q656.184 293.198 656.184 288.63 M660.588 292.94 Q660.588 297.648 661.454 299.897 Q661.595 300.271 661.899 300.787 Q662.227 301.302 662.766 301.981 Q663.328 302.637 664.242 303.082 Q665.155 303.504 666.209 303.504 Q669.418 303.504 670.964 300.388 Q671.784 298.655 671.784 293.947 Q671.784 289.146 670.917 287.389 Q669.441 284.414 666.443 284.414 Q664.429 284.414 663.024 285.796 Q661.642 287.178 661.103 289.029 Q660.588 290.879 660.588 292.94 Z" fill="#000000" fill-rule="nonzero" fill-opacity="1" /><path clip-path="url(#clip370)" d="M680.126 296.055 Q680.126 294.627 680.899 294.088 Q681.672 293.526 682.492 293.526 Q683.593 293.526 684.225 294.228 Q684.881 294.908 684.881 295.868 Q684.881 296.828 684.225 297.531 Q683.593 298.21 682.492 298.21 Q681.953 298.21 681.672 298.116 Q682.305 300.318 684.225 301.911 Q686.169 303.504 688.722 303.504 Q691.931 303.504 693.852 300.388 Q694.999 298.374 694.999 293.807 Q694.999 289.778 694.133 287.764 Q692.798 284.695 690.057 284.695 Q686.169 284.695 683.874 288.045 Q683.593 288.466 683.265 288.49 Q682.796 288.49 682.679 288.232 Q682.586 287.951 682.586 287.225 L682.586 273.031 Q682.586 271.883 683.054 271.883 Q683.241 271.883 683.64 272.024 Q686.661 273.359 690.01 273.382 Q693.454 273.382 696.545 271.977 Q696.78 271.836 696.92 271.836 Q697.389 271.836 697.412 272.375 Q697.412 272.563 697.014 273.125 Q696.639 273.663 695.819 274.39 Q694.999 275.092 693.945 275.771 Q692.891 276.451 691.346 276.919 Q689.823 277.364 688.137 277.364 Q686.122 277.364 684.061 276.732 L684.061 286.077 Q686.544 283.641 690.151 283.641 Q693.992 283.641 696.639 286.733 Q699.286 289.825 699.286 294.135 Q699.286 298.655 696.147 301.747 Q693.032 304.839 688.816 304.839 Q684.975 304.839 682.539 302.098 Q680.126 299.358 680.126 296.055 Z" fill="#000000" fill-rule="nonzero" fill-opacity="1" /><path clip-path="url(#clip370)" d="M704.068 296.055 Q704.068 294.627 704.841 294.088 Q705.614 293.526 706.434 293.526 Q707.535 293.526 708.167 294.228 Q708.823 294.908 708.823 295.868 Q708.823 296.828 708.167 297.531 Q707.535 298.21 706.434 298.21 Q705.895 298.21 705.614 298.116 Q706.247 300.318 708.167 301.911 Q710.111 303.504 712.664 303.504 Q715.873 303.504 717.794 300.388 Q718.941 298.374 718.941 293.807 Q718.941 289.778 718.075 287.764 Q716.74 284.695 713.999 284.695 Q710.111 284.695 707.816 288.045 Q707.535 288.466 707.207 288.49 Q706.738 288.49 706.621 288.232 Q706.528 287.951 706.528 287.225 L706.528 273.031 Q706.528 271.883 706.996 271.883 Q707.183 271.883 707.582 272.024 Q710.603 273.359 713.952 273.382 Q717.396 273.382 720.487 271.977 Q720.722 271.836 720.862 271.836 Q721.331 271.836 721.354 272.375 Q721.354 272.563 720.956 273.125 Q720.581 273.663 719.761 274.39 Q718.941 275.092 717.887 275.771 Q716.833 276.451 715.288 276.919 Q713.765 277.364 712.079 277.364 Q710.064 277.364 708.003 276.732 L708.003 286.077 Q710.486 283.641 714.093 283.641 Q717.934 283.641 720.581 286.733 Q723.228 289.825 723.228 294.135 Q723.228 298.655 720.089 301.747 Q716.974 304.839 712.758 304.839 Q708.917 304.839 706.481 302.098 Q704.068 299.358 704.068 296.055 Z" fill="#000000" fill-rule="nonzero" fill-opacity="1" /><path clip-path="url(#clip370)" d="M763.883 278.623 L763.883 282.651 Q762.077 281.725 760.133 281.262 Q758.188 280.799 756.105 280.799 Q752.934 280.799 751.337 281.771 Q749.763 282.743 749.763 284.688 Q749.763 286.169 750.897 287.026 Q752.031 287.859 755.457 288.623 L756.915 288.947 Q761.452 289.919 763.35 291.701 Q765.272 293.461 765.272 296.632 Q765.272 300.243 762.401 302.35 Q759.554 304.456 754.554 304.456 Q752.471 304.456 750.202 304.039 Q747.957 303.646 745.457 302.836 L745.457 298.438 Q747.818 299.664 750.11 300.289 Q752.401 300.891 754.647 300.891 Q757.656 300.891 759.276 299.873 Q760.897 298.831 760.897 296.956 Q760.897 295.22 759.716 294.294 Q758.559 293.368 754.6 292.512 L753.119 292.164 Q749.161 291.331 747.401 289.618 Q745.642 287.882 745.642 284.873 Q745.642 281.215 748.235 279.225 Q750.827 277.234 755.596 277.234 Q757.957 277.234 760.04 277.581 Q762.124 277.928 763.883 278.623 Z" fill="#000000" fill-rule="nonzero" fill-opacity="1" /><path clip-path="url(#clip370)" d="M779.624 269.225 L783.559 269.225 L771.522 308.183 L767.587 308.183 L779.624 269.225 Z" fill="#000000" fill-rule="nonzero" fill-opacity="1" /><path clip-path="url(#clip370)" d="M808.211 282.836 Q809.809 279.965 812.031 278.6 Q814.253 277.234 817.262 277.234 Q821.313 277.234 823.512 280.081 Q825.711 282.905 825.711 288.137 L825.711 303.785 L821.429 303.785 L821.429 288.276 Q821.429 284.549 820.109 282.743 Q818.79 280.938 816.082 280.938 Q812.771 280.938 810.85 283.137 Q808.929 285.336 808.929 289.132 L808.929 303.785 L804.647 303.785 L804.647 288.276 Q804.647 284.526 803.327 282.743 Q802.008 280.938 799.253 280.938 Q795.989 280.938 794.068 283.16 Q792.147 285.359 792.147 289.132 L792.147 303.785 L787.864 303.785 L787.864 277.859 L792.147 277.859 L792.147 281.887 Q793.605 279.502 795.642 278.368 Q797.679 277.234 800.48 277.234 Q803.304 277.234 805.272 278.669 Q807.262 280.104 808.211 282.836 Z" fill="#000000" fill-rule="nonzero" fill-opacity="1" /><path clip-path="url(#clip370)" d="M858.113 299.373 Q858.16 298.787 859.073 298.787 L888.469 298.787 Q889.85 298.787 889.874 299.326 Q889.874 299.911 888.562 299.888 L859.401 299.888 Q858.113 299.911 858.113 299.373 M858.113 290.004 Q858.113 289.418 859.12 289.442 L888.422 289.442 Q889.85 289.442 889.874 290.004 Q889.874 290.542 888.656 290.542 L859.073 290.542 Q858.113 290.542 858.113 290.004 Z" fill="#000000" fill-rule="nonzero" fill-opacity="1" /><path clip-path="url(#clip370)" d="M908.365 291.315 Q908.365 284.265 910.145 280.424 Q912.628 274.709 918.483 274.709 Q919.725 274.709 921.013 275.06 Q922.325 275.388 923.964 276.676 Q925.627 277.965 926.634 280.073 Q928.555 284.148 928.555 291.315 Q928.555 298.319 926.775 302.137 Q924.175 307.711 918.436 307.711 Q916.282 307.711 914.08 306.61 Q911.902 305.509 910.52 302.863 Q908.365 298.904 908.365 291.315 M912.347 290.73 Q912.347 297.967 912.862 300.848 Q913.447 303.964 915.04 305.322 Q916.656 306.657 918.436 306.657 Q920.357 306.657 921.95 305.228 Q923.566 303.776 924.058 300.661 Q924.597 297.593 924.573 290.73 Q924.573 284.054 924.105 281.384 Q923.472 278.269 921.786 277.028 Q920.123 275.763 918.436 275.763 Q917.804 275.763 917.125 275.95 Q916.469 276.138 915.509 276.676 Q914.548 277.215 913.799 278.55 Q913.073 279.885 912.721 281.9 Q912.347 284.5 912.347 290.73 Z" fill="#000000" fill-rule="nonzero" fill-opacity="1" /><path clip-path="url(#clip370)" d="M932.841 305.884 Q932.115 305.111 932.115 304.104 Q932.115 303.097 932.841 302.371 Q933.567 301.621 934.668 301.621 Q935.722 301.621 936.424 302.324 Q937.151 303.003 937.151 304.128 Q937.151 305.228 936.378 305.954 Q935.628 306.657 934.668 306.657 Q933.567 306.657 932.841 305.884 Z" fill="#000000" fill-rule="nonzero" fill-opacity="1" /><path clip-path="url(#clip370)" d="M945.312 285.507 Q945.312 282.954 946.061 281.22 Q946.811 279.464 948.38 277.73 Q951.261 274.709 955.43 274.709 Q957.21 274.709 958.78 275.458 Q960.372 276.208 961.871 277.918 Q963.394 279.604 964.307 282.954 Q965.221 286.28 965.221 290.87 Q965.221 298.295 961.614 303.003 Q958.03 307.711 953.182 307.711 Q950.113 307.711 948.31 306.329 Q946.506 304.924 946.506 302.535 Q946.506 301.293 947.209 300.778 Q947.912 300.239 948.708 300.239 Q949.575 300.239 950.254 300.825 Q950.933 301.387 950.933 302.441 Q950.933 303.308 950.371 303.987 Q949.832 304.643 948.427 304.643 Q949.809 306.376 953.135 306.376 Q954.329 306.376 955.524 305.837 Q956.719 305.275 958.007 303.94 Q959.318 302.582 960.115 299.748 Q960.911 296.913 960.911 292.932 L960.911 291.409 Q958.99 296.211 954.915 296.211 Q950.886 296.211 948.099 293.119 Q945.312 290.027 945.312 285.507 M949.622 285.554 Q949.622 290.308 950.488 292.065 Q951.964 295.086 954.962 295.086 Q957.89 295.086 959.342 292.487 Q960.817 289.863 960.817 286.467 Q960.817 281.759 960.044 279.698 Q958.616 275.903 955.43 275.903 Q952.268 275.903 950.629 278.925 Q949.622 280.705 949.622 285.554 Z" fill="#000000" fill-rule="nonzero" fill-opacity="1" /><path clip-path="url(#clip370)" d="M967.464 284.101 L969.033 274.24 L970.228 274.24 Q970.368 274.826 970.602 275.084 Q970.86 275.341 972.219 275.552 Q973.6 275.763 976.388 275.763 L988.029 275.763 Q988.029 276.864 987.607 277.449 L981.119 286.561 Q979.058 289.442 978.144 294.759 Q977.606 298.319 977.629 302.628 L977.629 305.064 Q977.629 307.711 975.404 307.711 Q973.202 307.711 973.202 305.064 Q973.202 295.906 979.105 287.029 Q979.737 286.116 982.056 282.86 Q984.398 279.604 984.492 279.464 L974.561 279.464 Q970.204 279.464 969.853 279.745 Q969.384 280.166 968.658 284.101 L967.464 284.101 Z" fill="#000000" fill-rule="nonzero" fill-opacity="1" /><path clip-path="url(#clip370)" d="M984.986 298.74 L984.986 297.265 L999.718 274.756 Q1000.09 274.17 1000.68 274.194 Q1001.22 274.194 1001.33 274.404 Q1001.45 274.615 1001.45 275.435 L1001.45 297.265 L1006.25 297.265 L1006.25 298.74 L1001.45 298.74 L1001.45 302.91 Q1001.45 304.291 1002.01 304.736 Q1002.6 305.182 1005.08 305.182 L1006.09 305.182 L1006.09 306.657 Q1004.12 306.517 999.578 306.517 Q995.057 306.517 993.09 306.657 L993.09 305.182 L994.097 305.182 Q996.58 305.182 997.165 304.76 Q997.751 304.315 997.751 302.91 L997.751 298.74 L984.986 298.74 M986.344 297.265 L998.032 297.265 L998.032 279.37 L986.344 297.265 Z" fill="#000000" fill-rule="nonzero" fill-opacity="1" /><path clip-path="url(#clip370)" d="M1010.08 298.928 Q1010.08 297.499 1010.85 296.96 Q1011.63 296.398 1012.45 296.398 Q1013.55 296.398 1014.18 297.101 Q1014.83 297.78 1014.83 298.74 Q1014.83 299.701 1014.18 300.403 Q1013.55 301.083 1012.45 301.083 Q1011.91 301.083 1011.63 300.989 Q1012.26 303.191 1014.18 304.783 Q1016.12 306.376 1018.68 306.376 Q1021.88 306.376 1023.81 303.261 Q1024.95 301.247 1024.95 296.679 Q1024.95 292.651 1024.09 290.636 Q1022.75 287.568 1020.01 287.568 Q1016.12 287.568 1013.83 290.917 Q1013.55 291.339 1013.22 291.362 Q1012.75 291.362 1012.63 291.105 Q1012.54 290.824 1012.54 290.097 L1012.54 275.903 Q1012.54 274.756 1013.01 274.756 Q1013.19 274.756 1013.59 274.896 Q1016.61 276.231 1019.96 276.255 Q1023.41 276.255 1026.5 274.849 Q1026.73 274.709 1026.87 274.709 Q1027.34 274.709 1027.37 275.248 Q1027.37 275.435 1026.97 275.997 Q1026.59 276.536 1025.77 277.262 Q1024.95 277.965 1023.9 278.644 Q1022.85 279.323 1021.3 279.792 Q1019.78 280.237 1018.09 280.237 Q1016.08 280.237 1014.01 279.604 L1014.01 288.95 Q1016.5 286.514 1020.1 286.514 Q1023.95 286.514 1026.59 289.606 Q1029.24 292.697 1029.24 297.007 Q1029.24 301.528 1026.1 304.619 Q1022.99 307.711 1018.77 307.711 Q1014.93 307.711 1012.49 304.971 Q1010.08 302.23 1010.08 298.928 Z" fill="#000000" fill-rule="nonzero" fill-opacity="1" /><path clip-path="url(#clip370)" d="M1033.83 301.048 L1042.17 288.185 L1045.56 305.253 L1046.2 308.363 Q1046.34 307.55 1046.76 306.172 Q1047.22 304.758 1047.29 304.405 L1058.5 261.399 Q1058.57 261.116 1058.67 260.657 Q1058.81 260.162 1058.88 259.986 Q1058.95 259.809 1059.06 259.456 Q1059.17 259.102 1059.24 258.996 Q1059.31 258.855 1059.41 258.608 Q1059.52 258.36 1059.66 258.289 Q1059.8 258.219 1059.98 258.077 Q1060.16 257.936 1060.37 257.901 Q1060.62 257.865 1060.86 257.83 Q1061.11 257.795 1061.46 257.795 L1067.79 257.795 Q1070.02 257.795 1070.02 259.244 Q1070.02 260.692 1067.86 260.692 L1061.68 260.692 L1047.08 316.49 Q1046.87 317.303 1046.69 317.621 Q1046.55 317.939 1046.06 318.222 Q1045.56 318.505 1044.68 318.505 L1043.97 318.505 L1039.34 295.5 L1035 302.214 L1033.83 301.048 Z" fill="#000000" fill-rule="nonzero" fill-opacity="1" /><path clip-path="url(#clip370)" d="M1067.64 260.73 L1162.54 260.73 L1162.54 257.725 L1067.64 257.725  Z" fill="#000000" fill-rule="evenodd" fill-opacity="1"/>
<path clip-path="url(#clip370)" d="M1098.75 299.399 Q1098.15 302.42 1097.33 304.154 Q1096.01 306.8 1093.77 306.8 Q1092.17 306.8 1090.96 305.84 Q1089.76 304.88 1089.46 303.287 Q1088.85 304.013 1088.4 304.435 Q1087.98 304.856 1087.14 305.512 Q1086.32 306.145 1085.29 306.472 Q1084.26 306.8 1083.09 306.8 Q1080.23 306.8 1078.42 305.301 Q1075.99 315.115 1075.78 315.607 Q1075.1 316.614 1074.11 316.614 Q1073.51 316.614 1073.13 316.24 Q1072.76 315.888 1072.76 315.326 Q1072.78 315.139 1072.92 314.553 L1079.81 286.798 Q1079.99 286.048 1080.46 285.626 Q1080.95 285.181 1081.23 285.135 Q1081.52 285.064 1081.73 285.064 Q1082.36 285.064 1082.73 285.416 Q1083.13 285.744 1083.13 286.353 Q1083.13 286.446 1082.99 286.985 Q1082.87 287.5 1082.69 288.297 Q1082.5 289.07 1082.41 289.421 L1080.39 297.478 Q1079.71 300.242 1079.71 301.554 Q1079.71 303.545 1080.6 304.645 Q1081.52 305.723 1083.27 305.723 Q1084.37 305.723 1085.4 305.278 Q1086.43 304.809 1087.14 304.177 Q1087.84 303.545 1088.4 302.865 Q1088.96 302.163 1089.22 301.718 Q1089.48 301.249 1089.5 301.132 L1090.74 296.237 L1093.02 287.266 Q1093.16 286.704 1093.41 286.329 Q1093.7 285.931 1094.02 285.79 Q1094.35 285.65 1094.54 285.626 Q1094.73 285.58 1094.89 285.58 Q1095.48 285.58 1095.87 285.931 Q1096.27 286.282 1096.27 286.891 Q1096.27 287.008 1096.13 287.571 Q1096.01 288.109 1095.83 288.906 Q1095.64 289.679 1095.55 290.1 Q1094.8 293.051 1094.73 293.356 L1093.39 298.532 Q1093.32 298.837 1093.09 299.82 Q1092.88 300.804 1092.76 301.32 Q1092.64 301.811 1092.52 302.491 Q1092.43 303.146 1092.43 303.521 Q1092.43 305.723 1093.88 305.723 Q1094.45 305.723 1094.94 305.395 Q1095.43 305.044 1095.76 304.552 Q1096.11 304.06 1096.44 303.217 Q1096.79 302.35 1097 301.647 Q1097.21 300.921 1097.51 299.797 Q1097.63 299.258 1097.75 299.094 Q1097.86 298.93 1098.19 298.93 Q1098.75 298.93 1098.75 299.399 Z" fill="#000000" fill-rule="nonzero" fill-opacity="1" /><path clip-path="url(#clip370)" d="M1101.38 317.575 Q1101.38 317.34 1101.56 316.825 L1118.5 271.573 Q1118.5 271.526 1118.62 271.269 Q1118.73 271.011 1118.8 270.847 Q1118.87 270.66 1119.01 270.519 Q1119.18 270.378 1119.36 270.378 Q1119.83 270.378 1119.83 270.964 Q1119.83 271.011 1119.69 271.573 L1102.71 316.872 Q1102.43 317.692 1102.24 317.926 Q1102.08 318.16 1101.8 318.16 Q1101.38 318.16 1101.38 317.575 Z" fill="#000000" fill-rule="nonzero" fill-opacity="1" /><path clip-path="url(#clip370)" d="M1157.75 274.313 Q1157.75 274.758 1157.66 275.133 L1156.35 283.472 Q1156.28 284.104 1156.14 284.338 Q1156.02 284.572 1155.65 284.572 Q1155.06 284.572 1155.06 283.963 Q1155.06 283.612 1155.2 283.05 Q1155.6 280.403 1155.6 279.209 Q1155.6 278.412 1155.44 277.827 Q1155.29 277.218 1155.06 276.796 Q1154.85 276.375 1154.36 276.094 Q1153.87 275.812 1153.4 275.649 Q1152.93 275.485 1152.09 275.414 Q1151.24 275.321 1150.52 275.297 Q1149.79 275.274 1148.6 275.274 Q1146 275.274 1145.57 275.367 Q1145.13 275.485 1144.9 275.836 Q1144.68 276.164 1144.45 277.148 L1138.08 302.608 L1137.89 303.615 Q1137.89 304.177 1138.24 304.364 Q1138.59 304.552 1139.67 304.669 Q1141.22 304.786 1142.74 304.786 Q1142.79 304.786 1142.88 304.786 Q1143.4 304.786 1143.61 304.809 Q1143.82 304.809 1144.03 304.856 Q1144.24 304.903 1144.29 305.02 Q1144.36 305.114 1144.36 305.301 Q1144.36 305.746 1144.17 305.981 Q1143.98 306.191 1143.79 306.238 Q1143.63 306.262 1143.3 306.262 Q1142.65 306.262 1141.24 306.215 Q1139.84 306.168 1139.13 306.168 L1135.15 306.121 L1131.08 306.168 Q1130.44 306.168 1129.11 306.215 Q1127.77 306.262 1127.14 306.262 Q1126.32 306.262 1126.32 305.676 Q1126.32 305.02 1126.63 304.903 Q1126.95 304.786 1128.34 304.786 Q1130.28 304.786 1131.33 304.692 Q1132.39 304.599 1132.95 304.271 Q1133.54 303.943 1133.7 303.615 Q1133.86 303.264 1134.05 302.467 L1140.49 276.866 Q1140.68 276.304 1140.68 275.859 Q1140.68 275.625 1140.61 275.531 Q1140.56 275.438 1140.26 275.367 Q1139.95 275.274 1139.32 275.274 L1137.45 275.274 Q1135.53 275.274 1134.33 275.367 Q1133.16 275.438 1132.04 275.789 Q1130.94 276.14 1130.28 276.632 Q1129.65 277.124 1128.94 278.131 Q1128.24 279.138 1127.73 280.356 Q1127.23 281.574 1126.53 283.565 Q1126.3 284.221 1126.16 284.408 Q1126.04 284.572 1125.71 284.572 Q1125.48 284.572 1125.29 284.432 Q1125.13 284.268 1125.13 284.057 Q1125.36 283.284 1125.41 283.191 L1128.29 274.735 Q1128.52 274.056 1128.73 273.939 Q1128.97 273.798 1129.83 273.798 L1156.44 273.798 Q1156.86 273.798 1157 273.798 Q1157.15 273.798 1157.38 273.845 Q1157.61 273.892 1157.68 274.009 Q1157.75 274.126 1157.75 274.313 Z" fill="#000000" fill-rule="nonzero" fill-opacity="1" /></svg>
