<?xml version="1.0" encoding="utf-8"?>
<svg xmlns="http://www.w3.org/2000/svg" xmlns:xlink="http://www.w3.org/1999/xlink" width="600" height="400" viewBox="0 0 2400 1600">
<defs>
  <clipPath id="clip400">
    <rect x="0" y="0" width="2400" height="1600"/>
  </clipPath>
</defs>
<path clip-path="url(#clip400)" d="M0 1600 L2400 1600 L2400 0 L0 0  Z" fill="#ffffff" fill-rule="evenodd" fill-opacity="1"/>
<defs>
  <clipPath id="clip401">
    <rect x="480" y="0" width="1681" height="1600"/>
  </clipPath>
</defs>
<path clip-path="url(#clip400)" d="M250.352 1423.18 L2352.76 1423.18 L2352.76 123.472 L250.352 123.472  Z" fill="#ffffff" fill-rule="evenodd" fill-opacity="1"/>
<defs>
  <clipPath id="clip402">
    <rect x="250" y="123" width="2103" height="1301"/>
  </clipPath>
</defs>
<polyline clip-path="url(#clip402)" style="stroke:#000000; stroke-linecap:round; stroke-linejoin:round; stroke-width:2; stroke-opacity:0.1; fill:none" points="252.118,1423.18 252.118,123.472 "/>
<polyline clip-path="url(#clip402)" style="stroke:#000000; stroke-linecap:round; stroke-linejoin:round; stroke-width:2; stroke-opacity:0.1; fill:none" points="694.192,1423.18 694.192,123.472 "/>
<polyline clip-path="url(#clip402)" style="stroke:#000000; stroke-linecap:round; stroke-linejoin:round; stroke-width:2; stroke-opacity:0.1; fill:none" points="1136.27,1423.18 1136.27,123.472 "/>
<polyline clip-path="url(#clip402)" style="stroke:#000000; stroke-linecap:round; stroke-linejoin:round; stroke-width:2; stroke-opacity:0.1; fill:none" points="1578.34,1423.18 1578.34,123.472 "/>
<polyline clip-path="url(#clip402)" style="stroke:#000000; stroke-linecap:round; stroke-linejoin:round; stroke-width:2; stroke-opacity:0.1; fill:none" points="2020.42,1423.18 2020.42,123.472 "/>
<polyline clip-path="url(#clip402)" style="stroke:#000000; stroke-linecap:round; stroke-linejoin:round; stroke-width:2; stroke-opacity:0.1; fill:none" points="250.352,1176.35 2352.76,1176.35 "/>
<polyline clip-path="url(#clip402)" style="stroke:#000000; stroke-linecap:round; stroke-linejoin:round; stroke-width:2; stroke-opacity:0.1; fill:none" points="250.352,901.369 2352.76,901.369 "/>
<polyline clip-path="url(#clip402)" style="stroke:#000000; stroke-linecap:round; stroke-linejoin:round; stroke-width:2; stroke-opacity:0.1; fill:none" points="250.352,626.382 2352.76,626.382 "/>
<polyline clip-path="url(#clip402)" style="stroke:#000000; stroke-linecap:round; stroke-linejoin:round; stroke-width:2; stroke-opacity:0.1; fill:none" points="250.352,351.396 2352.76,351.396 "/>
<polyline clip-path="url(#clip400)" style="stroke:#000000; stroke-linecap:round; stroke-linejoin:round; stroke-width:4; stroke-opacity:1; fill:none" points="250.352,1423.18 2352.76,1423.18 "/>
<polyline clip-path="url(#clip400)" style="stroke:#000000; stroke-linecap:round; stroke-linejoin:round; stroke-width:4; stroke-opacity:1; fill:none" points="252.118,1423.18 252.118,1404.28 "/>
<polyline clip-path="url(#clip400)" style="stroke:#000000; stroke-linecap:round; stroke-linejoin:round; stroke-width:4; stroke-opacity:1; fill:none" points="694.192,1423.18 694.192,1404.28 "/>
<polyline clip-path="url(#clip400)" style="stroke:#000000; stroke-linecap:round; stroke-linejoin:round; stroke-width:4; stroke-opacity:1; fill:none" points="1136.27,1423.18 1136.27,1404.28 "/>
<polyline clip-path="url(#clip400)" style="stroke:#000000; stroke-linecap:round; stroke-linejoin:round; stroke-width:4; stroke-opacity:1; fill:none" points="1578.34,1423.18 1578.34,1404.28 "/>
<polyline clip-path="url(#clip400)" style="stroke:#000000; stroke-linecap:round; stroke-linejoin:round; stroke-width:4; stroke-opacity:1; fill:none" points="2020.42,1423.18 2020.42,1404.28 "/>
<path clip-path="url(#clip400)" d="M199.143 1468.75 L228.819 1468.75 L228.819 1472.69 L199.143 1472.69 L199.143 1468.75 Z" fill="#000000" fill-rule="nonzero" fill-opacity="1" /><path clip-path="url(#clip400)" d="M248.912 1454.1 Q245.301 1454.1 243.472 1457.66 Q241.666 1461.2 241.666 1468.33 Q241.666 1475.44 243.472 1479.01 Q245.301 1482.55 248.912 1482.55 Q252.546 1482.55 254.351 1479.01 Q256.18 1475.44 256.18 1468.33 Q256.18 1461.2 254.351 1457.66 Q252.546 1454.1 248.912 1454.1 M248.912 1450.39 Q254.722 1450.39 257.777 1455 Q260.856 1459.58 260.856 1468.33 Q260.856 1477.06 257.777 1481.67 Q254.722 1486.25 248.912 1486.25 Q243.102 1486.25 240.023 1481.67 Q236.967 1477.06 236.967 1468.33 Q236.967 1459.58 240.023 1455 Q243.102 1450.39 248.912 1450.39 Z" fill="#000000" fill-rule="nonzero" fill-opacity="1" /><path clip-path="url(#clip400)" d="M269.074 1479.7 L273.958 1479.7 L273.958 1485.58 L269.074 1485.58 L269.074 1479.7 Z" fill="#000000" fill-rule="nonzero" fill-opacity="1" /><path clip-path="url(#clip400)" d="M284.189 1451.02 L302.546 1451.02 L302.546 1454.96 L288.472 1454.96 L288.472 1463.43 Q289.49 1463.08 290.509 1462.92 Q291.527 1462.73 292.546 1462.73 Q298.333 1462.73 301.712 1465.9 Q305.092 1469.08 305.092 1474.49 Q305.092 1480.07 301.62 1483.17 Q298.148 1486.25 291.828 1486.25 Q289.652 1486.25 287.384 1485.88 Q285.138 1485.51 282.731 1484.77 L282.731 1480.07 Q284.814 1481.2 287.036 1481.76 Q289.259 1482.32 291.736 1482.32 Q295.74 1482.32 298.078 1480.21 Q300.416 1478.1 300.416 1474.49 Q300.416 1470.88 298.078 1468.77 Q295.74 1466.67 291.736 1466.67 Q289.861 1466.67 287.986 1467.08 Q286.134 1467.5 284.189 1468.38 L284.189 1451.02 Z" fill="#000000" fill-rule="nonzero" fill-opacity="1" /><path clip-path="url(#clip400)" d="M671.577 1454.1 Q667.966 1454.1 666.137 1457.66 Q664.332 1461.2 664.332 1468.33 Q664.332 1475.44 666.137 1479.01 Q667.966 1482.55 671.577 1482.55 Q675.211 1482.55 677.017 1479.01 Q678.845 1475.44 678.845 1468.33 Q678.845 1461.2 677.017 1457.66 Q675.211 1454.1 671.577 1454.1 M671.577 1450.39 Q677.387 1450.39 680.443 1455 Q683.521 1459.58 683.521 1468.33 Q683.521 1477.06 680.443 1481.67 Q677.387 1486.25 671.577 1486.25 Q665.767 1486.25 662.688 1481.67 Q659.632 1477.06 659.632 1468.33 Q659.632 1459.58 662.688 1455 Q665.767 1450.39 671.577 1450.39 Z" fill="#000000" fill-rule="nonzero" fill-opacity="1" /><path clip-path="url(#clip400)" d="M691.739 1479.7 L696.623 1479.7 L696.623 1485.58 L691.739 1485.58 L691.739 1479.7 Z" fill="#000000" fill-rule="nonzero" fill-opacity="1" /><path clip-path="url(#clip400)" d="M716.808 1454.1 Q713.197 1454.1 711.368 1457.66 Q709.563 1461.2 709.563 1468.33 Q709.563 1475.44 711.368 1479.01 Q713.197 1482.55 716.808 1482.55 Q720.442 1482.55 722.248 1479.01 Q724.077 1475.44 724.077 1468.33 Q724.077 1461.2 722.248 1457.66 Q720.442 1454.1 716.808 1454.1 M716.808 1450.39 Q722.618 1450.39 725.674 1455 Q728.752 1459.58 728.752 1468.33 Q728.752 1477.06 725.674 1481.67 Q722.618 1486.25 716.808 1486.25 Q710.998 1486.25 707.919 1481.67 Q704.864 1477.06 704.864 1468.33 Q704.864 1459.58 707.919 1455 Q710.998 1450.39 716.808 1450.39 Z" fill="#000000" fill-rule="nonzero" fill-opacity="1" /><path clip-path="url(#clip400)" d="M1114.15 1454.1 Q1110.54 1454.1 1108.71 1457.66 Q1106.9 1461.2 1106.9 1468.33 Q1106.9 1475.44 1108.71 1479.01 Q1110.54 1482.55 1114.15 1482.55 Q1117.78 1482.55 1119.59 1479.01 Q1121.42 1475.44 1121.42 1468.33 Q1121.42 1461.2 1119.59 1457.66 Q1117.78 1454.1 1114.15 1454.1 M1114.15 1450.39 Q1119.96 1450.39 1123.02 1455 Q1126.09 1459.58 1126.09 1468.33 Q1126.09 1477.06 1123.02 1481.67 Q1119.96 1486.25 1114.15 1486.25 Q1108.34 1486.25 1105.26 1481.67 Q1102.2 1477.06 1102.2 1468.33 Q1102.2 1459.58 1105.26 1455 Q1108.34 1450.39 1114.15 1450.39 Z" fill="#000000" fill-rule="nonzero" fill-opacity="1" /><path clip-path="url(#clip400)" d="M1134.31 1479.7 L1139.2 1479.7 L1139.2 1485.58 L1134.31 1485.58 L1134.31 1479.7 Z" fill="#000000" fill-rule="nonzero" fill-opacity="1" /><path clip-path="url(#clip400)" d="M1149.43 1451.02 L1167.78 1451.02 L1167.78 1454.96 L1153.71 1454.96 L1153.71 1463.43 Q1154.73 1463.08 1155.75 1462.92 Q1156.76 1462.73 1157.78 1462.73 Q1163.57 1462.73 1166.95 1465.9 Q1170.33 1469.08 1170.33 1474.49 Q1170.33 1480.07 1166.86 1483.17 Q1163.39 1486.25 1157.07 1486.25 Q1154.89 1486.25 1152.62 1485.88 Q1150.38 1485.51 1147.97 1484.77 L1147.97 1480.07 Q1150.05 1481.2 1152.27 1481.76 Q1154.5 1482.32 1156.97 1482.32 Q1160.98 1482.32 1163.32 1480.21 Q1165.65 1478.1 1165.65 1474.49 Q1165.65 1470.88 1163.32 1468.77 Q1160.98 1466.67 1156.97 1466.67 Q1155.1 1466.67 1153.22 1467.08 Q1151.37 1467.5 1149.43 1468.38 L1149.43 1451.02 Z" fill="#000000" fill-rule="nonzero" fill-opacity="1" /><path clip-path="url(#clip400)" d="M1545.49 1481.64 L1553.13 1481.64 L1553.13 1455.28 L1544.82 1456.95 L1544.82 1452.69 L1553.09 1451.02 L1557.76 1451.02 L1557.76 1481.64 L1565.4 1481.64 L1565.4 1485.58 L1545.49 1485.58 L1545.49 1481.64 Z" fill="#000000" fill-rule="nonzero" fill-opacity="1" /><path clip-path="url(#clip400)" d="M1574.85 1479.7 L1579.73 1479.7 L1579.73 1485.58 L1574.85 1485.58 L1574.85 1479.7 Z" fill="#000000" fill-rule="nonzero" fill-opacity="1" /><path clip-path="url(#clip400)" d="M1599.92 1454.1 Q1596.3 1454.1 1594.48 1457.66 Q1592.67 1461.2 1592.67 1468.33 Q1592.67 1475.44 1594.48 1479.01 Q1596.3 1482.55 1599.92 1482.55 Q1603.55 1482.55 1605.36 1479.01 Q1607.18 1475.44 1607.18 1468.33 Q1607.18 1461.2 1605.36 1457.66 Q1603.55 1454.1 1599.92 1454.1 M1599.92 1450.39 Q1605.73 1450.39 1608.78 1455 Q1611.86 1459.58 1611.86 1468.33 Q1611.86 1477.06 1608.78 1481.67 Q1605.73 1486.25 1599.92 1486.25 Q1594.11 1486.25 1591.03 1481.67 Q1587.97 1477.06 1587.97 1468.33 Q1587.97 1459.58 1591.03 1455 Q1594.11 1450.39 1599.92 1450.39 Z" fill="#000000" fill-rule="nonzero" fill-opacity="1" /><path clip-path="url(#clip400)" d="M1988.07 1481.64 L1995.71 1481.64 L1995.71 1455.28 L1987.4 1456.95 L1987.4 1452.69 L1995.66 1451.02 L2000.34 1451.02 L2000.34 1481.64 L2007.97 1481.64 L2007.97 1485.58 L1988.07 1485.58 L1988.07 1481.64 Z" fill="#000000" fill-rule="nonzero" fill-opacity="1" /><path clip-path="url(#clip400)" d="M2017.42 1479.7 L2022.3 1479.7 L2022.3 1485.58 L2017.42 1485.58 L2017.42 1479.7 Z" fill="#000000" fill-rule="nonzero" fill-opacity="1" /><path clip-path="url(#clip400)" d="M2032.53 1451.02 L2050.89 1451.02 L2050.89 1454.96 L2036.82 1454.96 L2036.82 1463.43 Q2037.84 1463.08 2038.85 1462.92 Q2039.87 1462.73 2040.89 1462.73 Q2046.68 1462.73 2050.06 1465.9 Q2053.44 1469.08 2053.44 1474.49 Q2053.44 1480.07 2049.97 1483.17 Q2046.49 1486.25 2040.17 1486.25 Q2038 1486.25 2035.73 1485.88 Q2033.48 1485.51 2031.08 1484.77 L2031.08 1480.07 Q2033.16 1481.2 2035.38 1481.76 Q2037.6 1482.32 2040.08 1482.32 Q2044.09 1482.32 2046.42 1480.21 Q2048.76 1478.1 2048.76 1474.49 Q2048.76 1470.88 2046.42 1468.77 Q2044.09 1466.67 2040.08 1466.67 Q2038.21 1466.67 2036.33 1467.08 Q2034.48 1467.5 2032.53 1468.38 L2032.53 1451.02 Z" fill="#000000" fill-rule="nonzero" fill-opacity="1" /><path clip-path="url(#clip400)" d="M1064.72 1522.27 L1064.72 1532.4 L1076.78 1532.4 L1076.78 1536.95 L1064.72 1536.95 L1064.72 1556.3 Q1064.72 1560.66 1065.9 1561.9 Q1067.11 1563.14 1070.77 1563.14 L1076.78 1563.14 L1076.78 1568.04 L1070.77 1568.04 Q1063.99 1568.04 1061.41 1565.53 Q1058.83 1562.98 1058.83 1556.3 L1058.83 1536.95 L1054.53 1536.95 L1054.53 1532.4 L1058.83 1532.4 L1058.83 1522.27 L1064.72 1522.27 Z" fill="#000000" fill-rule="nonzero" fill-opacity="1" /><path clip-path="url(#clip400)" d="M1114.98 1548.76 L1114.98 1551.62 L1088.05 1551.62 Q1088.43 1557.67 1091.68 1560.85 Q1094.96 1564 1100.78 1564 Q1104.15 1564 1107.3 1563.17 Q1110.49 1562.35 1113.61 1560.69 L1113.61 1566.23 Q1110.46 1567.57 1107.15 1568.27 Q1103.84 1568.97 1100.43 1568.97 Q1091.9 1568.97 1086.9 1564 Q1081.94 1559.04 1081.94 1550.57 Q1081.94 1541.82 1086.65 1536.69 Q1091.39 1531.54 1099.41 1531.54 Q1106.6 1531.54 1110.77 1536.18 Q1114.98 1540.8 1114.98 1548.76 M1109.12 1547.04 Q1109.06 1542.23 1106.41 1539.37 Q1103.8 1536.5 1099.47 1536.5 Q1094.57 1536.5 1091.61 1539.27 Q1088.68 1542.04 1088.24 1547.07 L1109.12 1547.04 Z" fill="#000000" fill-rule="nonzero" fill-opacity="1" /><path clip-path="url(#clip400)" d="M1154.22 1546.53 L1154.22 1568.04 L1148.36 1568.04 L1148.36 1546.72 Q1148.36 1541.66 1146.39 1539.14 Q1144.42 1536.63 1140.47 1536.63 Q1135.73 1536.63 1132.99 1539.65 Q1130.25 1542.68 1130.25 1547.9 L1130.25 1568.04 L1124.36 1568.04 L1124.36 1532.4 L1130.25 1532.4 L1130.25 1537.93 Q1132.35 1534.72 1135.19 1533.13 Q1138.05 1531.54 1141.77 1531.54 Q1147.92 1531.54 1151.07 1535.36 Q1154.22 1539.14 1154.22 1546.53 Z" fill="#000000" fill-rule="nonzero" fill-opacity="1" /><path clip-path="url(#clip400)" d="M1188.63 1533.45 L1188.63 1538.98 Q1186.14 1537.71 1183.47 1537.07 Q1180.8 1536.44 1177.93 1536.44 Q1173.57 1536.44 1171.38 1537.77 Q1169.21 1539.11 1169.21 1541.79 Q1169.21 1543.82 1170.77 1545 Q1172.33 1546.15 1177.04 1547.2 L1179.05 1547.64 Q1185.28 1548.98 1187.89 1551.43 Q1190.54 1553.85 1190.54 1558.21 Q1190.54 1563.17 1186.59 1566.07 Q1182.67 1568.97 1175.8 1568.97 Q1172.93 1568.97 1169.82 1568.39 Q1166.73 1567.85 1163.29 1566.74 L1163.29 1560.69 Q1166.54 1562.38 1169.69 1563.24 Q1172.84 1564.07 1175.93 1564.07 Q1180.06 1564.07 1182.29 1562.66 Q1184.52 1561.23 1184.52 1558.65 Q1184.52 1556.27 1182.9 1554.99 Q1181.31 1553.72 1175.86 1552.54 L1173.83 1552.07 Q1168.38 1550.92 1165.96 1548.56 Q1163.55 1546.18 1163.55 1542.04 Q1163.55 1537.01 1167.11 1534.27 Q1170.68 1531.54 1177.23 1531.54 Q1180.48 1531.54 1183.34 1532.01 Q1186.21 1532.49 1188.63 1533.45 Z" fill="#000000" fill-rule="nonzero" fill-opacity="1" /><path clip-path="url(#clip400)" d="M1199.86 1532.4 L1205.72 1532.4 L1205.72 1568.04 L1199.86 1568.04 L1199.86 1532.4 M1199.86 1518.52 L1205.72 1518.52 L1205.72 1525.93 L1199.86 1525.93 L1199.86 1518.52 Z" fill="#000000" fill-rule="nonzero" fill-opacity="1" /><path clip-path="url(#clip400)" d="M1231.79 1536.5 Q1227.08 1536.5 1224.34 1540.19 Q1221.6 1543.85 1221.6 1550.25 Q1221.6 1556.65 1224.31 1560.34 Q1227.04 1564 1231.79 1564 Q1236.46 1564 1239.2 1560.31 Q1241.94 1556.62 1241.94 1550.25 Q1241.94 1543.92 1239.2 1540.23 Q1236.46 1536.5 1231.79 1536.5 M1231.79 1531.54 Q1239.42 1531.54 1243.79 1536.5 Q1248.15 1541.47 1248.15 1550.25 Q1248.15 1559 1243.79 1564 Q1239.42 1568.97 1231.79 1568.97 Q1224.12 1568.97 1219.75 1564 Q1215.43 1559 1215.43 1550.25 Q1215.43 1541.47 1219.75 1536.5 Q1224.12 1531.54 1231.79 1531.54 Z" fill="#000000" fill-rule="nonzero" fill-opacity="1" /><path clip-path="url(#clip400)" d="M1287.49 1546.53 L1287.49 1568.04 L1281.63 1568.04 L1281.63 1546.72 Q1281.63 1541.66 1279.66 1539.14 Q1277.68 1536.63 1273.74 1536.63 Q1268.99 1536.63 1266.26 1539.65 Q1263.52 1542.68 1263.52 1547.9 L1263.52 1568.04 L1257.63 1568.04 L1257.63 1532.4 L1263.52 1532.4 L1263.52 1537.93 Q1265.62 1534.72 1268.45 1533.13 Q1271.32 1531.54 1275.04 1531.54 Q1281.18 1531.54 1284.33 1535.36 Q1287.49 1539.14 1287.49 1546.53 Z" fill="#000000" fill-rule="nonzero" fill-opacity="1" /><path clip-path="url(#clip400)" d="M1333.96 1518.58 Q1329.69 1525.9 1327.62 1533.06 Q1325.55 1540.23 1325.55 1547.58 Q1325.55 1554.93 1327.62 1562.16 Q1329.72 1569.35 1333.96 1576.64 L1328.86 1576.64 Q1324.09 1569.16 1321.7 1561.93 Q1319.35 1554.71 1319.35 1547.58 Q1319.35 1540.48 1321.7 1533.29 Q1324.06 1526.09 1328.86 1518.58 L1333.96 1518.58 Z" fill="#000000" fill-rule="nonzero" fill-opacity="1" /><path clip-path="url(#clip400)" d="M1345.57 1520.52 L1354.23 1520.52 L1375.3 1560.28 L1375.3 1520.52 L1381.54 1520.52 L1381.54 1568.04 L1372.88 1568.04 L1351.81 1528.29 L1351.81 1568.04 L1345.57 1568.04 L1345.57 1520.52 Z" fill="#000000" fill-rule="nonzero" fill-opacity="1" /><path clip-path="url(#clip400)" d="M1395.58 1559.96 L1402.29 1559.96 L1402.29 1565.43 L1397.07 1575.62 L1392.97 1575.62 L1395.58 1565.43 L1395.58 1559.96 Z" fill="#000000" fill-rule="nonzero" fill-opacity="1" /><path clip-path="url(#clip400)" d="M1435.52 1518.52 L1441.38 1518.52 L1441.38 1568.04 L1435.52 1568.04 L1435.52 1518.52 Z" fill="#000000" fill-rule="nonzero" fill-opacity="1" /><path clip-path="url(#clip400)" d="M1467.44 1536.5 Q1462.73 1536.5 1460 1540.19 Q1457.26 1543.85 1457.26 1550.25 Q1457.26 1556.65 1459.96 1560.34 Q1462.7 1564 1467.44 1564 Q1472.12 1564 1474.86 1560.31 Q1477.6 1556.62 1477.6 1550.25 Q1477.6 1543.92 1474.86 1540.23 Q1472.12 1536.5 1467.44 1536.5 M1467.44 1531.54 Q1475.08 1531.54 1479.44 1536.5 Q1483.8 1541.47 1483.8 1550.25 Q1483.8 1559 1479.44 1564 Q1475.08 1568.97 1467.44 1568.97 Q1459.77 1568.97 1455.41 1564 Q1451.08 1559 1451.08 1550.25 Q1451.08 1541.47 1455.41 1536.5 Q1459.77 1531.54 1467.44 1531.54 Z" fill="#000000" fill-rule="nonzero" fill-opacity="1" /><path clip-path="url(#clip400)" d="M1516.97 1549.81 Q1516.97 1543.44 1514.33 1539.94 Q1511.72 1536.44 1506.98 1536.44 Q1502.26 1536.44 1499.62 1539.94 Q1497.01 1543.44 1497.01 1549.81 Q1497.01 1556.14 1499.62 1559.64 Q1502.26 1563.14 1506.98 1563.14 Q1511.72 1563.14 1514.33 1559.64 Q1516.97 1556.14 1516.97 1549.81 M1522.83 1563.62 Q1522.83 1572.72 1518.78 1577.15 Q1514.74 1581.6 1506.4 1581.6 Q1503.32 1581.6 1500.58 1581.13 Q1497.84 1580.68 1495.26 1579.72 L1495.26 1574.03 Q1497.84 1575.43 1500.36 1576.1 Q1502.87 1576.76 1505.48 1576.76 Q1511.24 1576.76 1514.11 1573.74 Q1516.97 1570.75 1516.97 1564.67 L1516.97 1561.77 Q1515.16 1564.92 1512.32 1566.48 Q1509.49 1568.04 1505.54 1568.04 Q1498.99 1568.04 1494.98 1563.05 Q1490.97 1558.05 1490.97 1549.81 Q1490.97 1541.53 1494.98 1536.53 Q1498.99 1531.54 1505.54 1531.54 Q1509.49 1531.54 1512.32 1533.1 Q1515.16 1534.66 1516.97 1537.81 L1516.97 1532.4 L1522.83 1532.4 L1522.83 1563.62 Z" fill="#000000" fill-rule="nonzero" fill-opacity="1" /><path clip-path="url(#clip400)" d="M1533.97 1518.58 L1539.06 1518.58 Q1543.83 1526.09 1546.19 1533.29 Q1548.58 1540.48 1548.58 1547.58 Q1548.58 1554.71 1546.19 1561.93 Q1543.83 1569.16 1539.06 1576.64 L1533.97 1576.64 Q1538.2 1569.35 1540.27 1562.16 Q1542.37 1554.93 1542.37 1547.58 Q1542.37 1540.23 1540.27 1533.06 Q1538.2 1525.9 1533.97 1518.58 Z" fill="#000000" fill-rule="nonzero" fill-opacity="1" /><polyline clip-path="url(#clip400)" style="stroke:#000000; stroke-linecap:round; stroke-linejoin:round; stroke-width:4; stroke-opacity:1; fill:none" points="250.352,1423.18 250.352,123.472 "/>
<polyline clip-path="url(#clip400)" style="stroke:#000000; stroke-linecap:round; stroke-linejoin:round; stroke-width:4; stroke-opacity:1; fill:none" points="250.352,1176.35 269.25,1176.35 "/>
<polyline clip-path="url(#clip400)" style="stroke:#000000; stroke-linecap:round; stroke-linejoin:round; stroke-width:4; stroke-opacity:1; fill:none" points="250.352,901.369 269.25,901.369 "/>
<polyline clip-path="url(#clip400)" style="stroke:#000000; stroke-linecap:round; stroke-linejoin:round; stroke-width:4; stroke-opacity:1; fill:none" points="250.352,626.382 269.25,626.382 "/>
<polyline clip-path="url(#clip400)" style="stroke:#000000; stroke-linecap:round; stroke-linejoin:round; stroke-width:4; stroke-opacity:1; fill:none" points="250.352,351.396 269.25,351.396 "/>
<path clip-path="url(#clip400)" d="M132.177 1175 Q135.533 1175.72 137.408 1177.99 Q139.306 1180.26 139.306 1183.59 Q139.306 1188.7 135.788 1191.51 Q132.269 1194.31 125.788 1194.31 Q123.612 1194.31 121.297 1193.87 Q119.006 1193.45 116.552 1192.59 L116.552 1188.08 Q118.496 1189.21 120.811 1189.79 Q123.126 1190.37 125.649 1190.37 Q130.047 1190.37 132.339 1188.64 Q134.654 1186.9 134.654 1183.59 Q134.654 1180.53 132.501 1178.82 Q130.371 1177.08 126.552 1177.08 L122.524 1177.08 L122.524 1173.24 L126.737 1173.24 Q130.186 1173.24 132.015 1171.88 Q133.843 1170.49 133.843 1167.89 Q133.843 1165.23 131.945 1163.82 Q130.07 1162.39 126.552 1162.39 Q124.63 1162.39 122.431 1162.8 Q120.232 1163.22 117.593 1164.1 L117.593 1159.93 Q120.255 1159.19 122.57 1158.82 Q124.908 1158.45 126.968 1158.45 Q132.292 1158.45 135.394 1160.88 Q138.496 1163.29 138.496 1167.41 Q138.496 1170.28 136.853 1172.27 Q135.209 1174.24 132.177 1175 Z" fill="#000000" fill-rule="nonzero" fill-opacity="1" /><path clip-path="url(#clip400)" d="M148.172 1187.76 L153.056 1187.76 L153.056 1193.63 L148.172 1193.63 L148.172 1187.76 Z" fill="#000000" fill-rule="nonzero" fill-opacity="1" /><path clip-path="url(#clip400)" d="M167.269 1189.7 L183.588 1189.7 L183.588 1193.63 L161.644 1193.63 L161.644 1189.7 Q164.306 1186.95 168.889 1182.32 Q173.496 1177.66 174.677 1176.32 Q176.922 1173.8 177.801 1172.06 Q178.704 1170.3 178.704 1168.61 Q178.704 1165.86 176.76 1164.12 Q174.839 1162.39 171.737 1162.39 Q169.538 1162.39 167.084 1163.15 Q164.653 1163.91 161.876 1165.46 L161.876 1160.74 Q164.7 1159.61 167.153 1159.03 Q169.607 1158.45 171.644 1158.45 Q177.014 1158.45 180.209 1161.14 Q183.403 1163.82 183.403 1168.31 Q183.403 1170.44 182.593 1172.36 Q181.806 1174.26 179.7 1176.85 Q179.121 1177.52 176.019 1180.74 Q172.917 1183.94 167.269 1189.7 Z" fill="#000000" fill-rule="nonzero" fill-opacity="1" /><path clip-path="url(#clip400)" d="M193.45 1159.07 L211.806 1159.07 L211.806 1163.01 L197.732 1163.01 L197.732 1171.48 Q198.75 1171.14 199.769 1170.97 Q200.787 1170.79 201.806 1170.79 Q207.593 1170.79 210.973 1173.96 Q214.352 1177.13 214.352 1182.55 Q214.352 1188.13 210.88 1191.23 Q207.408 1194.31 201.088 1194.31 Q198.912 1194.31 196.644 1193.94 Q194.399 1193.57 191.991 1192.82 L191.991 1188.13 Q194.075 1189.26 196.297 1189.82 Q198.519 1190.37 200.996 1190.37 Q205 1190.37 207.338 1188.26 Q209.676 1186.16 209.676 1182.55 Q209.676 1178.94 207.338 1176.83 Q205 1174.72 200.996 1174.72 Q199.121 1174.72 197.246 1175.14 Q195.394 1175.56 193.45 1176.44 L193.45 1159.07 Z" fill="#000000" fill-rule="nonzero" fill-opacity="1" /><path clip-path="url(#clip400)" d="M131.181 900.014 Q134.538 900.732 136.413 903 Q138.311 905.269 138.311 908.602 Q138.311 913.718 134.792 916.519 Q131.274 919.32 124.793 919.32 Q122.617 919.32 120.302 918.88 Q118.01 918.463 115.556 917.607 L115.556 913.093 Q117.501 914.227 119.816 914.806 Q122.13 915.385 124.654 915.385 Q129.052 915.385 131.343 913.649 Q133.658 911.912 133.658 908.602 Q133.658 905.547 131.505 903.834 Q129.376 902.098 125.556 902.098 L121.529 902.098 L121.529 898.255 L125.742 898.255 Q129.191 898.255 131.019 896.889 Q132.848 895.501 132.848 892.908 Q132.848 890.246 130.95 888.834 Q129.075 887.399 125.556 887.399 Q123.635 887.399 121.436 887.815 Q119.237 888.232 116.598 889.112 L116.598 884.945 Q119.26 884.204 121.575 883.834 Q123.913 883.464 125.973 883.464 Q131.297 883.464 134.399 885.894 Q137.501 888.302 137.501 892.422 Q137.501 895.292 135.857 897.283 Q134.214 899.251 131.181 900.014 Z" fill="#000000" fill-rule="nonzero" fill-opacity="1" /><path clip-path="url(#clip400)" d="M147.177 912.769 L152.061 912.769 L152.061 918.649 L147.177 918.649 L147.177 912.769 Z" fill="#000000" fill-rule="nonzero" fill-opacity="1" /><path clip-path="url(#clip400)" d="M162.292 884.089 L180.649 884.089 L180.649 888.024 L166.575 888.024 L166.575 896.496 Q167.593 896.149 168.612 895.987 Q169.63 895.801 170.649 895.801 Q176.436 895.801 179.815 898.973 Q183.195 902.144 183.195 907.561 Q183.195 913.139 179.723 916.241 Q176.251 919.32 169.931 919.32 Q167.755 919.32 165.487 918.949 Q163.241 918.579 160.834 917.838 L160.834 913.139 Q162.917 914.274 165.14 914.829 Q167.362 915.385 169.839 915.385 Q173.843 915.385 176.181 913.278 Q178.519 911.172 178.519 907.561 Q178.519 903.95 176.181 901.843 Q173.843 899.737 169.839 899.737 Q167.964 899.737 166.089 900.153 Q164.237 900.57 162.292 901.45 L162.292 884.089 Z" fill="#000000" fill-rule="nonzero" fill-opacity="1" /><path clip-path="url(#clip400)" d="M202.408 887.167 Q198.797 887.167 196.968 890.732 Q195.163 894.274 195.163 901.403 Q195.163 908.51 196.968 912.075 Q198.797 915.616 202.408 915.616 Q206.042 915.616 207.848 912.075 Q209.676 908.51 209.676 901.403 Q209.676 894.274 207.848 890.732 Q206.042 887.167 202.408 887.167 M202.408 883.464 Q208.218 883.464 211.274 888.07 Q214.352 892.653 214.352 901.403 Q214.352 910.13 211.274 914.737 Q208.218 919.32 202.408 919.32 Q196.598 919.32 193.519 914.737 Q190.463 910.13 190.463 901.403 Q190.463 892.653 193.519 888.07 Q196.598 883.464 202.408 883.464 Z" fill="#000000" fill-rule="nonzero" fill-opacity="1" /><path clip-path="url(#clip400)" d="M132.177 625.028 Q135.533 625.746 137.408 628.014 Q139.306 630.283 139.306 633.616 Q139.306 638.732 135.788 641.533 Q132.269 644.333 125.788 644.333 Q123.612 644.333 121.297 643.894 Q119.006 643.477 116.552 642.62 L116.552 638.107 Q118.496 639.241 120.811 639.82 Q123.126 640.398 125.649 640.398 Q130.047 640.398 132.339 638.662 Q134.654 636.926 134.654 633.616 Q134.654 630.56 132.501 628.847 Q130.371 627.111 126.552 627.111 L122.524 627.111 L122.524 623.269 L126.737 623.269 Q130.186 623.269 132.015 621.903 Q133.843 620.514 133.843 617.922 Q133.843 615.26 131.945 613.847 Q130.07 612.412 126.552 612.412 Q124.63 612.412 122.431 612.829 Q120.232 613.246 117.593 614.125 L117.593 609.959 Q120.255 609.218 122.57 608.848 Q124.908 608.477 126.968 608.477 Q132.292 608.477 135.394 610.908 Q138.496 613.315 138.496 617.435 Q138.496 620.306 136.853 622.297 Q135.209 624.264 132.177 625.028 Z" fill="#000000" fill-rule="nonzero" fill-opacity="1" /><path clip-path="url(#clip400)" d="M148.172 637.783 L153.056 637.783 L153.056 643.662 L148.172 643.662 L148.172 637.783 Z" fill="#000000" fill-rule="nonzero" fill-opacity="1" /><path clip-path="url(#clip400)" d="M162.061 609.102 L184.283 609.102 L184.283 611.093 L171.737 643.662 L166.852 643.662 L178.658 613.037 L162.061 613.037 L162.061 609.102 Z" fill="#000000" fill-rule="nonzero" fill-opacity="1" /><path clip-path="url(#clip400)" d="M193.45 609.102 L211.806 609.102 L211.806 613.037 L197.732 613.037 L197.732 621.509 Q198.75 621.162 199.769 621 Q200.787 620.815 201.806 620.815 Q207.593 620.815 210.973 623.986 Q214.352 627.158 214.352 632.574 Q214.352 638.153 210.88 641.255 Q207.408 644.333 201.088 644.333 Q198.912 644.333 196.644 643.963 Q194.399 643.593 191.991 642.852 L191.991 638.153 Q194.075 639.287 196.297 639.843 Q198.519 640.398 200.996 640.398 Q205 640.398 207.338 638.292 Q209.676 636.185 209.676 632.574 Q209.676 628.963 207.338 626.857 Q205 624.75 200.996 624.75 Q199.121 624.75 197.246 625.167 Q195.394 625.584 193.45 626.463 L193.45 609.102 Z" fill="#000000" fill-rule="nonzero" fill-opacity="1" /><path clip-path="url(#clip400)" d="M129.862 338.19 L118.056 356.639 L129.862 356.639 L129.862 338.19 M128.635 334.116 L134.515 334.116 L134.515 356.639 L139.445 356.639 L139.445 360.528 L134.515 360.528 L134.515 368.676 L129.862 368.676 L129.862 360.528 L114.26 360.528 L114.26 356.014 L128.635 334.116 Z" fill="#000000" fill-rule="nonzero" fill-opacity="1" /><path clip-path="url(#clip400)" d="M147.177 362.796 L152.061 362.796 L152.061 368.676 L147.177 368.676 L147.177 362.796 Z" fill="#000000" fill-rule="nonzero" fill-opacity="1" /><path clip-path="url(#clip400)" d="M172.246 337.194 Q168.635 337.194 166.806 340.759 Q165.001 344.301 165.001 351.43 Q165.001 358.537 166.806 362.102 Q168.635 365.643 172.246 365.643 Q175.88 365.643 177.686 362.102 Q179.514 358.537 179.514 351.43 Q179.514 344.301 177.686 340.759 Q175.88 337.194 172.246 337.194 M172.246 333.491 Q178.056 333.491 181.112 338.097 Q184.19 342.68 184.19 351.43 Q184.19 360.157 181.112 364.764 Q178.056 369.347 172.246 369.347 Q166.436 369.347 163.357 364.764 Q160.302 360.157 160.302 351.43 Q160.302 342.68 163.357 338.097 Q166.436 333.491 172.246 333.491 Z" fill="#000000" fill-rule="nonzero" fill-opacity="1" /><path clip-path="url(#clip400)" d="M202.408 337.194 Q198.797 337.194 196.968 340.759 Q195.163 344.301 195.163 351.43 Q195.163 358.537 196.968 362.102 Q198.797 365.643 202.408 365.643 Q206.042 365.643 207.848 362.102 Q209.676 358.537 209.676 351.43 Q209.676 344.301 207.848 340.759 Q206.042 337.194 202.408 337.194 M202.408 333.491 Q208.218 333.491 211.274 338.097 Q214.352 342.68 214.352 351.43 Q214.352 360.157 211.274 364.764 Q208.218 369.347 202.408 369.347 Q196.598 369.347 193.519 364.764 Q190.463 360.157 190.463 351.43 Q190.463 342.68 193.519 338.097 Q196.598 333.491 202.408 333.491 Z" fill="#000000" fill-rule="nonzero" fill-opacity="1" /><path clip-path="url(#clip400)" d="M35.1993 1273.48 Q31.2526 1271.28 29.3747 1268.23 Q27.4968 1265.17 27.4968 1261.03 Q27.4968 1255.46 31.4117 1252.44 Q35.2948 1249.42 42.4881 1249.42 L64.0042 1249.42 L64.0042 1255.31 L42.679 1255.31 Q37.5546 1255.31 35.072 1257.12 Q32.5894 1258.93 32.5894 1262.66 Q32.5894 1267.21 35.6131 1269.85 Q38.6368 1272.49 43.8567 1272.49 L64.0042 1272.49 L64.0042 1278.38 L42.679 1278.38 Q37.5228 1278.38 35.072 1280.2 Q32.5894 1282.01 32.5894 1285.8 Q32.5894 1290.29 35.6449 1292.93 Q38.6686 1295.57 43.8567 1295.57 L64.0042 1295.57 L64.0042 1301.46 L28.3562 1301.46 L28.3562 1295.57 L33.8944 1295.57 Q30.616 1293.56 29.0564 1290.76 Q27.4968 1287.96 27.4968 1284.11 Q27.4968 1280.23 29.4702 1277.52 Q31.4436 1274.78 35.1993 1273.48 Z" fill="#000000" fill-rule="nonzero" fill-opacity="1" /><path clip-path="url(#clip400)" d="M44.7161 1207.24 L47.5806 1207.24 L47.5806 1234.17 Q53.6281 1233.79 56.8109 1230.54 Q59.9619 1227.26 59.9619 1221.44 Q59.9619 1218.07 59.1344 1214.92 Q58.3069 1211.73 56.6518 1208.61 L62.1899 1208.61 Q63.5267 1211.76 64.227 1215.07 Q64.9272 1218.38 64.9272 1221.79 Q64.9272 1230.32 59.9619 1235.32 Q54.9967 1240.28 46.5303 1240.28 Q37.7774 1240.28 32.6531 1235.57 Q27.4968 1230.83 27.4968 1222.81 Q27.4968 1215.62 32.1438 1211.45 Q36.7589 1207.24 44.7161 1207.24 M42.9973 1213.1 Q38.1912 1213.16 35.3266 1215.81 Q32.4621 1218.42 32.4621 1222.74 Q32.4621 1227.65 35.2312 1230.61 Q38.0002 1233.53 43.0292 1233.98 L42.9973 1213.1 Z" fill="#000000" fill-rule="nonzero" fill-opacity="1" /><path clip-path="url(#clip400)" d="M46.0847 1181.43 Q46.0847 1188.53 47.7079 1191.27 Q49.3312 1194 53.2461 1194 Q56.3653 1194 58.2114 1191.97 Q60.0256 1189.9 60.0256 1186.36 Q60.0256 1181.5 56.5881 1178.57 Q53.1188 1175.61 47.3897 1175.61 L46.0847 1175.61 L46.0847 1181.43 M43.6657 1169.75 L64.0042 1169.75 L64.0042 1175.61 L58.5933 1175.61 Q61.8398 1177.61 63.3994 1180.6 Q64.9272 1183.6 64.9272 1187.92 Q64.9272 1193.4 61.8716 1196.65 Q58.7843 1199.86 53.6281 1199.86 Q47.6125 1199.86 44.5569 1195.85 Q41.5014 1191.81 41.5014 1183.82 L41.5014 1175.61 L40.9285 1175.61 Q36.8862 1175.61 34.6901 1178.28 Q32.4621 1180.92 32.4621 1185.73 Q32.4621 1188.78 33.1941 1191.68 Q33.9262 1194.58 35.3903 1197.25 L29.9795 1197.25 Q28.7381 1194.04 28.1334 1191.01 Q27.4968 1187.99 27.4968 1185.12 Q27.4968 1177.39 31.5072 1173.57 Q35.5176 1169.75 43.6657 1169.75 Z" fill="#000000" fill-rule="nonzero" fill-opacity="1" /><path clip-path="url(#clip400)" d="M29.4065 1134.96 L34.9447 1134.96 Q33.6716 1137.44 33.035 1140.12 Q32.3984 1142.79 32.3984 1145.66 Q32.3984 1150.02 33.7352 1152.21 Q35.072 1154.38 37.7456 1154.38 Q39.7826 1154.38 40.9603 1152.82 Q42.1061 1151.26 43.1565 1146.55 L43.6021 1144.54 Q44.9389 1138.3 47.3897 1135.69 Q49.8086 1133.05 54.1691 1133.05 Q59.1344 1133.05 62.0308 1137 Q64.9272 1140.91 64.9272 1147.79 Q64.9272 1150.65 64.3543 1153.77 Q63.8132 1156.86 62.6992 1160.3 L56.6518 1160.3 Q58.3387 1157.05 59.198 1153.9 Q60.0256 1150.75 60.0256 1147.66 Q60.0256 1143.52 58.6251 1141.3 Q57.1929 1139.07 54.6147 1139.07 Q52.2276 1139.07 50.9545 1140.69 Q49.6813 1142.28 48.5037 1147.73 L48.0262 1149.76 Q46.8804 1155.2 44.5251 1157.62 Q42.138 1160.04 38.0002 1160.04 Q32.9713 1160.04 30.2341 1156.48 Q27.4968 1152.91 27.4968 1146.36 Q27.4968 1143.11 27.9743 1140.25 Q28.4517 1137.38 29.4065 1134.96 Z" fill="#000000" fill-rule="nonzero" fill-opacity="1" /><path clip-path="url(#clip400)" d="M49.9359 1124.33 L28.3562 1124.33 L28.3562 1118.47 L49.7131 1118.47 Q54.7739 1118.47 57.3202 1116.5 Q59.8346 1114.53 59.8346 1110.58 Q59.8346 1105.84 56.8109 1103.1 Q53.7872 1100.33 48.5673 1100.33 L28.3562 1100.33 L28.3562 1094.48 L64.0042 1094.48 L64.0042 1100.33 L58.5296 1100.33 Q61.7762 1102.46 63.3676 1105.3 Q64.9272 1108.1 64.9272 1111.82 Q64.9272 1117.97 61.1078 1121.15 Q57.2883 1124.33 49.9359 1124.33 M27.4968 1109.59 L27.4968 1109.59 Z" fill="#000000" fill-rule="nonzero" fill-opacity="1" /><path clip-path="url(#clip400)" d="M33.8307 1061.76 Q33.2578 1062.74 33.0032 1063.92 Q32.7167 1065.07 32.7167 1066.47 Q32.7167 1071.43 35.9632 1074.11 Q39.1779 1076.75 45.2253 1076.75 L64.0042 1076.75 L64.0042 1082.64 L28.3562 1082.64 L28.3562 1076.75 L33.8944 1076.75 Q30.6479 1074.9 29.0883 1071.94 Q27.4968 1068.98 27.4968 1064.75 Q27.4968 1064.14 27.5923 1063.41 Q27.656 1062.68 27.8151 1061.79 L33.8307 1061.76 Z" fill="#000000" fill-rule="nonzero" fill-opacity="1" /><path clip-path="url(#clip400)" d="M44.7161 1026.55 L47.5806 1026.55 L47.5806 1053.48 Q53.6281 1053.1 56.8109 1049.85 Q59.9619 1046.57 59.9619 1040.75 Q59.9619 1037.38 59.1344 1034.22 Q58.3069 1031.04 56.6518 1027.92 L62.1899 1027.92 Q63.5267 1031.07 64.227 1034.38 Q64.9272 1037.69 64.9272 1041.1 Q64.9272 1049.63 59.9619 1054.63 Q54.9967 1059.59 46.5303 1059.59 Q37.7774 1059.59 32.6531 1054.88 Q27.4968 1050.14 27.4968 1042.12 Q27.4968 1034.92 32.1438 1030.76 Q36.7589 1026.55 44.7161 1026.55 M42.9973 1032.41 Q38.1912 1032.47 35.3266 1035.12 Q32.4621 1037.73 32.4621 1042.05 Q32.4621 1046.96 35.2312 1049.92 Q38.0002 1052.84 43.0292 1053.29 L42.9973 1032.41 Z" fill="#000000" fill-rule="nonzero" fill-opacity="1" /><path clip-path="url(#clip400)" d="M33.7671 993.484 L14.479 993.484 L14.479 987.627 L64.0042 987.627 L64.0042 993.484 L58.657 993.484 Q61.8398 995.33 63.3994 998.163 Q64.9272 1000.96 64.9272 1004.91 Q64.9272 1011.37 59.771 1015.45 Q54.6147 1019.49 46.212 1019.49 Q37.8093 1019.49 32.6531 1015.45 Q27.4968 1011.37 27.4968 1004.91 Q27.4968 1000.96 29.0564 998.163 Q30.5842 995.33 33.7671 993.484 M46.212 1013.44 Q52.6732 1013.44 56.3653 1010.8 Q60.0256 1008.13 60.0256 1003.48 Q60.0256 998.831 56.3653 996.158 Q52.6732 993.484 46.212 993.484 Q39.7508 993.484 36.0905 996.158 Q32.3984 998.831 32.3984 1003.48 Q32.3984 1008.13 36.0905 1010.8 Q39.7508 1013.44 46.212 1013.44 Z" fill="#000000" fill-rule="nonzero" fill-opacity="1" /><path clip-path="url(#clip400)" d="M28.3562 958.25 L28.3562 952.393 L56.1743 945.073 L28.3562 937.784 L28.3562 930.877 L56.1743 923.557 L28.3562 916.268 L28.3562 910.411 L64.0042 919.737 L64.0042 926.644 L34.7856 934.315 L64.0042 942.017 L64.0042 948.924 L28.3562 958.25 Z" fill="#000000" fill-rule="nonzero" fill-opacity="1" /><path clip-path="url(#clip400)" d="M46.0847 885.331 Q46.0847 892.428 47.7079 895.166 Q49.3312 897.903 53.2461 897.903 Q56.3653 897.903 58.2114 895.866 Q60.0256 893.797 60.0256 890.264 Q60.0256 885.394 56.5881 882.466 Q53.1188 879.506 47.3897 879.506 L46.0847 879.506 L46.0847 885.331 M43.6657 873.65 L64.0042 873.65 L64.0042 879.506 L58.5933 879.506 Q61.8398 881.511 63.3994 884.503 Q64.9272 887.495 64.9272 891.824 Q64.9272 897.298 61.8716 900.545 Q58.7843 903.759 53.6281 903.759 Q47.6125 903.759 44.5569 899.749 Q41.5014 895.707 41.5014 887.718 L41.5014 879.506 L40.9285 879.506 Q36.8862 879.506 34.6901 882.18 Q32.4621 884.821 32.4621 889.627 Q32.4621 892.683 33.1941 895.579 Q33.9262 898.476 35.3903 901.149 L29.9795 901.149 Q28.7381 897.935 28.1334 894.911 Q27.4968 891.887 27.4968 889.023 Q27.4968 881.288 31.5072 877.469 Q35.5176 873.65 43.6657 873.65 Z" fill="#000000" fill-rule="nonzero" fill-opacity="1" /><path clip-path="url(#clip400)" d="M28.3562 865.788 L28.3562 859.581 L58.275 848.441 L28.3562 837.301 L28.3562 831.095 L64.0042 844.463 L64.0042 852.42 L28.3562 865.788 Z" fill="#000000" fill-rule="nonzero" fill-opacity="1" /><path clip-path="url(#clip400)" d="M44.7161 792.519 L47.5806 792.519 L47.5806 819.446 Q53.6281 819.064 56.8109 815.817 Q59.9619 812.539 59.9619 806.714 Q59.9619 803.34 59.1344 800.189 Q58.3069 797.006 56.6518 793.887 L62.1899 793.887 Q63.5267 797.038 64.227 800.348 Q64.9272 803.659 64.9272 807.064 Q64.9272 815.594 59.9619 820.591 Q54.9967 825.557 46.5303 825.557 Q37.7774 825.557 32.6531 820.846 Q27.4968 816.104 27.4968 808.083 Q27.4968 800.889 32.1438 796.72 Q36.7589 792.519 44.7161 792.519 M42.9973 798.375 Q38.1912 798.439 35.3266 801.08 Q32.4621 803.69 32.4621 808.019 Q32.4621 812.921 35.2312 815.881 Q38.0002 818.809 43.0292 819.255 L42.9973 798.375 Z" fill="#000000" fill-rule="nonzero" fill-opacity="1" /><path clip-path="url(#clip400)" d="M29.4065 739.46 L34.9447 739.46 Q33.6716 741.943 33.035 744.617 Q32.3984 747.29 32.3984 750.155 Q32.3984 754.515 33.7352 756.711 Q35.072 758.876 37.7456 758.876 Q39.7826 758.876 40.9603 757.316 Q42.1061 755.757 43.1565 751.046 L43.6021 749.041 Q44.9389 742.802 47.3897 740.192 Q49.8086 737.551 54.1691 737.551 Q59.1344 737.551 62.0308 741.497 Q64.9272 745.412 64.9272 752.287 Q64.9272 755.152 64.3543 758.271 Q63.8132 761.358 62.6992 764.796 L56.6518 764.796 Q58.3387 761.549 59.198 758.398 Q60.0256 755.247 60.0256 752.16 Q60.0256 748.022 58.6251 745.794 Q57.1929 743.566 54.6147 743.566 Q52.2276 743.566 50.9545 745.19 Q49.6813 746.781 48.5037 752.224 L48.0262 754.261 Q46.8804 759.703 44.5251 762.122 Q42.138 764.541 38.0002 764.541 Q32.9713 764.541 30.2341 760.977 Q27.4968 757.412 27.4968 750.855 Q27.4968 747.609 27.9743 744.744 Q28.4517 741.879 29.4065 739.46 Z" fill="#000000" fill-rule="nonzero" fill-opacity="1" /><path clip-path="url(#clip400)" d="M58.657 722.559 L77.5631 722.559 L77.5631 728.448 L28.3562 728.448 L28.3562 722.559 L33.7671 722.559 Q30.5842 720.713 29.0564 717.913 Q27.4968 715.08 27.4968 711.165 Q27.4968 704.672 32.6531 700.63 Q37.8093 696.556 46.212 696.556 Q54.6147 696.556 59.771 700.63 Q64.9272 704.672 64.9272 711.165 Q64.9272 715.08 63.3994 717.913 Q61.8398 720.713 58.657 722.559 M46.212 702.635 Q39.7508 702.635 36.0905 705.308 Q32.3984 707.95 32.3984 712.597 Q32.3984 717.244 36.0905 719.918 Q39.7508 722.559 46.212 722.559 Q52.6732 722.559 56.3653 719.918 Q60.0256 717.244 60.0256 712.597 Q60.0256 707.95 56.3653 705.308 Q52.6732 702.635 46.212 702.635 Z" fill="#000000" fill-rule="nonzero" fill-opacity="1" /><path clip-path="url(#clip400)" d="M44.7161 656.356 L47.5806 656.356 L47.5806 683.283 Q53.6281 682.901 56.8109 679.655 Q59.9619 676.376 59.9619 670.552 Q59.9619 667.178 59.1344 664.027 Q58.3069 660.844 56.6518 657.725 L62.1899 657.725 Q63.5267 660.876 64.227 664.186 Q64.9272 667.496 64.9272 670.902 Q64.9272 679.432 59.9619 684.429 Q54.9967 689.394 46.5303 689.394 Q37.7774 689.394 32.6531 684.684 Q27.4968 679.941 27.4968 671.92 Q27.4968 664.727 32.1438 660.557 Q36.7589 656.356 44.7161 656.356 M42.9973 662.213 Q38.1912 662.276 35.3266 664.918 Q32.4621 667.528 32.4621 671.857 Q32.4621 676.758 35.2312 679.718 Q38.0002 682.646 43.0292 683.092 L42.9973 662.213 Z" fill="#000000" fill-rule="nonzero" fill-opacity="1" /><path clip-path="url(#clip400)" d="M44.7161 616.252 L47.5806 616.252 L47.5806 643.179 Q53.6281 642.797 56.8109 639.551 Q59.9619 636.272 59.9619 630.448 Q59.9619 627.074 59.1344 623.923 Q58.3069 620.74 56.6518 617.621 L62.1899 617.621 Q63.5267 620.772 64.227 624.082 Q64.9272 627.392 64.9272 630.798 Q64.9272 639.328 59.9619 644.325 Q54.9967 649.29 46.5303 649.29 Q37.7774 649.29 32.6531 644.58 Q27.4968 639.837 27.4968 631.816 Q27.4968 624.623 32.1438 620.454 Q36.7589 616.252 44.7161 616.252 M42.9973 622.109 Q38.1912 622.172 35.3266 624.814 Q32.4621 627.424 32.4621 631.753 Q32.4621 636.654 35.2312 639.614 Q38.0002 642.543 43.0292 642.988 L42.9973 622.109 Z" fill="#000000" fill-rule="nonzero" fill-opacity="1" /><path clip-path="url(#clip400)" d="M33.7671 583.182 L14.479 583.182 L14.479 577.326 L64.0042 577.326 L64.0042 583.182 L58.657 583.182 Q61.8398 585.028 63.3994 587.861 Q64.9272 590.662 64.9272 594.609 Q64.9272 601.07 59.771 605.144 Q54.6147 609.186 46.212 609.186 Q37.8093 609.186 32.6531 605.144 Q27.4968 601.07 27.4968 594.609 Q27.4968 590.662 29.0564 587.861 Q30.5842 585.028 33.7671 583.182 M46.212 603.139 Q52.6732 603.139 56.3653 600.497 Q60.0256 597.823 60.0256 593.176 Q60.0256 588.53 56.3653 585.856 Q52.6732 583.182 46.212 583.182 Q39.7508 583.182 36.0905 585.856 Q32.3984 588.53 32.3984 593.176 Q32.3984 597.823 36.0905 600.497 Q39.7508 603.139 46.212 603.139 Z" fill="#000000" fill-rule="nonzero" fill-opacity="1" /><path clip-path="url(#clip400)" d="M14.5426 530.474 Q21.8632 534.739 29.0246 536.808 Q36.186 538.877 43.5384 538.877 Q50.8908 538.877 58.1159 536.808 Q65.3091 534.707 72.5979 530.474 L72.5979 535.567 Q65.1182 540.341 57.8931 542.728 Q50.668 545.084 43.5384 545.084 Q36.4406 545.084 29.2474 542.728 Q22.0542 540.373 14.5426 535.567 L14.5426 530.474 Z" fill="#000000" fill-rule="nonzero" fill-opacity="1" /><path clip-path="url(#clip400)" d="M35.1993 491.357 Q31.2526 489.161 29.3747 486.105 Q27.4968 483.05 27.4968 478.912 Q27.4968 473.342 31.4117 470.318 Q35.2948 467.295 42.4881 467.295 L64.0042 467.295 L64.0042 473.183 L42.679 473.183 Q37.5546 473.183 35.072 474.997 Q32.5894 476.811 32.5894 480.535 Q32.5894 485.087 35.6131 487.729 Q38.6368 490.37 43.8567 490.37 L64.0042 490.37 L64.0042 496.259 L42.679 496.259 Q37.5228 496.259 35.072 498.073 Q32.5894 499.887 32.5894 503.675 Q32.5894 508.162 35.6449 510.804 Q38.6686 513.446 43.8567 513.446 L64.0042 513.446 L64.0042 519.334 L28.3562 519.334 L28.3562 513.446 L33.8944 513.446 Q30.616 511.441 29.0564 508.64 Q27.4968 505.839 27.4968 501.988 Q27.4968 498.105 29.4702 495.399 Q31.4436 492.662 35.1993 491.357 Z" fill="#000000" fill-rule="nonzero" fill-opacity="1" /><path clip-path="url(#clip400)" d="M16.4842 445.206 L16.4842 439.795 L70.0516 456.346 L70.0516 461.756 L16.4842 445.206 Z" fill="#000000" fill-rule="nonzero" fill-opacity="1" /><path clip-path="url(#clip400)" d="M29.4065 410.926 L34.9447 410.926 Q33.6716 413.409 33.035 416.083 Q32.3984 418.756 32.3984 421.621 Q32.3984 425.981 33.7352 428.177 Q35.072 430.342 37.7456 430.342 Q39.7826 430.342 40.9603 428.782 Q42.1061 427.223 43.1565 422.512 L43.6021 420.507 Q44.9389 414.268 47.3897 411.658 Q49.8086 409.017 54.1691 409.017 Q59.1344 409.017 62.0308 412.963 Q64.9272 416.878 64.9272 423.753 Q64.9272 426.618 64.3543 429.737 Q63.8132 432.824 62.6992 436.262 L56.6518 436.262 Q58.3387 433.015 59.198 429.864 Q60.0256 426.713 60.0256 423.626 Q60.0256 419.488 58.6251 417.26 Q57.1929 415.032 54.6147 415.032 Q52.2276 415.032 50.9545 416.655 Q49.6813 418.247 48.5037 423.69 L48.0262 425.727 Q46.8804 431.169 44.5251 433.588 Q42.138 436.007 38.0002 436.007 Q32.9713 436.007 30.2341 432.442 Q27.4968 428.878 27.4968 422.321 Q27.4968 419.074 27.9743 416.21 Q28.4517 413.345 29.4065 410.926 Z" fill="#000000" fill-rule="nonzero" fill-opacity="1" /><path clip-path="url(#clip400)" d="M55.9197 398.195 L55.9197 391.479 L61.3942 391.479 L71.5793 396.699 L71.5793 400.805 L61.3942 398.195 L55.9197 398.195 Z" fill="#000000" fill-rule="nonzero" fill-opacity="1" /><path clip-path="url(#clip400)" d="M14.479 358.25 L14.479 352.394 L64.0042 352.394 L64.0042 358.25 L14.479 358.25 Z" fill="#000000" fill-rule="nonzero" fill-opacity="1" /><path clip-path="url(#clip400)" d="M32.4621 326.326 Q32.4621 331.037 36.1542 333.774 Q39.8145 336.511 46.212 336.511 Q52.6095 336.511 56.3017 333.806 Q59.9619 331.069 59.9619 326.326 Q59.9619 321.647 56.2698 318.91 Q52.5777 316.173 46.212 316.173 Q39.8781 316.173 36.186 318.91 Q32.4621 321.647 32.4621 326.326 M27.4968 326.326 Q27.4968 318.687 32.4621 314.327 Q37.4273 309.966 46.212 309.966 Q54.9649 309.966 59.9619 314.327 Q64.9272 318.687 64.9272 326.326 Q64.9272 333.997 59.9619 338.357 Q54.9649 342.686 46.212 342.686 Q37.4273 342.686 32.4621 338.357 Q27.4968 333.997 27.4968 326.326 Z" fill="#000000" fill-rule="nonzero" fill-opacity="1" /><path clip-path="url(#clip400)" d="M45.7664 276.801 Q39.4007 276.801 35.8996 279.443 Q32.3984 282.053 32.3984 286.795 Q32.3984 291.506 35.8996 294.147 Q39.4007 296.757 45.7664 296.757 Q52.1003 296.757 55.6014 294.147 Q59.1026 291.506 59.1026 286.795 Q59.1026 282.053 55.6014 279.443 Q52.1003 276.801 45.7664 276.801 M59.58 270.944 Q68.683 270.944 73.1071 274.987 Q77.5631 279.029 77.5631 287.368 Q77.5631 290.455 77.0857 293.193 Q76.6401 295.93 75.6852 298.508 L69.9879 298.508 Q71.3884 295.93 72.0568 293.415 Q72.7252 290.901 72.7252 288.291 Q72.7252 282.53 69.7015 279.665 Q66.7096 276.801 60.6303 276.801 L57.7339 276.801 Q60.885 278.615 62.4446 281.448 Q64.0042 284.281 64.0042 288.227 Q64.0042 294.784 59.0071 298.794 Q54.01 302.805 45.7664 302.805 Q37.491 302.805 32.4939 298.794 Q27.4968 294.784 27.4968 288.227 Q27.4968 284.281 29.0564 281.448 Q30.616 278.615 33.7671 276.801 L28.3562 276.801 L28.3562 270.944 L59.58 270.944 Z" fill="#000000" fill-rule="nonzero" fill-opacity="1" /><path clip-path="url(#clip400)" d="M14.5426 259.804 L14.5426 254.712 Q22.0542 249.938 29.2474 247.582 Q36.4406 245.195 43.5384 245.195 Q50.668 245.195 57.8931 247.582 Q65.1182 249.938 72.5979 254.712 L72.5979 259.804 Q65.3091 255.571 58.1159 253.502 Q50.8908 251.402 43.5384 251.402 Q36.186 251.402 29.0246 253.502 Q21.8632 255.571 14.5426 259.804 Z" fill="#000000" fill-rule="nonzero" fill-opacity="1" /><path clip-path="url(#clip400)" d="M829.482 12.096 L837.665 12.096 L837.665 65.6895 L867.115 65.6895 L867.115 72.576 L829.482 72.576 L829.482 12.096 Z" fill="#000000" fill-rule="nonzero" fill-opacity="1" /><path clip-path="url(#clip400)" d="M875.379 27.2059 L882.832 27.2059 L882.832 72.576 L875.379 72.576 L875.379 27.2059 M875.379 9.54393 L882.832 9.54393 L882.832 18.9825 L875.379 18.9825 L875.379 9.54393 Z" fill="#000000" fill-rule="nonzero" fill-opacity="1" /><path clip-path="url(#clip400)" d="M936.142 45.1919 L936.142 72.576 L928.689 72.576 L928.689 45.4349 Q928.689 38.994 926.177 35.7938 Q923.665 32.5936 918.642 32.5936 Q912.606 32.5936 909.123 36.4419 Q905.639 40.2903 905.639 46.9338 L905.639 72.576 L898.145 72.576 L898.145 27.2059 L905.639 27.2059 L905.639 34.2544 Q908.313 30.163 911.918 28.1376 Q915.564 26.1121 920.303 26.1121 Q928.121 26.1121 932.132 30.9732 Q936.142 35.7938 936.142 45.1919 Z" fill="#000000" fill-rule="nonzero" fill-opacity="1" /><path clip-path="url(#clip400)" d="M989.817 48.0275 L989.817 51.6733 L955.546 51.6733 Q956.032 59.3701 960.164 63.421 Q964.337 67.4314 971.75 67.4314 Q976.044 67.4314 980.054 66.3781 Q984.105 65.3249 988.075 63.2184 L988.075 70.267 Q984.064 71.9684 979.852 72.8596 Q975.639 73.7508 971.304 73.7508 Q960.448 73.7508 954.088 67.4314 Q947.768 61.1119 947.768 50.3365 Q947.768 39.1965 953.764 32.6746 Q959.8 26.1121 970.008 26.1121 Q979.163 26.1121 984.47 32.0264 Q989.817 37.9003 989.817 48.0275 M982.363 45.84 Q982.282 39.7232 978.92 36.0774 Q975.598 32.4315 970.089 32.4315 Q963.85 32.4315 960.083 35.9558 Q956.356 39.4801 955.789 45.8805 L982.363 45.84 Z" fill="#000000" fill-rule="nonzero" fill-opacity="1" /><path clip-path="url(#clip400)" d="M1022.67 49.7694 Q1013.64 49.7694 1010.15 51.8354 Q1006.67 53.9013 1006.67 58.8839 Q1006.67 62.8538 1009.26 65.2034 Q1011.89 67.5124 1016.39 67.5124 Q1022.59 67.5124 1026.32 63.1374 Q1030.08 58.7219 1030.08 51.4303 L1030.08 49.7694 L1022.67 49.7694 M1037.54 46.6907 L1037.54 72.576 L1030.08 72.576 L1030.08 65.6895 Q1027.53 69.8214 1023.72 71.8063 Q1019.91 73.7508 1014.41 73.7508 Q1007.44 73.7508 1003.31 69.8619 Q999.215 65.9325 999.215 59.3701 Q999.215 51.7138 1004.32 47.825 Q1009.46 43.9361 1019.63 43.9361 L1030.08 43.9361 L1030.08 43.2069 Q1030.08 38.0623 1026.68 35.2672 Q1023.32 32.4315 1017.2 32.4315 Q1013.31 32.4315 1009.63 33.3632 Q1005.94 34.295 1002.54 36.1584 L1002.54 29.2718 Q1006.63 27.692 1010.48 26.9223 Q1014.32 26.1121 1017.97 26.1121 Q1027.81 26.1121 1032.68 31.2163 Q1037.54 36.3204 1037.54 46.6907 Z" fill="#000000" fill-rule="nonzero" fill-opacity="1" /><path clip-path="url(#clip400)" d="M1079.18 34.1734 Q1077.92 33.4443 1076.43 33.1202 Q1074.97 32.7556 1073.18 32.7556 Q1066.86 32.7556 1063.46 36.8875 Q1060.1 40.9789 1060.1 48.6757 L1060.1 72.576 L1052.61 72.576 L1052.61 27.2059 L1060.1 27.2059 L1060.1 34.2544 Q1062.45 30.1225 1066.22 28.1376 Q1069.98 26.1121 1075.37 26.1121 Q1076.14 26.1121 1077.07 26.2337 Q1078 26.3147 1079.14 26.5172 L1079.18 34.1734 Z" fill="#000000" fill-rule="nonzero" fill-opacity="1" /><path clip-path="url(#clip400)" d="M1087 27.2059 L1094.45 27.2059 L1094.45 72.576 L1087 72.576 L1087 27.2059 M1087 9.54393 L1094.45 9.54393 L1094.45 18.9825 L1087 18.9825 L1087 9.54393 Z" fill="#000000" fill-rule="nonzero" fill-opacity="1" /><path clip-path="url(#clip400)" d="M1106.81 27.2059 L1142.21 27.2059 L1142.21 34.0114 L1114.18 66.6212 L1142.21 66.6212 L1142.21 72.576 L1105.79 72.576 L1105.79 65.7705 L1133.83 33.1607 L1106.81 33.1607 L1106.81 27.2059 Z" fill="#000000" fill-rule="nonzero" fill-opacity="1" /><path clip-path="url(#clip400)" d="M1174.21 49.7694 Q1165.18 49.7694 1161.7 51.8354 Q1158.21 53.9013 1158.21 58.8839 Q1158.21 62.8538 1160.81 65.2034 Q1163.44 67.5124 1167.93 67.5124 Q1174.13 67.5124 1177.86 63.1374 Q1181.63 58.7219 1181.63 51.4303 L1181.63 49.7694 L1174.21 49.7694 M1189.08 46.6907 L1189.08 72.576 L1181.63 72.576 L1181.63 65.6895 Q1179.07 69.8214 1175.27 71.8063 Q1171.46 73.7508 1165.95 73.7508 Q1158.98 73.7508 1154.85 69.8619 Q1150.76 65.9325 1150.76 59.3701 Q1150.76 51.7138 1155.86 47.825 Q1161.01 43.9361 1171.18 43.9361 L1181.63 43.9361 L1181.63 43.2069 Q1181.63 38.0623 1178.22 35.2672 Q1174.86 32.4315 1168.75 32.4315 Q1164.86 32.4315 1161.17 33.3632 Q1157.48 34.295 1154.08 36.1584 L1154.08 29.2718 Q1158.17 27.692 1162.02 26.9223 Q1165.87 26.1121 1169.51 26.1121 Q1179.36 26.1121 1184.22 31.2163 Q1189.08 36.3204 1189.08 46.6907 Z" fill="#000000" fill-rule="nonzero" fill-opacity="1" /><path clip-path="url(#clip400)" d="M1211.81 14.324 L1211.81 27.2059 L1227.16 27.2059 L1227.16 32.9987 L1211.81 32.9987 L1211.81 57.6282 Q1211.81 63.1779 1213.31 64.7578 Q1214.84 66.3376 1219.5 66.3376 L1227.16 66.3376 L1227.16 72.576 L1219.5 72.576 Q1210.87 72.576 1207.59 69.3758 Q1204.31 66.1351 1204.31 57.6282 L1204.31 32.9987 L1198.84 32.9987 L1198.84 27.2059 L1204.31 27.2059 L1204.31 14.324 L1211.81 14.324 Z" fill="#000000" fill-rule="nonzero" fill-opacity="1" /><path clip-path="url(#clip400)" d="M1236.96 27.2059 L1244.42 27.2059 L1244.42 72.576 L1236.96 72.576 L1236.96 27.2059 M1236.96 9.54393 L1244.42 9.54393 L1244.42 18.9825 L1236.96 18.9825 L1236.96 9.54393 Z" fill="#000000" fill-rule="nonzero" fill-opacity="1" /><path clip-path="url(#clip400)" d="M1277.59 32.4315 Q1271.6 32.4315 1268.11 37.1306 Q1264.63 41.7891 1264.63 49.9314 Q1264.63 58.0738 1268.07 62.7728 Q1271.56 67.4314 1277.59 67.4314 Q1283.55 67.4314 1287.03 62.7323 Q1290.52 58.0333 1290.52 49.9314 Q1290.52 41.8701 1287.03 37.1711 Q1283.55 32.4315 1277.59 32.4315 M1277.59 26.1121 Q1287.32 26.1121 1292.86 32.4315 Q1298.41 38.7509 1298.41 49.9314 Q1298.41 61.0714 1292.86 67.4314 Q1287.32 73.7508 1277.59 73.7508 Q1267.83 73.7508 1262.28 67.4314 Q1256.77 61.0714 1256.77 49.9314 Q1256.77 38.7509 1262.28 32.4315 Q1267.83 26.1121 1277.59 26.1121 Z" fill="#000000" fill-rule="nonzero" fill-opacity="1" /><path clip-path="url(#clip400)" d="M1348.48 45.1919 L1348.48 72.576 L1341.03 72.576 L1341.03 45.4349 Q1341.03 38.994 1338.52 35.7938 Q1336.01 32.5936 1330.98 32.5936 Q1324.95 32.5936 1321.46 36.4419 Q1317.98 40.2903 1317.98 46.9338 L1317.98 72.576 L1310.49 72.576 L1310.49 27.2059 L1317.98 27.2059 L1317.98 34.2544 Q1320.65 30.163 1324.26 28.1376 Q1327.91 26.1121 1332.64 26.1121 Q1340.46 26.1121 1344.47 30.9732 Q1348.48 35.7938 1348.48 45.1919 Z" fill="#000000" fill-rule="nonzero" fill-opacity="1" /><path clip-path="url(#clip400)" d="M1407.3 32.4315 Q1401.31 32.4315 1397.82 37.1306 Q1394.34 41.7891 1394.34 49.9314 Q1394.34 58.0738 1397.78 62.7728 Q1401.27 67.4314 1407.3 67.4314 Q1413.26 67.4314 1416.74 62.7323 Q1420.23 58.0333 1420.23 49.9314 Q1420.23 41.8701 1416.74 37.1711 Q1413.26 32.4315 1407.3 32.4315 M1407.3 26.1121 Q1417.03 26.1121 1422.57 32.4315 Q1428.12 38.7509 1428.12 49.9314 Q1428.12 61.0714 1422.57 67.4314 Q1417.03 73.7508 1407.3 73.7508 Q1397.54 73.7508 1391.99 67.4314 Q1386.48 61.0714 1386.48 49.9314 Q1386.48 38.7509 1391.99 32.4315 Q1397.54 26.1121 1407.3 26.1121 Z" fill="#000000" fill-rule="nonzero" fill-opacity="1" /><path clip-path="url(#clip400)" d="M1463.45 9.54393 L1463.45 15.7418 L1456.32 15.7418 Q1452.31 15.7418 1450.73 17.3622 Q1449.19 18.9825 1449.19 23.1955 L1449.19 27.2059 L1461.46 27.2059 L1461.46 32.9987 L1449.19 32.9987 L1449.19 72.576 L1441.7 72.576 L1441.7 32.9987 L1434.57 32.9987 L1434.57 27.2059 L1441.7 27.2059 L1441.7 24.0462 Q1441.7 16.471 1445.22 13.0277 Q1448.74 9.54393 1456.4 9.54393 L1463.45 9.54393 Z" fill="#000000" fill-rule="nonzero" fill-opacity="1" /><path clip-path="url(#clip400)" d="M1488 12.096 L1539.16 12.096 L1539.16 18.9825 L1517.69 18.9825 L1517.69 72.576 L1509.47 72.576 L1509.47 18.9825 L1488 18.9825 L1488 12.096 Z" fill="#000000" fill-rule="nonzero" fill-opacity="1" /><path clip-path="url(#clip400)" d="M1553.62 49.7694 Q1544.59 49.7694 1541.1 51.8354 Q1537.62 53.9013 1537.62 58.8839 Q1537.62 62.8538 1540.21 65.2034 Q1542.85 67.5124 1547.34 67.5124 Q1553.54 67.5124 1557.27 63.1374 Q1561.03 58.7219 1561.03 51.4303 L1561.03 49.7694 L1553.62 49.7694 M1568.49 46.6907 L1568.49 72.576 L1561.03 72.576 L1561.03 65.6895 Q1558.48 69.8214 1554.67 71.8063 Q1550.87 73.7508 1545.36 73.7508 Q1538.39 73.7508 1534.26 69.8619 Q1530.17 65.9325 1530.17 59.3701 Q1530.17 51.7138 1535.27 47.825 Q1540.42 43.9361 1550.58 43.9361 L1561.03 43.9361 L1561.03 43.2069 Q1561.03 38.0623 1557.63 35.2672 Q1554.27 32.4315 1548.15 32.4315 Q1544.26 32.4315 1540.58 33.3632 Q1536.89 34.295 1533.49 36.1584 L1533.49 29.2718 Q1537.58 27.692 1541.43 26.9223 Q1545.28 26.1121 1548.92 26.1121 Q1558.77 26.1121 1563.63 31.2163 Q1568.49 36.3204 1568.49 46.6907 Z" fill="#000000" fill-rule="nonzero" fill-opacity="1" /><path clip-path="url(#clip400)" d="M1616.41 49.9314 Q1616.41 41.7081 1613.01 37.0496 Q1609.65 32.3505 1603.73 32.3505 Q1597.82 32.3505 1594.41 37.0496 Q1591.05 41.7081 1591.05 49.9314 Q1591.05 58.1548 1594.41 62.8538 Q1597.82 67.5124 1603.73 67.5124 Q1609.65 67.5124 1613.01 62.8538 Q1616.41 58.1548 1616.41 49.9314 M1591.05 34.0924 Q1593.4 30.0415 1596.97 28.0971 Q1600.57 26.1121 1605.55 26.1121 Q1613.82 26.1121 1618.96 32.6746 Q1624.15 39.2371 1624.15 49.9314 Q1624.15 60.6258 1618.96 67.1883 Q1613.82 73.7508 1605.55 73.7508 Q1600.57 73.7508 1596.97 71.8063 Q1593.4 69.8214 1591.05 65.7705 L1591.05 72.576 L1583.56 72.576 L1583.56 9.54393 L1591.05 9.54393 L1591.05 34.0924 Z" fill="#000000" fill-rule="nonzero" fill-opacity="1" /><path clip-path="url(#clip400)" d="M1636.5 9.54393 L1643.96 9.54393 L1643.96 72.576 L1636.5 72.576 L1636.5 9.54393 Z" fill="#000000" fill-rule="nonzero" fill-opacity="1" /><path clip-path="url(#clip400)" d="M1698.36 48.0275 L1698.36 51.6733 L1664.09 51.6733 Q1664.58 59.3701 1668.71 63.421 Q1672.88 67.4314 1680.29 67.4314 Q1684.59 67.4314 1688.6 66.3781 Q1692.65 65.3249 1696.62 63.2184 L1696.62 70.267 Q1692.61 71.9684 1688.4 72.8596 Q1684.18 73.7508 1679.85 73.7508 Q1668.99 73.7508 1662.63 67.4314 Q1656.31 61.1119 1656.31 50.3365 Q1656.31 39.1965 1662.31 32.6746 Q1668.34 26.1121 1678.55 26.1121 Q1687.71 26.1121 1693.01 32.0264 Q1698.36 37.9003 1698.36 48.0275 M1690.91 45.84 Q1690.83 39.7232 1687.46 36.0774 Q1684.14 32.4315 1678.63 32.4315 Q1672.39 32.4315 1668.63 35.9558 Q1664.9 39.4801 1664.33 45.8805 L1690.91 45.84 Z" fill="#000000" fill-rule="nonzero" fill-opacity="1" /><path clip-path="url(#clip400)" d="M1745.07 65.6895 L1773.63 65.6895 L1773.63 72.576 L1735.22 72.576 L1735.22 65.6895 Q1739.88 60.8689 1747.9 52.7671 Q1755.96 44.6248 1758.03 42.2752 Q1761.96 37.8598 1763.5 34.8216 Q1765.08 31.7429 1765.08 28.7857 Q1765.08 23.9651 1761.68 20.927 Q1758.31 17.8888 1752.89 17.8888 Q1749.04 17.8888 1744.74 19.2256 Q1740.49 20.5624 1735.63 23.2765 L1735.63 15.0127 Q1740.57 13.0277 1744.86 12.015 Q1749.16 11.0023 1752.72 11.0023 Q1762.12 11.0023 1767.71 15.7013 Q1773.3 20.4004 1773.3 28.2591 Q1773.3 31.9859 1771.88 35.3482 Q1770.51 38.6699 1766.82 43.2069 Q1765.81 44.3817 1760.38 50.0125 Q1754.95 55.6027 1745.07 65.6895 Z" fill="#000000" fill-rule="nonzero" fill-opacity="1" /><circle clip-path="url(#clip402)" cx="2293.25" cy="160.256" r="14.4" fill="#009af9" fill-rule="evenodd" fill-opacity="1" stroke="#000000" stroke-opacity="1" stroke-width="3.2"/>
<circle clip-path="url(#clip402)" cx="1603.22" cy="606.246" r="14.4" fill="#009af9" fill-rule="evenodd" fill-opacity="1" stroke="#000000" stroke-opacity="1" stroke-width="3.2"/>
<circle clip-path="url(#clip402)" cx="1092.79" cy="922.681" r="14.4" fill="#009af9" fill-rule="evenodd" fill-opacity="1" stroke="#000000" stroke-opacity="1" stroke-width="3.2"/>
<circle clip-path="url(#clip402)" cx="677.232" cy="1168.13" r="14.4" fill="#009af9" fill-rule="evenodd" fill-opacity="1" stroke="#000000" stroke-opacity="1" stroke-width="3.2"/>
<circle clip-path="url(#clip402)" cx="309.854" cy="1368.67" r="14.4" fill="#009af9" fill-rule="evenodd" fill-opacity="1" stroke="#000000" stroke-opacity="1" stroke-width="3.2"/>
<polyline clip-path="url(#clip402)" style="stroke:#e26f46; stroke-linecap:round; stroke-linejoin:round; stroke-width:4; stroke-opacity:1; fill:none" points="2293.25,174.065 309.854,1386.4 "/>
<path clip-path="url(#clip400)" d="M320.432 474.275 L937.812 474.275 L937.812 166.796 L320.432 166.796  Z" fill="#ffffff" fill-rule="evenodd" fill-opacity="1"/>
<polyline clip-path="url(#clip400)" style="stroke:#000000; stroke-linecap:round; stroke-linejoin:round; stroke-width:4; stroke-opacity:1; fill:none" points="320.432,474.275 937.812,474.275 937.812,166.796 320.432,166.796 320.432,474.275 "/>
<circle clip-path="url(#clip400)" cx="413.873" cy="269.289" r="20.48" fill="#009af9" fill-rule="evenodd" fill-opacity="1" stroke="#000000" stroke-opacity="1" stroke-width="4.55111"/>
<path clip-path="url(#clip400)" d="M507.313 261.593 Q507.313 253.489 510.334 246.954 Q511.622 244.214 513.426 241.919 Q515.229 239.623 516.424 238.616 Q517.619 237.609 517.946 237.609 Q518.415 237.609 518.438 238.077 Q518.438 238.312 517.806 238.897 Q510.077 246.767 510.1 261.593 Q510.1 276.467 517.619 284.032 Q518.438 284.852 518.438 285.11 Q518.438 285.578 517.946 285.578 Q517.619 285.578 516.471 284.618 Q515.323 283.657 513.543 281.456 Q511.763 279.254 510.475 276.56 Q507.313 270.026 507.313 261.593 Z" fill="#000000" fill-rule="nonzero" fill-opacity="1" /><path clip-path="url(#clip400)" d="M531.43 273.586 L531.43 272.11 Q533.983 272.11 534.569 271.806 Q535.154 271.478 535.154 269.932 L535.154 244.987 Q535.154 243.207 534.522 242.762 Q533.913 242.317 531.43 242.317 L531.43 240.818 L538.316 240.302 L538.316 269.932 Q538.316 271.478 538.925 271.806 Q539.534 272.11 542.064 272.11 L542.064 273.586 Q541.478 273.586 540.26 273.539 Q539.043 273.492 538.152 273.469 Q537.262 273.445 536.747 273.445 Q536.185 273.445 531.43 273.586 Z" fill="#000000" fill-rule="nonzero" fill-opacity="1" /><path clip-path="url(#clip400)" d="M544.965 273.586 L544.965 272.11 Q547.518 272.11 548.103 271.806 Q548.689 271.478 548.689 269.932 L548.689 257.073 Q548.689 255.293 548.057 254.848 Q547.448 254.403 544.965 254.403 L544.965 252.904 L551.711 252.388 L551.711 257.424 Q553.959 252.388 558.808 252.388 Q562.415 252.388 563.843 254.169 Q564.897 255.363 565.108 256.698 Q565.342 258.033 565.342 261.5 L565.342 270.658 Q565.389 271.665 566.162 271.899 Q566.935 272.11 569.09 272.11 L569.09 273.586 Q564.195 273.445 563.703 273.445 Q563.328 273.445 558.292 273.586 L558.292 272.11 Q560.845 272.11 561.431 271.806 Q562.04 271.478 562.04 269.932 L562.04 258.759 Q562.04 256.323 561.29 254.895 Q560.541 253.442 558.48 253.442 Q555.997 253.442 554.006 255.527 Q552.015 257.612 552.015 261.125 L552.015 269.932 Q552.015 271.478 552.601 271.806 Q553.21 272.11 555.739 272.11 L555.739 273.586 Q550.844 273.445 550.375 273.445 Q550.001 273.445 544.965 273.586 Z" fill="#000000" fill-rule="nonzero" fill-opacity="1" /><path clip-path="url(#clip400)" d="M634.882 218.235 Q634.882 218.68 634.788 219.054 L633.477 227.393 Q633.406 228.025 633.266 228.259 Q633.149 228.494 632.774 228.494 Q632.188 228.494 632.188 227.885 Q632.188 227.533 632.329 226.971 Q632.727 224.325 632.727 223.13 Q632.727 222.334 632.563 221.748 Q632.423 221.139 632.188 220.717 Q631.978 220.296 631.486 220.015 Q630.994 219.734 630.525 219.57 Q630.057 219.406 629.214 219.336 Q628.371 219.242 627.644 219.218 Q626.918 219.195 625.724 219.195 Q623.124 219.195 622.702 219.289 Q622.257 219.406 622.023 219.757 Q621.812 220.085 621.578 221.069 L615.207 246.529 L615.02 247.536 Q615.02 248.098 615.371 248.286 Q615.722 248.473 616.8 248.59 Q618.346 248.707 619.868 248.707 Q619.915 248.707 620.009 248.707 Q620.524 248.707 620.735 248.731 Q620.946 248.731 621.156 248.778 Q621.367 248.824 621.414 248.942 Q621.484 249.035 621.484 249.223 Q621.484 249.668 621.297 249.902 Q621.11 250.113 620.922 250.159 Q620.758 250.183 620.43 250.183 Q619.775 250.183 618.369 250.136 Q616.964 250.089 616.261 250.089 L612.279 250.042 L608.204 250.089 Q607.571 250.089 606.236 250.136 Q604.901 250.183 604.269 250.183 Q603.449 250.183 603.449 249.597 Q603.449 248.942 603.754 248.824 Q604.081 248.707 605.463 248.707 Q607.407 248.707 608.461 248.614 Q609.515 248.52 610.078 248.192 Q610.663 247.864 610.827 247.536 Q610.991 247.185 611.178 246.388 L617.62 220.788 Q617.807 220.226 617.807 219.781 Q617.807 219.546 617.737 219.453 Q617.69 219.359 617.385 219.289 Q617.081 219.195 616.449 219.195 L614.575 219.195 Q612.654 219.195 611.46 219.289 Q610.288 219.359 609.164 219.71 Q608.063 220.062 607.407 220.554 Q606.775 221.045 606.072 222.053 Q605.37 223.06 604.854 224.278 Q604.363 225.496 603.66 227.487 Q603.426 228.142 603.285 228.33 Q603.168 228.494 602.84 228.494 Q602.606 228.494 602.418 228.353 Q602.255 228.189 602.255 227.978 Q602.489 227.205 602.536 227.112 L605.417 218.656 Q605.651 217.977 605.862 217.86 Q606.096 217.719 606.962 217.719 L633.57 217.719 Q633.992 217.719 634.132 217.719 Q634.273 217.719 634.507 217.766 Q634.741 217.813 634.812 217.93 Q634.882 218.047 634.882 218.235 Z" fill="#000000" fill-rule="nonzero" fill-opacity="1" /><path clip-path="url(#clip400)" d="M587.255 262.983 L654.381 262.983 L654.381 260.423 L587.255 260.423  Z" fill="#000000" fill-rule="evenodd" fill-opacity="1"/>
<path clip-path="url(#clip400)" d="M587.255 278.295 L587.255 276.796 Q593.016 276.796 595.991 273.728 Q596.811 273.728 596.951 273.915 Q597.092 274.103 597.092 274.969 L597.092 301.882 Q597.092 303.31 597.795 303.755 Q598.497 304.2 601.566 304.2 L603.088 304.2 L603.088 305.676 Q601.402 305.535 595.312 305.535 Q589.222 305.535 587.559 305.676 L587.559 304.2 L589.081 304.2 Q592.103 304.2 592.829 303.779 Q593.555 303.334 593.555 301.882 L593.555 277.03 Q591.049 278.295 587.255 278.295 Z" fill="#000000" fill-rule="nonzero" fill-opacity="1" /><path clip-path="url(#clip400)" d="M649.657 273.447 Q649.657 274.407 648.837 274.407 Q646.19 274.501 645.113 275.391 Q644.059 276.257 643.661 277.944 L636.962 304.669 Q636.728 305.512 636.587 305.606 Q636.447 305.676 636.189 305.676 Q635.861 305.676 635.674 305.512 Q635.51 305.348 635.275 304.763 L623.33 276.515 Q623.236 276.328 623.119 276.07 Q623.002 275.812 622.908 275.648 L616.561 300.968 Q616.374 301.694 616.374 302.069 Q616.374 302.982 617.006 303.568 Q617.662 304.13 619.536 304.2 Q620.496 304.2 620.496 304.716 Q620.496 305.676 619.629 305.676 Q618.833 305.676 617.17 305.606 Q615.507 305.535 614.687 305.535 Q613.891 305.535 612.275 305.606 Q610.658 305.676 609.885 305.676 Q609.277 305.676 609.277 305.137 Q609.277 304.716 609.44 304.505 Q609.604 304.271 609.745 304.247 Q609.885 304.2 610.096 304.2 Q611.502 304.154 612.462 303.873 Q613.422 303.591 613.961 303.053 Q614.523 302.514 614.781 301.975 Q615.062 301.413 615.273 300.593 L621.69 274.829 Q621.69 274.407 618.435 274.407 Q617.873 274.407 617.638 274.384 Q617.428 274.36 617.264 274.243 Q617.1 274.126 617.1 273.868 Q617.1 273.213 617.381 273.072 Q617.662 272.908 618.482 272.908 L624.923 272.908 Q625.742 272.908 625.953 273.049 Q626.164 273.166 626.445 273.822 L637.056 298.86 L642.419 277.522 Q642.56 277.101 642.56 276.515 Q642.56 275.578 641.857 275.016 Q641.178 274.43 639.304 274.407 Q638.437 274.407 638.437 273.868 Q638.437 273.423 638.601 273.213 Q638.789 272.978 638.929 272.955 Q639.093 272.908 639.304 272.908 Q640.1 272.908 641.74 272.978 Q643.38 273.049 644.199 273.049 Q644.996 273.049 646.612 272.978 Q648.251 272.908 649.048 272.908 Q649.329 272.908 649.469 273.049 Q649.633 273.166 649.657 273.306 L649.657 273.447 Z" fill="#000000" fill-rule="nonzero" fill-opacity="1" /><path clip-path="url(#clip400)" d="M660.18 272.813 Q659.501 272.04 659.501 271.033 Q659.501 270.026 660.157 269.276 Q660.836 268.503 662.054 268.503 Q663.483 268.503 664.302 269.885 Q665.122 271.243 665.122 273.539 Q665.122 276.022 664.115 278.317 Q663.108 280.636 662.124 281.737 Q661.14 282.838 660.742 282.838 Q660.274 282.838 660.274 282.322 Q660.274 282.135 660.602 281.784 Q664.045 278.083 664.068 273.539 Q664.068 272.813 663.975 272.813 L663.857 272.906 Q663.038 273.586 662.054 273.586 Q660.859 273.586 660.18 272.813 Z" fill="#000000" fill-rule="nonzero" fill-opacity="1" /><path clip-path="url(#clip400)" d="M685.956 273.586 L685.956 272.11 Q688.509 272.11 689.095 271.806 Q689.68 271.478 689.68 269.932 L689.68 244.987 Q689.68 243.207 689.048 242.762 Q688.439 242.317 685.956 242.317 L685.956 240.818 L692.842 240.302 L692.842 269.932 Q692.842 271.478 693.451 271.806 Q694.06 272.11 696.59 272.11 L696.59 273.586 Q696.004 273.586 694.786 273.539 Q693.569 273.492 692.678 273.469 Q691.788 273.445 691.273 273.445 Q690.711 273.445 685.956 273.586 Z" fill="#000000" fill-rule="nonzero" fill-opacity="1" /><path clip-path="url(#clip400)" d="M699.491 273.586 L699.491 272.11 Q702.044 272.11 702.629 271.806 Q703.215 271.478 703.215 269.932 L703.215 257.073 Q703.215 255.293 702.583 254.848 Q701.974 254.403 699.491 254.403 L699.491 252.904 L706.237 252.388 L706.237 257.424 Q708.485 252.388 713.334 252.388 Q716.941 252.388 718.369 254.169 Q719.423 255.363 719.634 256.698 Q719.868 258.033 719.868 261.5 L719.868 270.658 Q719.915 271.665 720.688 271.899 Q721.461 272.11 723.616 272.11 L723.616 273.586 Q718.721 273.445 718.229 273.445 Q717.854 273.445 712.818 273.586 L712.818 272.11 Q715.371 272.11 715.957 271.806 Q716.566 271.478 716.566 269.932 L716.566 258.759 Q716.566 256.323 715.816 254.895 Q715.067 253.442 713.006 253.442 Q710.523 253.442 708.532 255.527 Q706.541 257.612 706.541 261.125 L706.541 269.932 Q706.541 271.478 707.127 271.806 Q707.736 272.11 710.265 272.11 L710.265 273.586 Q705.37 273.445 704.901 273.445 Q704.527 273.445 699.491 273.586 Z" fill="#000000" fill-rule="nonzero" fill-opacity="1" /><path clip-path="url(#clip400)" d="M762.837 222.618 Q762.837 223.227 762.673 224.422 Q762.509 225.617 762.111 227.35 Q761.713 229.083 761.127 230.91 Q760.565 232.737 759.675 234.564 Q758.785 236.367 757.731 237.796 Q756.677 239.225 755.202 240.115 Q753.726 241.005 752.063 241.005 Q751.29 241.005 750.541 240.888 Q749.791 240.771 748.854 240.396 Q747.917 240.021 747.238 239.412 Q746.559 238.78 746.09 237.656 Q745.622 236.531 745.622 235.056 Q745.622 233.533 746.184 231.496 Q746.77 229.434 748.362 225.218 Q749.182 223.04 749.182 221.845 Q749.182 221.307 749.065 220.979 Q748.948 220.628 748.714 220.51 Q748.479 220.37 748.339 220.346 Q748.222 220.323 747.987 220.323 Q746.699 220.323 745.388 221.658 Q744.076 222.993 743.139 226.272 Q742.952 226.858 742.835 226.998 Q742.717 227.139 742.366 227.139 Q741.781 227.116 741.781 226.647 Q741.781 226.507 741.944 225.968 Q742.108 225.406 742.413 224.563 Q742.717 223.696 743.256 222.806 Q743.795 221.892 744.451 221.096 Q745.13 220.3 746.09 219.784 Q747.051 219.269 748.128 219.269 Q749.885 219.269 750.962 220.417 Q752.063 221.541 752.063 223.204 Q752.063 224.117 751.477 225.593 Q750.494 228.263 750.049 229.551 Q749.604 230.84 749.135 232.667 Q748.69 234.494 748.69 235.758 Q748.69 237.679 749.58 238.803 Q750.47 239.928 752.25 239.928 Q753.843 239.928 755.272 238.78 Q756.724 237.609 757.684 235.946 Q758.645 234.259 759.371 232.386 Q760.097 230.488 760.425 229.06 Q760.776 227.607 760.776 226.928 Q760.776 224.563 759.16 223.017 Q758.715 222.572 758.551 222.291 Q758.387 222.009 758.387 221.564 Q758.387 220.745 759.113 220.019 Q759.863 219.269 760.729 219.269 Q761.526 219.269 762.181 220.065 Q762.837 220.862 762.837 222.618 Z" fill="#000000" fill-rule="nonzero" fill-opacity="1" /><path clip-path="url(#clip400)" d="M795.256 245.007 Q795.256 245.138 795.109 245.647 Q794.961 246.155 794.6 246.942 Q794.256 247.729 793.764 248.45 Q793.289 249.155 792.502 249.68 Q791.731 250.188 790.846 250.188 Q789.665 250.188 788.878 249.401 Q788.091 248.614 788.091 247.434 Q788.091 246.794 788.534 245.581 Q790.616 240.039 790.616 238.055 Q790.616 235.711 788.796 235.711 Q787.763 235.711 786.829 236.137 Q785.894 236.563 785.288 237.154 Q784.681 237.744 784.206 238.416 Q783.73 239.088 783.517 239.531 Q783.32 239.974 783.271 240.17 L781.254 248.27 Q781.09 248.958 780.976 249.286 Q780.861 249.614 780.549 249.893 Q780.238 250.188 779.746 250.188 Q779.336 250.188 779.041 249.942 Q778.762 249.696 778.762 249.27 Q778.762 249.204 778.844 248.86 Q778.926 248.516 779.041 248.04 Q779.156 247.565 779.205 247.286 Q779.795 245.056 779.877 244.745 L780.812 240.843 Q781.32 238.908 781.32 238.055 Q781.32 235.711 779.5 235.711 Q778.598 235.711 777.746 236.055 Q776.909 236.383 776.336 236.842 Q775.762 237.301 775.237 237.941 Q774.729 238.564 774.467 238.99 Q774.221 239.4 774.024 239.81 L773.598 241.482 Q773.499 241.941 773.024 243.728 L772.286 246.761 Q771.761 249.024 771.646 249.237 Q771.482 249.696 771.122 249.942 Q770.761 250.188 770.4 250.188 Q769.99 250.188 769.712 249.942 Q769.433 249.696 769.433 249.27 Q769.433 249.204 769.482 248.958 Q769.531 248.713 769.613 248.368 Q769.695 248.024 769.728 247.827 L771.679 240.072 Q772.04 238.662 772.122 238.219 Q772.22 237.76 772.22 237.252 Q772.22 235.711 771.171 235.711 Q770.318 235.711 769.761 236.727 Q769.203 237.744 768.728 239.711 Q768.58 240.252 768.482 240.367 Q768.4 240.482 768.154 240.482 Q767.744 240.465 767.744 240.138 Q767.744 240.056 767.875 239.531 Q768.007 239.006 768.253 238.219 Q768.515 237.416 768.794 236.891 Q768.958 236.547 769.105 236.317 Q769.253 236.088 769.548 235.727 Q769.843 235.366 770.286 235.17 Q770.728 234.973 771.269 234.973 Q772.466 234.973 773.352 235.744 Q774.253 236.514 774.368 237.891 Q776.549 234.973 779.598 234.973 Q781.32 234.973 782.353 235.842 Q783.32 236.678 783.435 238.219 Q785.698 234.973 788.911 234.973 Q790.764 234.973 791.764 235.94 Q792.764 236.891 792.764 238.564 Q792.764 239.433 792.321 241.089 Q791.879 242.728 791.584 243.548 Q791.289 244.368 790.715 245.942 Q790.108 247.45 790.108 248.335 Q790.108 248.909 790.305 249.172 Q790.502 249.434 790.928 249.434 Q791.584 249.434 792.157 249.057 Q792.731 248.663 793.141 248.024 Q793.568 247.368 793.846 246.712 Q794.125 246.04 794.338 245.286 Q794.469 244.876 794.535 244.778 Q794.617 244.679 794.846 244.679 Q795.256 244.679 795.256 245.007 Z" fill="#000000" fill-rule="nonzero" fill-opacity="1" /><path clip-path="url(#clip400)" d="M810.245 245.925 Q810.376 246.073 810.376 246.22 Q810.376 246.368 810.049 246.794 Q809.737 247.221 809.065 247.794 Q808.393 248.368 807.524 248.909 Q806.655 249.45 805.376 249.811 Q804.097 250.188 802.752 250.188 Q800.342 250.188 798.899 248.467 Q797.473 246.745 797.473 244.105 Q797.473 242.417 798.03 240.925 Q798.588 239.416 799.49 238.35 Q800.408 237.285 801.556 236.514 Q802.72 235.727 803.933 235.35 Q805.146 234.973 806.278 234.973 Q807.934 234.973 808.901 235.809 Q809.868 236.645 809.868 237.826 Q809.868 238.104 809.786 238.449 Q809.721 238.793 809.491 239.334 Q809.278 239.875 808.72 240.416 Q808.163 240.941 807.343 241.285 Q805.523 242.056 802.211 242.056 L800.424 242.056 Q799.9 244.171 799.9 245.548 Q799.9 246.089 799.998 246.647 Q800.096 247.188 800.359 247.876 Q800.637 248.565 801.26 249.008 Q801.9 249.434 802.818 249.434 Q803.113 249.434 803.425 249.418 Q803.753 249.401 804.572 249.221 Q805.409 249.04 806.146 248.729 Q806.884 248.417 807.819 247.745 Q808.77 247.057 809.524 246.122 Q809.786 245.778 809.967 245.778 Q810.114 245.778 810.245 245.925 M808.753 237.826 Q808.753 236.924 808.081 236.317 Q807.425 235.711 806.278 235.711 Q805.917 235.711 805.474 235.793 Q805.031 235.875 804.294 236.219 Q803.572 236.563 802.933 237.137 Q802.293 237.695 801.654 238.793 Q801.015 239.875 800.637 241.318 L802.015 241.318 Q802.49 241.318 802.834 241.318 Q803.179 241.302 803.933 241.236 Q804.704 241.17 805.261 241.056 Q805.818 240.925 806.523 240.662 Q807.228 240.4 807.671 240.056 Q808.13 239.695 808.442 239.121 Q808.753 238.547 808.753 237.826 Z" fill="#000000" fill-rule="nonzero" fill-opacity="1" /><path clip-path="url(#clip400)" d="M828.206 245.007 Q827.764 247.122 827.19 248.335 Q826.272 250.188 824.714 250.188 Q823.534 250.188 822.697 249.467 Q821.861 248.745 821.664 247.663 Q819.517 250.188 817.287 250.188 Q815.319 250.188 814.073 248.696 Q812.827 247.188 812.827 244.81 Q812.827 242.417 814.008 240.121 Q815.205 237.826 817.09 236.399 Q818.976 234.973 820.91 234.973 Q822.96 234.973 824.009 237.121 Q824.091 236.531 824.468 236.088 Q824.845 235.645 825.419 235.645 Q825.862 235.645 826.124 235.891 Q826.386 236.121 826.386 236.547 Q826.386 236.76 826.157 237.695 L824.944 242.384 L824.206 245.417 Q823.927 246.532 823.845 246.942 Q823.779 247.352 823.779 247.893 Q823.779 249.434 824.78 249.434 Q825.272 249.434 825.665 249.122 Q826.059 248.811 826.37 248.155 Q826.682 247.499 826.878 246.893 Q827.075 246.27 827.337 245.286 Q827.419 244.892 827.485 244.794 Q827.567 244.679 827.796 244.679 Q828.206 244.679 828.206 245.007 M823.599 238.662 Q823.599 238.514 823.484 238.104 Q823.37 237.695 823.107 237.121 Q822.845 236.547 822.271 236.137 Q821.714 235.711 820.959 235.711 Q819.943 235.711 818.877 236.58 Q817.828 237.449 817.057 238.924 Q816.467 240.105 815.828 242.581 Q815.205 245.056 815.205 246.286 Q815.205 247.04 815.368 247.712 Q815.549 248.368 816.057 248.909 Q816.565 249.434 817.352 249.434 Q819.271 249.434 821.156 247.057 Q821.517 246.647 821.599 246.483 Q821.697 246.302 821.828 245.81 L823.501 239.236 Q823.599 238.744 823.599 238.662 Z" fill="#000000" fill-rule="nonzero" fill-opacity="1" /><path clip-path="url(#clip400)" d="M842.772 237.859 Q842.772 238.777 842.313 239.269 Q841.854 239.744 841.231 239.744 Q840.723 239.744 840.444 239.449 Q840.182 239.154 840.182 238.76 Q840.182 238.186 840.641 237.727 Q841.116 237.268 841.805 237.252 Q841.576 236.645 840.969 236.285 Q840.362 235.907 839.821 235.809 Q839.297 235.711 838.772 235.711 Q837.739 235.711 836.952 236.039 Q836.165 236.367 835.771 236.875 Q835.378 237.367 835.198 237.842 Q835.017 238.318 835.017 238.728 Q835.017 239.088 835.099 239.383 Q835.198 239.662 835.427 239.875 Q835.657 240.072 835.821 240.203 Q836.001 240.334 836.394 240.449 Q836.788 240.564 836.952 240.613 Q837.116 240.646 837.575 240.744 Q838.526 240.941 838.952 241.056 Q839.379 241.154 839.936 241.433 Q840.51 241.712 840.936 242.154 Q841.969 243.187 841.969 244.614 Q841.969 245.138 841.789 245.778 Q841.625 246.417 841.149 247.221 Q840.674 248.024 839.952 248.663 Q839.231 249.303 837.985 249.745 Q836.755 250.188 835.214 250.188 Q833.066 250.188 831.738 249.286 Q830.41 248.368 830.41 246.925 Q830.41 245.876 830.984 245.302 Q831.558 244.712 832.296 244.712 Q832.853 244.712 833.197 245.023 Q833.542 245.319 833.542 245.876 Q833.542 246.63 832.935 247.204 Q832.328 247.778 831.427 247.663 Q832.197 249.434 835.247 249.434 Q836.394 249.434 837.28 249.139 Q838.182 248.827 838.673 248.401 Q839.182 247.958 839.51 247.417 Q839.838 246.876 839.936 246.466 Q840.051 246.056 840.051 245.745 Q840.051 245.204 839.838 244.794 Q839.624 244.384 839.329 244.155 Q839.051 243.909 838.51 243.712 Q837.985 243.499 837.608 243.417 Q837.231 243.335 836.558 243.204 Q836.247 243.138 836.05 243.105 Q835.853 243.056 835.444 242.925 Q835.05 242.777 834.771 242.63 Q834.509 242.482 834.165 242.22 Q833.82 241.957 833.607 241.646 Q833.394 241.334 833.247 240.875 Q833.099 240.416 833.099 239.875 Q833.099 239.383 833.247 238.793 Q833.41 238.203 833.82 237.514 Q834.247 236.826 834.853 236.268 Q835.46 235.711 836.476 235.35 Q837.509 234.973 838.772 234.973 Q840.608 234.973 841.69 235.825 Q842.772 236.662 842.772 237.859 Z" fill="#000000" fill-rule="nonzero" fill-opacity="1" /><path clip-path="url(#clip400)" d="M741.781 262.983 L856.236 262.983 L856.236 260.423 L741.781 260.423  Z" fill="#000000" fill-rule="evenodd" fill-opacity="1"/>
<path clip-path="url(#clip400)" d="M744.781 281.373 L744.781 279.874 Q750.542 279.874 753.517 276.806 Q754.337 276.806 754.477 276.993 Q754.618 277.181 754.618 278.047 L754.618 304.96 Q754.618 306.388 755.321 306.834 Q756.023 307.279 759.092 307.279 L760.614 307.279 L760.614 308.754 Q758.928 308.614 752.838 308.614 Q746.748 308.614 745.085 308.754 L745.085 307.279 L746.607 307.279 Q749.629 307.279 750.355 306.857 Q751.081 306.412 751.081 304.96 L751.081 280.109 Q748.575 281.373 744.781 281.373 Z" fill="#000000" fill-rule="nonzero" fill-opacity="1" /><path clip-path="url(#clip400)" d="M805.145 301.891 Q805.145 302.079 804.935 302.805 Q804.724 303.531 804.208 304.655 Q803.717 305.78 803.014 306.81 Q802.335 307.817 801.21 308.567 Q800.11 309.293 798.845 309.293 Q797.158 309.293 796.034 308.169 Q794.91 307.044 794.91 305.358 Q794.91 304.444 795.542 302.711 Q798.517 294.794 798.517 291.96 Q798.517 288.611 795.917 288.611 Q794.441 288.611 793.106 289.22 Q791.771 289.829 790.905 290.672 Q790.038 291.515 789.359 292.476 Q788.679 293.436 788.375 294.068 Q788.094 294.701 788.024 294.982 L785.143 306.552 Q784.908 307.536 784.744 308.005 Q784.58 308.473 784.135 308.871 Q783.69 309.293 782.988 309.293 Q782.402 309.293 781.981 308.942 Q781.582 308.59 781.582 307.981 Q781.582 307.888 781.7 307.396 Q781.817 306.904 781.981 306.225 Q782.145 305.545 782.215 305.147 Q783.058 301.962 783.175 301.517 L784.51 295.942 Q785.236 293.178 785.236 291.96 Q785.236 288.611 782.636 288.611 Q781.348 288.611 780.13 289.103 Q778.936 289.571 778.116 290.227 Q777.296 290.883 776.547 291.796 Q775.82 292.686 775.446 293.295 Q775.094 293.881 774.813 294.466 L774.204 296.856 Q774.064 297.511 773.385 300.064 L772.331 304.398 Q771.581 307.63 771.417 307.934 Q771.183 308.59 770.668 308.942 Q770.152 309.293 769.637 309.293 Q769.051 309.293 768.653 308.942 Q768.255 308.59 768.255 307.981 Q768.255 307.888 768.325 307.536 Q768.396 307.185 768.513 306.693 Q768.63 306.201 768.677 305.92 L771.464 294.841 Q771.979 292.827 772.096 292.194 Q772.237 291.539 772.237 290.813 Q772.237 288.611 770.738 288.611 Q769.52 288.611 768.723 290.063 Q767.927 291.515 767.248 294.326 Q767.037 295.099 766.897 295.263 Q766.779 295.427 766.428 295.427 Q765.843 295.403 765.843 294.935 Q765.843 294.818 766.03 294.068 Q766.217 293.319 766.569 292.194 Q766.943 291.047 767.342 290.297 Q767.576 289.805 767.787 289.477 Q767.997 289.15 768.419 288.634 Q768.841 288.119 769.473 287.838 Q770.105 287.557 770.878 287.557 Q772.588 287.557 773.853 288.658 Q775.141 289.759 775.305 291.726 Q778.42 287.557 782.777 287.557 Q785.236 287.557 786.712 288.798 Q788.094 289.993 788.258 292.194 Q791.49 287.557 796.081 287.557 Q798.728 287.557 800.156 288.939 Q801.585 290.297 801.585 292.686 Q801.585 293.928 800.953 296.293 Q800.32 298.636 799.899 299.807 Q799.477 300.978 798.657 303.226 Q797.791 305.381 797.791 306.646 Q797.791 307.466 798.072 307.841 Q798.353 308.215 798.962 308.215 Q799.899 308.215 800.719 307.677 Q801.538 307.115 802.124 306.201 Q802.733 305.264 803.131 304.327 Q803.529 303.367 803.834 302.29 Q804.021 301.704 804.115 301.563 Q804.232 301.423 804.56 301.423 Q805.145 301.423 805.145 301.891 Z" fill="#000000" fill-rule="nonzero" fill-opacity="1" /><path clip-path="url(#clip400)" d="M807.544 320.067 Q807.544 319.833 807.732 319.318 L824.666 274.066 Q824.666 274.019 824.783 273.761 Q824.9 273.503 824.97 273.339 Q825.041 273.152 825.181 273.012 Q825.345 272.871 825.533 272.871 Q826.001 272.871 826.001 273.457 Q826.001 273.503 825.861 274.066 L808.879 319.365 Q808.598 320.184 808.411 320.419 Q808.247 320.653 807.966 320.653 Q807.544 320.653 807.544 320.067 Z" fill="#000000" fill-rule="nonzero" fill-opacity="1" /><path clip-path="url(#clip400)" d="M848.955 291.679 Q848.955 292.991 848.299 293.694 Q847.643 294.373 846.753 294.373 Q846.027 294.373 845.629 293.951 Q845.254 293.53 845.254 292.967 Q845.254 292.148 845.91 291.492 Q846.589 290.836 847.573 290.813 Q847.245 289.946 846.378 289.431 Q845.512 288.892 844.739 288.751 Q843.989 288.611 843.24 288.611 Q841.764 288.611 840.64 289.079 Q839.515 289.548 838.953 290.274 Q838.391 290.977 838.134 291.656 Q837.876 292.335 837.876 292.921 Q837.876 293.436 837.993 293.857 Q838.134 294.256 838.461 294.56 Q838.789 294.841 839.024 295.029 Q839.281 295.216 839.843 295.38 Q840.406 295.544 840.64 295.614 Q840.874 295.661 841.53 295.802 Q842.888 296.083 843.497 296.247 Q844.106 296.387 844.903 296.785 Q845.722 297.183 846.331 297.816 Q847.807 299.291 847.807 301.329 Q847.807 302.079 847.549 302.992 Q847.315 303.906 846.636 305.053 Q845.957 306.201 844.926 307.115 Q843.895 308.028 842.115 308.66 Q840.359 309.293 838.157 309.293 Q835.089 309.293 833.191 308.005 Q831.294 306.693 831.294 304.632 Q831.294 303.133 832.114 302.313 Q832.934 301.47 833.988 301.47 Q834.784 301.47 835.276 301.915 Q835.768 302.336 835.768 303.133 Q835.768 304.21 834.901 305.03 Q834.035 305.85 832.746 305.686 Q833.847 308.215 838.204 308.215 Q839.843 308.215 841.108 307.794 Q842.396 307.349 843.099 306.74 Q843.825 306.107 844.294 305.334 Q844.762 304.562 844.903 303.976 Q845.067 303.39 845.067 302.945 Q845.067 302.172 844.762 301.587 Q844.458 301.001 844.036 300.673 Q843.638 300.322 842.865 300.041 Q842.115 299.737 841.577 299.619 Q841.038 299.502 840.078 299.315 Q839.633 299.221 839.352 299.174 Q839.07 299.104 838.485 298.917 Q837.923 298.706 837.525 298.495 Q837.15 298.284 836.658 297.91 Q836.166 297.535 835.862 297.09 Q835.557 296.645 835.346 295.989 Q835.135 295.333 835.135 294.56 Q835.135 293.857 835.346 293.014 Q835.58 292.171 836.166 291.187 Q836.775 290.204 837.642 289.407 Q838.508 288.611 839.96 288.096 Q841.436 287.557 843.24 287.557 Q845.863 287.557 847.409 288.775 Q848.955 289.969 848.955 291.679 Z" fill="#000000" fill-rule="nonzero" fill-opacity="1" /><path clip-path="url(#clip400)" d="M861.356 285.11 Q861.356 284.875 861.965 284.29 Q869.694 276.42 869.694 261.593 Q869.694 246.72 862.269 239.202 Q861.356 238.335 861.356 238.077 Q861.356 237.609 861.824 237.609 Q862.152 237.609 863.3 238.569 Q864.471 239.529 866.228 241.731 Q868.008 243.933 869.32 246.626 Q872.482 253.161 872.482 261.593 Q872.482 269.698 869.46 276.232 Q868.172 278.973 866.368 281.268 Q864.565 283.564 863.37 284.571 Q862.176 285.578 861.824 285.578 Q861.356 285.578 861.356 285.11 Z" fill="#000000" fill-rule="nonzero" fill-opacity="1" /><polyline clip-path="url(#clip400)" style="stroke:#e26f46; stroke-linecap:round; stroke-linejoin:round; stroke-width:4; stroke-opacity:1; fill:none" points="343.792,371.782 483.953,371.782 "/>
<path clip-path="url(#clip400)" d="M529.447 363.63 Q529.447 363.958 529.236 364.731 L524.645 383.048 Q523.638 387.123 520.359 389.981 Q517.103 392.838 513.403 392.838 Q511.177 392.838 509.749 391.644 Q508.32 390.472 508.32 388.669 Q508.32 387.076 509.163 386.303 Q510.006 385.554 511.013 385.554 Q511.341 385.554 511.693 385.647 Q512.044 385.741 512.419 386.139 Q512.794 386.538 512.794 387.217 Q512.794 388.318 511.833 389.184 Q511.365 389.582 510.92 389.676 Q510.498 389.77 509.772 389.77 Q510.053 390.426 510.568 390.871 Q511.084 391.316 511.669 391.48 Q512.255 391.667 512.63 391.714 Q513.028 391.784 513.403 391.784 Q516.401 391.784 518.696 388.763 Q519.375 387.849 519.867 386.936 Q520.382 386.046 520.757 384.945 Q521.132 383.867 521.296 383.282 Q521.483 382.696 521.811 381.361 Q519.633 383.539 516.963 383.539 Q515.838 383.539 514.831 383.235 Q513.848 382.93 512.981 382.298 Q512.114 381.642 511.599 380.495 Q511.107 379.347 511.107 377.824 Q511.107 376.208 511.74 374.006 Q512.372 371.805 513.894 367.753 Q514.714 365.481 514.714 364.38 Q514.714 363.841 514.597 363.513 Q514.48 363.162 514.246 363.045 Q514.011 362.904 513.871 362.881 Q513.754 362.857 513.52 362.857 Q512.138 362.857 510.849 364.263 Q509.561 365.668 508.671 368.807 Q508.484 369.392 508.367 369.533 Q508.25 369.673 507.898 369.673 Q507.313 369.65 507.313 369.181 Q507.313 368.994 507.523 368.268 Q507.734 367.518 508.226 366.418 Q508.741 365.293 509.444 364.286 Q510.147 363.256 511.248 362.529 Q512.372 361.803 513.66 361.803 Q515.417 361.803 516.494 362.951 Q517.595 364.075 517.595 365.738 Q517.595 366.418 517.408 367.027 Q517.244 367.612 516.635 369.181 Q514.175 375.506 514.175 378.597 Q514.175 379.347 514.293 379.979 Q514.433 380.588 514.738 381.197 Q515.042 381.783 515.651 382.134 Q516.283 382.462 517.15 382.462 Q518.251 382.462 519.282 381.947 Q520.336 381.408 520.991 380.682 Q521.671 379.956 522.069 379.347 Q522.49 378.714 522.584 378.386 L524.739 369.767 L525.699 365.926 Q526.144 363.841 526.355 363.326 Q526.636 362.834 527.128 362.576 Q527.62 362.319 528.042 362.319 Q528.627 362.319 529.025 362.67 Q529.447 363.021 529.447 363.63 Z" fill="#000000" fill-rule="nonzero" fill-opacity="1" /><path clip-path="url(#clip400)" d="M543.88 375.716 Q543.927 375.131 544.841 375.131 L574.236 375.131 Q575.618 375.131 575.641 375.669 Q575.641 376.255 574.329 376.232 L545.169 376.232 Q543.88 376.255 543.88 375.716 M543.88 366.347 Q543.88 365.762 544.887 365.785 L574.189 365.785 Q575.618 365.785 575.641 366.347 Q575.641 366.886 574.423 366.886 L544.841 366.886 Q543.88 366.886 543.88 366.347 Z" fill="#000000" fill-rule="nonzero" fill-opacity="1" /><path clip-path="url(#clip400)" d="M594.132 376.536 Q594.132 375.107 594.952 374.428 Q595.772 373.749 596.826 373.749 Q597.926 373.749 598.699 374.475 Q599.496 375.178 599.496 376.419 Q599.496 377.754 598.559 378.504 Q597.645 379.253 596.334 379.066 Q597.481 380.986 599.589 381.853 Q601.721 382.72 603.688 382.72 Q605.75 382.72 607.413 380.94 Q609.099 379.159 609.099 374.803 Q609.099 371.102 607.647 368.971 Q606.218 366.839 603.384 366.839 L601.276 366.839 Q600.55 366.839 600.339 366.769 Q600.128 366.699 600.128 366.301 Q600.128 365.832 600.854 365.738 Q601.58 365.738 602.728 365.598 Q605.515 365.504 606.991 363.092 Q608.326 360.843 608.326 357.634 Q608.326 354.706 606.921 353.488 Q605.539 352.247 603.735 352.247 Q602.049 352.247 600.198 352.95 Q598.348 353.652 597.341 355.222 Q600.316 355.222 600.316 357.634 Q600.316 358.688 599.636 359.391 Q598.98 360.07 597.88 360.07 Q596.826 360.07 596.123 359.414 Q595.42 358.735 595.42 357.587 Q595.42 354.847 597.856 352.95 Q600.316 351.053 603.923 351.053 Q607.483 351.053 610.106 352.926 Q612.753 354.8 612.753 357.681 Q612.753 360.515 610.879 362.834 Q609.005 365.153 606.031 366.113 Q609.685 366.839 611.863 369.322 Q614.041 371.781 614.041 374.803 Q614.041 378.55 611.09 381.314 Q608.139 384.055 603.829 384.055 Q599.847 384.055 596.99 381.9 Q594.132 379.745 594.132 376.536 Z" fill="#000000" fill-rule="nonzero" fill-opacity="1" /><path clip-path="url(#clip400)" d="M618.608 382.228 Q617.882 381.455 617.882 380.448 Q617.882 379.441 618.608 378.714 Q619.334 377.965 620.435 377.965 Q621.489 377.965 622.192 378.668 Q622.918 379.347 622.918 380.471 Q622.918 381.572 622.145 382.298 Q621.395 383.001 620.435 383.001 Q619.334 383.001 618.608 382.228 Z" fill="#000000" fill-rule="nonzero" fill-opacity="1" /><path clip-path="url(#clip400)" d="M631.079 383.001 Q631.079 382.134 631.149 381.876 Q631.243 381.619 631.618 381.221 L640.823 370.962 Q645.859 365.293 645.859 360.351 Q645.859 357.142 644.172 354.847 Q642.509 352.552 639.441 352.552 Q637.333 352.552 635.553 353.84 Q633.773 355.128 632.953 357.423 Q633.093 357.377 633.585 357.377 Q634.78 357.377 635.436 358.126 Q636.115 358.876 636.115 359.883 Q636.115 361.171 635.272 361.803 Q634.452 362.412 633.632 362.412 Q633.304 362.412 632.859 362.342 Q632.438 362.272 631.758 361.616 Q631.079 360.937 631.079 359.742 Q631.079 356.393 633.609 353.723 Q636.162 351.053 640.05 351.053 Q644.453 351.053 647.334 353.676 Q650.239 356.276 650.239 360.351 Q650.239 361.78 649.794 363.092 Q649.372 364.38 648.786 365.387 Q648.224 366.394 646.678 368.01 Q645.133 369.627 643.891 370.774 Q642.65 371.922 639.862 374.358 L634.78 379.3 L643.423 379.3 Q647.639 379.3 647.967 378.925 Q648.435 378.246 649.021 374.662 L650.239 374.662 L648.88 383.001 L631.079 383.001 Z" fill="#000000" fill-rule="nonzero" fill-opacity="1" /><path clip-path="url(#clip400)" d="M653.106 360.445 L654.675 350.584 L655.87 350.584 Q656.01 351.17 656.245 351.427 Q656.502 351.685 657.861 351.896 Q659.243 352.107 662.03 352.107 L673.671 352.107 Q673.671 353.207 673.249 353.793 L666.761 362.904 Q664.7 365.785 663.787 371.102 Q663.248 374.662 663.271 378.972 L663.271 381.408 Q663.271 384.055 661.046 384.055 Q658.845 384.055 658.845 381.408 Q658.845 372.25 664.747 363.373 Q665.379 362.459 667.698 359.204 Q670.04 355.948 670.134 355.807 L660.203 355.807 Q655.846 355.807 655.495 356.088 Q655.027 356.51 654.301 360.445 L653.106 360.445 Z" fill="#000000" fill-rule="nonzero" fill-opacity="1" /><path clip-path="url(#clip400)" d="M673.088 376.536 Q673.088 375.107 673.908 374.428 Q674.728 373.749 675.782 373.749 Q676.882 373.749 677.655 374.475 Q678.452 375.178 678.452 376.419 Q678.452 377.754 677.515 378.504 Q676.601 379.253 675.29 379.066 Q676.437 380.986 678.545 381.853 Q680.677 382.72 682.644 382.72 Q684.706 382.72 686.369 380.94 Q688.055 379.159 688.055 374.803 Q688.055 371.102 686.603 368.971 Q685.174 366.839 682.34 366.839 L680.232 366.839 Q679.506 366.839 679.295 366.769 Q679.084 366.699 679.084 366.301 Q679.084 365.832 679.81 365.738 Q680.536 365.738 681.684 365.598 Q684.471 365.504 685.947 363.092 Q687.282 360.843 687.282 357.634 Q687.282 354.706 685.877 353.488 Q684.495 352.247 682.691 352.247 Q681.005 352.247 679.154 352.95 Q677.304 353.652 676.297 355.222 Q679.272 355.222 679.272 357.634 Q679.272 358.688 678.592 359.391 Q677.936 360.07 676.836 360.07 Q675.782 360.07 675.079 359.414 Q674.376 358.735 674.376 357.587 Q674.376 354.847 676.812 352.95 Q679.272 351.053 682.879 351.053 Q686.439 351.053 689.062 352.926 Q691.709 354.8 691.709 357.681 Q691.709 360.515 689.835 362.834 Q687.961 365.153 684.987 366.113 Q688.641 366.839 690.819 369.322 Q692.997 371.781 692.997 374.803 Q692.997 378.55 690.046 381.314 Q687.095 384.055 682.785 384.055 Q678.803 384.055 675.946 381.9 Q673.088 379.745 673.088 376.536 Z" fill="#000000" fill-rule="nonzero" fill-opacity="1" /><path clip-path="url(#clip400)" d="M711.244 371.594 Q710.143 371.594 710.143 371.008 Q710.143 370.423 711.29 370.423 Q711.431 370.423 711.665 370.446 Q711.923 370.47 711.97 370.47 L725.484 370.47 L725.484 356.908 Q725.484 356.861 725.461 356.65 Q725.438 356.416 725.438 356.276 Q725.438 355.128 726 355.128 Q726.585 355.128 726.585 356.276 L726.585 370.47 L740.123 370.47 Q740.17 370.47 740.405 370.446 Q740.639 370.423 740.779 370.423 Q741.88 370.423 741.88 371.008 Q741.904 371.594 740.732 371.594 Q740.592 371.594 740.381 371.571 Q740.17 371.547 740.123 371.547 L726.585 371.547 L726.585 385.788 Q726.585 386.889 726 386.889 Q725.438 386.889 725.438 385.741 Q725.438 385.601 725.461 385.366 Q725.484 385.156 725.484 385.109 L725.484 371.547 L711.97 371.547 Q711.923 371.547 711.642 371.571 Q711.384 371.594 711.244 371.594 Z" fill="#000000" fill-rule="nonzero" fill-opacity="1" /><path clip-path="url(#clip400)" d="M760.394 367.659 Q760.394 360.609 762.175 356.768 Q764.657 351.053 770.513 351.053 Q771.754 351.053 773.043 351.404 Q774.354 351.732 775.994 353.02 Q777.657 354.308 778.664 356.416 Q780.585 360.492 780.585 367.659 Q780.585 374.662 778.805 378.48 Q776.205 384.055 770.466 384.055 Q768.311 384.055 766.11 382.954 Q763.931 381.853 762.549 379.206 Q760.394 375.248 760.394 367.659 M764.376 367.073 Q764.376 374.311 764.892 377.192 Q765.477 380.307 767.07 381.666 Q768.686 383.001 770.466 383.001 Q772.387 383.001 773.979 381.572 Q775.596 380.12 776.088 377.005 Q776.626 373.936 776.603 367.073 Q776.603 360.398 776.134 357.728 Q775.502 354.613 773.816 353.371 Q772.153 352.107 770.466 352.107 Q769.834 352.107 769.154 352.294 Q768.499 352.481 767.538 353.02 Q766.578 353.559 765.828 354.894 Q765.102 356.229 764.751 358.243 Q764.376 360.843 764.376 367.073 Z" fill="#000000" fill-rule="nonzero" fill-opacity="1" /><path clip-path="url(#clip400)" d="M784.871 382.228 Q784.144 381.455 784.144 380.448 Q784.144 379.441 784.871 378.714 Q785.597 377.965 786.698 377.965 Q787.752 377.965 788.454 378.668 Q789.18 379.347 789.18 380.471 Q789.18 381.572 788.407 382.298 Q787.658 383.001 786.698 383.001 Q785.597 383.001 784.871 382.228 Z" fill="#000000" fill-rule="nonzero" fill-opacity="1" /><path clip-path="url(#clip400)" d="M797.341 375.084 L797.341 373.608 L812.074 351.099 Q812.449 350.514 813.035 350.537 Q813.573 350.537 813.69 350.748 Q813.807 350.959 813.807 351.779 L813.807 373.608 L818.609 373.608 L818.609 375.084 L813.807 375.084 L813.807 379.253 Q813.807 380.635 814.37 381.08 Q814.955 381.525 817.438 381.525 L818.445 381.525 L818.445 383.001 Q816.478 382.86 811.934 382.86 Q807.413 382.86 805.446 383.001 L805.446 381.525 L806.453 381.525 Q808.936 381.525 809.521 381.103 Q810.107 380.658 810.107 379.253 L810.107 375.084 L797.341 375.084 M798.7 373.608 L810.388 373.608 L810.388 355.714 L798.7 373.608 Z" fill="#000000" fill-rule="nonzero" fill-opacity="1" /><path clip-path="url(#clip400)" d="M822.243 361.85 Q822.243 359.297 822.993 357.564 Q823.743 355.807 825.312 354.074 Q828.193 351.053 832.362 351.053 Q834.142 351.053 835.711 351.802 Q837.304 352.552 838.803 354.261 Q840.326 355.948 841.239 359.297 Q842.153 362.623 842.153 367.214 Q842.153 374.639 838.546 379.347 Q834.962 384.055 830.113 384.055 Q827.045 384.055 825.242 382.673 Q823.438 381.267 823.438 378.878 Q823.438 377.637 824.141 377.122 Q824.843 376.583 825.64 376.583 Q826.506 376.583 827.186 377.169 Q827.865 377.731 827.865 378.785 Q827.865 379.651 827.303 380.331 Q826.764 380.986 825.359 380.986 Q826.741 382.72 830.067 382.72 Q831.261 382.72 832.456 382.181 Q833.65 381.619 834.938 380.284 Q836.25 378.925 837.046 376.091 Q837.843 373.257 837.843 369.275 L837.843 367.753 Q835.922 372.554 831.847 372.554 Q827.818 372.554 825.031 369.463 Q822.243 366.371 822.243 361.85 M826.553 361.897 Q826.553 366.652 827.42 368.409 Q828.895 371.43 831.894 371.43 Q834.821 371.43 836.274 368.83 Q837.749 366.207 837.749 362.811 Q837.749 358.103 836.976 356.041 Q835.547 352.247 832.362 352.247 Q829.2 352.247 827.56 355.269 Q826.553 357.049 826.553 361.897 Z" fill="#000000" fill-rule="nonzero" fill-opacity="1" /><path clip-path="url(#clip400)" d="M844.788 355.62 L844.788 354.121 Q850.55 354.121 853.525 351.053 Q854.345 351.053 854.485 351.24 Q854.626 351.427 854.626 352.294 L854.626 379.206 Q854.626 380.635 855.329 381.08 Q856.031 381.525 859.1 381.525 L860.622 381.525 L860.622 383.001 Q858.936 382.86 852.846 382.86 Q846.756 382.86 845.093 383.001 L845.093 381.525 L846.615 381.525 Q849.637 381.525 850.363 381.103 Q851.089 380.658 851.089 379.206 L851.089 354.355 Q848.583 355.62 844.788 355.62 Z" fill="#000000" fill-rule="nonzero" fill-opacity="1" /><path clip-path="url(#clip400)" d="M864.31 376.536 Q864.31 375.107 865.13 374.428 Q865.95 373.749 867.004 373.749 Q868.105 373.749 868.878 374.475 Q869.674 375.178 869.674 376.419 Q869.674 377.754 868.737 378.504 Q867.824 379.253 866.512 379.066 Q867.66 380.986 869.768 381.853 Q871.899 382.72 873.867 382.72 Q875.928 382.72 877.591 380.94 Q879.277 379.159 879.277 374.803 Q879.277 371.102 877.825 368.971 Q876.396 366.839 873.562 366.839 L871.454 366.839 Q870.728 366.839 870.517 366.769 Q870.307 366.699 870.307 366.301 Q870.307 365.832 871.033 365.738 Q871.759 365.738 872.907 365.598 Q875.694 365.504 877.169 363.092 Q878.504 360.843 878.504 357.634 Q878.504 354.706 877.099 353.488 Q875.717 352.247 873.914 352.247 Q872.227 352.247 870.377 352.95 Q868.527 353.652 867.519 355.222 Q870.494 355.222 870.494 357.634 Q870.494 358.688 869.815 359.391 Q869.159 360.07 868.058 360.07 Q867.004 360.07 866.301 359.414 Q865.599 358.735 865.599 357.587 Q865.599 354.847 868.035 352.95 Q870.494 351.053 874.101 351.053 Q877.661 351.053 880.285 352.926 Q882.931 354.8 882.931 357.681 Q882.931 360.515 881.058 362.834 Q879.184 365.153 876.209 366.113 Q879.863 366.839 882.041 369.322 Q884.22 371.781 884.22 374.803 Q884.22 378.55 881.268 381.314 Q878.317 384.055 874.007 384.055 Q870.026 384.055 867.168 381.9 Q864.31 379.745 864.31 376.536 Z" fill="#000000" fill-rule="nonzero" fill-opacity="1" /><path clip-path="url(#clip400)" d="M911.183 364.965 Q911.183 366.277 910.364 367.027 Q909.544 367.753 908.607 367.753 Q907.717 367.753 907.248 367.237 Q906.78 366.722 906.78 366.066 Q906.78 365.176 907.436 364.403 Q908.092 363.63 909.075 363.466 Q908.115 362.857 906.686 362.857 Q905.749 362.857 904.93 363.349 Q904.133 363.841 903.641 364.474 Q903.173 365.106 902.751 366.019 Q902.353 366.909 902.189 367.448 Q902.049 367.964 901.932 368.526 L900.292 375.084 Q899.496 378.199 899.496 379.3 Q899.496 380.658 900.151 381.572 Q900.807 382.462 902.119 382.462 Q902.634 382.462 903.22 382.321 Q903.805 382.158 904.555 381.736 Q905.328 381.291 906.007 380.635 Q906.71 379.956 907.389 378.808 Q908.068 377.66 908.513 376.185 Q908.654 375.669 909.122 375.669 Q909.708 375.669 909.708 376.138 Q909.708 376.536 909.38 377.379 Q909.075 378.199 908.396 379.277 Q907.74 380.331 906.874 381.291 Q906.007 382.228 904.719 382.884 Q903.431 383.539 902.025 383.539 Q900.011 383.539 898.676 382.462 Q897.341 381.385 896.849 379.886 Q896.732 380.096 896.568 380.377 Q896.404 380.658 895.912 381.291 Q895.444 381.9 894.905 382.368 Q894.366 382.813 893.523 383.165 Q892.703 383.539 891.813 383.539 Q890.689 383.539 889.682 383.212 Q888.698 382.884 887.995 382.134 Q887.292 381.385 887.292 380.354 Q887.292 379.206 888.065 378.41 Q888.862 377.59 889.939 377.59 Q890.618 377.59 891.157 377.988 Q891.719 378.386 891.719 379.253 Q891.719 380.213 891.064 380.94 Q890.408 381.666 889.471 381.853 Q890.431 382.462 891.86 382.462 Q893.406 382.462 894.624 381.103 Q895.842 379.745 896.427 377.473 Q897.879 372.016 898.442 369.58 Q899.004 367.12 899.004 366.066 Q899.004 365.083 898.746 364.403 Q898.488 363.724 898.043 363.42 Q897.622 363.092 897.224 362.975 Q896.849 362.857 896.427 362.857 Q895.725 362.857 894.928 363.138 Q894.155 363.42 893.218 364.075 Q892.305 364.708 891.438 366.019 Q890.572 367.331 889.986 369.135 Q889.869 369.673 889.354 369.673 Q888.792 369.65 888.792 369.181 Q888.792 368.783 889.096 367.964 Q889.424 367.12 890.08 366.066 Q890.759 365.012 891.626 364.075 Q892.516 363.115 893.804 362.459 Q895.116 361.803 896.521 361.803 Q897.153 361.803 897.762 361.944 Q898.395 362.061 899.144 362.412 Q899.917 362.764 900.596 363.537 Q901.276 364.31 901.697 365.434 Q901.978 364.895 902.353 364.38 Q902.751 363.865 903.36 363.232 Q903.993 362.576 904.859 362.202 Q905.749 361.803 906.733 361.803 Q907.693 361.803 908.63 362.061 Q909.567 362.295 910.364 363.068 Q911.183 363.818 911.183 364.965 Z" fill="#000000" fill-rule="nonzero" fill-opacity="1" /></svg>
