<?xml version="1.0" encoding="utf-8"?>
<svg xmlns="http://www.w3.org/2000/svg" xmlns:xlink="http://www.w3.org/1999/xlink" width="600" height="400" viewBox="0 0 2400 1600">
<defs>
  <clipPath id="clip600">
    <rect x="0" y="0" width="2400" height="1600"/>
  </clipPath>
</defs>
<path clip-path="url(#clip600)" d="M0 1600 L2400 1600 L2400 0 L0 0  Z" fill="#ffffff" fill-rule="evenodd" fill-opacity="1"/>
<defs>
  <clipPath id="clip601">
    <rect x="480" y="0" width="1681" height="1600"/>
  </clipPath>
</defs>
<path clip-path="url(#clip600)" d="M295.782 1381.43 L2352.76 1381.43 L2352.76 47.2441 L295.782 47.2441  Z" fill="#ffffff" fill-rule="evenodd" fill-opacity="1"/>
<defs>
  <clipPath id="clip602">
    <rect x="295" y="47" width="2058" height="1335"/>
  </clipPath>
</defs>
<polyline clip-path="url(#clip602)" style="stroke:#000000; stroke-linecap:round; stroke-linejoin:round; stroke-width:2; stroke-opacity:0.1; fill:none" points="586.863,1381.43 586.863,47.2441 "/>
<polyline clip-path="url(#clip602)" style="stroke:#000000; stroke-linecap:round; stroke-linejoin:round; stroke-width:2; stroke-opacity:0.1; fill:none" points="1052.59,1381.43 1052.59,47.2441 "/>
<polyline clip-path="url(#clip602)" style="stroke:#000000; stroke-linecap:round; stroke-linejoin:round; stroke-width:2; stroke-opacity:0.1; fill:none" points="1518.32,1381.43 1518.32,47.2441 "/>
<polyline clip-path="url(#clip602)" style="stroke:#000000; stroke-linecap:round; stroke-linejoin:round; stroke-width:2; stroke-opacity:0.1; fill:none" points="1984.05,1381.43 1984.05,47.2441 "/>
<polyline clip-path="url(#clip602)" style="stroke:#000000; stroke-linecap:round; stroke-linejoin:round; stroke-width:2; stroke-opacity:0.1; fill:none" points="295.782,1181.55 2352.76,1181.55 "/>
<polyline clip-path="url(#clip602)" style="stroke:#000000; stroke-linecap:round; stroke-linejoin:round; stroke-width:2; stroke-opacity:0.1; fill:none" points="295.782,887.693 2352.76,887.693 "/>
<polyline clip-path="url(#clip602)" style="stroke:#000000; stroke-linecap:round; stroke-linejoin:round; stroke-width:2; stroke-opacity:0.1; fill:none" points="295.782,593.838 2352.76,593.838 "/>
<polyline clip-path="url(#clip602)" style="stroke:#000000; stroke-linecap:round; stroke-linejoin:round; stroke-width:2; stroke-opacity:0.1; fill:none" points="295.782,299.984 2352.76,299.984 "/>
<polyline clip-path="url(#clip600)" style="stroke:#000000; stroke-linecap:round; stroke-linejoin:round; stroke-width:4; stroke-opacity:1; fill:none" points="295.782,1381.43 2352.76,1381.43 "/>
<polyline clip-path="url(#clip600)" style="stroke:#000000; stroke-linecap:round; stroke-linejoin:round; stroke-width:4; stroke-opacity:1; fill:none" points="586.863,1381.43 586.863,1362.54 "/>
<polyline clip-path="url(#clip600)" style="stroke:#000000; stroke-linecap:round; stroke-linejoin:round; stroke-width:4; stroke-opacity:1; fill:none" points="1052.59,1381.43 1052.59,1362.54 "/>
<polyline clip-path="url(#clip600)" style="stroke:#000000; stroke-linecap:round; stroke-linejoin:round; stroke-width:4; stroke-opacity:1; fill:none" points="1518.32,1381.43 1518.32,1362.54 "/>
<polyline clip-path="url(#clip600)" style="stroke:#000000; stroke-linecap:round; stroke-linejoin:round; stroke-width:4; stroke-opacity:1; fill:none" points="1984.05,1381.43 1984.05,1362.54 "/>
<path clip-path="url(#clip600)" d="M549.491 1412.35 Q545.88 1412.35 544.051 1415.92 Q542.245 1419.46 542.245 1426.59 Q542.245 1433.69 544.051 1437.26 Q545.88 1440.8 549.491 1440.8 Q553.125 1440.8 554.931 1437.26 Q556.759 1433.69 556.759 1426.59 Q556.759 1419.46 554.931 1415.92 Q553.125 1412.35 549.491 1412.35 M549.491 1408.65 Q555.301 1408.65 558.357 1413.25 Q561.435 1417.84 561.435 1426.59 Q561.435 1435.31 558.357 1439.92 Q555.301 1444.5 549.491 1444.5 Q543.681 1444.5 540.602 1439.92 Q537.546 1435.31 537.546 1426.59 Q537.546 1417.84 540.602 1413.25 Q543.681 1408.65 549.491 1408.65 Z" fill="#000000" fill-rule="nonzero" fill-opacity="1" /><path clip-path="url(#clip600)" d="M569.653 1437.95 L574.537 1437.95 L574.537 1443.83 L569.653 1443.83 L569.653 1437.95 Z" fill="#000000" fill-rule="nonzero" fill-opacity="1" /><path clip-path="url(#clip600)" d="M594.722 1412.35 Q591.111 1412.35 589.282 1415.92 Q587.477 1419.46 587.477 1426.59 Q587.477 1433.69 589.282 1437.26 Q591.111 1440.8 594.722 1440.8 Q598.356 1440.8 600.162 1437.26 Q601.991 1433.69 601.991 1426.59 Q601.991 1419.46 600.162 1415.92 Q598.356 1412.35 594.722 1412.35 M594.722 1408.65 Q600.532 1408.65 603.588 1413.25 Q606.666 1417.84 606.666 1426.59 Q606.666 1435.31 603.588 1439.92 Q600.532 1444.5 594.722 1444.5 Q588.912 1444.5 585.833 1439.92 Q582.778 1435.31 582.778 1426.59 Q582.778 1417.84 585.833 1413.25 Q588.912 1408.65 594.722 1408.65 Z" fill="#000000" fill-rule="nonzero" fill-opacity="1" /><path clip-path="url(#clip600)" d="M629.051 1425.2 Q632.407 1425.92 634.282 1428.19 Q636.18 1430.45 636.18 1433.79 Q636.18 1438.9 632.662 1441.7 Q629.143 1444.5 622.662 1444.5 Q620.486 1444.5 618.171 1444.06 Q615.879 1443.65 613.426 1442.79 L613.426 1438.28 Q615.37 1439.41 617.685 1439.99 Q620 1440.57 622.523 1440.57 Q626.921 1440.57 629.213 1438.83 Q631.527 1437.1 631.527 1433.79 Q631.527 1430.73 629.375 1429.02 Q627.245 1427.28 623.426 1427.28 L619.398 1427.28 L619.398 1423.44 L623.611 1423.44 Q627.06 1423.44 628.889 1422.07 Q630.717 1420.69 630.717 1418.09 Q630.717 1415.43 628.819 1414.02 Q626.944 1412.58 623.426 1412.58 Q621.504 1412.58 619.305 1413 Q617.106 1413.42 614.467 1414.3 L614.467 1410.13 Q617.129 1409.39 619.444 1409.02 Q621.782 1408.65 623.842 1408.65 Q629.166 1408.65 632.268 1411.08 Q635.37 1413.49 635.37 1417.61 Q635.37 1420.48 633.726 1422.47 Q632.083 1424.44 629.051 1425.2 Z" fill="#000000" fill-rule="nonzero" fill-opacity="1" /><path clip-path="url(#clip600)" d="M1014.65 1412.35 Q1011.04 1412.35 1009.21 1415.92 Q1007.41 1419.46 1007.41 1426.59 Q1007.41 1433.69 1009.21 1437.26 Q1011.04 1440.8 1014.65 1440.8 Q1018.29 1440.8 1020.09 1437.26 Q1021.92 1433.69 1021.92 1426.59 Q1021.92 1419.46 1020.09 1415.92 Q1018.29 1412.35 1014.65 1412.35 M1014.65 1408.65 Q1020.46 1408.65 1023.52 1413.25 Q1026.6 1417.84 1026.6 1426.59 Q1026.6 1435.31 1023.52 1439.92 Q1020.46 1444.5 1014.65 1444.5 Q1008.84 1444.5 1005.76 1439.92 Q1002.71 1435.31 1002.71 1426.59 Q1002.71 1417.84 1005.76 1413.25 Q1008.84 1408.65 1014.65 1408.65 Z" fill="#000000" fill-rule="nonzero" fill-opacity="1" /><path clip-path="url(#clip600)" d="M1034.82 1437.95 L1039.7 1437.95 L1039.7 1443.83 L1034.82 1443.83 L1034.82 1437.95 Z" fill="#000000" fill-rule="nonzero" fill-opacity="1" /><path clip-path="url(#clip600)" d="M1059.88 1412.35 Q1056.27 1412.35 1054.45 1415.92 Q1052.64 1419.46 1052.64 1426.59 Q1052.64 1433.69 1054.45 1437.26 Q1056.27 1440.8 1059.88 1440.8 Q1063.52 1440.8 1065.32 1437.26 Q1067.15 1433.69 1067.15 1426.59 Q1067.15 1419.46 1065.32 1415.92 Q1063.52 1412.35 1059.88 1412.35 M1059.88 1408.65 Q1065.69 1408.65 1068.75 1413.25 Q1071.83 1417.84 1071.83 1426.59 Q1071.83 1435.31 1068.75 1439.92 Q1065.69 1444.5 1059.88 1444.5 Q1054.07 1444.5 1051 1439.92 Q1047.94 1435.31 1047.94 1426.59 Q1047.94 1417.84 1051 1413.25 Q1054.07 1408.65 1059.88 1408.65 Z" fill="#000000" fill-rule="nonzero" fill-opacity="1" /><path clip-path="url(#clip600)" d="M1092.89 1413.35 L1081.09 1431.8 L1092.89 1431.8 L1092.89 1413.35 M1091.67 1409.27 L1097.55 1409.27 L1097.55 1431.8 L1102.48 1431.8 L1102.48 1435.69 L1097.55 1435.69 L1097.55 1443.83 L1092.89 1443.83 L1092.89 1435.69 L1077.29 1435.69 L1077.29 1431.17 L1091.67 1409.27 Z" fill="#000000" fill-rule="nonzero" fill-opacity="1" /><path clip-path="url(#clip600)" d="M1481.12 1412.35 Q1477.51 1412.35 1475.68 1415.92 Q1473.88 1419.46 1473.88 1426.59 Q1473.88 1433.69 1475.68 1437.26 Q1477.51 1440.8 1481.12 1440.8 Q1484.76 1440.8 1486.56 1437.26 Q1488.39 1433.69 1488.39 1426.59 Q1488.39 1419.46 1486.56 1415.92 Q1484.76 1412.35 1481.12 1412.35 M1481.12 1408.65 Q1486.93 1408.65 1489.99 1413.25 Q1493.07 1417.84 1493.07 1426.59 Q1493.07 1435.31 1489.99 1439.92 Q1486.93 1444.5 1481.12 1444.5 Q1475.31 1444.5 1472.24 1439.92 Q1469.18 1435.31 1469.18 1426.59 Q1469.18 1417.84 1472.24 1413.25 Q1475.31 1408.65 1481.12 1408.65 Z" fill="#000000" fill-rule="nonzero" fill-opacity="1" /><path clip-path="url(#clip600)" d="M1501.29 1437.95 L1506.17 1437.95 L1506.17 1443.83 L1501.29 1443.83 L1501.29 1437.95 Z" fill="#000000" fill-rule="nonzero" fill-opacity="1" /><path clip-path="url(#clip600)" d="M1526.36 1412.35 Q1522.74 1412.35 1520.92 1415.92 Q1519.11 1419.46 1519.11 1426.59 Q1519.11 1433.69 1520.92 1437.26 Q1522.74 1440.8 1526.36 1440.8 Q1529.99 1440.8 1531.8 1437.26 Q1533.62 1433.69 1533.62 1426.59 Q1533.62 1419.46 1531.8 1415.92 Q1529.99 1412.35 1526.36 1412.35 M1526.36 1408.65 Q1532.17 1408.65 1535.22 1413.25 Q1538.3 1417.84 1538.3 1426.59 Q1538.3 1435.31 1535.22 1439.92 Q1532.17 1444.5 1526.36 1444.5 Q1520.55 1444.5 1517.47 1439.92 Q1514.41 1435.31 1514.41 1426.59 Q1514.41 1417.84 1517.47 1413.25 Q1520.55 1408.65 1526.36 1408.65 Z" fill="#000000" fill-rule="nonzero" fill-opacity="1" /><path clip-path="url(#clip600)" d="M1546.56 1409.27 L1564.92 1409.27 L1564.92 1413.21 L1550.85 1413.21 L1550.85 1421.68 Q1551.86 1421.33 1552.88 1421.17 Q1553.9 1420.99 1554.92 1420.99 Q1560.71 1420.99 1564.09 1424.16 Q1567.47 1427.33 1567.47 1432.75 Q1567.47 1438.32 1563.99 1441.43 Q1560.52 1444.5 1554.2 1444.5 Q1552.03 1444.5 1549.76 1444.13 Q1547.51 1443.76 1545.11 1443.02 L1545.11 1438.32 Q1547.19 1439.46 1549.41 1440.01 Q1551.63 1440.57 1554.11 1440.57 Q1558.11 1440.57 1560.45 1438.46 Q1562.79 1436.36 1562.79 1432.75 Q1562.79 1429.13 1560.45 1427.03 Q1558.11 1424.92 1554.11 1424.92 Q1552.23 1424.92 1550.36 1425.34 Q1548.51 1425.75 1546.56 1426.63 L1546.56 1409.27 Z" fill="#000000" fill-rule="nonzero" fill-opacity="1" /><path clip-path="url(#clip600)" d="M1946.28 1412.35 Q1942.66 1412.35 1940.84 1415.92 Q1939.03 1419.46 1939.03 1426.59 Q1939.03 1433.69 1940.84 1437.26 Q1942.66 1440.8 1946.28 1440.8 Q1949.91 1440.8 1951.72 1437.26 Q1953.54 1433.69 1953.54 1426.59 Q1953.54 1419.46 1951.72 1415.92 Q1949.91 1412.35 1946.28 1412.35 M1946.28 1408.65 Q1952.09 1408.65 1955.14 1413.25 Q1958.22 1417.84 1958.22 1426.59 Q1958.22 1435.31 1955.14 1439.92 Q1952.09 1444.5 1946.28 1444.5 Q1940.47 1444.5 1937.39 1439.92 Q1934.33 1435.31 1934.33 1426.59 Q1934.33 1417.84 1937.39 1413.25 Q1940.47 1408.65 1946.28 1408.65 Z" fill="#000000" fill-rule="nonzero" fill-opacity="1" /><path clip-path="url(#clip600)" d="M1966.44 1437.95 L1971.32 1437.95 L1971.32 1443.83 L1966.44 1443.83 L1966.44 1437.95 Z" fill="#000000" fill-rule="nonzero" fill-opacity="1" /><path clip-path="url(#clip600)" d="M1991.51 1412.35 Q1987.9 1412.35 1986.07 1415.92 Q1984.26 1419.46 1984.26 1426.59 Q1984.26 1433.69 1986.07 1437.26 Q1987.9 1440.8 1991.51 1440.8 Q1995.14 1440.8 1996.95 1437.26 Q1998.78 1433.69 1998.78 1426.59 Q1998.78 1419.46 1996.95 1415.92 Q1995.14 1412.35 1991.51 1412.35 M1991.51 1408.65 Q1997.32 1408.65 2000.37 1413.25 Q2003.45 1417.84 2003.45 1426.59 Q2003.45 1435.31 2000.37 1439.92 Q1997.32 1444.5 1991.51 1444.5 Q1985.7 1444.5 1982.62 1439.92 Q1979.56 1435.31 1979.56 1426.59 Q1979.56 1417.84 1982.62 1413.25 Q1985.7 1408.65 1991.51 1408.65 Z" fill="#000000" fill-rule="nonzero" fill-opacity="1" /><path clip-path="url(#clip600)" d="M2022.25 1424.69 Q2019.1 1424.69 2017.25 1426.84 Q2015.42 1429 2015.42 1432.75 Q2015.42 1436.47 2017.25 1438.65 Q2019.1 1440.8 2022.25 1440.8 Q2025.4 1440.8 2027.22 1438.65 Q2029.08 1436.47 2029.08 1432.75 Q2029.08 1429 2027.22 1426.84 Q2025.4 1424.69 2022.25 1424.69 M2031.53 1410.04 L2031.53 1414.3 Q2029.77 1413.46 2027.96 1413.02 Q2026.18 1412.58 2024.42 1412.58 Q2019.79 1412.58 2017.34 1415.71 Q2014.91 1418.83 2014.56 1425.15 Q2015.93 1423.14 2017.99 1422.07 Q2020.05 1420.99 2022.53 1420.99 Q2027.73 1420.99 2030.74 1424.16 Q2033.78 1427.31 2033.78 1432.75 Q2033.78 1438.07 2030.63 1441.29 Q2027.48 1444.5 2022.25 1444.5 Q2016.25 1444.5 2013.08 1439.92 Q2009.91 1435.31 2009.91 1426.59 Q2009.91 1418.39 2013.8 1413.53 Q2017.69 1408.65 2024.24 1408.65 Q2026 1408.65 2027.78 1409 Q2029.59 1409.34 2031.53 1410.04 Z" fill="#000000" fill-rule="nonzero" fill-opacity="1" /><path clip-path="url(#clip600)" d="M1187.09 1461.75 L1187.09 1459.69 Q1195.01 1459.69 1199.1 1455.47 Q1200.23 1455.47 1200.42 1455.73 Q1200.61 1455.99 1200.61 1457.18 L1200.61 1494.18 Q1200.61 1496.15 1201.58 1496.76 Q1202.55 1497.37 1206.77 1497.37 L1208.86 1497.37 L1208.86 1499.4 Q1206.54 1499.21 1198.17 1499.21 Q1189.79 1499.21 1187.51 1499.4 L1187.51 1497.37 L1189.6 1497.37 Q1193.75 1497.37 1194.75 1496.79 Q1195.75 1496.18 1195.75 1494.18 L1195.75 1460.01 Q1192.31 1461.75 1187.09 1461.75 Z" fill="#000000" fill-rule="nonzero" fill-opacity="1" /><path clip-path="url(#clip600)" d="M1165.09 1517 L1236.88 1517 L1236.88 1513.48 L1165.09 1513.48  Z" fill="#000000" fill-rule="evenodd" fill-opacity="1"/>
<path clip-path="url(#clip600)" d="M1196.49 1531.35 L1186.99 1569.48 Q1186.6 1571.19 1186.6 1572.64 Q1186.6 1575.67 1188.57 1575.67 Q1189.53 1575.67 1190.3 1575.05 Q1191.08 1574.44 1191.69 1573.15 Q1192.3 1571.87 1192.69 1570.67 Q1193.07 1569.45 1193.59 1567.52 Q1193.75 1566.75 1193.88 1566.55 Q1194.04 1566.33 1194.49 1566.33 Q1195.3 1566.33 1195.3 1566.97 Q1194.43 1571.13 1193.3 1573.51 Q1191.5 1577.15 1188.44 1577.15 Q1186.12 1577.15 1184.48 1575.73 Q1182.83 1574.31 1182.45 1572.19 Q1178.23 1577.15 1173.85 1577.15 Q1169.98 1577.15 1167.54 1574.22 Q1165.09 1571.25 1165.09 1566.58 Q1165.09 1561.88 1167.41 1557.37 Q1169.76 1552.86 1173.46 1550.06 Q1177.16 1547.26 1180.97 1547.26 Q1184.99 1547.26 1187.05 1551.48 L1191.01 1535.83 L1191.21 1534.54 Q1191.21 1534.15 1191.05 1533.96 Q1190.92 1533.73 1190.14 1533.57 Q1189.4 1533.41 1187.92 1533.41 Q1187.31 1533.41 1187.02 1533.38 Q1186.76 1533.35 1186.54 1533.19 Q1186.31 1532.99 1186.31 1532.61 Q1186.31 1531.48 1187.25 1531.35 Q1193.43 1530.64 1195.62 1530.64 Q1196.01 1530.64 1196.23 1530.84 Q1196.46 1531 1196.46 1531.19 L1196.49 1531.35 M1186.25 1554.51 Q1186.25 1554.22 1186.02 1553.41 Q1185.8 1552.61 1185.28 1551.48 Q1184.77 1550.35 1183.64 1549.55 Q1182.54 1548.71 1181.06 1548.71 Q1179.07 1548.71 1176.97 1550.42 Q1174.91 1552.12 1173.4 1555.02 Q1172.24 1557.34 1170.98 1562.2 Q1169.76 1567.07 1169.76 1569.48 Q1169.76 1570.96 1170.08 1572.28 Q1170.43 1573.57 1171.43 1574.64 Q1172.43 1575.67 1173.98 1575.67 Q1177.74 1575.67 1181.45 1571 Q1182.16 1570.19 1182.32 1569.87 Q1182.51 1569.52 1182.77 1568.55 L1186.05 1555.63 Q1186.25 1554.67 1186.25 1554.51 Z" fill="#000000" fill-rule="nonzero" fill-opacity="1" /><path clip-path="url(#clip600)" d="M1222.99 1576.67 Q1222.99 1579.12 1221.91 1581.56 Q1220.83 1583.97 1219.09 1585.77 Q1217.38 1587.56 1215.12 1588.68 Q1212.87 1589.79 1210.62 1589.79 Q1207.39 1589.79 1205.3 1587.6 Q1203.22 1585.39 1203.22 1581.96 Q1203.22 1578.76 1205 1575.72 Q1206.81 1572.65 1209.69 1570.76 Q1212.58 1568.87 1215.6 1568.87 Q1218.78 1568.87 1220.87 1571.01 Q1222.99 1573.15 1222.99 1576.67 M1219.61 1574.86 Q1219.61 1572.68 1218.55 1571.28 Q1217.49 1569.88 1215.55 1569.88 Q1214.99 1569.88 1214.34 1570.06 Q1213.68 1570.22 1212.83 1570.65 Q1211.99 1571.08 1211.04 1571.98 Q1210.12 1572.86 1209.31 1574.12 Q1208.25 1575.79 1207.44 1578.85 Q1206.65 1581.9 1206.65 1583.72 Q1206.65 1586.25 1207.82 1587.51 Q1208.99 1588.75 1210.66 1588.75 Q1212.28 1588.75 1214 1587.62 Q1215.73 1586.47 1216.93 1584.51 Q1218.12 1582.48 1218.87 1579.51 Q1219.61 1576.51 1219.61 1574.86 Z" fill="#000000" fill-rule="nonzero" fill-opacity="1" /><path clip-path="url(#clip600)" d="M1296.21 1515.09 Q1296.21 1503.94 1300.37 1494.96 Q1302.14 1491.19 1304.62 1488.03 Q1307.1 1484.88 1308.74 1483.49 Q1310.38 1482.11 1310.83 1482.11 Q1311.48 1482.11 1311.51 1482.75 Q1311.51 1483.07 1310.64 1483.88 Q1300.01 1494.7 1300.05 1515.09 Q1300.05 1535.54 1310.38 1545.94 Q1311.51 1547.07 1311.51 1547.42 Q1311.51 1548.06 1310.83 1548.06 Q1310.38 1548.06 1308.81 1546.74 Q1307.23 1545.42 1304.78 1542.4 Q1302.33 1539.37 1300.56 1535.67 Q1296.21 1526.68 1296.21 1515.09 Z" fill="#000000" fill-rule="nonzero" fill-opacity="1" /><path clip-path="url(#clip600)" d="M1325.73 1527.97 Q1321.54 1523.59 1321.54 1517.34 Q1321.54 1511.06 1325.66 1506.55 Q1329.78 1502.01 1335.84 1502.01 Q1339.87 1502.01 1342.89 1503.94 Q1345.92 1505.84 1345.92 1509.1 Q1345.92 1510.54 1345.05 1511.38 Q1344.21 1512.19 1342.89 1512.19 Q1341.51 1512.19 1340.67 1511.35 Q1339.87 1510.48 1339.87 1509.16 Q1339.87 1508.58 1340.06 1508 Q1340.25 1507.42 1340.96 1506.81 Q1341.7 1506.2 1342.96 1506.1 Q1340.61 1503.68 1336.03 1503.68 Q1335.97 1503.68 1335.9 1503.68 Q1332.55 1503.68 1329.78 1506.84 Q1327.02 1510 1327.02 1517.21 Q1327.02 1520.98 1327.92 1523.75 Q1328.85 1526.49 1330.36 1527.9 Q1331.88 1529.32 1333.36 1530 Q1334.84 1530.64 1336.29 1530.64 Q1342.76 1530.64 1344.95 1523.72 Q1345.15 1523.07 1345.79 1523.07 Q1346.66 1523.07 1346.66 1523.72 Q1346.66 1524.04 1346.4 1524.88 Q1346.15 1525.71 1345.34 1527.03 Q1344.54 1528.35 1343.38 1529.51 Q1342.25 1530.64 1340.22 1531.48 Q1338.22 1532.32 1335.71 1532.32 Q1329.91 1532.32 1325.73 1527.97 Z" fill="#000000" fill-rule="nonzero" fill-opacity="1" /><path clip-path="url(#clip600)" d="M1348.69 1531.57 L1348.69 1529.55 Q1352.2 1529.55 1353 1529.13 Q1353.81 1528.68 1353.81 1526.55 L1353.81 1508.87 Q1353.81 1506.42 1352.94 1505.81 Q1352.1 1505.2 1348.69 1505.2 L1348.69 1503.14 L1357.96 1502.43 L1357.96 1509.35 Q1361.06 1502.43 1367.72 1502.43 Q1375.45 1502.43 1376.51 1508.87 Q1377.64 1506.36 1379.99 1504.39 Q1382.38 1502.43 1386.08 1502.43 Q1391.04 1502.43 1393 1504.88 Q1394.45 1506.52 1394.74 1508.35 Q1395.03 1510.19 1395.03 1514.96 L1395.03 1527.55 Q1395.1 1528.93 1396.16 1529.26 Q1397.22 1529.55 1400.19 1529.55 L1400.19 1531.57 Q1393.45 1531.38 1392.81 1531.38 Q1392.29 1531.38 1385.34 1531.57 L1385.34 1529.55 Q1388.85 1529.55 1389.65 1529.13 Q1390.49 1528.68 1390.49 1526.55 L1390.49 1511.19 Q1390.49 1507.84 1389.46 1505.87 Q1388.43 1503.88 1385.6 1503.88 Q1382.18 1503.88 1379.44 1506.74 Q1376.71 1509.61 1376.71 1514.44 L1376.71 1526.55 Q1376.71 1528.68 1377.51 1529.13 Q1378.35 1529.55 1381.86 1529.55 L1381.86 1531.57 Q1375.13 1531.38 1374.45 1531.38 Q1373.94 1531.38 1367.01 1531.57 L1367.01 1529.55 Q1370.52 1529.55 1371.33 1529.13 Q1372.17 1528.68 1372.17 1526.55 L1372.17 1511.19 Q1372.17 1507.84 1371.14 1505.87 Q1370.1 1503.88 1367.27 1503.88 Q1363.86 1503.88 1361.12 1506.74 Q1358.38 1509.61 1358.38 1514.44 L1358.38 1526.55 Q1358.38 1528.68 1359.19 1529.13 Q1360.02 1529.55 1363.5 1529.55 L1363.5 1531.57 Q1356.77 1531.38 1356.13 1531.38 Q1355.61 1531.38 1348.69 1531.57 Z" fill="#000000" fill-rule="nonzero" fill-opacity="1" /><path clip-path="url(#clip600)" d="M1437.21 1499.24 Q1437.48 1499.51 1437.48 1499.89 Q1437.48 1500.27 1437.21 1500.54 Q1436.94 1500.81 1436.55 1500.81 L1407.65 1500.81 Q1407.27 1500.81 1407 1500.54 Q1406.73 1500.27 1406.73 1499.89 Q1406.73 1499.51 1407 1499.24 Q1407.27 1498.97 1407.65 1498.97 L1436.55 1498.97 Q1436.94 1498.97 1437.21 1499.24 Z" fill="#000000" fill-rule="nonzero" fill-opacity="1" /><path clip-path="url(#clip600)" d="M1442.3 1485.08 L1442.3 1483.64 Q1447.84 1483.64 1450.71 1480.68 Q1451.5 1480.68 1451.63 1480.86 Q1451.77 1481.04 1451.77 1481.88 L1451.77 1507.78 Q1451.77 1509.16 1452.44 1509.58 Q1453.12 1510.01 1456.07 1510.01 L1457.54 1510.01 L1457.54 1511.43 Q1455.91 1511.3 1450.05 1511.3 Q1444.19 1511.3 1442.59 1511.43 L1442.59 1510.01 L1444.06 1510.01 Q1446.96 1510.01 1447.66 1509.61 Q1448.36 1509.18 1448.36 1507.78 L1448.36 1483.86 Q1445.95 1485.08 1442.3 1485.08 Z" fill="#000000" fill-rule="nonzero" fill-opacity="1" /><path clip-path="url(#clip600)" d="M1472.2 1547.42 Q1472.2 1547.1 1473.04 1546.29 Q1483.67 1535.47 1483.67 1515.09 Q1483.67 1494.63 1473.46 1484.3 Q1472.2 1483.11 1472.2 1482.75 Q1472.2 1482.11 1472.85 1482.11 Q1473.3 1482.11 1474.88 1483.43 Q1476.49 1484.75 1478.9 1487.78 Q1481.35 1490.8 1483.15 1494.51 Q1487.5 1503.49 1487.5 1515.09 Q1487.5 1526.23 1483.35 1535.21 Q1481.57 1538.98 1479.09 1542.14 Q1476.62 1545.29 1474.97 1546.68 Q1473.33 1548.06 1472.85 1548.06 Q1472.2 1548.06 1472.2 1547.42 Z" fill="#000000" fill-rule="nonzero" fill-opacity="1" /><polyline clip-path="url(#clip600)" style="stroke:#000000; stroke-linecap:round; stroke-linejoin:round; stroke-width:4; stroke-opacity:1; fill:none" points="295.782,1381.43 295.782,47.2441 "/>
<polyline clip-path="url(#clip600)" style="stroke:#000000; stroke-linecap:round; stroke-linejoin:round; stroke-width:4; stroke-opacity:1; fill:none" points="295.782,1181.55 314.68,1181.55 "/>
<polyline clip-path="url(#clip600)" style="stroke:#000000; stroke-linecap:round; stroke-linejoin:round; stroke-width:4; stroke-opacity:1; fill:none" points="295.782,887.693 314.68,887.693 "/>
<polyline clip-path="url(#clip600)" style="stroke:#000000; stroke-linecap:round; stroke-linejoin:round; stroke-width:4; stroke-opacity:1; fill:none" points="295.782,593.838 314.68,593.838 "/>
<polyline clip-path="url(#clip600)" style="stroke:#000000; stroke-linecap:round; stroke-linejoin:round; stroke-width:4; stroke-opacity:1; fill:none" points="295.782,299.984 314.68,299.984 "/>
<path clip-path="url(#clip600)" d="M171.958 1167.35 Q168.347 1167.35 166.519 1170.91 Q164.713 1174.45 164.713 1181.58 Q164.713 1188.69 166.519 1192.25 Q168.347 1195.79 171.958 1195.79 Q175.593 1195.79 177.398 1192.25 Q179.227 1188.69 179.227 1181.58 Q179.227 1174.45 177.398 1170.91 Q175.593 1167.35 171.958 1167.35 M171.958 1163.64 Q177.769 1163.64 180.824 1168.25 Q183.903 1172.83 183.903 1181.58 Q183.903 1190.31 180.824 1194.91 Q177.769 1199.5 171.958 1199.5 Q166.148 1199.5 163.07 1194.91 Q160.014 1190.31 160.014 1181.58 Q160.014 1172.83 163.07 1168.25 Q166.148 1163.64 171.958 1163.64 Z" fill="#000000" fill-rule="nonzero" fill-opacity="1" /><path clip-path="url(#clip600)" d="M192.12 1192.95 L197.005 1192.95 L197.005 1198.83 L192.12 1198.83 L192.12 1192.95 Z" fill="#000000" fill-rule="nonzero" fill-opacity="1" /><path clip-path="url(#clip600)" d="M217.19 1167.35 Q213.579 1167.35 211.75 1170.91 Q209.944 1174.45 209.944 1181.58 Q209.944 1188.69 211.75 1192.25 Q213.579 1195.79 217.19 1195.79 Q220.824 1195.79 222.63 1192.25 Q224.458 1188.69 224.458 1181.58 Q224.458 1174.45 222.63 1170.91 Q220.824 1167.35 217.19 1167.35 M217.19 1163.64 Q223 1163.64 226.055 1168.25 Q229.134 1172.83 229.134 1181.58 Q229.134 1190.31 226.055 1194.91 Q223 1199.5 217.19 1199.5 Q211.38 1199.5 208.301 1194.91 Q205.245 1190.31 205.245 1181.58 Q205.245 1172.83 208.301 1168.25 Q211.38 1163.64 217.19 1163.64 Z" fill="#000000" fill-rule="nonzero" fill-opacity="1" /><path clip-path="url(#clip600)" d="M250.199 1168.34 L238.393 1186.79 L250.199 1186.79 L250.199 1168.34 M248.972 1164.27 L254.852 1164.27 L254.852 1186.79 L259.782 1186.79 L259.782 1190.68 L254.852 1190.68 L254.852 1198.83 L250.199 1198.83 L250.199 1190.68 L234.597 1190.68 L234.597 1186.16 L248.972 1164.27 Z" fill="#000000" fill-rule="nonzero" fill-opacity="1" /><path clip-path="url(#clip600)" d="M173.44 873.491 Q169.829 873.491 168 877.056 Q166.195 880.598 166.195 887.727 Q166.195 894.834 168 898.399 Q169.829 901.94 173.44 901.94 Q177.074 901.94 178.88 898.399 Q180.708 894.834 180.708 887.727 Q180.708 880.598 178.88 877.056 Q177.074 873.491 173.44 873.491 M173.44 869.788 Q179.25 869.788 182.306 874.394 Q185.384 878.977 185.384 887.727 Q185.384 896.454 182.306 901.061 Q179.25 905.644 173.44 905.644 Q167.63 905.644 164.551 901.061 Q161.496 896.454 161.496 887.727 Q161.496 878.977 164.551 874.394 Q167.63 869.788 173.44 869.788 Z" fill="#000000" fill-rule="nonzero" fill-opacity="1" /><path clip-path="url(#clip600)" d="M193.602 899.093 L198.486 899.093 L198.486 904.973 L193.602 904.973 L193.602 899.093 Z" fill="#000000" fill-rule="nonzero" fill-opacity="1" /><path clip-path="url(#clip600)" d="M218.671 873.491 Q215.06 873.491 213.231 877.056 Q211.426 880.598 211.426 887.727 Q211.426 894.834 213.231 898.399 Q215.06 901.94 218.671 901.94 Q222.305 901.94 224.111 898.399 Q225.94 894.834 225.94 887.727 Q225.94 880.598 224.111 877.056 Q222.305 873.491 218.671 873.491 M218.671 869.788 Q224.481 869.788 227.537 874.394 Q230.616 878.977 230.616 887.727 Q230.616 896.454 227.537 901.061 Q224.481 905.644 218.671 905.644 Q212.861 905.644 209.782 901.061 Q206.727 896.454 206.727 887.727 Q206.727 878.977 209.782 874.394 Q212.861 869.788 218.671 869.788 Z" fill="#000000" fill-rule="nonzero" fill-opacity="1" /><path clip-path="url(#clip600)" d="M238.879 870.413 L257.236 870.413 L257.236 874.348 L243.162 874.348 L243.162 882.82 Q244.18 882.473 245.199 882.311 Q246.217 882.125 247.236 882.125 Q253.023 882.125 256.402 885.297 Q259.782 888.468 259.782 893.885 Q259.782 899.463 256.31 902.565 Q252.838 905.644 246.518 905.644 Q244.342 905.644 242.074 905.273 Q239.829 904.903 237.421 904.162 L237.421 899.463 Q239.504 900.598 241.727 901.153 Q243.949 901.709 246.426 901.709 Q250.43 901.709 252.768 899.602 Q255.106 897.496 255.106 893.885 Q255.106 890.274 252.768 888.167 Q250.43 886.061 246.426 886.061 Q244.551 886.061 242.676 886.477 Q240.824 886.894 238.879 887.774 L238.879 870.413 Z" fill="#000000" fill-rule="nonzero" fill-opacity="1" /><path clip-path="url(#clip600)" d="M172.283 579.637 Q168.671 579.637 166.843 583.202 Q165.037 586.743 165.037 593.873 Q165.037 600.979 166.843 604.544 Q168.671 608.086 172.283 608.086 Q175.917 608.086 177.722 604.544 Q179.551 600.979 179.551 593.873 Q179.551 586.743 177.722 583.202 Q175.917 579.637 172.283 579.637 M172.283 575.933 Q178.093 575.933 181.148 580.54 Q184.227 585.123 184.227 593.873 Q184.227 602.6 181.148 607.206 Q178.093 611.79 172.283 611.79 Q166.472 611.79 163.394 607.206 Q160.338 602.6 160.338 593.873 Q160.338 585.123 163.394 580.54 Q166.472 575.933 172.283 575.933 Z" fill="#000000" fill-rule="nonzero" fill-opacity="1" /><path clip-path="url(#clip600)" d="M192.444 605.239 L197.329 605.239 L197.329 611.118 L192.444 611.118 L192.444 605.239 Z" fill="#000000" fill-rule="nonzero" fill-opacity="1" /><path clip-path="url(#clip600)" d="M217.514 579.637 Q213.903 579.637 212.074 583.202 Q210.268 586.743 210.268 593.873 Q210.268 600.979 212.074 604.544 Q213.903 608.086 217.514 608.086 Q221.148 608.086 222.954 604.544 Q224.782 600.979 224.782 593.873 Q224.782 586.743 222.954 583.202 Q221.148 579.637 217.514 579.637 M217.514 575.933 Q223.324 575.933 226.38 580.54 Q229.458 585.123 229.458 593.873 Q229.458 602.6 226.38 607.206 Q223.324 611.79 217.514 611.79 Q211.704 611.79 208.625 607.206 Q205.569 602.6 205.569 593.873 Q205.569 585.123 208.625 580.54 Q211.704 575.933 217.514 575.933 Z" fill="#000000" fill-rule="nonzero" fill-opacity="1" /><path clip-path="url(#clip600)" d="M248.254 591.975 Q245.106 591.975 243.254 594.128 Q241.426 596.28 241.426 600.03 Q241.426 603.757 243.254 605.933 Q245.106 608.086 248.254 608.086 Q251.403 608.086 253.231 605.933 Q255.083 603.757 255.083 600.03 Q255.083 596.28 253.231 594.128 Q251.403 591.975 248.254 591.975 M257.537 577.322 L257.537 581.581 Q255.777 580.748 253.972 580.308 Q252.19 579.868 250.43 579.868 Q245.801 579.868 243.347 582.993 Q240.916 586.118 240.569 592.438 Q241.935 590.424 243.995 589.359 Q246.055 588.271 248.532 588.271 Q253.74 588.271 256.75 591.442 Q259.782 594.591 259.782 600.03 Q259.782 605.354 256.634 608.572 Q253.486 611.79 248.254 611.79 Q242.259 611.79 239.088 607.206 Q235.916 602.6 235.916 593.873 Q235.916 585.679 239.805 580.818 Q243.694 575.933 250.245 575.933 Q252.004 575.933 253.787 576.281 Q255.592 576.628 257.537 577.322 Z" fill="#000000" fill-rule="nonzero" fill-opacity="1" /><path clip-path="url(#clip600)" d="M173.347 285.783 Q169.736 285.783 167.908 289.348 Q166.102 292.889 166.102 300.019 Q166.102 307.125 167.908 310.69 Q169.736 314.232 173.347 314.232 Q176.982 314.232 178.787 310.69 Q180.616 307.125 180.616 300.019 Q180.616 292.889 178.787 289.348 Q176.982 285.783 173.347 285.783 M173.347 282.079 Q179.158 282.079 182.213 286.686 Q185.292 291.269 185.292 300.019 Q185.292 308.746 182.213 313.352 Q179.158 317.935 173.347 317.935 Q167.537 317.935 164.459 313.352 Q161.403 308.746 161.403 300.019 Q161.403 291.269 164.459 286.686 Q167.537 282.079 173.347 282.079 Z" fill="#000000" fill-rule="nonzero" fill-opacity="1" /><path clip-path="url(#clip600)" d="M193.509 311.384 L198.394 311.384 L198.394 317.264 L193.509 317.264 L193.509 311.384 Z" fill="#000000" fill-rule="nonzero" fill-opacity="1" /><path clip-path="url(#clip600)" d="M218.579 285.783 Q214.968 285.783 213.139 289.348 Q211.333 292.889 211.333 300.019 Q211.333 307.125 213.139 310.69 Q214.968 314.232 218.579 314.232 Q222.213 314.232 224.018 310.69 Q225.847 307.125 225.847 300.019 Q225.847 292.889 224.018 289.348 Q222.213 285.783 218.579 285.783 M218.579 282.079 Q224.389 282.079 227.444 286.686 Q230.523 291.269 230.523 300.019 Q230.523 308.746 227.444 313.352 Q224.389 317.935 218.579 317.935 Q212.768 317.935 209.69 313.352 Q206.634 308.746 206.634 300.019 Q206.634 291.269 209.69 286.686 Q212.768 282.079 218.579 282.079 Z" fill="#000000" fill-rule="nonzero" fill-opacity="1" /><path clip-path="url(#clip600)" d="M237.56 282.704 L259.782 282.704 L259.782 284.695 L247.236 317.264 L242.352 317.264 L254.157 286.639 L237.56 286.639 L237.56 282.704 Z" fill="#000000" fill-rule="nonzero" fill-opacity="1" /><path clip-path="url(#clip600)" d="M3.96125 851.768 L1.90007 851.768 Q1.90007 843.846 -2.3189 839.756 Q-2.3189 838.628 -2.06125 838.435 Q-1.8036 838.242 -0.611987 838.242 L36.3925 838.242 Q38.3571 838.242 38.969 837.276 Q39.5809 836.31 39.5809 832.091 L39.5809 829.997 L41.6099 829.997 Q41.4167 832.316 41.4167 840.69 Q41.4167 849.063 41.6099 851.35 L39.5809 851.35 L39.5809 849.256 Q39.5809 845.102 39.0012 844.103 Q38.3893 843.105 36.3925 843.105 L2.22213 843.105 Q3.96125 846.551 3.96125 851.768 Z" fill="#000000" fill-rule="nonzero" fill-opacity="1" /><path clip-path="url(#clip600)" d="M59.2099 869.768 L59.2099 805.48 L55.6899 805.48 L55.6899 869.768  Z" fill="#000000" fill-rule="evenodd" fill-opacity="1"/>
<path clip-path="url(#clip600)" d="M73.562 838.368 L111.694 847.868 Q113.401 848.255 114.85 848.255 Q117.877 848.255 117.877 846.29 Q117.877 845.324 117.265 844.551 Q116.653 843.778 115.365 843.166 Q114.077 842.554 112.885 842.168 Q111.662 841.782 109.729 841.266 Q108.956 841.105 108.763 840.976 Q108.538 840.815 108.538 840.364 Q108.538 839.559 109.182 839.559 Q113.336 840.429 115.719 841.556 Q119.359 843.36 119.359 846.419 Q119.359 848.738 117.942 850.38 Q116.525 852.023 114.399 852.409 Q119.359 856.628 119.359 861.008 Q119.359 864.873 116.428 867.321 Q113.465 869.768 108.795 869.768 Q104.093 869.768 99.5844 867.45 Q95.0755 865.099 92.2736 861.395 Q89.4717 857.691 89.4717 853.891 Q89.4717 849.865 93.6907 847.804 L78.0386 843.843 L76.7504 843.649 Q76.3639 843.649 76.1707 843.81 Q75.9453 843.939 75.7842 844.712 Q75.6232 845.453 75.6232 846.934 Q75.6232 847.546 75.591 847.836 Q75.5588 848.094 75.3978 848.319 Q75.2045 848.545 74.8181 848.545 Q73.6908 848.545 73.562 847.611 Q72.8535 841.427 72.8535 839.237 Q72.8535 838.851 73.0467 838.625 Q73.2078 838.4 73.401 838.4 L73.562 838.368 M96.718 848.609 Q96.4282 848.609 95.623 848.835 Q94.8179 849.06 93.6907 849.575 Q92.5635 850.091 91.7583 851.218 Q90.921 852.313 90.921 853.794 Q90.921 855.791 92.6279 857.884 Q94.3348 859.946 97.2333 861.459 Q99.5522 862.619 104.415 863.875 Q109.278 865.099 111.694 865.099 Q113.175 865.099 114.496 864.776 Q115.784 864.422 116.847 863.424 Q117.877 862.425 117.877 860.88 Q117.877 857.112 113.207 853.408 Q112.402 852.699 112.08 852.538 Q111.726 852.345 110.76 852.087 L97.8452 848.802 Q96.8791 848.609 96.718 848.609 Z" fill="#000000" fill-rule="nonzero" fill-opacity="1" /><path clip-path="url(#clip600)" d="M108.635 819.844 Q109.627 819.844 110.371 820.656 Q111.092 821.445 111.092 822.301 Q111.092 823.09 110.619 823.586 Q110.123 824.06 109.424 824.06 Q108.499 824.06 107.733 823.271 Q106.966 822.482 106.966 821.557 Q106.966 820.791 107.44 820.318 Q107.913 819.844 108.635 819.844 M130.886 819.438 Q131.066 819.438 131.787 819.641 Q132.486 819.844 133.568 820.34 Q134.628 820.813 135.62 821.467 Q136.612 822.121 137.311 823.203 Q138.01 824.263 138.01 825.48 Q138.01 827.126 136.928 828.208 Q135.845 829.268 134.222 829.268 Q133.343 829.268 130.525 828.208 Q122.319 825.142 121.981 825.029 Q120.696 824.511 119.569 824.511 Q119.05 824.511 118.734 824.623 Q118.396 824.736 118.284 824.962 Q118.148 825.187 118.126 825.322 Q118.103 825.435 118.103 825.66 Q118.103 826.991 119.456 828.23 Q120.809 829.47 123.829 830.327 Q124.393 830.507 124.528 830.62 Q124.664 830.733 124.664 831.071 Q124.641 831.635 124.19 831.635 Q124.055 831.635 123.536 831.477 Q122.995 831.319 122.184 831.026 Q121.35 830.733 120.493 830.214 Q119.614 829.696 118.847 829.065 Q118.081 828.411 117.585 827.487 Q117.089 826.562 117.089 825.525 Q117.089 823.834 118.193 822.797 Q119.276 821.738 120.876 821.738 Q121.755 821.738 123.311 822.346 Q125.34 823.09 125.994 823.361 L130.841 825.164 Q132.599 825.818 133.14 826.021 Q133.659 826.202 134.29 826.359 Q134.899 826.495 135.462 826.495 Q136.251 826.495 136.612 826.247 Q136.973 825.976 136.973 825.39 Q136.973 823.767 135.372 822.572 Q133.749 821.377 131.269 820.678 Q131.201 820.656 131.089 820.633 Q130.525 820.453 130.457 820.272 Q130.435 820.182 130.435 820.002 Q130.435 819.438 130.886 819.438 Z" fill="#000000" fill-rule="nonzero" fill-opacity="1" /><path clip-path="url(#clip600)" d="M57.2964 746.146 Q46.1532 746.146 37.1678 741.992 Q33.3997 740.221 30.2435 737.741 Q27.0873 735.261 25.7025 733.618 Q24.3176 731.976 24.3176 731.525 Q24.3176 730.881 24.9617 730.849 Q25.2838 730.849 26.089 731.718 Q36.9101 742.346 57.2964 742.314 Q77.7472 742.314 88.1496 731.976 Q89.2769 730.849 89.6311 730.849 Q90.2752 730.849 90.2752 731.525 Q90.2752 731.976 88.9548 733.554 Q87.6344 735.132 84.607 737.58 Q81.5797 740.027 77.876 741.799 Q68.8905 746.146 57.2964 746.146 Z" fill="#000000" fill-rule="nonzero" fill-opacity="1" /><path clip-path="url(#clip600)" d="M70.1788 716.632 Q65.7988 720.819 59.5508 720.819 Q53.2707 720.819 48.7619 716.697 Q44.2209 712.574 44.2209 706.52 Q44.2209 702.494 46.1532 699.467 Q48.0534 696.439 51.3061 696.439 Q52.7554 696.439 53.5928 697.309 Q54.3979 698.146 54.3979 699.467 Q54.3979 700.851 53.5606 701.689 Q52.691 702.494 51.3706 702.494 Q50.7908 702.494 50.2111 702.301 Q49.6314 702.107 49.0195 701.399 Q48.4076 700.658 48.311 699.402 Q45.8956 701.753 45.8956 706.326 Q45.8956 706.391 45.8956 706.455 Q45.8956 709.805 49.0517 712.574 Q52.2079 715.344 59.422 715.344 Q63.1901 715.344 65.9598 714.442 Q68.6973 713.508 70.1144 711.995 Q71.5314 710.481 72.2077 709 Q72.8519 707.518 72.8519 706.069 Q72.8519 699.595 65.9276 697.405 Q65.2835 697.212 65.2835 696.568 Q65.2835 695.698 65.9276 695.698 Q66.2497 695.698 67.087 695.956 Q67.9244 696.214 69.2448 697.019 Q70.5652 697.824 71.7247 698.983 Q72.8519 700.111 73.6892 702.14 Q74.5266 704.136 74.5266 706.648 Q74.5266 712.446 70.1788 716.632 Z" fill="#000000" fill-rule="nonzero" fill-opacity="1" /><path clip-path="url(#clip600)" d="M73.7858 693.671 L71.7569 693.671 Q71.7569 690.161 71.3382 689.356 Q70.8873 688.551 68.7617 688.551 L51.0807 688.551 Q48.6331 688.551 48.0211 689.42 Q47.4092 690.258 47.4092 693.671 L45.3481 693.671 L44.6395 684.396 L51.5638 684.396 Q44.6395 681.304 44.6395 674.638 Q44.6395 666.908 51.0807 665.845 Q48.5686 664.718 46.6041 662.367 Q44.6395 659.984 44.6395 656.28 Q44.6395 651.321 47.0872 649.356 Q48.7297 647.907 50.5654 647.617 Q52.4011 647.327 57.1676 647.327 L69.7601 647.327 Q71.145 647.263 71.467 646.2 Q71.7569 645.137 71.7569 642.174 L73.7858 642.174 Q73.5926 648.905 73.5926 649.549 Q73.5926 650.065 73.7858 657.021 L71.7569 657.021 Q71.7569 653.511 71.3382 652.705 Q70.8873 651.868 68.7617 651.868 L53.3995 651.868 Q50.0501 651.868 48.0856 652.899 Q46.0888 653.929 46.0888 656.763 Q46.0888 660.177 48.9551 662.915 Q51.8214 665.652 56.6523 665.652 L68.7617 665.652 Q70.8873 665.652 71.3382 664.847 Q71.7569 664.01 71.7569 660.499 L73.7858 660.499 Q73.5926 667.23 73.5926 667.907 Q73.5926 668.422 73.7858 675.346 L71.7569 675.346 Q71.7569 671.836 71.3382 671.031 Q70.8873 670.193 68.7617 670.193 L53.3995 670.193 Q50.0501 670.193 48.0856 671.224 Q46.0888 672.254 46.0888 675.089 Q46.0888 678.502 48.9551 681.24 Q51.8214 683.977 56.6523 683.977 L68.7617 683.977 Q70.8873 683.977 71.3382 683.172 Q71.7569 682.335 71.7569 678.857 L73.7858 678.857 Q73.5926 685.588 73.5926 686.232 Q73.5926 686.747 73.7858 693.671 Z" fill="#000000" fill-rule="nonzero" fill-opacity="1" /><path clip-path="url(#clip600)" d="M41.4465 605.152 Q41.717 604.881 42.1003 604.881 Q42.4835 604.881 42.7541 605.152 Q43.0246 605.422 43.0246 605.805 L43.0246 634.707 Q43.0246 635.09 42.7541 635.361 Q42.4835 635.631 42.1003 635.631 Q41.717 635.631 41.4465 635.361 Q41.176 635.09 41.176 634.707 L41.176 605.805 Q41.176 605.422 41.4465 605.152 Z" fill="#000000" fill-rule="nonzero" fill-opacity="1" /><path clip-path="url(#clip600)" d="M27.2888 600.061 L25.846 600.061 Q25.846 594.515 22.8927 591.652 Q22.8927 590.863 23.0731 590.728 Q23.2534 590.593 24.0875 590.593 L49.9907 590.593 Q51.3659 590.593 51.7942 589.916 Q52.2226 589.24 52.2226 586.287 L52.2226 584.822 L53.6429 584.822 Q53.5076 586.445 53.5076 592.306 Q53.5076 598.168 53.6429 599.768 L52.2226 599.768 L52.2226 598.303 Q52.2226 595.395 51.8168 594.696 Q51.3885 593.997 49.9907 593.997 L26.0714 593.997 Q27.2888 596.409 27.2888 600.061 Z" fill="#000000" fill-rule="nonzero" fill-opacity="1" /><path clip-path="url(#clip600)" d="M89.6311 570.156 Q89.3091 570.156 88.5039 569.319 Q77.6827 558.691 57.2964 558.691 Q36.8457 558.691 26.5076 568.9 Q25.316 570.156 24.9617 570.156 Q24.3176 570.156 24.3176 569.512 Q24.3176 569.061 25.6381 567.483 Q26.9585 565.873 29.9859 563.458 Q33.0132 561.01 36.7169 559.206 Q45.7023 554.859 57.2964 554.859 Q68.4397 554.859 77.4251 559.013 Q81.1932 560.785 84.3494 563.264 Q87.5055 565.744 88.8904 567.387 Q90.2752 569.029 90.2752 569.512 Q90.2752 570.156 89.6311 570.156 Z" fill="#000000" fill-rule="nonzero" fill-opacity="1" /><circle clip-path="url(#clip602)" cx="353.998" cy="96.5465" r="14.4" fill="#009af9" fill-rule="evenodd" fill-opacity="1" stroke="#000000" stroke-opacity="1" stroke-width="3.2"/>
<circle clip-path="url(#clip602)" cx="742.107" cy="330.383" r="14.4" fill="#009af9" fill-rule="evenodd" fill-opacity="1" stroke="#000000" stroke-opacity="1" stroke-width="3.2"/>
<circle clip-path="url(#clip602)" cx="1518.32" cy="810.362" r="14.4" fill="#009af9" fill-rule="evenodd" fill-opacity="1" stroke="#000000" stroke-opacity="1" stroke-width="3.2"/>
<circle clip-path="url(#clip602)" cx="2294.54" cy="1343.67" r="14.4" fill="#009af9" fill-rule="evenodd" fill-opacity="1" stroke="#000000" stroke-opacity="1" stroke-width="3.2"/>
<polyline clip-path="url(#clip602)" style="stroke:#e26f46; stroke-linecap:round; stroke-linejoin:round; stroke-width:4; stroke-opacity:1; fill:none" points="353.998,85.0042 742.107,333.998 1518.32,831.987 2294.54,1329.98 "/>
<path clip-path="url(#clip600)" d="M1546 297.266 L2284.19 297.266 L2284.19 91.7171 L1546 91.7171  Z" fill="#ffffff" fill-rule="evenodd" fill-opacity="1"/>
<polyline clip-path="url(#clip600)" style="stroke:#000000; stroke-linecap:round; stroke-linejoin:round; stroke-width:4; stroke-opacity:1; fill:none" points="1546,297.266 2284.19,297.266 2284.19,91.7171 1546,91.7171 1546,297.266 "/>
<polyline clip-path="url(#clip600)" style="stroke:#e26f46; stroke-linecap:round; stroke-linejoin:round; stroke-width:4; stroke-opacity:1; fill:none" points="1568.86,194.491 1705.99,194.491 "/>
<path clip-path="url(#clip600)" d="M1752.08 148.411 L1752.08 146.912 Q1757.84 146.912 1760.82 143.844 Q1761.64 143.844 1761.78 144.031 Q1761.92 144.218 1761.92 145.085 L1761.92 171.997 Q1761.92 173.426 1762.62 173.871 Q1763.33 174.316 1766.39 174.316 L1767.92 174.316 L1767.92 175.792 Q1766.23 175.651 1760.14 175.651 Q1754.05 175.651 1752.39 175.792 L1752.39 174.316 L1753.91 174.316 Q1756.93 174.316 1757.66 173.895 Q1758.38 173.45 1758.38 171.997 L1758.38 147.146 Q1755.88 148.411 1752.08 148.411 Z" fill="#000000" fill-rule="nonzero" fill-opacity="1" /><path clip-path="url(#clip600)" d="M1739.08 188.592 L1785.83 188.592 L1785.83 186.032 L1739.08 186.032  Z" fill="#000000" fill-rule="evenodd" fill-opacity="1"/>
<path clip-path="url(#clip600)" d="M1761.92 199.017 L1755.01 226.749 Q1754.73 227.99 1754.73 229.044 Q1754.73 231.246 1756.16 231.246 Q1756.86 231.246 1757.42 230.801 Q1757.98 230.356 1758.43 229.419 Q1758.87 228.482 1759.16 227.616 Q1759.44 226.726 1759.81 225.32 Q1759.93 224.758 1760.02 224.618 Q1760.14 224.454 1760.47 224.454 Q1761.05 224.454 1761.05 224.922 Q1760.42 227.944 1759.6 229.677 Q1758.29 232.324 1756.06 232.324 Q1754.38 232.324 1753.18 231.293 Q1751.99 230.262 1751.71 228.717 Q1748.64 232.324 1745.45 232.324 Q1742.64 232.324 1740.86 230.192 Q1739.08 228.037 1739.08 224.641 Q1739.08 221.221 1740.77 217.942 Q1742.48 214.663 1745.17 212.625 Q1747.87 210.588 1750.63 210.588 Q1753.56 210.588 1755.06 213.656 L1757.94 202.273 L1758.08 201.336 Q1758.08 201.055 1757.96 200.914 Q1757.87 200.75 1757.31 200.633 Q1756.77 200.516 1755.69 200.516 Q1755.24 200.516 1755.03 200.492 Q1754.85 200.469 1754.68 200.352 Q1754.52 200.211 1754.52 199.93 Q1754.52 199.111 1755.2 199.017 Q1759.69 198.502 1761.29 198.502 Q1761.57 198.502 1761.73 198.642 Q1761.9 198.759 1761.9 198.9 L1761.92 199.017 M1754.47 215.858 Q1754.47 215.647 1754.31 215.061 Q1754.14 214.476 1753.77 213.656 Q1753.39 212.836 1752.57 212.251 Q1751.78 211.642 1750.7 211.642 Q1749.25 211.642 1747.73 212.883 Q1746.23 214.124 1745.13 216.232 Q1744.28 217.919 1743.37 221.456 Q1742.48 224.992 1742.48 226.749 Q1742.48 227.826 1742.71 228.787 Q1742.97 229.724 1743.7 230.497 Q1744.42 231.246 1745.55 231.246 Q1748.29 231.246 1750.98 227.85 Q1751.5 227.264 1751.61 227.03 Q1751.75 226.772 1751.94 226.07 L1754.33 216.677 Q1754.47 215.975 1754.47 215.858 Z" fill="#000000" fill-rule="nonzero" fill-opacity="1" /><path clip-path="url(#clip600)" d="M1775.39 224.52 Q1775.39 225.242 1774.8 225.783 Q1774.22 226.307 1773.6 226.307 Q1773.03 226.307 1772.67 225.963 Q1772.32 225.602 1772.32 225.094 Q1772.32 224.422 1772.89 223.864 Q1773.47 223.307 1774.14 223.307 Q1774.7 223.307 1775.04 223.651 Q1775.39 223.996 1775.39 224.52 M1775.68 240.703 Q1775.68 240.834 1775.53 241.359 Q1775.39 241.867 1775.03 242.654 Q1774.68 243.425 1774.21 244.146 Q1773.73 244.867 1772.94 245.376 Q1772.17 245.884 1771.29 245.884 Q1770.09 245.884 1769.3 245.097 Q1768.53 244.31 1768.53 243.129 Q1768.53 242.49 1769.3 240.44 Q1771.53 234.472 1771.62 234.227 Q1771.99 233.292 1771.99 232.472 Q1771.99 232.095 1771.91 231.866 Q1771.83 231.62 1771.66 231.538 Q1771.5 231.439 1771.4 231.423 Q1771.32 231.406 1771.16 231.406 Q1770.19 231.406 1769.29 232.39 Q1768.39 233.374 1767.76 235.571 Q1767.63 235.981 1767.55 236.079 Q1767.47 236.178 1767.22 236.178 Q1766.81 236.161 1766.81 235.833 Q1766.81 235.735 1766.93 235.358 Q1767.04 234.964 1767.25 234.374 Q1767.47 233.767 1767.84 233.144 Q1768.22 232.505 1768.68 231.948 Q1769.16 231.39 1769.83 231.029 Q1770.5 230.669 1771.26 230.669 Q1772.48 230.669 1773.24 231.472 Q1774.01 232.259 1774.01 233.423 Q1774.01 234.063 1773.57 235.194 Q1773.03 236.669 1772.83 237.145 L1771.52 240.67 Q1771.04 241.949 1770.89 242.342 Q1770.76 242.719 1770.65 243.179 Q1770.55 243.621 1770.55 244.031 Q1770.55 244.605 1770.73 244.867 Q1770.93 245.13 1771.35 245.13 Q1772.53 245.13 1773.4 243.966 Q1774.27 242.785 1774.78 240.982 Q1774.8 240.932 1774.81 240.85 Q1774.94 240.44 1775.08 240.391 Q1775.14 240.375 1775.27 240.375 Q1775.68 240.375 1775.68 240.703 Z" fill="#000000" fill-rule="nonzero" fill-opacity="1" /><path clip-path="url(#clip600)" d="M1804.26 191.91 Q1804.31 191.325 1805.22 191.325 L1834.61 191.325 Q1836 191.325 1836.02 191.863 Q1836.02 192.449 1834.71 192.425 L1805.55 192.425 Q1804.26 192.449 1804.26 191.91 M1804.26 182.541 Q1804.26 181.956 1805.27 181.979 L1834.57 181.979 Q1836 181.979 1836.02 182.541 Q1836.02 183.08 1834.8 183.08 L1805.22 183.08 Q1804.26 183.08 1804.26 182.541 Z" fill="#000000" fill-rule="nonzero" fill-opacity="1" /><path clip-path="url(#clip600)" d="M1899.48 186.523 Q1899.76 186.804 1899.76 187.202 Q1899.76 187.6 1899.48 187.882 Q1899.2 188.163 1898.8 188.163 L1868.78 188.163 Q1868.38 188.163 1868.1 187.882 Q1867.82 187.6 1867.82 187.202 Q1867.82 186.804 1868.1 186.523 Q1868.38 186.242 1868.78 186.242 L1898.8 186.242 Q1899.2 186.242 1899.48 186.523 Z" fill="#000000" fill-rule="nonzero" fill-opacity="1" /><path clip-path="url(#clip600)" d="M1928.31 147.364 L1928.31 145.865 Q1934.07 145.865 1937.04 142.797 Q1937.86 142.797 1938 142.984 Q1938.14 143.171 1938.14 144.038 L1938.14 170.95 Q1938.14 172.379 1938.85 172.824 Q1939.55 173.269 1942.62 173.269 L1944.14 173.269 L1944.14 174.745 Q1942.45 174.604 1936.36 174.604 Q1930.27 174.604 1928.61 174.745 L1928.61 173.269 L1930.13 173.269 Q1933.16 173.269 1933.88 172.848 Q1934.61 172.403 1934.61 170.95 L1934.61 146.099 Q1932.1 147.364 1928.31 147.364 Z" fill="#000000" fill-rule="nonzero" fill-opacity="1" /><path clip-path="url(#clip600)" d="M1947.91 173.972 Q1947.18 173.199 1947.18 172.192 Q1947.18 171.185 1947.91 170.459 Q1948.63 169.709 1949.74 169.709 Q1950.79 169.709 1951.49 170.412 Q1952.22 171.091 1952.22 172.215 Q1952.22 173.316 1951.45 174.042 Q1950.7 174.745 1949.74 174.745 Q1948.63 174.745 1947.91 173.972 Z" fill="#000000" fill-rule="nonzero" fill-opacity="1" /><path clip-path="url(#clip600)" d="M1960.38 159.403 Q1960.38 152.353 1962.16 148.512 Q1964.64 142.797 1970.5 142.797 Q1971.74 142.797 1973.03 143.148 Q1974.34 143.476 1975.98 144.764 Q1977.64 146.052 1978.65 148.16 Q1980.57 152.236 1980.57 159.403 Q1980.57 166.406 1978.79 170.224 Q1976.19 175.799 1970.45 175.799 Q1968.3 175.799 1966.09 174.698 Q1963.92 173.597 1962.53 170.95 Q1960.38 166.992 1960.38 159.403 M1964.36 158.818 Q1964.36 166.055 1964.88 168.936 Q1965.46 172.051 1967.05 173.41 Q1968.67 174.745 1970.45 174.745 Q1972.37 174.745 1973.96 173.316 Q1975.58 171.864 1976.07 168.749 Q1976.61 165.68 1976.59 158.818 Q1976.59 152.142 1976.12 149.472 Q1975.49 146.357 1973.8 145.115 Q1972.14 143.851 1970.45 143.851 Q1969.82 143.851 1969.14 144.038 Q1968.48 144.225 1967.52 144.764 Q1966.56 145.303 1965.81 146.638 Q1965.09 147.973 1964.74 149.987 Q1964.36 152.587 1964.36 158.818 Z" fill="#000000" fill-rule="nonzero" fill-opacity="1" /><path clip-path="url(#clip600)" d="M1984.32 168.28 Q1984.32 166.852 1985.14 166.172 Q1985.96 165.493 1987.02 165.493 Q1988.12 165.493 1988.89 166.219 Q1989.69 166.922 1989.69 168.163 Q1989.69 169.498 1988.75 170.248 Q1987.83 170.997 1986.52 170.81 Q1987.67 172.731 1989.78 173.597 Q1991.91 174.464 1993.88 174.464 Q1995.94 174.464 1997.6 172.684 Q1999.29 170.904 1999.29 166.547 Q1999.29 162.846 1997.84 160.715 Q1996.41 158.583 1993.57 158.583 L1991.47 158.583 Q1990.74 158.583 1990.53 158.513 Q1990.32 158.443 1990.32 158.045 Q1990.32 157.576 1991.04 157.483 Q1991.77 157.483 1992.92 157.342 Q1995.7 157.248 1997.18 154.836 Q1998.52 152.587 1998.52 149.378 Q1998.52 146.451 1997.11 145.233 Q1995.73 143.991 1993.92 143.991 Q1992.24 143.991 1990.39 144.694 Q1988.54 145.397 1987.53 146.966 Q1990.51 146.966 1990.51 149.378 Q1990.51 150.432 1989.83 151.135 Q1989.17 151.814 1988.07 151.814 Q1987.02 151.814 1986.31 151.158 Q1985.61 150.479 1985.61 149.332 Q1985.61 146.591 1988.05 144.694 Q1990.51 142.797 1994.11 142.797 Q1997.67 142.797 2000.3 144.67 Q2002.94 146.544 2002.94 149.425 Q2002.94 152.259 2001.07 154.578 Q1999.19 156.897 1996.22 157.857 Q1999.87 158.583 2002.05 161.066 Q2004.23 163.526 2004.23 166.547 Q2004.23 170.295 2001.28 173.058 Q1998.33 175.799 1994.02 175.799 Q1990.04 175.799 1987.18 173.644 Q1984.32 171.489 1984.32 168.28 Z" fill="#000000" fill-rule="nonzero" fill-opacity="1" /><path clip-path="url(#clip600)" d="M1928.31 188.592 L2009.14 188.592 L2009.14 186.032 L1928.31 186.032  Z" fill="#000000" fill-rule="evenodd" fill-opacity="1"/>
<path clip-path="url(#clip600)" d="M1965.14 199.017 L1958.23 226.749 Q1957.95 227.99 1957.95 229.044 Q1957.95 231.246 1959.38 231.246 Q1960.09 231.246 1960.65 230.801 Q1961.21 230.356 1961.65 229.419 Q1962.1 228.482 1962.38 227.616 Q1962.66 226.726 1963.04 225.32 Q1963.15 224.758 1963.25 224.618 Q1963.36 224.454 1963.69 224.454 Q1964.28 224.454 1964.28 224.922 Q1963.65 227.944 1962.83 229.677 Q1961.51 232.324 1959.29 232.324 Q1957.6 232.324 1956.41 231.293 Q1955.21 230.262 1954.93 228.717 Q1951.86 232.324 1948.68 232.324 Q1945.87 232.324 1944.09 230.192 Q1942.31 228.037 1942.31 224.641 Q1942.31 221.221 1943.99 217.942 Q1945.7 214.663 1948.4 212.625 Q1951.09 210.588 1953.85 210.588 Q1956.78 210.588 1958.28 213.656 L1961.16 202.273 L1961.3 201.336 Q1961.3 201.055 1961.19 200.914 Q1961.09 200.75 1960.53 200.633 Q1959.99 200.516 1958.91 200.516 Q1958.47 200.516 1958.26 200.492 Q1958.07 200.469 1957.91 200.352 Q1957.74 200.211 1957.74 199.93 Q1957.74 199.111 1958.42 199.017 Q1962.92 198.502 1964.51 198.502 Q1964.79 198.502 1964.96 198.642 Q1965.12 198.759 1965.12 198.9 L1965.14 199.017 M1957.7 215.858 Q1957.7 215.647 1957.53 215.061 Q1957.37 214.476 1956.99 213.656 Q1956.62 212.836 1955.8 212.251 Q1955 211.642 1953.92 211.642 Q1952.47 211.642 1950.95 212.883 Q1949.45 214.124 1948.35 216.232 Q1947.51 217.919 1946.59 221.456 Q1945.7 224.992 1945.7 226.749 Q1945.7 227.826 1945.94 228.787 Q1946.2 229.724 1946.92 230.497 Q1947.65 231.246 1948.77 231.246 Q1951.51 231.246 1954.21 227.85 Q1954.72 227.264 1954.84 227.03 Q1954.98 226.772 1955.17 226.07 L1957.56 216.677 Q1957.7 215.975 1957.7 215.858 Z" fill="#000000" fill-rule="nonzero" fill-opacity="1" /><path clip-path="url(#clip600)" d="M1984.42 231.964 Q1984.42 233.752 1983.63 235.522 Q1982.84 237.277 1981.58 238.588 Q1980.33 239.883 1978.69 240.703 Q1977.05 241.507 1975.41 241.507 Q1973.07 241.507 1971.55 239.916 Q1970.04 238.31 1970.04 235.817 Q1970.04 233.489 1971.33 231.276 Q1972.64 229.046 1974.74 227.669 Q1976.84 226.291 1979.04 226.291 Q1981.35 226.291 1982.87 227.849 Q1984.42 229.407 1984.42 231.964 M1981.96 230.653 Q1981.96 229.062 1981.19 228.046 Q1980.42 227.029 1979.01 227.029 Q1978.6 227.029 1978.12 227.16 Q1977.64 227.275 1977.02 227.587 Q1976.41 227.898 1975.73 228.554 Q1975.05 229.193 1974.46 230.112 Q1973.69 231.325 1973.1 233.555 Q1972.53 235.768 1972.53 237.096 Q1972.53 238.933 1973.38 239.851 Q1974.23 240.752 1975.45 240.752 Q1976.63 240.752 1977.87 239.933 Q1979.14 239.097 1980.01 237.67 Q1980.87 236.194 1981.42 234.03 Q1981.96 231.85 1981.96 230.653 Z" fill="#000000" fill-rule="nonzero" fill-opacity="1" /><path clip-path="url(#clip600)" d="M2028.67 187.788 Q2027.57 187.788 2027.57 187.202 Q2027.57 186.617 2028.72 186.617 Q2028.86 186.617 2029.09 186.64 Q2029.35 186.664 2029.4 186.664 L2042.91 186.664 L2042.91 173.102 Q2042.91 173.055 2042.89 172.844 Q2042.86 172.61 2042.86 172.47 Q2042.86 171.322 2043.43 171.322 Q2044.01 171.322 2044.01 172.47 L2044.01 186.664 L2057.55 186.664 Q2057.6 186.664 2057.83 186.64 Q2058.07 186.617 2058.21 186.617 Q2059.31 186.617 2059.31 187.202 Q2059.33 187.788 2058.16 187.788 Q2058.02 187.788 2057.81 187.764 Q2057.6 187.741 2057.55 187.741 L2044.01 187.741 L2044.01 201.982 Q2044.01 203.083 2043.43 203.083 Q2042.86 203.083 2042.86 201.935 Q2042.86 201.794 2042.89 201.56 Q2042.91 201.349 2042.91 201.303 L2042.91 187.741 L2029.4 187.741 Q2029.35 187.741 2029.07 187.764 Q2028.81 187.788 2028.67 187.788 Z" fill="#000000" fill-rule="nonzero" fill-opacity="1" /><path clip-path="url(#clip600)" d="M2077.82 183.853 Q2077.82 176.803 2079.6 172.961 Q2082.08 167.246 2087.94 167.246 Q2089.18 167.246 2090.47 167.598 Q2091.78 167.926 2093.42 169.214 Q2095.08 170.502 2096.09 172.61 Q2098.01 176.686 2098.01 183.853 Q2098.01 190.856 2096.23 194.674 Q2093.63 200.249 2087.89 200.249 Q2085.74 200.249 2083.54 199.148 Q2081.36 198.047 2079.98 195.4 Q2077.82 191.442 2077.82 183.853 M2081.8 183.267 Q2081.8 190.505 2082.32 193.386 Q2082.9 196.501 2084.5 197.859 Q2086.11 199.195 2087.89 199.195 Q2089.81 199.195 2091.41 197.766 Q2093.02 196.314 2093.51 193.198 Q2094.05 190.13 2094.03 183.267 Q2094.03 176.592 2093.56 173.922 Q2092.93 170.807 2091.24 169.565 Q2089.58 168.3 2087.89 168.3 Q2087.26 168.3 2086.58 168.488 Q2085.93 168.675 2084.96 169.214 Q2084 169.753 2083.26 171.088 Q2082.53 172.423 2082.18 174.437 Q2081.8 177.037 2081.8 183.267 Z" fill="#000000" fill-rule="nonzero" fill-opacity="1" /><path clip-path="url(#clip600)" d="M2102.3 198.422 Q2101.57 197.649 2101.57 196.642 Q2101.57 195.634 2102.3 194.908 Q2103.02 194.159 2104.12 194.159 Q2105.18 194.159 2105.88 194.861 Q2106.61 195.541 2106.61 196.665 Q2106.61 197.766 2105.83 198.492 Q2105.08 199.195 2104.12 199.195 Q2103.02 199.195 2102.3 198.422 Z" fill="#000000" fill-rule="nonzero" fill-opacity="1" /><path clip-path="url(#clip600)" d="M2109.89 171.814 L2109.89 170.315 Q2115.65 170.315 2118.63 167.246 Q2119.45 167.246 2119.59 167.434 Q2119.73 167.621 2119.73 168.488 L2119.73 195.4 Q2119.73 196.829 2120.43 197.274 Q2121.14 197.719 2124.2 197.719 L2125.73 197.719 L2125.73 199.195 Q2124.04 199.054 2117.95 199.054 Q2111.86 199.054 2110.2 199.195 L2110.2 197.719 L2111.72 197.719 Q2114.74 197.719 2115.47 197.297 Q2116.19 196.852 2116.19 195.4 L2116.19 170.549 Q2113.69 171.814 2109.89 171.814 Z" fill="#000000" fill-rule="nonzero" fill-opacity="1" /><path clip-path="url(#clip600)" d="M2128.04 183.853 Q2128.04 176.803 2129.82 172.961 Q2132.3 167.246 2138.16 167.246 Q2139.4 167.246 2140.69 167.598 Q2142 167.926 2143.64 169.214 Q2145.3 170.502 2146.31 172.61 Q2148.23 176.686 2148.23 183.853 Q2148.23 190.856 2146.45 194.674 Q2143.85 200.249 2138.11 200.249 Q2135.96 200.249 2133.76 199.148 Q2131.58 198.047 2130.19 195.4 Q2128.04 191.442 2128.04 183.853 M2132.02 183.267 Q2132.02 190.505 2132.54 193.386 Q2133.12 196.501 2134.72 197.859 Q2136.33 199.195 2138.11 199.195 Q2140.03 199.195 2141.63 197.766 Q2143.24 196.314 2143.73 193.198 Q2144.27 190.13 2144.25 183.267 Q2144.25 176.592 2143.78 173.922 Q2143.15 170.807 2141.46 169.565 Q2139.8 168.3 2138.11 168.3 Q2137.48 168.3 2136.8 168.488 Q2136.14 168.675 2135.18 169.214 Q2134.22 169.753 2133.47 171.088 Q2132.75 172.423 2132.4 174.437 Q2132.02 177.037 2132.02 183.267 Z" fill="#000000" fill-rule="nonzero" fill-opacity="1" /><path clip-path="url(#clip600)" d="M2154.83 196.571 Q2151.79 193.386 2151.79 188.842 Q2151.79 184.274 2154.79 180.995 Q2157.79 177.693 2162.19 177.693 Q2165.12 177.693 2167.32 179.098 Q2169.52 180.48 2169.52 182.846 Q2169.52 183.9 2168.89 184.509 Q2168.28 185.094 2167.32 185.094 Q2166.31 185.094 2165.7 184.485 Q2165.12 183.853 2165.12 182.893 Q2165.12 182.471 2165.26 182.049 Q2165.4 181.628 2165.91 181.183 Q2166.45 180.738 2167.37 180.667 Q2165.66 178.911 2162.33 178.911 Q2162.28 178.911 2162.24 178.911 Q2159.8 178.911 2157.79 181.206 Q2155.77 183.502 2155.77 188.748 Q2155.77 191.489 2156.43 193.503 Q2157.11 195.494 2158.21 196.524 Q2159.31 197.555 2160.39 198.047 Q2161.46 198.515 2162.52 198.515 Q2167.23 198.515 2168.82 193.479 Q2168.96 193.011 2169.43 193.011 Q2170.06 193.011 2170.06 193.479 Q2170.06 193.714 2169.87 194.323 Q2169.68 194.932 2169.1 195.892 Q2168.51 196.852 2167.67 197.696 Q2166.85 198.515 2165.38 199.124 Q2163.92 199.733 2162.1 199.733 Q2157.88 199.733 2154.83 196.571 Z" fill="#000000" fill-rule="nonzero" fill-opacity="1" /><path clip-path="url(#clip600)" d="M2171.53 199.195 L2171.53 197.719 Q2174.08 197.719 2174.67 197.414 Q2175.25 197.087 2175.25 195.541 L2175.25 182.682 Q2175.25 180.902 2174.62 180.457 Q2174.01 180.012 2171.53 180.012 L2171.53 178.513 L2178.27 177.997 L2178.27 183.033 Q2180.52 177.997 2185.37 177.997 Q2190.99 177.997 2191.77 182.682 Q2192.59 180.855 2194.3 179.426 Q2196.03 177.997 2198.72 177.997 Q2202.33 177.997 2203.76 179.777 Q2204.81 180.972 2205.02 182.307 Q2205.23 183.642 2205.23 187.109 L2205.23 196.267 Q2205.28 197.274 2206.05 197.508 Q2206.83 197.719 2208.98 197.719 L2208.98 199.195 Q2204.09 199.054 2203.62 199.054 Q2203.24 199.054 2198.18 199.195 L2198.18 197.719 Q2200.74 197.719 2201.32 197.414 Q2201.93 197.087 2201.93 195.541 L2201.93 184.368 Q2201.93 181.932 2201.18 180.503 Q2200.43 179.051 2198.37 179.051 Q2195.89 179.051 2193.9 181.136 Q2191.91 183.22 2191.91 186.734 L2191.91 195.541 Q2191.91 197.087 2192.49 197.414 Q2193.1 197.719 2195.65 197.719 L2195.65 199.195 Q2190.76 199.054 2190.27 199.054 Q2189.89 199.054 2184.86 199.195 L2184.86 197.719 Q2187.41 197.719 2187.99 197.414 Q2188.6 197.087 2188.6 195.541 L2188.6 184.368 Q2188.6 181.932 2187.85 180.503 Q2187.1 179.051 2185.04 179.051 Q2182.56 179.051 2180.57 181.136 Q2178.58 183.22 2178.58 186.734 L2178.58 195.541 Q2178.58 197.087 2179.16 197.414 Q2179.77 197.719 2182.3 197.719 L2182.3 199.195 Q2177.41 199.054 2176.94 199.054 Q2176.56 199.054 2171.53 199.195 Z" fill="#000000" fill-rule="nonzero" fill-opacity="1" /><path clip-path="url(#clip600)" d="M2235.89 175.672 Q2236.09 175.869 2236.09 176.148 Q2236.09 176.426 2235.89 176.623 Q2235.7 176.82 2235.42 176.82 L2214.4 176.82 Q2214.12 176.82 2213.92 176.623 Q2213.73 176.426 2213.73 176.148 Q2213.73 175.869 2213.92 175.672 Q2214.12 175.475 2214.4 175.475 L2235.42 175.475 Q2235.7 175.475 2235.89 175.672 Z" fill="#000000" fill-rule="nonzero" fill-opacity="1" /><path clip-path="url(#clip600)" d="M2239.59 165.376 L2239.59 164.326 Q2243.62 164.326 2245.71 162.178 Q2246.28 162.178 2246.38 162.31 Q2246.48 162.441 2246.48 163.047 L2246.48 181.886 Q2246.48 182.886 2246.97 183.198 Q2247.46 183.509 2249.61 183.509 L2250.67 183.509 L2250.67 184.542 Q2249.49 184.444 2245.23 184.444 Q2240.97 184.444 2239.8 184.542 L2239.8 183.509 L2240.87 183.509 Q2242.98 183.509 2243.49 183.214 Q2244 182.903 2244 181.886 L2244 164.49 Q2242.25 165.376 2239.59 165.376 Z" fill="#000000" fill-rule="nonzero" fill-opacity="1" /></svg>
