<?xml version="1.0" encoding="utf-8"?>
<svg xmlns="http://www.w3.org/2000/svg" xmlns:xlink="http://www.w3.org/1999/xlink" width="600" height="400" viewBox="0 0 2400 1600">
<defs>
  <clipPath id="clip970">
    <rect x="0" y="0" width="2400" height="1600"/>
  </clipPath>
</defs>
<path clip-path="url(#clip970)" d="M0 1600 L2400 1600 L2400 0 L0 0  Z" fill="#ffffff" fill-rule="evenodd" fill-opacity="1"/>
<defs>
  <clipPath id="clip971">
    <rect x="480" y="0" width="1681" height="1600"/>
  </clipPath>
</defs>
<path clip-path="url(#clip970)" d="M204.45 1423.18 L2352.76 1423.18 L2352.76 123.472 L204.45 123.472  Z" fill="#ffffff" fill-rule="evenodd" fill-opacity="1"/>
<defs>
  <clipPath id="clip972">
    <rect x="204" y="123" width="2149" height="1301"/>
  </clipPath>
</defs>
<polyline clip-path="url(#clip972)" style="stroke:#000000; stroke-linecap:round; stroke-linejoin:round; stroke-width:2; stroke-opacity:0.1; fill:none" points="618.988,1423.18 618.988,123.472 "/>
<polyline clip-path="url(#clip972)" style="stroke:#000000; stroke-linecap:round; stroke-linejoin:round; stroke-width:2; stroke-opacity:0.1; fill:none" points="1035.15,1423.18 1035.15,123.472 "/>
<polyline clip-path="url(#clip972)" style="stroke:#000000; stroke-linecap:round; stroke-linejoin:round; stroke-width:2; stroke-opacity:0.1; fill:none" points="1451.31,1423.18 1451.31,123.472 "/>
<polyline clip-path="url(#clip972)" style="stroke:#000000; stroke-linecap:round; stroke-linejoin:round; stroke-width:2; stroke-opacity:0.1; fill:none" points="1867.47,1423.18 1867.47,123.472 "/>
<polyline clip-path="url(#clip972)" style="stroke:#000000; stroke-linecap:round; stroke-linejoin:round; stroke-width:2; stroke-opacity:0.1; fill:none" points="2283.63,1423.18 2283.63,123.472 "/>
<polyline clip-path="url(#clip972)" style="stroke:#000000; stroke-linecap:round; stroke-linejoin:round; stroke-width:2; stroke-opacity:0.1; fill:none" points="204.45,1333.09 2352.76,1333.09 "/>
<polyline clip-path="url(#clip972)" style="stroke:#000000; stroke-linecap:round; stroke-linejoin:round; stroke-width:2; stroke-opacity:0.1; fill:none" points="204.45,1066.53 2352.76,1066.53 "/>
<polyline clip-path="url(#clip972)" style="stroke:#000000; stroke-linecap:round; stroke-linejoin:round; stroke-width:2; stroke-opacity:0.1; fill:none" points="204.45,799.981 2352.76,799.981 "/>
<polyline clip-path="url(#clip972)" style="stroke:#000000; stroke-linecap:round; stroke-linejoin:round; stroke-width:2; stroke-opacity:0.1; fill:none" points="204.45,533.429 2352.76,533.429 "/>
<polyline clip-path="url(#clip972)" style="stroke:#000000; stroke-linecap:round; stroke-linejoin:round; stroke-width:2; stroke-opacity:0.1; fill:none" points="204.45,266.877 2352.76,266.877 "/>
<polyline clip-path="url(#clip970)" style="stroke:#000000; stroke-linecap:round; stroke-linejoin:round; stroke-width:4; stroke-opacity:1; fill:none" points="204.45,1423.18 2352.76,1423.18 "/>
<polyline clip-path="url(#clip970)" style="stroke:#000000; stroke-linecap:round; stroke-linejoin:round; stroke-width:4; stroke-opacity:1; fill:none" points="618.988,1423.18 618.988,1404.28 "/>
<polyline clip-path="url(#clip970)" style="stroke:#000000; stroke-linecap:round; stroke-linejoin:round; stroke-width:4; stroke-opacity:1; fill:none" points="1035.15,1423.18 1035.15,1404.28 "/>
<polyline clip-path="url(#clip970)" style="stroke:#000000; stroke-linecap:round; stroke-linejoin:round; stroke-width:4; stroke-opacity:1; fill:none" points="1451.31,1423.18 1451.31,1404.28 "/>
<polyline clip-path="url(#clip970)" style="stroke:#000000; stroke-linecap:round; stroke-linejoin:round; stroke-width:4; stroke-opacity:1; fill:none" points="1867.47,1423.18 1867.47,1404.28 "/>
<polyline clip-path="url(#clip970)" style="stroke:#000000; stroke-linecap:round; stroke-linejoin:round; stroke-width:4; stroke-opacity:1; fill:none" points="2283.63,1423.18 2283.63,1404.28 "/>
<path clip-path="url(#clip970)" d="M592.078 1455.09 L580.273 1473.54 L592.078 1473.54 L592.078 1455.09 M590.851 1451.02 L596.731 1451.02 L596.731 1473.54 L601.661 1473.54 L601.661 1477.43 L596.731 1477.43 L596.731 1485.58 L592.078 1485.58 L592.078 1477.43 L576.476 1477.43 L576.476 1472.92 L590.851 1451.02 Z" fill="#000000" fill-rule="nonzero" fill-opacity="1" /><path clip-path="url(#clip970)" d="M619.393 1454.1 Q615.782 1454.1 613.953 1457.66 Q612.147 1461.2 612.147 1468.33 Q612.147 1475.44 613.953 1479.01 Q615.782 1482.55 619.393 1482.55 Q623.027 1482.55 624.833 1479.01 Q626.661 1475.44 626.661 1468.33 Q626.661 1461.2 624.833 1457.66 Q623.027 1454.1 619.393 1454.1 M619.393 1450.39 Q625.203 1450.39 628.258 1455 Q631.337 1459.58 631.337 1468.33 Q631.337 1477.06 628.258 1481.67 Q625.203 1486.25 619.393 1486.25 Q613.583 1486.25 610.504 1481.67 Q607.448 1477.06 607.448 1468.33 Q607.448 1459.58 610.504 1455 Q613.583 1450.39 619.393 1450.39 Z" fill="#000000" fill-rule="nonzero" fill-opacity="1" /><path clip-path="url(#clip970)" d="M649.555 1454.1 Q645.944 1454.1 644.115 1457.66 Q642.309 1461.2 642.309 1468.33 Q642.309 1475.44 644.115 1479.01 Q645.944 1482.55 649.555 1482.55 Q653.189 1482.55 654.994 1479.01 Q656.823 1475.44 656.823 1468.33 Q656.823 1461.2 654.994 1457.66 Q653.189 1454.1 649.555 1454.1 M649.555 1450.39 Q655.365 1450.39 658.42 1455 Q661.499 1459.58 661.499 1468.33 Q661.499 1477.06 658.42 1481.67 Q655.365 1486.25 649.555 1486.25 Q643.744 1486.25 640.666 1481.67 Q637.61 1477.06 637.61 1468.33 Q637.61 1459.58 640.666 1455 Q643.744 1450.39 649.555 1450.39 Z" fill="#000000" fill-rule="nonzero" fill-opacity="1" /><path clip-path="url(#clip970)" d="M1008.24 1455.09 L996.434 1473.54 L1008.24 1473.54 L1008.24 1455.09 M1007.01 1451.02 L1012.89 1451.02 L1012.89 1473.54 L1017.82 1473.54 L1017.82 1477.43 L1012.89 1477.43 L1012.89 1485.58 L1008.24 1485.58 L1008.24 1477.43 L992.637 1477.43 L992.637 1472.92 L1007.01 1451.02 Z" fill="#000000" fill-rule="nonzero" fill-opacity="1" /><path clip-path="url(#clip970)" d="M1029.58 1481.64 L1045.9 1481.64 L1045.9 1485.58 L1023.96 1485.58 L1023.96 1481.64 Q1026.62 1478.89 1031.2 1474.26 Q1035.81 1469.61 1036.99 1468.27 Q1039.23 1465.74 1040.11 1464.01 Q1041.02 1462.25 1041.02 1460.56 Q1041.02 1457.8 1039.07 1456.07 Q1037.15 1454.33 1034.05 1454.33 Q1031.85 1454.33 1029.4 1455.09 Q1026.97 1455.86 1024.19 1457.41 L1024.19 1452.69 Q1027.01 1451.55 1029.47 1450.97 Q1031.92 1450.39 1033.96 1450.39 Q1039.33 1450.39 1042.52 1453.08 Q1045.72 1455.77 1045.72 1460.26 Q1045.72 1462.39 1044.91 1464.31 Q1044.12 1466.2 1042.01 1468.8 Q1041.43 1469.47 1038.33 1472.69 Q1035.23 1475.88 1029.58 1481.64 Z" fill="#000000" fill-rule="nonzero" fill-opacity="1" /><path clip-path="url(#clip970)" d="M1065.72 1454.1 Q1062.1 1454.1 1060.28 1457.66 Q1058.47 1461.2 1058.47 1468.33 Q1058.47 1475.44 1060.28 1479.01 Q1062.1 1482.55 1065.72 1482.55 Q1069.35 1482.55 1071.16 1479.01 Q1072.98 1475.44 1072.98 1468.33 Q1072.98 1461.2 1071.16 1457.66 Q1069.35 1454.1 1065.72 1454.1 M1065.72 1450.39 Q1071.53 1450.39 1074.58 1455 Q1077.66 1459.58 1077.66 1468.33 Q1077.66 1477.06 1074.58 1481.67 Q1071.53 1486.25 1065.72 1486.25 Q1059.91 1486.25 1056.83 1481.67 Q1053.77 1477.06 1053.77 1468.33 Q1053.77 1459.58 1056.83 1455 Q1059.91 1450.39 1065.72 1450.39 Z" fill="#000000" fill-rule="nonzero" fill-opacity="1" /><path clip-path="url(#clip970)" d="M1424.4 1455.09 L1412.59 1473.54 L1424.4 1473.54 L1424.4 1455.09 M1423.17 1451.02 L1429.05 1451.02 L1429.05 1473.54 L1433.98 1473.54 L1433.98 1477.43 L1429.05 1477.43 L1429.05 1485.58 L1424.4 1485.58 L1424.4 1477.43 L1408.8 1477.43 L1408.8 1472.92 L1423.17 1451.02 Z" fill="#000000" fill-rule="nonzero" fill-opacity="1" /><path clip-path="url(#clip970)" d="M1454.56 1455.09 L1442.76 1473.54 L1454.56 1473.54 L1454.56 1455.09 M1453.34 1451.02 L1459.21 1451.02 L1459.21 1473.54 L1464.15 1473.54 L1464.15 1477.43 L1459.21 1477.43 L1459.21 1485.58 L1454.56 1485.58 L1454.56 1477.43 L1438.96 1477.43 L1438.96 1472.92 L1453.34 1451.02 Z" fill="#000000" fill-rule="nonzero" fill-opacity="1" /><path clip-path="url(#clip970)" d="M1481.88 1454.1 Q1478.27 1454.1 1476.44 1457.66 Q1474.63 1461.2 1474.63 1468.33 Q1474.63 1475.44 1476.44 1479.01 Q1478.27 1482.55 1481.88 1482.55 Q1485.51 1482.55 1487.32 1479.01 Q1489.15 1475.44 1489.15 1468.33 Q1489.15 1461.2 1487.32 1457.66 Q1485.51 1454.1 1481.88 1454.1 M1481.88 1450.39 Q1487.69 1450.39 1490.74 1455 Q1493.82 1459.58 1493.82 1468.33 Q1493.82 1477.06 1490.74 1481.67 Q1487.69 1486.25 1481.88 1486.25 Q1476.07 1486.25 1472.99 1481.67 Q1469.93 1477.06 1469.93 1468.33 Q1469.93 1459.58 1472.99 1455 Q1476.07 1450.39 1481.88 1450.39 Z" fill="#000000" fill-rule="nonzero" fill-opacity="1" /><path clip-path="url(#clip970)" d="M1840.56 1455.09 L1828.76 1473.54 L1840.56 1473.54 L1840.56 1455.09 M1839.33 1451.02 L1845.21 1451.02 L1845.21 1473.54 L1850.14 1473.54 L1850.14 1477.43 L1845.21 1477.43 L1845.21 1485.58 L1840.56 1485.58 L1840.56 1477.43 L1824.96 1477.43 L1824.96 1472.92 L1839.33 1451.02 Z" fill="#000000" fill-rule="nonzero" fill-opacity="1" /><path clip-path="url(#clip970)" d="M1868.45 1466.44 Q1865.31 1466.44 1863.45 1468.59 Q1861.63 1470.74 1861.63 1474.49 Q1861.63 1478.22 1863.45 1480.39 Q1865.31 1482.55 1868.45 1482.55 Q1871.6 1482.55 1873.43 1480.39 Q1875.28 1478.22 1875.28 1474.49 Q1875.28 1470.74 1873.43 1468.59 Q1871.6 1466.44 1868.45 1466.44 M1877.74 1451.78 L1877.74 1456.04 Q1875.98 1455.21 1874.17 1454.77 Q1872.39 1454.33 1870.63 1454.33 Q1866 1454.33 1863.55 1457.45 Q1861.12 1460.58 1860.77 1466.9 Q1862.13 1464.89 1864.2 1463.82 Q1866.26 1462.73 1868.73 1462.73 Q1873.94 1462.73 1876.95 1465.9 Q1879.98 1469.05 1879.98 1474.49 Q1879.98 1479.82 1876.83 1483.03 Q1873.69 1486.25 1868.45 1486.25 Q1862.46 1486.25 1859.29 1481.67 Q1856.12 1477.06 1856.12 1468.33 Q1856.12 1460.14 1860.01 1455.28 Q1863.89 1450.39 1870.45 1450.39 Q1872.2 1450.39 1873.99 1450.74 Q1875.79 1451.09 1877.74 1451.78 Z" fill="#000000" fill-rule="nonzero" fill-opacity="1" /><path clip-path="url(#clip970)" d="M1898.04 1454.1 Q1894.43 1454.1 1892.6 1457.66 Q1890.79 1461.2 1890.79 1468.33 Q1890.79 1475.44 1892.6 1479.01 Q1894.43 1482.55 1898.04 1482.55 Q1901.67 1482.55 1903.48 1479.01 Q1905.31 1475.44 1905.31 1468.33 Q1905.31 1461.2 1903.48 1457.66 Q1901.67 1454.1 1898.04 1454.1 M1898.04 1450.39 Q1903.85 1450.39 1906.9 1455 Q1909.98 1459.58 1909.98 1468.33 Q1909.98 1477.06 1906.9 1481.67 Q1903.85 1486.25 1898.04 1486.25 Q1892.23 1486.25 1889.15 1481.67 Q1886.09 1477.06 1886.09 1468.33 Q1886.09 1459.58 1889.15 1455 Q1892.23 1450.39 1898.04 1450.39 Z" fill="#000000" fill-rule="nonzero" fill-opacity="1" /><path clip-path="url(#clip970)" d="M2256.72 1455.09 L2244.92 1473.54 L2256.72 1473.54 L2256.72 1455.09 M2255.5 1451.02 L2261.37 1451.02 L2261.37 1473.54 L2266.31 1473.54 L2266.31 1477.43 L2261.37 1477.43 L2261.37 1485.58 L2256.72 1485.58 L2256.72 1477.43 L2241.12 1477.43 L2241.12 1472.92 L2255.5 1451.02 Z" fill="#000000" fill-rule="nonzero" fill-opacity="1" /><path clip-path="url(#clip970)" d="M2284.04 1469.17 Q2280.7 1469.17 2278.78 1470.95 Q2276.88 1472.73 2276.88 1475.86 Q2276.88 1478.98 2278.78 1480.77 Q2280.7 1482.55 2284.04 1482.55 Q2287.37 1482.55 2289.29 1480.77 Q2291.21 1478.96 2291.21 1475.86 Q2291.21 1472.73 2289.29 1470.95 Q2287.39 1469.17 2284.04 1469.17 M2279.36 1467.18 Q2276.35 1466.44 2274.66 1464.38 Q2273 1462.32 2273 1459.35 Q2273 1455.21 2275.93 1452.8 Q2278.9 1450.39 2284.04 1450.39 Q2289.2 1450.39 2292.14 1452.8 Q2295.08 1455.21 2295.08 1459.35 Q2295.08 1462.32 2293.39 1464.38 Q2291.72 1466.44 2288.74 1467.18 Q2292.12 1467.96 2293.99 1470.26 Q2295.89 1472.55 2295.89 1475.86 Q2295.89 1480.88 2292.81 1483.57 Q2289.75 1486.25 2284.04 1486.25 Q2278.32 1486.25 2275.24 1483.57 Q2272.18 1480.88 2272.18 1475.86 Q2272.18 1472.55 2274.08 1470.26 Q2275.98 1467.96 2279.36 1467.18 M2277.65 1459.79 Q2277.65 1462.48 2279.31 1463.98 Q2281 1465.49 2284.04 1465.49 Q2287.05 1465.49 2288.74 1463.98 Q2290.45 1462.48 2290.45 1459.79 Q2290.45 1457.11 2288.74 1455.6 Q2287.05 1454.1 2284.04 1454.1 Q2281 1454.1 2279.31 1455.6 Q2277.65 1457.11 2277.65 1459.79 Z" fill="#000000" fill-rule="nonzero" fill-opacity="1" /><path clip-path="url(#clip970)" d="M2314.2 1454.1 Q2310.59 1454.1 2308.76 1457.66 Q2306.95 1461.2 2306.95 1468.33 Q2306.95 1475.44 2308.76 1479.01 Q2310.59 1482.55 2314.2 1482.55 Q2317.83 1482.55 2319.64 1479.01 Q2321.47 1475.44 2321.47 1468.33 Q2321.47 1461.2 2319.64 1457.66 Q2317.83 1454.1 2314.2 1454.1 M2314.2 1450.39 Q2320.01 1450.39 2323.06 1455 Q2326.14 1459.58 2326.14 1468.33 Q2326.14 1477.06 2323.06 1481.67 Q2320.01 1486.25 2314.2 1486.25 Q2308.39 1486.25 2305.31 1481.67 Q2302.25 1477.06 2302.25 1468.33 Q2302.25 1459.58 2305.31 1455 Q2308.39 1450.39 2314.2 1450.39 Z" fill="#000000" fill-rule="nonzero" fill-opacity="1" /><path clip-path="url(#clip970)" d="M1063.97 1518.52 L1063.97 1523.39 L1058.37 1523.39 Q1055.21 1523.39 1053.97 1524.66 Q1052.76 1525.93 1052.76 1529.24 L1052.76 1532.4 L1062.41 1532.4 L1062.41 1536.95 L1052.76 1536.95 L1052.76 1568.04 L1046.88 1568.04 L1046.88 1536.95 L1041.27 1536.95 L1041.27 1532.4 L1046.88 1532.4 L1046.88 1529.91 Q1046.88 1523.96 1049.64 1521.26 Q1052.41 1518.52 1058.43 1518.52 L1063.97 1518.52 Z" fill="#000000" fill-rule="nonzero" fill-opacity="1" /><path clip-path="url(#clip970)" d="M1089.53 1537.87 Q1088.54 1537.3 1087.36 1537.04 Q1086.22 1536.76 1084.81 1536.76 Q1079.85 1536.76 1077.18 1540 Q1074.53 1543.22 1074.53 1549.27 L1074.53 1568.04 L1068.65 1568.04 L1068.65 1532.4 L1074.53 1532.4 L1074.53 1537.93 Q1076.38 1534.69 1079.34 1533.13 Q1082.3 1531.54 1086.53 1531.54 Q1087.14 1531.54 1087.87 1531.63 Q1088.6 1531.7 1089.49 1531.85 L1089.53 1537.87 Z" fill="#000000" fill-rule="nonzero" fill-opacity="1" /><path clip-path="url(#clip970)" d="M1124.73 1548.76 L1124.73 1551.62 L1097.8 1551.62 Q1098.18 1557.67 1101.43 1560.85 Q1104.71 1564 1110.53 1564 Q1113.91 1564 1117.06 1563.17 Q1120.24 1562.35 1123.36 1560.69 L1123.36 1566.23 Q1120.21 1567.57 1116.9 1568.27 Q1113.59 1568.97 1110.18 1568.97 Q1101.65 1568.97 1096.65 1564 Q1091.69 1559.04 1091.69 1550.57 Q1091.69 1541.82 1096.4 1536.69 Q1101.14 1531.54 1109.16 1531.54 Q1116.36 1531.54 1120.53 1536.18 Q1124.73 1540.8 1124.73 1548.76 M1118.87 1547.04 Q1118.81 1542.23 1116.17 1539.37 Q1113.56 1536.5 1109.23 1536.5 Q1104.33 1536.5 1101.37 1539.27 Q1098.44 1542.04 1097.99 1547.07 L1118.87 1547.04 Z" fill="#000000" fill-rule="nonzero" fill-opacity="1" /><path clip-path="url(#clip970)" d="M1137.84 1550.25 Q1137.84 1556.71 1140.48 1560.4 Q1143.16 1564.07 1147.8 1564.07 Q1152.45 1564.07 1155.12 1560.4 Q1157.8 1556.71 1157.8 1550.25 Q1157.8 1543.79 1155.12 1540.13 Q1152.45 1536.44 1147.8 1536.44 Q1143.16 1536.44 1140.48 1540.13 Q1137.84 1543.79 1137.84 1550.25 M1157.8 1562.7 Q1155.95 1565.88 1153.12 1567.44 Q1150.32 1568.97 1146.37 1568.97 Q1139.91 1568.97 1135.84 1563.81 Q1131.79 1558.65 1131.79 1550.25 Q1131.79 1541.85 1135.84 1536.69 Q1139.91 1531.54 1146.37 1531.54 Q1150.32 1531.54 1153.12 1533.1 Q1155.95 1534.62 1157.8 1537.81 L1157.8 1532.4 L1163.65 1532.4 L1163.65 1581.6 L1157.8 1581.6 L1157.8 1562.7 Z" fill="#000000" fill-rule="nonzero" fill-opacity="1" /><path clip-path="url(#clip970)" d="M1175.11 1553.98 L1175.11 1532.4 L1180.97 1532.4 L1180.97 1553.75 Q1180.97 1558.81 1182.94 1561.36 Q1184.92 1563.87 1188.86 1563.87 Q1193.6 1563.87 1196.34 1560.85 Q1199.11 1557.83 1199.11 1552.61 L1199.11 1532.4 L1204.97 1532.4 L1204.97 1568.04 L1199.11 1568.04 L1199.11 1562.57 Q1196.98 1565.82 1194.15 1567.41 Q1191.34 1568.97 1187.62 1568.97 Q1181.48 1568.97 1178.3 1565.15 Q1175.11 1561.33 1175.11 1553.98 M1189.85 1531.54 L1189.85 1531.54 Z" fill="#000000" fill-rule="nonzero" fill-opacity="1" /><path clip-path="url(#clip970)" d="M1247.52 1548.76 L1247.52 1551.62 L1220.6 1551.62 Q1220.98 1557.67 1224.22 1560.85 Q1227.5 1564 1233.33 1564 Q1236.7 1564 1239.85 1563.17 Q1243.03 1562.35 1246.15 1560.69 L1246.15 1566.23 Q1243 1567.57 1239.69 1568.27 Q1236.38 1568.97 1232.98 1568.97 Q1224.45 1568.97 1219.45 1564 Q1214.48 1559.04 1214.48 1550.57 Q1214.48 1541.82 1219.19 1536.69 Q1223.94 1531.54 1231.96 1531.54 Q1239.15 1531.54 1243.32 1536.18 Q1247.52 1540.8 1247.52 1548.76 M1241.67 1547.04 Q1241.6 1542.23 1238.96 1539.37 Q1236.35 1536.5 1232.02 1536.5 Q1227.12 1536.5 1224.16 1539.27 Q1221.23 1542.04 1220.79 1547.07 L1241.67 1547.04 Z" fill="#000000" fill-rule="nonzero" fill-opacity="1" /><path clip-path="url(#clip970)" d="M1286.77 1546.53 L1286.77 1568.04 L1280.91 1568.04 L1280.91 1546.72 Q1280.91 1541.66 1278.94 1539.14 Q1276.96 1536.63 1273.02 1536.63 Q1268.27 1536.63 1265.54 1539.65 Q1262.8 1542.68 1262.8 1547.9 L1262.8 1568.04 L1256.91 1568.04 L1256.91 1532.4 L1262.8 1532.4 L1262.8 1537.93 Q1264.9 1534.72 1267.73 1533.13 Q1270.6 1531.54 1274.32 1531.54 Q1280.46 1531.54 1283.62 1535.36 Q1286.77 1539.14 1286.77 1546.53 Z" fill="#000000" fill-rule="nonzero" fill-opacity="1" /><path clip-path="url(#clip970)" d="M1324.1 1533.76 L1324.1 1539.24 Q1321.62 1537.87 1319.1 1537.2 Q1316.62 1536.5 1314.08 1536.5 Q1308.38 1536.5 1305.23 1540.13 Q1302.08 1543.73 1302.08 1550.25 Q1302.08 1556.78 1305.23 1560.4 Q1308.38 1564 1314.08 1564 Q1316.62 1564 1319.1 1563.33 Q1321.62 1562.63 1324.1 1561.26 L1324.1 1566.68 Q1321.65 1567.82 1319.01 1568.39 Q1316.4 1568.97 1313.44 1568.97 Q1305.39 1568.97 1300.64 1563.91 Q1295.9 1558.85 1295.9 1550.25 Q1295.9 1541.53 1300.68 1536.53 Q1305.48 1531.54 1313.82 1531.54 Q1316.53 1531.54 1319.1 1532.11 Q1321.68 1532.65 1324.1 1533.76 Z" fill="#000000" fill-rule="nonzero" fill-opacity="1" /><path clip-path="url(#clip970)" d="M1349.12 1571.35 Q1346.64 1577.72 1344.28 1579.66 Q1341.93 1581.6 1337.98 1581.6 L1333.3 1581.6 L1333.3 1576.7 L1336.74 1576.7 Q1339.16 1576.7 1340.49 1575.56 Q1341.83 1574.41 1343.45 1570.14 L1344.5 1567.47 L1330.09 1532.4 L1336.29 1532.4 L1347.43 1560.28 L1358.57 1532.4 L1364.78 1532.4 L1349.12 1571.35 Z" fill="#000000" fill-rule="nonzero" fill-opacity="1" /><path clip-path="url(#clip970)" d="M1407.65 1518.58 Q1403.39 1525.9 1401.32 1533.06 Q1399.25 1540.23 1399.25 1547.58 Q1399.25 1554.93 1401.32 1562.16 Q1403.42 1569.35 1407.65 1576.64 L1402.56 1576.64 Q1397.78 1569.16 1395.4 1561.93 Q1393.04 1554.71 1393.04 1547.58 Q1393.04 1540.48 1395.4 1533.29 Q1397.75 1526.09 1402.56 1518.58 L1407.65 1518.58 Z" fill="#000000" fill-rule="nonzero" fill-opacity="1" /><path clip-path="url(#clip970)" d="M1419.27 1520.52 L1425.7 1520.52 L1425.7 1540 L1449.06 1540 L1449.06 1520.52 L1455.49 1520.52 L1455.49 1568.04 L1449.06 1568.04 L1449.06 1545.41 L1425.7 1545.41 L1425.7 1568.04 L1419.27 1568.04 L1419.27 1520.52 Z" fill="#000000" fill-rule="nonzero" fill-opacity="1" /><path clip-path="url(#clip970)" d="M1465.48 1532.4 L1493.3 1532.4 L1493.3 1537.74 L1471.28 1563.37 L1493.3 1563.37 L1493.3 1568.04 L1464.69 1568.04 L1464.69 1562.7 L1486.71 1537.07 L1465.48 1537.07 L1465.48 1532.4 Z" fill="#000000" fill-rule="nonzero" fill-opacity="1" /><path clip-path="url(#clip970)" d="M1501.32 1518.58 L1506.42 1518.58 Q1511.19 1526.09 1513.55 1533.29 Q1515.93 1540.48 1515.93 1547.58 Q1515.93 1554.71 1513.55 1561.93 Q1511.19 1569.16 1506.42 1576.64 L1501.32 1576.64 Q1505.56 1569.35 1507.63 1562.16 Q1509.73 1554.93 1509.73 1547.58 Q1509.73 1540.23 1507.63 1533.06 Q1505.56 1525.9 1501.32 1518.58 Z" fill="#000000" fill-rule="nonzero" fill-opacity="1" /><polyline clip-path="url(#clip970)" style="stroke:#000000; stroke-linecap:round; stroke-linejoin:round; stroke-width:4; stroke-opacity:1; fill:none" points="204.45,1423.18 204.45,123.472 "/>
<polyline clip-path="url(#clip970)" style="stroke:#000000; stroke-linecap:round; stroke-linejoin:round; stroke-width:4; stroke-opacity:1; fill:none" points="204.45,1333.09 223.347,1333.09 "/>
<polyline clip-path="url(#clip970)" style="stroke:#000000; stroke-linecap:round; stroke-linejoin:round; stroke-width:4; stroke-opacity:1; fill:none" points="204.45,1066.53 223.347,1066.53 "/>
<polyline clip-path="url(#clip970)" style="stroke:#000000; stroke-linecap:round; stroke-linejoin:round; stroke-width:4; stroke-opacity:1; fill:none" points="204.45,799.981 223.347,799.981 "/>
<polyline clip-path="url(#clip970)" style="stroke:#000000; stroke-linecap:round; stroke-linejoin:round; stroke-width:4; stroke-opacity:1; fill:none" points="204.45,533.429 223.347,533.429 "/>
<polyline clip-path="url(#clip970)" style="stroke:#000000; stroke-linecap:round; stroke-linejoin:round; stroke-width:4; stroke-opacity:1; fill:none" points="204.45,266.877 223.347,266.877 "/>
<path clip-path="url(#clip970)" d="M115.163 1315.81 L137.385 1315.81 L137.385 1317.8 L124.839 1350.37 L119.955 1350.37 L131.76 1319.74 L115.163 1319.74 L115.163 1315.81 Z" fill="#000000" fill-rule="nonzero" fill-opacity="1" /><path clip-path="url(#clip970)" d="M156.505 1318.88 Q152.894 1318.88 151.066 1322.45 Q149.26 1325.99 149.26 1333.12 Q149.26 1340.23 151.066 1343.79 Q152.894 1347.33 156.505 1347.33 Q160.14 1347.33 161.945 1343.79 Q163.774 1340.23 163.774 1333.12 Q163.774 1325.99 161.945 1322.45 Q160.14 1318.88 156.505 1318.88 M156.505 1315.18 Q162.315 1315.18 165.371 1319.79 Q168.45 1324.37 168.45 1333.12 Q168.45 1341.85 165.371 1346.45 Q162.315 1351.04 156.505 1351.04 Q150.695 1351.04 147.616 1346.45 Q144.561 1341.85 144.561 1333.12 Q144.561 1324.37 147.616 1319.79 Q150.695 1315.18 156.505 1315.18 Z" fill="#000000" fill-rule="nonzero" fill-opacity="1" /><path clip-path="url(#clip970)" d="M116.158 1049.25 L138.38 1049.25 L138.38 1051.24 L125.834 1083.81 L120.95 1083.81 L132.755 1053.19 L116.158 1053.19 L116.158 1049.25 Z" fill="#000000" fill-rule="nonzero" fill-opacity="1" /><path clip-path="url(#clip970)" d="M147.547 1049.25 L165.903 1049.25 L165.903 1053.19 L151.829 1053.19 L151.829 1061.66 Q152.848 1061.31 153.866 1061.15 Q154.885 1060.97 155.903 1060.97 Q161.69 1060.97 165.07 1064.14 Q168.45 1067.31 168.45 1072.73 Q168.45 1078.3 164.977 1081.41 Q161.505 1084.48 155.186 1084.48 Q153.01 1084.48 150.741 1084.11 Q148.496 1083.74 146.089 1083 L146.089 1078.3 Q148.172 1079.44 150.394 1079.99 Q152.616 1080.55 155.093 1080.55 Q159.098 1080.55 161.436 1078.44 Q163.774 1076.34 163.774 1072.73 Q163.774 1069.11 161.436 1067.01 Q159.098 1064.9 155.093 1064.9 Q153.218 1064.9 151.343 1065.32 Q149.491 1065.73 147.547 1066.61 L147.547 1049.25 Z" fill="#000000" fill-rule="nonzero" fill-opacity="1" /><path clip-path="url(#clip970)" d="M126.343 800.849 Q123.01 800.849 121.089 802.632 Q119.191 804.414 119.191 807.539 Q119.191 810.664 121.089 812.446 Q123.01 814.229 126.343 814.229 Q129.677 814.229 131.598 812.446 Q133.519 810.641 133.519 807.539 Q133.519 804.414 131.598 802.632 Q129.7 800.849 126.343 800.849 M121.668 798.859 Q118.658 798.118 116.968 796.058 Q115.302 793.997 115.302 791.034 Q115.302 786.891 118.242 784.484 Q121.205 782.076 126.343 782.076 Q131.505 782.076 134.445 784.484 Q137.385 786.891 137.385 791.034 Q137.385 793.997 135.695 796.058 Q134.029 798.118 131.042 798.859 Q134.422 799.646 136.297 801.937 Q138.195 804.229 138.195 807.539 Q138.195 812.562 135.117 815.247 Q132.061 817.932 126.343 817.932 Q120.626 817.932 117.547 815.247 Q114.492 812.562 114.492 807.539 Q114.492 804.229 116.39 801.937 Q118.288 799.646 121.668 798.859 M119.955 791.474 Q119.955 794.159 121.621 795.664 Q123.311 797.169 126.343 797.169 Q129.353 797.169 131.042 795.664 Q132.755 794.159 132.755 791.474 Q132.755 788.789 131.042 787.284 Q129.353 785.78 126.343 785.78 Q123.311 785.78 121.621 787.284 Q119.955 788.789 119.955 791.474 Z" fill="#000000" fill-rule="nonzero" fill-opacity="1" /><path clip-path="url(#clip970)" d="M156.505 785.78 Q152.894 785.78 151.066 789.345 Q149.26 792.886 149.26 800.016 Q149.26 807.122 151.066 810.687 Q152.894 814.229 156.505 814.229 Q160.14 814.229 161.945 810.687 Q163.774 807.122 163.774 800.016 Q163.774 792.886 161.945 789.345 Q160.14 785.78 156.505 785.78 M156.505 782.076 Q162.315 782.076 165.371 786.683 Q168.45 791.266 168.45 800.016 Q168.45 808.743 165.371 813.349 Q162.315 817.932 156.505 817.932 Q150.695 817.932 147.616 813.349 Q144.561 808.743 144.561 800.016 Q144.561 791.266 147.616 786.683 Q150.695 782.076 156.505 782.076 Z" fill="#000000" fill-rule="nonzero" fill-opacity="1" /><path clip-path="url(#clip970)" d="M127.339 534.297 Q124.005 534.297 122.084 536.08 Q120.186 537.862 120.186 540.987 Q120.186 544.112 122.084 545.894 Q124.005 547.677 127.339 547.677 Q130.672 547.677 132.593 545.894 Q134.515 544.089 134.515 540.987 Q134.515 537.862 132.593 536.08 Q130.695 534.297 127.339 534.297 M122.663 532.306 Q119.654 531.566 117.964 529.506 Q116.297 527.445 116.297 524.482 Q116.297 520.339 119.237 517.932 Q122.2 515.524 127.339 515.524 Q132.501 515.524 135.441 517.932 Q138.38 520.339 138.38 524.482 Q138.38 527.445 136.691 529.506 Q135.024 531.566 132.038 532.306 Q135.417 533.094 137.292 535.385 Q139.191 537.677 139.191 540.987 Q139.191 546.01 136.112 548.695 Q133.056 551.38 127.339 551.38 Q121.621 551.38 118.543 548.695 Q115.487 546.01 115.487 540.987 Q115.487 537.677 117.385 535.385 Q119.283 533.094 122.663 532.306 M120.95 524.922 Q120.95 527.607 122.617 529.112 Q124.306 530.617 127.339 530.617 Q130.348 530.617 132.038 529.112 Q133.751 527.607 133.751 524.922 Q133.751 522.237 132.038 520.732 Q130.348 519.228 127.339 519.228 Q124.306 519.228 122.617 520.732 Q120.95 522.237 120.95 524.922 Z" fill="#000000" fill-rule="nonzero" fill-opacity="1" /><path clip-path="url(#clip970)" d="M147.547 516.149 L165.903 516.149 L165.903 520.084 L151.829 520.084 L151.829 528.556 Q152.848 528.209 153.866 528.047 Q154.885 527.862 155.903 527.862 Q161.69 527.862 165.07 531.033 Q168.45 534.205 168.45 539.621 Q168.45 545.2 164.977 548.302 Q161.505 551.38 155.186 551.38 Q153.01 551.38 150.741 551.01 Q148.496 550.64 146.089 549.899 L146.089 545.2 Q148.172 546.334 150.394 546.89 Q152.616 547.445 155.093 547.445 Q159.098 547.445 161.436 545.339 Q163.774 543.232 163.774 539.621 Q163.774 536.01 161.436 533.904 Q159.098 531.797 155.093 531.797 Q153.218 531.797 151.343 532.214 Q149.491 532.631 147.547 533.51 L147.547 516.149 Z" fill="#000000" fill-rule="nonzero" fill-opacity="1" /><path clip-path="url(#clip970)" d="M116.482 283.44 L116.482 279.18 Q118.242 280.014 120.047 280.453 Q121.853 280.893 123.589 280.893 Q128.218 280.893 130.649 277.791 Q133.103 274.666 133.45 268.324 Q132.107 270.315 130.047 271.379 Q127.987 272.444 125.487 272.444 Q120.302 272.444 117.269 269.319 Q114.26 266.171 114.26 260.731 Q114.26 255.407 117.408 252.19 Q120.556 248.972 125.788 248.972 Q131.783 248.972 134.931 253.579 Q138.103 258.162 138.103 266.912 Q138.103 275.083 134.214 279.967 Q130.348 284.828 123.797 284.828 Q122.038 284.828 120.232 284.481 Q118.427 284.134 116.482 283.44 M125.788 268.787 Q128.936 268.787 130.765 266.634 Q132.617 264.481 132.617 260.731 Q132.617 257.004 130.765 254.852 Q128.936 252.676 125.788 252.676 Q122.64 252.676 120.788 254.852 Q118.959 257.004 118.959 260.731 Q118.959 264.481 120.788 266.634 Q122.64 268.787 125.788 268.787 Z" fill="#000000" fill-rule="nonzero" fill-opacity="1" /><path clip-path="url(#clip970)" d="M156.505 252.676 Q152.894 252.676 151.066 256.241 Q149.26 259.782 149.26 266.912 Q149.26 274.018 151.066 277.583 Q152.894 281.125 156.505 281.125 Q160.14 281.125 161.945 277.583 Q163.774 274.018 163.774 266.912 Q163.774 259.782 161.945 256.241 Q160.14 252.676 156.505 252.676 M156.505 248.972 Q162.315 248.972 165.371 253.579 Q168.45 258.162 168.45 266.912 Q168.45 275.639 165.371 280.245 Q162.315 284.828 156.505 284.828 Q150.695 284.828 147.616 280.245 Q144.561 275.639 144.561 266.912 Q144.561 258.162 147.616 253.579 Q150.695 248.972 156.505 248.972 Z" fill="#000000" fill-rule="nonzero" fill-opacity="1" /><path clip-path="url(#clip970)" d="M28.3562 1044.47 L28.3562 1038.62 L56.1743 1031.3 L28.3562 1024.01 L28.3562 1017.1 L56.1743 1009.78 L28.3562 1002.49 L28.3562 996.635 L64.0042 1005.96 L64.0042 1012.87 L34.7856 1020.54 L64.0042 1028.24 L64.0042 1035.15 L28.3562 1044.47 Z" fill="#000000" fill-rule="nonzero" fill-opacity="1" /><path clip-path="url(#clip970)" d="M46.0847 971.554 Q46.0847 978.652 47.7079 981.389 Q49.3312 984.126 53.2461 984.126 Q56.3653 984.126 58.2114 982.089 Q60.0256 980.02 60.0256 976.488 Q60.0256 971.618 56.5881 968.69 Q53.1188 965.729 47.3897 965.729 L46.0847 965.729 L46.0847 971.554 M43.6657 959.873 L64.0042 959.873 L64.0042 965.729 L58.5933 965.729 Q61.8398 967.735 63.3994 970.727 Q64.9272 973.718 64.9272 978.047 Q64.9272 983.522 61.8716 986.768 Q58.7843 989.983 53.6281 989.983 Q47.6125 989.983 44.5569 985.972 Q41.5014 981.93 41.5014 973.941 L41.5014 965.729 L40.9285 965.729 Q36.8862 965.729 34.6901 968.403 Q32.4621 971.045 32.4621 975.851 Q32.4621 978.906 33.1941 981.803 Q33.9262 984.699 35.3903 987.373 L29.9795 987.373 Q28.7381 984.158 28.1334 981.134 Q27.4968 978.111 27.4968 975.246 Q27.4968 967.512 31.5072 963.692 Q35.5176 959.873 43.6657 959.873 Z" fill="#000000" fill-rule="nonzero" fill-opacity="1" /><path clip-path="url(#clip970)" d="M28.3562 952.011 L28.3562 945.805 L58.275 934.665 L28.3562 923.525 L28.3562 917.318 L64.0042 930.686 L64.0042 938.643 L28.3562 952.011 Z" fill="#000000" fill-rule="nonzero" fill-opacity="1" /><path clip-path="url(#clip970)" d="M44.7161 878.742 L47.5806 878.742 L47.5806 905.669 Q53.6281 905.287 56.8109 902.041 Q59.9619 898.762 59.9619 892.938 Q59.9619 889.564 59.1344 886.413 Q58.3069 883.23 56.6518 880.111 L62.1899 880.111 Q63.5267 883.262 64.227 886.572 Q64.9272 889.882 64.9272 893.288 Q64.9272 901.818 59.9619 906.815 Q54.9967 911.78 46.5303 911.78 Q37.7774 911.78 32.6531 907.069 Q27.4968 902.327 27.4968 894.306 Q27.4968 887.113 32.1438 882.943 Q36.7589 878.742 44.7161 878.742 M42.9973 884.599 Q38.1912 884.662 35.3266 887.304 Q32.4621 889.914 32.4621 894.243 Q32.4621 899.144 35.2312 902.104 Q38.0002 905.032 43.0292 905.478 L42.9973 884.599 Z" fill="#000000" fill-rule="nonzero" fill-opacity="1" /><path clip-path="url(#clip970)" d="M14.479 869.13 L14.479 863.273 L64.0042 863.273 L64.0042 869.13 L14.479 869.13 Z" fill="#000000" fill-rule="nonzero" fill-opacity="1" /><path clip-path="url(#clip970)" d="M44.7161 820.528 L47.5806 820.528 L47.5806 847.455 Q53.6281 847.073 56.8109 843.826 Q59.9619 840.548 59.9619 834.723 Q59.9619 831.349 59.1344 828.198 Q58.3069 825.016 56.6518 821.896 L62.1899 821.896 Q63.5267 825.047 64.227 828.358 Q64.9272 831.668 64.9272 835.073 Q64.9272 843.603 59.9619 848.6 Q54.9967 853.566 46.5303 853.566 Q37.7774 853.566 32.6531 848.855 Q27.4968 844.113 27.4968 836.092 Q27.4968 828.899 32.1438 824.729 Q36.7589 820.528 44.7161 820.528 M42.9973 826.384 Q38.1912 826.448 35.3266 829.09 Q32.4621 831.7 32.4621 836.028 Q32.4621 840.93 35.2312 843.89 Q38.0002 846.818 43.0292 847.264 L42.9973 826.384 Z" fill="#000000" fill-rule="nonzero" fill-opacity="1" /><path clip-path="url(#clip970)" d="M42.4881 781.283 L64.0042 781.283 L64.0042 787.14 L42.679 787.14 Q37.6183 787.14 35.1038 789.113 Q32.5894 791.086 32.5894 795.033 Q32.5894 799.775 35.6131 802.513 Q38.6368 805.25 43.8567 805.25 L64.0042 805.25 L64.0042 811.138 L28.3562 811.138 L28.3562 805.25 L33.8944 805.25 Q30.6797 803.149 29.0883 800.317 Q27.4968 797.452 27.4968 793.728 Q27.4968 787.585 31.3163 784.434 Q35.1038 781.283 42.4881 781.283 Z" fill="#000000" fill-rule="nonzero" fill-opacity="1" /><path clip-path="url(#clip970)" d="M45.7664 746.144 Q39.4007 746.144 35.8996 748.786 Q32.3984 751.396 32.3984 756.139 Q32.3984 760.849 35.8996 763.491 Q39.4007 766.101 45.7664 766.101 Q52.1003 766.101 55.6014 763.491 Q59.1026 760.849 59.1026 756.139 Q59.1026 751.396 55.6014 748.786 Q52.1003 746.144 45.7664 746.144 M59.58 740.288 Q68.683 740.288 73.1071 744.33 Q77.5631 748.372 77.5631 756.711 Q77.5631 759.799 77.0857 762.536 Q76.6401 765.273 75.6852 767.851 L69.9879 767.851 Q71.3884 765.273 72.0568 762.759 Q72.7252 760.244 72.7252 757.635 Q72.7252 751.874 69.7015 749.009 Q66.7096 746.144 60.6303 746.144 L57.7339 746.144 Q60.885 747.959 62.4446 750.791 Q64.0042 753.624 64.0042 757.571 Q64.0042 764.128 59.0071 768.138 Q54.01 772.148 45.7664 772.148 Q37.491 772.148 32.4939 768.138 Q27.4968 764.128 27.4968 757.571 Q27.4968 753.624 29.0564 750.791 Q30.616 747.959 33.7671 746.144 L28.3562 746.144 L28.3562 740.288 L59.58 740.288 Z" fill="#000000" fill-rule="nonzero" fill-opacity="1" /><path clip-path="url(#clip970)" d="M18.2347 722.432 L28.3562 722.432 L28.3562 710.369 L32.9077 710.369 L32.9077 722.432 L52.2594 722.432 Q56.6199 722.432 57.8613 721.255 Q59.1026 720.045 59.1026 716.385 L59.1026 710.369 L64.0042 710.369 L64.0042 716.385 Q64.0042 723.164 61.4897 725.742 Q58.9434 728.32 52.2594 728.32 L32.9077 728.32 L32.9077 732.617 L28.3562 732.617 L28.3562 728.32 L18.2347 728.32 L18.2347 722.432 Z" fill="#000000" fill-rule="nonzero" fill-opacity="1" /><path clip-path="url(#clip970)" d="M42.4881 673.034 L64.0042 673.034 L64.0042 678.891 L42.679 678.891 Q37.6183 678.891 35.1038 680.864 Q32.5894 682.837 32.5894 686.784 Q32.5894 691.527 35.6131 694.264 Q38.6368 697.001 43.8567 697.001 L64.0042 697.001 L64.0042 702.889 L14.479 702.889 L14.479 697.001 L33.8944 697.001 Q30.6797 694.9 29.0883 692.068 Q27.4968 689.203 27.4968 685.479 Q27.4968 679.336 31.3163 676.185 Q35.1038 673.034 42.4881 673.034 Z" fill="#000000" fill-rule="nonzero" fill-opacity="1" /><path clip-path="url(#clip970)" d="M14.5426 626.565 Q21.8632 630.83 29.0246 632.898 Q36.186 634.967 43.5384 634.967 Q50.8908 634.967 58.1159 632.898 Q65.3091 630.798 72.5979 626.565 L72.5979 631.657 Q65.1182 636.431 57.8931 638.819 Q50.668 641.174 43.5384 641.174 Q36.4406 641.174 29.2474 638.819 Q22.0542 636.463 14.5426 631.657 L14.5426 626.565 Z" fill="#000000" fill-rule="nonzero" fill-opacity="1" /><path clip-path="url(#clip970)" d="M29.7248 589.548 L35.1993 589.548 Q33.8307 592.031 33.1623 594.545 Q32.4621 597.028 32.4621 599.574 Q32.4621 605.271 36.0905 608.422 Q39.6872 611.573 46.212 611.573 Q52.7369 611.573 56.3653 608.422 Q59.9619 605.271 59.9619 599.574 Q59.9619 597.028 59.2935 594.545 Q58.5933 592.031 57.2247 589.548 L62.6355 589.548 Q63.7814 591.999 64.3543 594.641 Q64.9272 597.251 64.9272 600.211 Q64.9272 608.263 59.8664 613.006 Q54.8057 617.748 46.212 617.748 Q37.491 617.748 32.4939 612.974 Q27.4968 608.168 27.4968 599.829 Q27.4968 597.123 28.0697 594.545 Q28.6108 591.967 29.7248 589.548 Z" fill="#000000" fill-rule="nonzero" fill-opacity="1" /><path clip-path="url(#clip970)" d="M35.1993 551.608 Q31.2526 549.412 29.3747 546.357 Q27.4968 543.301 27.4968 539.163 Q27.4968 533.593 31.4117 530.57 Q35.2948 527.546 42.4881 527.546 L64.0042 527.546 L64.0042 533.434 L42.679 533.434 Q37.5546 533.434 35.072 535.249 Q32.5894 537.063 32.5894 540.787 Q32.5894 545.338 35.6131 547.98 Q38.6368 550.622 43.8567 550.622 L64.0042 550.622 L64.0042 556.51 L42.679 556.51 Q37.5228 556.51 35.072 558.324 Q32.5894 560.138 32.5894 563.926 Q32.5894 568.414 35.6449 571.056 Q38.6686 573.697 43.8567 573.697 L64.0042 573.697 L64.0042 579.586 L28.3562 579.586 L28.3562 573.697 L33.8944 573.697 Q30.616 571.692 29.0564 568.891 Q27.4968 566.09 27.4968 562.239 Q27.4968 558.356 29.4702 555.651 Q31.4436 552.913 35.1993 551.608 Z" fill="#000000" fill-rule="nonzero" fill-opacity="1" /><path clip-path="url(#clip970)" d="M14.5426 516.788 L14.5426 511.695 Q22.0542 506.921 29.2474 504.566 Q36.4406 502.179 43.5384 502.179 Q50.668 502.179 57.8931 504.566 Q65.1182 506.921 72.5979 511.695 L72.5979 516.788 Q65.3091 512.555 58.1159 510.486 Q50.8908 508.385 43.5384 508.385 Q36.186 508.385 29.0246 510.486 Q21.8632 512.555 14.5426 516.788 Z" fill="#000000" fill-rule="nonzero" fill-opacity="1" /><path clip-path="url(#clip970)" d="M390.239 44.2197 Q392.873 45.1109 395.344 48.0275 Q397.855 50.9442 400.367 56.0483 L408.671 72.576 L399.881 72.576 L392.143 57.061 Q389.146 50.9847 386.31 48.9997 Q383.515 47.0148 378.654 47.0148 L369.742 47.0148 L369.742 72.576 L361.559 72.576 L361.559 12.096 L380.031 12.096 Q390.402 12.096 395.506 16.4305 Q400.61 20.7649 400.61 29.5149 Q400.61 35.2267 397.936 38.994 Q395.303 42.7613 390.239 44.2197 M369.742 18.8205 L369.742 40.2903 L380.031 40.2903 Q385.946 40.2903 388.943 37.5762 Q391.981 34.8216 391.981 29.5149 Q391.981 24.2082 388.943 21.5346 Q385.946 18.8205 380.031 18.8205 L369.742 18.8205 Z" fill="#000000" fill-rule="nonzero" fill-opacity="1" /><path clip-path="url(#clip970)" d="M453.96 48.0275 L453.96 51.6733 L419.69 51.6733 Q420.176 59.3701 424.308 63.421 Q428.48 67.4314 435.893 67.4314 Q440.187 67.4314 444.198 66.3781 Q448.248 65.3249 452.218 63.2184 L452.218 70.267 Q448.208 71.9684 443.995 72.8596 Q439.782 73.7508 435.448 73.7508 Q424.591 73.7508 418.231 67.4314 Q411.912 61.1119 411.912 50.3365 Q411.912 39.1965 417.907 32.6746 Q423.943 26.1121 434.151 26.1121 Q443.306 26.1121 448.613 32.0264 Q453.96 37.9003 453.96 48.0275 M446.507 45.84 Q446.426 39.7232 443.063 36.0774 Q439.742 32.4315 434.232 32.4315 Q427.994 32.4315 424.227 35.9558 Q420.5 39.4801 419.933 45.8805 L446.507 45.84 Z" fill="#000000" fill-rule="nonzero" fill-opacity="1" /><path clip-path="url(#clip970)" d="M495.117 28.5427 L495.117 35.5912 Q491.958 33.9709 488.555 33.1607 Q485.152 32.3505 481.506 32.3505 Q475.957 32.3505 473.162 34.0519 Q470.407 35.7533 470.407 39.156 Q470.407 41.7486 472.392 43.2475 Q474.377 44.7058 480.372 46.0426 L482.924 46.6097 Q490.864 48.3111 494.186 51.4303 Q497.548 54.509 497.548 60.0587 Q497.548 66.3781 492.525 70.0644 Q487.542 73.7508 478.792 73.7508 Q475.146 73.7508 471.177 73.0216 Q467.247 72.3329 462.872 70.9151 L462.872 63.2184 Q467.004 65.3654 471.015 66.4591 Q475.025 67.5124 478.954 67.5124 Q484.22 67.5124 487.056 65.73 Q489.892 63.9071 489.892 60.6258 Q489.892 57.5877 487.826 55.9673 Q485.8 54.3469 478.873 52.8481 L476.281 52.2405 Q469.354 50.7821 466.275 47.7845 Q463.196 44.7463 463.196 39.4801 Q463.196 33.0797 467.733 29.5959 Q472.27 26.1121 480.615 26.1121 Q484.747 26.1121 488.393 26.7198 Q492.039 27.3274 495.117 28.5427 Z" fill="#000000" fill-rule="nonzero" fill-opacity="1" /><path clip-path="url(#clip970)" d="M526.998 32.4315 Q521.003 32.4315 517.519 37.1306 Q514.035 41.7891 514.035 49.9314 Q514.035 58.0738 517.478 62.7728 Q520.962 67.4314 526.998 67.4314 Q532.953 67.4314 536.437 62.7323 Q539.92 58.0333 539.92 49.9314 Q539.92 41.8701 536.437 37.1711 Q532.953 32.4315 526.998 32.4315 M526.998 26.1121 Q536.72 26.1121 542.27 32.4315 Q547.82 38.7509 547.82 49.9314 Q547.82 61.0714 542.27 67.4314 Q536.72 73.7508 526.998 73.7508 Q517.235 73.7508 511.686 67.4314 Q506.176 61.0714 506.176 49.9314 Q506.176 38.7509 511.686 32.4315 Q517.235 26.1121 526.998 26.1121 Z" fill="#000000" fill-rule="nonzero" fill-opacity="1" /><path clip-path="url(#clip970)" d="M597.889 45.1919 L597.889 72.576 L590.435 72.576 L590.435 45.4349 Q590.435 38.994 587.924 35.7938 Q585.412 32.5936 580.389 32.5936 Q574.353 32.5936 570.869 36.4419 Q567.386 40.2903 567.386 46.9338 L567.386 72.576 L559.891 72.576 L559.891 27.2059 L567.386 27.2059 L567.386 34.2544 Q570.059 30.163 573.664 28.1376 Q577.31 26.1121 582.05 26.1121 Q589.868 26.1121 593.878 30.9732 Q597.889 35.7938 597.889 45.1919 Z" fill="#000000" fill-rule="nonzero" fill-opacity="1" /><path clip-path="url(#clip970)" d="M633.375 49.7694 Q624.341 49.7694 620.857 51.8354 Q617.374 53.9013 617.374 58.8839 Q617.374 62.8538 619.966 65.2034 Q622.599 67.5124 627.096 67.5124 Q633.294 67.5124 637.021 63.1374 Q640.788 58.7219 640.788 51.4303 L640.788 49.7694 L633.375 49.7694 M648.242 46.6907 L648.242 72.576 L640.788 72.576 L640.788 65.6895 Q638.236 69.8214 634.428 71.8063 Q630.62 73.7508 625.111 73.7508 Q618.143 73.7508 614.011 69.8619 Q609.92 65.9325 609.92 59.3701 Q609.92 51.7138 615.024 47.825 Q620.169 43.9361 630.337 43.9361 L640.788 43.9361 L640.788 43.2069 Q640.788 38.0623 637.385 35.2672 Q634.023 32.4315 627.906 32.4315 Q624.017 32.4315 620.331 33.3632 Q616.645 34.295 613.242 36.1584 L613.242 29.2718 Q617.333 27.692 621.182 26.9223 Q625.03 26.1121 628.676 26.1121 Q638.519 26.1121 643.381 31.2163 Q648.242 36.3204 648.242 46.6907 Z" fill="#000000" fill-rule="nonzero" fill-opacity="1" /><path clip-path="url(#clip970)" d="M701.308 45.1919 L701.308 72.576 L693.855 72.576 L693.855 45.4349 Q693.855 38.994 691.343 35.7938 Q688.832 32.5936 683.809 32.5936 Q677.773 32.5936 674.289 36.4419 Q670.805 40.2903 670.805 46.9338 L670.805 72.576 L663.311 72.576 L663.311 27.2059 L670.805 27.2059 L670.805 34.2544 Q673.479 30.163 677.084 28.1376 Q680.73 26.1121 685.469 26.1121 Q693.288 26.1121 697.298 30.9732 Q701.308 35.7938 701.308 45.1919 Z" fill="#000000" fill-rule="nonzero" fill-opacity="1" /><path clip-path="url(#clip970)" d="M723.548 14.324 L723.548 27.2059 L738.901 27.2059 L738.901 32.9987 L723.548 32.9987 L723.548 57.6282 Q723.548 63.1779 725.047 64.7578 Q726.586 66.3376 731.245 66.3376 L738.901 66.3376 L738.901 72.576 L731.245 72.576 Q722.616 72.576 719.335 69.3758 Q716.054 66.1351 716.054 57.6282 L716.054 32.9987 L710.585 32.9987 L710.585 27.2059 L716.054 27.2059 L716.054 14.324 L723.548 14.324 Z" fill="#000000" fill-rule="nonzero" fill-opacity="1" /><path clip-path="url(#clip970)" d="M770.741 27.2059 L778.195 27.2059 L787.512 62.6108 L796.788 27.2059 L805.579 27.2059 L814.896 62.6108 L824.172 27.2059 L831.626 27.2059 L819.757 72.576 L810.966 72.576 L801.204 35.3887 L791.401 72.576 L782.61 72.576 L770.741 27.2059 Z" fill="#000000" fill-rule="nonzero" fill-opacity="1" /><path clip-path="url(#clip970)" d="M863.547 49.7694 Q854.514 49.7694 851.03 51.8354 Q847.546 53.9013 847.546 58.8839 Q847.546 62.8538 850.139 65.2034 Q852.772 67.5124 857.268 67.5124 Q863.466 67.5124 867.193 63.1374 Q870.96 58.7219 870.96 51.4303 L870.96 49.7694 L863.547 49.7694 M878.414 46.6907 L878.414 72.576 L870.96 72.576 L870.96 65.6895 Q868.408 69.8214 864.6 71.8063 Q860.793 73.7508 855.283 73.7508 Q848.316 73.7508 844.184 69.8619 Q840.092 65.9325 840.092 59.3701 Q840.092 51.7138 845.197 47.825 Q850.341 43.9361 860.509 43.9361 L870.96 43.9361 L870.96 43.2069 Q870.96 38.0623 867.558 35.2672 Q864.195 32.4315 858.078 32.4315 Q854.19 32.4315 850.503 33.3632 Q846.817 34.295 843.414 36.1584 L843.414 29.2718 Q847.506 27.692 851.354 26.9223 Q855.202 26.1121 858.848 26.1121 Q868.692 26.1121 873.553 31.2163 Q878.414 36.3204 878.414 46.6907 Z" fill="#000000" fill-rule="nonzero" fill-opacity="1" /><path clip-path="url(#clip970)" d="M888.42 27.2059 L896.319 27.2059 L910.497 65.2844 L924.675 27.2059 L932.575 27.2059 L915.561 72.576 L905.433 72.576 L888.42 27.2059 Z" fill="#000000" fill-rule="nonzero" fill-opacity="1" /><path clip-path="url(#clip970)" d="M981.672 48.0275 L981.672 51.6733 L947.401 51.6733 Q947.887 59.3701 952.019 63.421 Q956.191 67.4314 963.604 67.4314 Q967.898 67.4314 971.909 66.3781 Q975.96 65.3249 979.93 63.2184 L979.93 70.267 Q975.919 71.9684 971.706 72.8596 Q967.493 73.7508 963.159 73.7508 Q952.302 73.7508 945.943 67.4314 Q939.623 61.1119 939.623 50.3365 Q939.623 39.1965 945.618 32.6746 Q951.654 26.1121 961.863 26.1121 Q971.018 26.1121 976.324 32.0264 Q981.672 37.9003 981.672 48.0275 M974.218 45.84 Q974.137 39.7232 970.775 36.0774 Q967.453 32.4315 961.944 32.4315 Q955.705 32.4315 951.938 35.9558 Q948.211 39.4801 947.644 45.8805 L974.218 45.84 Z" fill="#000000" fill-rule="nonzero" fill-opacity="1" /><path clip-path="url(#clip970)" d="M993.905 9.54393 L1001.36 9.54393 L1001.36 72.576 L993.905 72.576 L993.905 9.54393 Z" fill="#000000" fill-rule="nonzero" fill-opacity="1" /><path clip-path="url(#clip970)" d="M1055.76 48.0275 L1055.76 51.6733 L1021.49 51.6733 Q1021.98 59.3701 1026.11 63.421 Q1030.28 67.4314 1037.7 67.4314 Q1041.99 67.4314 1046 66.3781 Q1050.05 65.3249 1054.02 63.2184 L1054.02 70.267 Q1050.01 71.9684 1045.8 72.8596 Q1041.58 73.7508 1037.25 73.7508 Q1026.39 73.7508 1020.03 67.4314 Q1013.71 61.1119 1013.71 50.3365 Q1013.71 39.1965 1019.71 32.6746 Q1025.75 26.1121 1035.95 26.1121 Q1045.11 26.1121 1050.42 32.0264 Q1055.76 37.9003 1055.76 48.0275 M1048.31 45.84 Q1048.23 39.7232 1044.87 36.0774 Q1041.54 32.4315 1036.03 32.4315 Q1029.8 32.4315 1026.03 35.9558 Q1022.3 39.4801 1021.73 45.8805 L1048.31 45.84 Z" fill="#000000" fill-rule="nonzero" fill-opacity="1" /><path clip-path="url(#clip970)" d="M1105.71 45.1919 L1105.71 72.576 L1098.26 72.576 L1098.26 45.4349 Q1098.26 38.994 1095.74 35.7938 Q1093.23 32.5936 1088.21 32.5936 Q1082.17 32.5936 1078.69 36.4419 Q1075.21 40.2903 1075.21 46.9338 L1075.21 72.576 L1067.71 72.576 L1067.71 27.2059 L1075.21 27.2059 L1075.21 34.2544 Q1077.88 30.163 1081.49 28.1376 Q1085.13 26.1121 1089.87 26.1121 Q1097.69 26.1121 1101.7 30.9732 Q1105.71 35.7938 1105.71 45.1919 Z" fill="#000000" fill-rule="nonzero" fill-opacity="1" /><path clip-path="url(#clip970)" d="M1150.43 49.3643 Q1150.43 41.2625 1147.07 36.8065 Q1143.75 32.3505 1137.71 32.3505 Q1131.72 32.3505 1128.35 36.8065 Q1125.03 41.2625 1125.03 49.3643 Q1125.03 57.4256 1128.35 61.8816 Q1131.72 66.3376 1137.71 66.3376 Q1143.75 66.3376 1147.07 61.8816 Q1150.43 57.4256 1150.43 49.3643 M1157.89 66.9452 Q1157.89 78.5308 1152.74 84.1616 Q1147.6 89.8329 1136.98 89.8329 Q1133.05 89.8329 1129.57 89.2252 Q1126.09 88.6581 1122.81 87.4428 L1122.81 80.1917 Q1126.09 81.9741 1129.29 82.8248 Q1132.49 83.6755 1135.81 83.6755 Q1143.14 83.6755 1146.79 79.8271 Q1150.43 76.0193 1150.43 68.282 L1150.43 64.5957 Q1148.12 68.6061 1144.52 70.5911 Q1140.91 72.576 1135.89 72.576 Q1127.54 72.576 1122.44 66.2161 Q1117.34 59.8562 1117.34 49.3643 Q1117.34 38.832 1122.44 32.472 Q1127.54 26.1121 1135.89 26.1121 Q1140.91 26.1121 1144.52 28.0971 Q1148.12 30.082 1150.43 34.0924 L1150.43 27.2059 L1157.89 27.2059 L1157.89 66.9452 Z" fill="#000000" fill-rule="nonzero" fill-opacity="1" /><path clip-path="url(#clip970)" d="M1180.61 14.324 L1180.61 27.2059 L1195.96 27.2059 L1195.96 32.9987 L1180.61 32.9987 L1180.61 57.6282 Q1180.61 63.1779 1182.11 64.7578 Q1183.65 66.3376 1188.31 66.3376 L1195.96 66.3376 L1195.96 72.576 L1188.31 72.576 Q1179.68 72.576 1176.4 69.3758 Q1173.12 66.1351 1173.12 57.6282 L1173.12 32.9987 L1167.65 32.9987 L1167.65 27.2059 L1173.12 27.2059 L1173.12 14.324 L1180.61 14.324 Z" fill="#000000" fill-rule="nonzero" fill-opacity="1" /><path clip-path="url(#clip970)" d="M1243.48 45.1919 L1243.48 72.576 L1236.03 72.576 L1236.03 45.4349 Q1236.03 38.994 1233.52 35.7938 Q1231 32.5936 1225.98 32.5936 Q1219.95 32.5936 1216.46 36.4419 Q1212.98 40.2903 1212.98 46.9338 L1212.98 72.576 L1205.48 72.576 L1205.48 9.54393 L1212.98 9.54393 L1212.98 34.2544 Q1215.65 30.163 1219.26 28.1376 Q1222.9 26.1121 1227.64 26.1121 Q1235.46 26.1121 1239.47 30.9732 Q1243.48 35.7938 1243.48 45.1919 Z" fill="#000000" fill-rule="nonzero" fill-opacity="1" /><path clip-path="url(#clip970)" d="M1287.27 28.5427 L1287.27 35.5912 Q1284.11 33.9709 1280.71 33.1607 Q1277.31 32.3505 1273.66 32.3505 Q1268.11 32.3505 1265.32 34.0519 Q1262.56 35.7533 1262.56 39.156 Q1262.56 41.7486 1264.55 43.2475 Q1266.53 44.7058 1272.53 46.0426 L1275.08 46.6097 Q1283.02 48.3111 1286.34 51.4303 Q1289.7 54.509 1289.7 60.0587 Q1289.7 66.3781 1284.68 70.0644 Q1279.7 73.7508 1270.95 73.7508 Q1267.3 73.7508 1263.33 73.0216 Q1259.4 72.3329 1255.03 70.9151 L1255.03 63.2184 Q1259.16 65.3654 1263.17 66.4591 Q1267.18 67.5124 1271.11 67.5124 Q1276.37 67.5124 1279.21 65.73 Q1282.05 63.9071 1282.05 60.6258 Q1282.05 57.5877 1279.98 55.9673 Q1277.95 54.3469 1271.03 52.8481 L1268.44 52.2405 Q1261.51 50.7821 1258.43 47.7845 Q1255.35 44.7463 1255.35 39.4801 Q1255.35 33.0797 1259.89 29.5959 Q1264.42 26.1121 1272.77 26.1121 Q1276.9 26.1121 1280.55 26.7198 Q1284.19 27.3274 1287.27 28.5427 Z" fill="#000000" fill-rule="nonzero" fill-opacity="1" /><path clip-path="url(#clip970)" d="M1350.91 9.54393 L1350.91 15.7418 L1343.78 15.7418 Q1339.77 15.7418 1338.19 17.3622 Q1336.65 18.9825 1336.65 23.1955 L1336.65 27.2059 L1348.93 27.2059 L1348.93 32.9987 L1336.65 32.9987 L1336.65 72.576 L1329.16 72.576 L1329.16 32.9987 L1322.03 32.9987 L1322.03 27.2059 L1329.16 27.2059 L1329.16 24.0462 Q1329.16 16.471 1332.68 13.0277 Q1336.21 9.54393 1343.86 9.54393 L1350.91 9.54393 Z" fill="#000000" fill-rule="nonzero" fill-opacity="1" /><path clip-path="url(#clip970)" d="M1374.73 32.4315 Q1368.74 32.4315 1365.25 37.1306 Q1361.77 41.7891 1361.77 49.9314 Q1361.77 58.0738 1365.21 62.7728 Q1368.69 67.4314 1374.73 67.4314 Q1380.69 67.4314 1384.17 62.7323 Q1387.65 58.0333 1387.65 49.9314 Q1387.65 41.8701 1384.17 37.1711 Q1380.69 32.4315 1374.73 32.4315 M1374.73 26.1121 Q1384.45 26.1121 1390 32.4315 Q1395.55 38.7509 1395.55 49.9314 Q1395.55 61.0714 1390 67.4314 Q1384.45 73.7508 1374.73 73.7508 Q1364.97 73.7508 1359.42 67.4314 Q1353.91 61.0714 1353.91 49.9314 Q1353.91 38.7509 1359.42 32.4315 Q1364.97 26.1121 1374.73 26.1121 Z" fill="#000000" fill-rule="nonzero" fill-opacity="1" /><path clip-path="url(#clip970)" d="M1434.2 34.1734 Q1432.94 33.4443 1431.44 33.1202 Q1429.99 32.7556 1428.2 32.7556 Q1421.88 32.7556 1418.48 36.8875 Q1415.12 40.9789 1415.12 48.6757 L1415.12 72.576 L1407.62 72.576 L1407.62 27.2059 L1415.12 27.2059 L1415.12 34.2544 Q1417.47 30.1225 1421.24 28.1376 Q1425 26.1121 1430.39 26.1121 Q1431.16 26.1121 1432.09 26.2337 Q1433.02 26.3147 1434.16 26.5172 L1434.2 34.1734 Z" fill="#000000" fill-rule="nonzero" fill-opacity="1" /><path clip-path="url(#clip970)" d="M1498.24 49.3643 Q1498.24 41.2625 1494.88 36.8065 Q1491.56 32.3505 1485.52 32.3505 Q1479.53 32.3505 1476.17 36.8065 Q1472.84 41.2625 1472.84 49.3643 Q1472.84 57.4256 1476.17 61.8816 Q1479.53 66.3376 1485.52 66.3376 Q1491.56 66.3376 1494.88 61.8816 Q1498.24 57.4256 1498.24 49.3643 M1505.7 66.9452 Q1505.7 78.5308 1500.55 84.1616 Q1495.41 89.8329 1484.79 89.8329 Q1480.86 89.8329 1477.38 89.2252 Q1473.9 88.6581 1470.62 87.4428 L1470.62 80.1917 Q1473.9 81.9741 1477.1 82.8248 Q1480.3 83.6755 1483.62 83.6755 Q1490.95 83.6755 1494.6 79.8271 Q1498.24 76.0193 1498.24 68.282 L1498.24 64.5957 Q1495.93 68.6061 1492.33 70.5911 Q1488.72 72.576 1483.7 72.576 Q1475.36 72.576 1470.25 66.2161 Q1465.15 59.8562 1465.15 49.3643 Q1465.15 38.832 1470.25 32.472 Q1475.36 26.1121 1483.7 26.1121 Q1488.72 26.1121 1492.33 28.0971 Q1495.93 30.082 1498.24 34.0924 L1498.24 27.2059 L1505.7 27.2059 L1505.7 66.9452 Z" fill="#000000" fill-rule="nonzero" fill-opacity="1" /><path clip-path="url(#clip970)" d="M1521.05 27.2059 L1528.5 27.2059 L1528.5 72.576 L1521.05 72.576 L1521.05 27.2059 M1521.05 9.54393 L1528.5 9.54393 L1528.5 18.9825 L1521.05 18.9825 L1521.05 9.54393 Z" fill="#000000" fill-rule="nonzero" fill-opacity="1" /><path clip-path="url(#clip970)" d="M1538.75 27.2059 L1546.65 27.2059 L1560.83 65.2844 L1575.01 27.2059 L1582.91 27.2059 L1565.89 72.576 L1555.77 72.576 L1538.75 27.2059 Z" fill="#000000" fill-rule="nonzero" fill-opacity="1" /><path clip-path="url(#clip970)" d="M1632 48.0275 L1632 51.6733 L1597.73 51.6733 Q1598.22 59.3701 1602.35 63.421 Q1606.52 67.4314 1613.94 67.4314 Q1618.23 67.4314 1622.24 66.3781 Q1626.29 65.3249 1630.26 63.2184 L1630.26 70.267 Q1626.25 71.9684 1622.04 72.8596 Q1617.83 73.7508 1613.49 73.7508 Q1602.63 73.7508 1596.27 67.4314 Q1589.96 61.1119 1589.96 50.3365 Q1589.96 39.1965 1595.95 32.6746 Q1601.99 26.1121 1612.19 26.1121 Q1621.35 26.1121 1626.66 32.0264 Q1632 37.9003 1632 48.0275 M1624.55 45.84 Q1624.47 39.7232 1621.11 36.0774 Q1617.79 32.4315 1612.28 32.4315 Q1606.04 32.4315 1602.27 35.9558 Q1598.54 39.4801 1597.98 45.8805 L1624.55 45.84 Z" fill="#000000" fill-rule="nonzero" fill-opacity="1" /><path clip-path="url(#clip970)" d="M1681.95 45.1919 L1681.95 72.576 L1674.5 72.576 L1674.5 45.4349 Q1674.5 38.994 1671.99 35.7938 Q1669.47 32.5936 1664.45 32.5936 Q1658.42 32.5936 1654.93 36.4419 Q1651.45 40.2903 1651.45 46.9338 L1651.45 72.576 L1643.95 72.576 L1643.95 27.2059 L1651.45 27.2059 L1651.45 34.2544 Q1654.12 30.163 1657.73 28.1376 Q1661.37 26.1121 1666.11 26.1121 Q1673.93 26.1121 1677.94 30.9732 Q1681.95 35.7938 1681.95 45.1919 Z" fill="#000000" fill-rule="nonzero" fill-opacity="1" /><path clip-path="url(#clip970)" d="M1746.16 9.54393 L1746.16 15.7418 L1739.03 15.7418 Q1735.02 15.7418 1733.44 17.3622 Q1731.9 18.9825 1731.9 23.1955 L1731.9 27.2059 L1744.17 27.2059 L1744.17 32.9987 L1731.9 32.9987 L1731.9 72.576 L1724.4 72.576 L1724.4 32.9987 L1717.28 32.9987 L1717.28 27.2059 L1724.4 27.2059 L1724.4 24.0462 Q1724.4 16.471 1727.93 13.0277 Q1731.45 9.54393 1739.11 9.54393 L1746.16 9.54393 Z" fill="#000000" fill-rule="nonzero" fill-opacity="1" /><path clip-path="url(#clip970)" d="M1778.69 34.1734 Q1777.43 33.4443 1775.93 33.1202 Q1774.47 32.7556 1772.69 32.7556 Q1766.37 32.7556 1762.97 36.8875 Q1759.61 40.9789 1759.61 48.6757 L1759.61 72.576 L1752.11 72.576 L1752.11 27.2059 L1759.61 27.2059 L1759.61 34.2544 Q1761.96 30.1225 1765.72 28.1376 Q1769.49 26.1121 1774.88 26.1121 Q1775.65 26.1121 1776.58 26.2337 Q1777.51 26.3147 1778.65 26.5172 L1778.69 34.1734 Z" fill="#000000" fill-rule="nonzero" fill-opacity="1" /><path clip-path="url(#clip970)" d="M1823.49 48.0275 L1823.49 51.6733 L1789.22 51.6733 Q1789.71 59.3701 1793.84 63.421 Q1798.01 67.4314 1805.42 67.4314 Q1809.72 67.4314 1813.73 66.3781 Q1817.78 65.3249 1821.75 63.2184 L1821.75 70.267 Q1817.74 71.9684 1813.52 72.8596 Q1809.31 73.7508 1804.98 73.7508 Q1794.12 73.7508 1787.76 67.4314 Q1781.44 61.1119 1781.44 50.3365 Q1781.44 39.1965 1787.44 32.6746 Q1793.47 26.1121 1803.68 26.1121 Q1812.84 26.1121 1818.14 32.0264 Q1823.49 37.9003 1823.49 48.0275 M1816.04 45.84 Q1815.96 39.7232 1812.59 36.0774 Q1809.27 32.4315 1803.76 32.4315 Q1797.52 32.4315 1793.76 35.9558 Q1790.03 39.4801 1789.46 45.8805 L1816.04 45.84 Z" fill="#000000" fill-rule="nonzero" fill-opacity="1" /><path clip-path="url(#clip970)" d="M1840.18 49.9314 Q1840.18 58.1548 1843.54 62.8538 Q1846.94 67.5124 1852.86 67.5124 Q1858.77 67.5124 1862.18 62.8538 Q1865.58 58.1548 1865.58 49.9314 Q1865.58 41.7081 1862.18 37.0496 Q1858.77 32.3505 1852.86 32.3505 Q1846.94 32.3505 1843.54 37.0496 Q1840.18 41.7081 1840.18 49.9314 M1865.58 65.7705 Q1863.23 69.8214 1859.62 71.8063 Q1856.06 73.7508 1851.04 73.7508 Q1842.81 73.7508 1837.63 67.1883 Q1832.48 60.6258 1832.48 49.9314 Q1832.48 39.2371 1837.63 32.6746 Q1842.81 26.1121 1851.04 26.1121 Q1856.06 26.1121 1859.62 28.0971 Q1863.23 30.0415 1865.58 34.0924 L1865.58 27.2059 L1873.03 27.2059 L1873.03 89.8329 L1865.58 89.8329 L1865.58 65.7705 Z" fill="#000000" fill-rule="nonzero" fill-opacity="1" /><path clip-path="url(#clip970)" d="M1887.62 54.671 L1887.62 27.2059 L1895.07 27.2059 L1895.07 54.3874 Q1895.07 60.8284 1897.58 64.0691 Q1900.09 67.2693 1905.12 67.2693 Q1911.15 67.2693 1914.64 63.421 Q1918.16 59.5726 1918.16 52.9291 L1918.16 27.2059 L1925.61 27.2059 L1925.61 72.576 L1918.16 72.576 L1918.16 65.6084 Q1915.45 69.7404 1911.84 71.7658 Q1908.28 73.7508 1903.54 73.7508 Q1895.72 73.7508 1891.67 68.8897 Q1887.62 64.0286 1887.62 54.671 M1906.37 26.1121 L1906.37 26.1121 Z" fill="#000000" fill-rule="nonzero" fill-opacity="1" /><path clip-path="url(#clip970)" d="M1979.77 48.0275 L1979.77 51.6733 L1945.5 51.6733 Q1945.99 59.3701 1950.12 63.421 Q1954.29 67.4314 1961.71 67.4314 Q1966 67.4314 1970.01 66.3781 Q1974.06 65.3249 1978.03 63.2184 L1978.03 70.267 Q1974.02 71.9684 1969.81 72.8596 Q1965.6 73.7508 1961.26 73.7508 Q1950.4 73.7508 1944.04 67.4314 Q1937.73 61.1119 1937.73 50.3365 Q1937.73 39.1965 1943.72 32.6746 Q1949.76 26.1121 1959.96 26.1121 Q1969.12 26.1121 1974.43 32.0264 Q1979.77 37.9003 1979.77 48.0275 M1972.32 45.84 Q1972.24 39.7232 1968.88 36.0774 Q1965.56 32.4315 1960.05 32.4315 Q1953.81 32.4315 1950.04 35.9558 Q1946.31 39.4801 1945.75 45.8805 L1972.32 45.84 Z" fill="#000000" fill-rule="nonzero" fill-opacity="1" /><path clip-path="url(#clip970)" d="M2029.72 45.1919 L2029.72 72.576 L2022.27 72.576 L2022.27 45.4349 Q2022.27 38.994 2019.76 35.7938 Q2017.24 32.5936 2012.22 32.5936 Q2006.19 32.5936 2002.7 36.4419 Q1999.22 40.2903 1999.22 46.9338 L1999.22 72.576 L1991.72 72.576 L1991.72 27.2059 L1999.22 27.2059 L1999.22 34.2544 Q2001.89 30.163 2005.5 28.1376 Q2009.14 26.1121 2013.88 26.1121 Q2021.7 26.1121 2025.71 30.9732 Q2029.72 35.7938 2029.72 45.1919 Z" fill="#000000" fill-rule="nonzero" fill-opacity="1" /><path clip-path="url(#clip970)" d="M2077.24 28.9478 L2077.24 35.9153 Q2074.08 34.1734 2070.88 33.3227 Q2067.72 32.4315 2064.48 32.4315 Q2057.23 32.4315 2053.22 37.0496 Q2049.21 41.6271 2049.21 49.9314 Q2049.21 58.2358 2053.22 62.8538 Q2057.23 67.4314 2064.48 67.4314 Q2067.72 67.4314 2070.88 66.5807 Q2074.08 65.6895 2077.24 63.9476 L2077.24 70.8341 Q2074.12 72.2924 2070.76 73.0216 Q2067.44 73.7508 2063.67 73.7508 Q2053.42 73.7508 2047.38 67.3098 Q2041.35 60.8689 2041.35 49.9314 Q2041.35 38.832 2047.42 32.472 Q2053.54 26.1121 2064.15 26.1121 Q2067.6 26.1121 2070.88 26.8413 Q2074.16 27.5299 2077.24 28.9478 Z" fill="#000000" fill-rule="nonzero" fill-opacity="1" /><path clip-path="url(#clip970)" d="M2090.2 27.2059 L2097.66 27.2059 L2097.66 72.576 L2090.2 72.576 L2090.2 27.2059 M2090.2 9.54393 L2097.66 9.54393 L2097.66 18.9825 L2090.2 18.9825 L2090.2 9.54393 Z" fill="#000000" fill-rule="nonzero" fill-opacity="1" /><path clip-path="url(#clip970)" d="M2152.06 48.0275 L2152.06 51.6733 L2117.79 51.6733 Q2118.27 59.3701 2122.41 63.421 Q2126.58 67.4314 2133.99 67.4314 Q2138.29 67.4314 2142.3 66.3781 Q2146.35 65.3249 2150.32 63.2184 L2150.32 70.267 Q2146.31 71.9684 2142.09 72.8596 Q2137.88 73.7508 2133.55 73.7508 Q2122.69 73.7508 2116.33 67.4314 Q2110.01 61.1119 2110.01 50.3365 Q2110.01 39.1965 2116.01 32.6746 Q2122.04 26.1121 2132.25 26.1121 Q2141.4 26.1121 2146.71 32.0264 Q2152.06 37.9003 2152.06 48.0275 M2144.61 45.84 Q2144.52 39.7232 2141.16 36.0774 Q2137.84 32.4315 2132.33 32.4315 Q2126.09 32.4315 2122.33 35.9558 Q2118.6 39.4801 2118.03 45.8805 L2144.61 45.84 Z" fill="#000000" fill-rule="nonzero" fill-opacity="1" /><path clip-path="url(#clip970)" d="M2193.22 28.5427 L2193.22 35.5912 Q2190.06 33.9709 2186.65 33.1607 Q2183.25 32.3505 2179.6 32.3505 Q2174.06 32.3505 2171.26 34.0519 Q2168.51 35.7533 2168.51 39.156 Q2168.51 41.7486 2170.49 43.2475 Q2172.48 44.7058 2178.47 46.0426 L2181.02 46.6097 Q2188.96 48.3111 2192.28 51.4303 Q2195.65 54.509 2195.65 60.0587 Q2195.65 66.3781 2190.62 70.0644 Q2185.64 73.7508 2176.89 73.7508 Q2173.24 73.7508 2169.28 73.0216 Q2165.35 72.3329 2160.97 70.9151 L2160.97 63.2184 Q2165.1 65.3654 2169.11 66.4591 Q2173.12 67.5124 2177.05 67.5124 Q2182.32 67.5124 2185.15 65.73 Q2187.99 63.9071 2187.99 60.6258 Q2187.99 57.5877 2185.92 55.9673 Q2183.9 54.3469 2176.97 52.8481 L2174.38 52.2405 Q2167.45 50.7821 2164.37 47.7845 Q2161.29 44.7463 2161.29 39.4801 Q2161.29 33.0797 2165.83 29.5959 Q2170.37 26.1121 2178.71 26.1121 Q2182.85 26.1121 2186.49 26.7198 Q2190.14 27.3274 2193.22 28.5427 Z" fill="#000000" fill-rule="nonzero" fill-opacity="1" /><circle clip-path="url(#clip972)" cx="265.251" cy="160.256" r="14.4" fill="#009af9" fill-rule="evenodd" fill-opacity="1" stroke="#000000" stroke-opacity="1" stroke-width="3.2"/>
<circle clip-path="url(#clip972)" cx="1467.96" cy="1066.53" r="14.4" fill="#009af9" fill-rule="evenodd" fill-opacity="1" stroke="#000000" stroke-opacity="1" stroke-width="3.2"/>
<circle clip-path="url(#clip972)" cx="2291.95" cy="1386.4" r="14.4" fill="#009af9" fill-rule="evenodd" fill-opacity="1" stroke="#000000" stroke-opacity="1" stroke-width="3.2"/>
</svg>
