<?xml version="1.0" encoding="utf-8"?>
<svg xmlns="http://www.w3.org/2000/svg" xmlns:xlink="http://www.w3.org/1999/xlink" width="600" height="400" viewBox="0 0 2400 1600">
<defs>
  <clipPath id="clip000">
    <rect x="0" y="0" width="2400" height="1600"/>
  </clipPath>
</defs>
<path clip-path="url(#clip000)" d="M0 1600 L2400 1600 L2400 0 L0 0  Z" fill="#ffffff" fill-rule="evenodd" fill-opacity="1"/>
<defs>
  <clipPath id="clip001">
    <rect x="480" y="0" width="1681" height="1600"/>
  </clipPath>
</defs>
<path clip-path="url(#clip000)" d="M217.783 1423.18 L2352.76 1423.18 L2352.76 123.472 L217.783 123.472  Z" fill="#ffffff" fill-rule="evenodd" fill-opacity="1"/>
<defs>
  <clipPath id="clip002">
    <rect x="217" y="123" width="2136" height="1301"/>
  </clipPath>
</defs>
<polyline clip-path="url(#clip002)" style="stroke:#000000; stroke-linecap:round; stroke-linejoin:round; stroke-width:2; stroke-opacity:0.1; fill:none" points="629.748,1423.18 629.748,123.472 "/>
<polyline clip-path="url(#clip002)" style="stroke:#000000; stroke-linecap:round; stroke-linejoin:round; stroke-width:2; stroke-opacity:0.1; fill:none" points="1043.33,1423.18 1043.33,123.472 "/>
<polyline clip-path="url(#clip002)" style="stroke:#000000; stroke-linecap:round; stroke-linejoin:round; stroke-width:2; stroke-opacity:0.1; fill:none" points="1456.9,1423.18 1456.9,123.472 "/>
<polyline clip-path="url(#clip002)" style="stroke:#000000; stroke-linecap:round; stroke-linejoin:round; stroke-width:2; stroke-opacity:0.1; fill:none" points="1870.48,1423.18 1870.48,123.472 "/>
<polyline clip-path="url(#clip002)" style="stroke:#000000; stroke-linecap:round; stroke-linejoin:round; stroke-width:2; stroke-opacity:0.1; fill:none" points="2284.06,1423.18 2284.06,123.472 "/>
<polyline clip-path="url(#clip002)" style="stroke:#000000; stroke-linecap:round; stroke-linejoin:round; stroke-width:2; stroke-opacity:0.1; fill:none" points="217.783,1343.7 2352.76,1343.7 "/>
<polyline clip-path="url(#clip002)" style="stroke:#000000; stroke-linecap:round; stroke-linejoin:round; stroke-width:2; stroke-opacity:0.1; fill:none" points="217.783,1016.37 2352.76,1016.37 "/>
<polyline clip-path="url(#clip002)" style="stroke:#000000; stroke-linecap:round; stroke-linejoin:round; stroke-width:2; stroke-opacity:0.1; fill:none" points="217.783,689.035 2352.76,689.035 "/>
<polyline clip-path="url(#clip002)" style="stroke:#000000; stroke-linecap:round; stroke-linejoin:round; stroke-width:2; stroke-opacity:0.1; fill:none" points="217.783,361.702 2352.76,361.702 "/>
<polyline clip-path="url(#clip000)" style="stroke:#000000; stroke-linecap:round; stroke-linejoin:round; stroke-width:4; stroke-opacity:1; fill:none" points="217.783,1423.18 2352.76,1423.18 "/>
<polyline clip-path="url(#clip000)" style="stroke:#000000; stroke-linecap:round; stroke-linejoin:round; stroke-width:4; stroke-opacity:1; fill:none" points="629.748,1423.18 629.748,1404.28 "/>
<polyline clip-path="url(#clip000)" style="stroke:#000000; stroke-linecap:round; stroke-linejoin:round; stroke-width:4; stroke-opacity:1; fill:none" points="1043.33,1423.18 1043.33,1404.28 "/>
<polyline clip-path="url(#clip000)" style="stroke:#000000; stroke-linecap:round; stroke-linejoin:round; stroke-width:4; stroke-opacity:1; fill:none" points="1456.9,1423.18 1456.9,1404.28 "/>
<polyline clip-path="url(#clip000)" style="stroke:#000000; stroke-linecap:round; stroke-linejoin:round; stroke-width:4; stroke-opacity:1; fill:none" points="1870.48,1423.18 1870.48,1404.28 "/>
<polyline clip-path="url(#clip000)" style="stroke:#000000; stroke-linecap:round; stroke-linejoin:round; stroke-width:4; stroke-opacity:1; fill:none" points="2284.06,1423.18 2284.06,1404.28 "/>
<path clip-path="url(#clip000)" d="M602.839 1455.09 L591.033 1473.54 L602.839 1473.54 L602.839 1455.09 M601.612 1451.02 L607.491 1451.02 L607.491 1473.54 L612.422 1473.54 L612.422 1477.43 L607.491 1477.43 L607.491 1485.58 L602.839 1485.58 L602.839 1477.43 L587.237 1477.43 L587.237 1472.92 L601.612 1451.02 Z" fill="#000000" fill-rule="nonzero" fill-opacity="1" /><path clip-path="url(#clip000)" d="M630.153 1454.1 Q626.542 1454.1 624.713 1457.66 Q622.908 1461.2 622.908 1468.33 Q622.908 1475.44 624.713 1479.01 Q626.542 1482.55 630.153 1482.55 Q633.787 1482.55 635.593 1479.01 Q637.422 1475.44 637.422 1468.33 Q637.422 1461.2 635.593 1457.66 Q633.787 1454.1 630.153 1454.1 M630.153 1450.39 Q635.963 1450.39 639.019 1455 Q642.098 1459.58 642.098 1468.33 Q642.098 1477.06 639.019 1481.67 Q635.963 1486.25 630.153 1486.25 Q624.343 1486.25 621.264 1481.67 Q618.209 1477.06 618.209 1468.33 Q618.209 1459.58 621.264 1455 Q624.343 1450.39 630.153 1450.39 Z" fill="#000000" fill-rule="nonzero" fill-opacity="1" /><path clip-path="url(#clip000)" d="M660.315 1454.1 Q656.704 1454.1 654.875 1457.66 Q653.07 1461.2 653.07 1468.33 Q653.07 1475.44 654.875 1479.01 Q656.704 1482.55 660.315 1482.55 Q663.949 1482.55 665.755 1479.01 Q667.584 1475.44 667.584 1468.33 Q667.584 1461.2 665.755 1457.66 Q663.949 1454.1 660.315 1454.1 M660.315 1450.39 Q666.125 1450.39 669.181 1455 Q672.259 1459.58 672.259 1468.33 Q672.259 1477.06 669.181 1481.67 Q666.125 1486.25 660.315 1486.25 Q654.505 1486.25 651.426 1481.67 Q648.371 1477.06 648.371 1468.33 Q648.371 1459.58 651.426 1455 Q654.505 1450.39 660.315 1450.39 Z" fill="#000000" fill-rule="nonzero" fill-opacity="1" /><path clip-path="url(#clip000)" d="M1016.42 1455.09 L1004.61 1473.54 L1016.42 1473.54 L1016.42 1455.09 M1015.19 1451.02 L1021.07 1451.02 L1021.07 1473.54 L1026 1473.54 L1026 1477.43 L1021.07 1477.43 L1021.07 1485.58 L1016.42 1485.58 L1016.42 1477.43 L1000.81 1477.43 L1000.81 1472.92 L1015.19 1451.02 Z" fill="#000000" fill-rule="nonzero" fill-opacity="1" /><path clip-path="url(#clip000)" d="M1037.76 1481.64 L1054.08 1481.64 L1054.08 1485.58 L1032.13 1485.58 L1032.13 1481.64 Q1034.8 1478.89 1039.38 1474.26 Q1043.99 1469.61 1045.17 1468.27 Q1047.41 1465.74 1048.29 1464.01 Q1049.19 1462.25 1049.19 1460.56 Q1049.19 1457.8 1047.25 1456.07 Q1045.33 1454.33 1042.23 1454.33 Q1040.03 1454.33 1037.57 1455.09 Q1035.14 1455.86 1032.37 1457.41 L1032.37 1452.69 Q1035.19 1451.55 1037.64 1450.97 Q1040.1 1450.39 1042.13 1450.39 Q1047.5 1450.39 1050.7 1453.08 Q1053.89 1455.77 1053.89 1460.26 Q1053.89 1462.39 1053.08 1464.31 Q1052.3 1466.2 1050.19 1468.8 Q1049.61 1469.47 1046.51 1472.69 Q1043.41 1475.88 1037.76 1481.64 Z" fill="#000000" fill-rule="nonzero" fill-opacity="1" /><path clip-path="url(#clip000)" d="M1073.89 1454.1 Q1070.28 1454.1 1068.45 1457.66 Q1066.65 1461.2 1066.65 1468.33 Q1066.65 1475.44 1068.45 1479.01 Q1070.28 1482.55 1073.89 1482.55 Q1077.53 1482.55 1079.33 1479.01 Q1081.16 1475.44 1081.16 1468.33 Q1081.16 1461.2 1079.33 1457.66 Q1077.53 1454.1 1073.89 1454.1 M1073.89 1450.39 Q1079.7 1450.39 1082.76 1455 Q1085.84 1459.58 1085.84 1468.33 Q1085.84 1477.06 1082.76 1481.67 Q1079.7 1486.25 1073.89 1486.25 Q1068.08 1486.25 1065 1481.67 Q1061.95 1477.06 1061.95 1468.33 Q1061.95 1459.58 1065 1455 Q1068.08 1450.39 1073.89 1450.39 Z" fill="#000000" fill-rule="nonzero" fill-opacity="1" /><path clip-path="url(#clip000)" d="M1429.99 1455.09 L1418.19 1473.54 L1429.99 1473.54 L1429.99 1455.09 M1428.77 1451.02 L1434.65 1451.02 L1434.65 1473.54 L1439.58 1473.54 L1439.58 1477.43 L1434.65 1477.43 L1434.65 1485.58 L1429.99 1485.58 L1429.99 1477.43 L1414.39 1477.43 L1414.39 1472.92 L1428.77 1451.02 Z" fill="#000000" fill-rule="nonzero" fill-opacity="1" /><path clip-path="url(#clip000)" d="M1460.16 1455.09 L1448.35 1473.54 L1460.16 1473.54 L1460.16 1455.09 M1458.93 1451.02 L1464.81 1451.02 L1464.81 1473.54 L1469.74 1473.54 L1469.74 1477.43 L1464.81 1477.43 L1464.81 1485.58 L1460.16 1485.58 L1460.16 1477.43 L1444.55 1477.43 L1444.55 1472.92 L1458.93 1451.02 Z" fill="#000000" fill-rule="nonzero" fill-opacity="1" /><path clip-path="url(#clip000)" d="M1487.47 1454.1 Q1483.86 1454.1 1482.03 1457.66 Q1480.23 1461.2 1480.23 1468.33 Q1480.23 1475.44 1482.03 1479.01 Q1483.86 1482.55 1487.47 1482.55 Q1491.11 1482.55 1492.91 1479.01 Q1494.74 1475.44 1494.74 1468.33 Q1494.74 1461.2 1492.91 1457.66 Q1491.11 1454.1 1487.47 1454.1 M1487.47 1450.39 Q1493.28 1450.39 1496.34 1455 Q1499.42 1459.58 1499.42 1468.33 Q1499.42 1477.06 1496.34 1481.67 Q1493.28 1486.25 1487.47 1486.25 Q1481.66 1486.25 1478.58 1481.67 Q1475.53 1477.06 1475.53 1468.33 Q1475.53 1459.58 1478.58 1455 Q1481.66 1450.39 1487.47 1450.39 Z" fill="#000000" fill-rule="nonzero" fill-opacity="1" /><path clip-path="url(#clip000)" d="M1843.57 1455.09 L1831.77 1473.54 L1843.57 1473.54 L1843.57 1455.09 M1842.35 1451.02 L1848.23 1451.02 L1848.23 1473.54 L1853.16 1473.54 L1853.16 1477.43 L1848.23 1477.43 L1848.23 1485.58 L1843.57 1485.58 L1843.57 1477.43 L1827.97 1477.43 L1827.97 1472.92 L1842.35 1451.02 Z" fill="#000000" fill-rule="nonzero" fill-opacity="1" /><path clip-path="url(#clip000)" d="M1871.47 1466.44 Q1868.32 1466.44 1866.47 1468.59 Q1864.64 1470.74 1864.64 1474.49 Q1864.64 1478.22 1866.47 1480.39 Q1868.32 1482.55 1871.47 1482.55 Q1874.61 1482.55 1876.44 1480.39 Q1878.29 1478.22 1878.29 1474.49 Q1878.29 1470.74 1876.44 1468.59 Q1874.61 1466.44 1871.47 1466.44 M1880.75 1451.78 L1880.75 1456.04 Q1878.99 1455.21 1877.18 1454.77 Q1875.4 1454.33 1873.64 1454.33 Q1869.01 1454.33 1866.56 1457.45 Q1864.13 1460.58 1863.78 1466.9 Q1865.15 1464.89 1867.21 1463.82 Q1869.27 1462.73 1871.74 1462.73 Q1876.95 1462.73 1879.96 1465.9 Q1882.99 1469.05 1882.99 1474.49 Q1882.99 1479.82 1879.85 1483.03 Q1876.7 1486.25 1871.47 1486.25 Q1865.47 1486.25 1862.3 1481.67 Q1859.13 1477.06 1859.13 1468.33 Q1859.13 1460.14 1863.02 1455.28 Q1866.91 1450.39 1873.46 1450.39 Q1875.22 1450.39 1877 1450.74 Q1878.8 1451.09 1880.75 1451.78 Z" fill="#000000" fill-rule="nonzero" fill-opacity="1" /><path clip-path="url(#clip000)" d="M1901.05 1454.1 Q1897.44 1454.1 1895.61 1457.66 Q1893.8 1461.2 1893.8 1468.33 Q1893.8 1475.44 1895.61 1479.01 Q1897.44 1482.55 1901.05 1482.55 Q1904.68 1482.55 1906.49 1479.01 Q1908.32 1475.44 1908.32 1468.33 Q1908.32 1461.2 1906.49 1457.66 Q1904.68 1454.1 1901.05 1454.1 M1901.05 1450.39 Q1906.86 1450.39 1909.92 1455 Q1912.99 1459.58 1912.99 1468.33 Q1912.99 1477.06 1909.92 1481.67 Q1906.86 1486.25 1901.05 1486.25 Q1895.24 1486.25 1892.16 1481.67 Q1889.11 1477.06 1889.11 1468.33 Q1889.11 1459.58 1892.16 1455 Q1895.24 1450.39 1901.05 1450.39 Z" fill="#000000" fill-rule="nonzero" fill-opacity="1" /><path clip-path="url(#clip000)" d="M2257.15 1455.09 L2245.35 1473.54 L2257.15 1473.54 L2257.15 1455.09 M2255.92 1451.02 L2261.8 1451.02 L2261.8 1473.54 L2266.73 1473.54 L2266.73 1477.43 L2261.8 1477.43 L2261.8 1485.58 L2257.15 1485.58 L2257.15 1477.43 L2241.55 1477.43 L2241.55 1472.92 L2255.92 1451.02 Z" fill="#000000" fill-rule="nonzero" fill-opacity="1" /><path clip-path="url(#clip000)" d="M2284.47 1469.17 Q2281.13 1469.17 2279.21 1470.95 Q2277.31 1472.73 2277.31 1475.86 Q2277.31 1478.98 2279.21 1480.77 Q2281.13 1482.55 2284.47 1482.55 Q2287.8 1482.55 2289.72 1480.77 Q2291.64 1478.96 2291.64 1475.86 Q2291.64 1472.73 2289.72 1470.95 Q2287.82 1469.17 2284.47 1469.17 M2279.79 1467.18 Q2276.78 1466.44 2275.09 1464.38 Q2273.42 1462.32 2273.42 1459.35 Q2273.42 1455.21 2276.36 1452.8 Q2279.33 1450.39 2284.47 1450.39 Q2289.63 1450.39 2292.57 1452.8 Q2295.51 1455.21 2295.51 1459.35 Q2295.51 1462.32 2293.82 1464.38 Q2292.15 1466.44 2289.16 1467.18 Q2292.54 1467.96 2294.42 1470.26 Q2296.32 1472.55 2296.32 1475.86 Q2296.32 1480.88 2293.24 1483.57 Q2290.18 1486.25 2284.47 1486.25 Q2278.75 1486.25 2275.67 1483.57 Q2272.61 1480.88 2272.61 1475.86 Q2272.61 1472.55 2274.51 1470.26 Q2276.41 1467.96 2279.79 1467.18 M2278.08 1459.79 Q2278.08 1462.48 2279.74 1463.98 Q2281.43 1465.49 2284.47 1465.49 Q2287.47 1465.49 2289.16 1463.98 Q2290.88 1462.48 2290.88 1459.79 Q2290.88 1457.11 2289.16 1455.6 Q2287.47 1454.1 2284.47 1454.1 Q2281.43 1454.1 2279.74 1455.6 Q2278.08 1457.11 2278.08 1459.79 Z" fill="#000000" fill-rule="nonzero" fill-opacity="1" /><path clip-path="url(#clip000)" d="M2314.63 1454.1 Q2311.02 1454.1 2309.19 1457.66 Q2307.38 1461.2 2307.38 1468.33 Q2307.38 1475.44 2309.19 1479.01 Q2311.02 1482.55 2314.63 1482.55 Q2318.26 1482.55 2320.07 1479.01 Q2321.9 1475.44 2321.9 1468.33 Q2321.9 1461.2 2320.07 1457.66 Q2318.26 1454.1 2314.63 1454.1 M2314.63 1450.39 Q2320.44 1450.39 2323.49 1455 Q2326.57 1459.58 2326.57 1468.33 Q2326.57 1477.06 2323.49 1481.67 Q2320.44 1486.25 2314.63 1486.25 Q2308.82 1486.25 2305.74 1481.67 Q2302.68 1477.06 2302.68 1468.33 Q2302.68 1459.58 2305.74 1455 Q2308.82 1450.39 2314.63 1450.39 Z" fill="#000000" fill-rule="nonzero" fill-opacity="1" /><path clip-path="url(#clip000)" d="M1070.63 1518.52 L1070.63 1523.39 L1065.03 1523.39 Q1061.88 1523.39 1060.64 1524.66 Q1059.43 1525.93 1059.43 1529.24 L1059.43 1532.4 L1069.07 1532.4 L1069.07 1536.95 L1059.43 1536.95 L1059.43 1568.04 L1053.54 1568.04 L1053.54 1536.95 L1047.94 1536.95 L1047.94 1532.4 L1053.54 1532.4 L1053.54 1529.91 Q1053.54 1523.96 1056.31 1521.26 Q1059.08 1518.52 1065.1 1518.52 L1070.63 1518.52 Z" fill="#000000" fill-rule="nonzero" fill-opacity="1" /><path clip-path="url(#clip000)" d="M1096.19 1537.87 Q1095.21 1537.3 1094.03 1537.04 Q1092.88 1536.76 1091.48 1536.76 Q1086.52 1536.76 1083.84 1540 Q1081.2 1543.22 1081.2 1549.27 L1081.2 1568.04 L1075.31 1568.04 L1075.31 1532.4 L1081.2 1532.4 L1081.2 1537.93 Q1083.05 1534.69 1086.01 1533.13 Q1088.97 1531.54 1093.2 1531.54 Q1093.8 1531.54 1094.54 1531.63 Q1095.27 1531.7 1096.16 1531.85 L1096.19 1537.87 Z" fill="#000000" fill-rule="nonzero" fill-opacity="1" /><path clip-path="url(#clip000)" d="M1131.39 1548.76 L1131.39 1551.62 L1104.47 1551.62 Q1104.85 1557.67 1108.1 1560.85 Q1111.37 1564 1117.2 1564 Q1120.57 1564 1123.72 1563.17 Q1126.91 1562.35 1130.03 1560.69 L1130.03 1566.23 Q1126.87 1567.57 1123.56 1568.27 Q1120.25 1568.97 1116.85 1568.97 Q1108.32 1568.97 1103.32 1564 Q1098.36 1559.04 1098.36 1550.57 Q1098.36 1541.82 1103.07 1536.69 Q1107.81 1531.54 1115.83 1531.54 Q1123.02 1531.54 1127.19 1536.18 Q1131.39 1540.8 1131.39 1548.76 M1125.54 1547.04 Q1125.47 1542.23 1122.83 1539.37 Q1120.22 1536.5 1115.89 1536.5 Q1110.99 1536.5 1108.03 1539.27 Q1105.1 1542.04 1104.66 1547.07 L1125.54 1547.04 Z" fill="#000000" fill-rule="nonzero" fill-opacity="1" /><path clip-path="url(#clip000)" d="M1144.51 1550.25 Q1144.51 1556.71 1147.15 1560.4 Q1149.82 1564.07 1154.47 1564.07 Q1159.12 1564.07 1161.79 1560.4 Q1164.46 1556.71 1164.46 1550.25 Q1164.46 1543.79 1161.79 1540.13 Q1159.12 1536.44 1154.47 1536.44 Q1149.82 1536.44 1147.15 1540.13 Q1144.51 1543.79 1144.51 1550.25 M1164.46 1562.7 Q1162.62 1565.88 1159.79 1567.44 Q1156.98 1568.97 1153.04 1568.97 Q1146.58 1568.97 1142.5 1563.81 Q1138.46 1558.65 1138.46 1550.25 Q1138.46 1541.85 1142.5 1536.69 Q1146.58 1531.54 1153.04 1531.54 Q1156.98 1531.54 1159.79 1533.1 Q1162.62 1534.62 1164.46 1537.81 L1164.46 1532.4 L1170.32 1532.4 L1170.32 1581.6 L1164.46 1581.6 L1164.46 1562.7 Z" fill="#000000" fill-rule="nonzero" fill-opacity="1" /><path clip-path="url(#clip000)" d="M1181.78 1553.98 L1181.78 1532.4 L1187.64 1532.4 L1187.64 1553.75 Q1187.64 1558.81 1189.61 1561.36 Q1191.58 1563.87 1195.53 1563.87 Q1200.27 1563.87 1203.01 1560.85 Q1205.78 1557.83 1205.78 1552.61 L1205.78 1532.4 L1211.63 1532.4 L1211.63 1568.04 L1205.78 1568.04 L1205.78 1562.57 Q1203.65 1565.82 1200.81 1567.41 Q1198.01 1568.97 1194.29 1568.97 Q1188.14 1568.97 1184.96 1565.15 Q1181.78 1561.33 1181.78 1553.98 M1196.52 1531.54 L1196.52 1531.54 Z" fill="#000000" fill-rule="nonzero" fill-opacity="1" /><path clip-path="url(#clip000)" d="M1254.19 1548.76 L1254.19 1551.62 L1227.26 1551.62 Q1227.64 1557.67 1230.89 1560.85 Q1234.17 1564 1239.99 1564 Q1243.37 1564 1246.52 1563.17 Q1249.7 1562.35 1252.82 1560.69 L1252.82 1566.23 Q1249.67 1567.57 1246.36 1568.27 Q1243.05 1568.97 1239.64 1568.97 Q1231.11 1568.97 1226.12 1564 Q1221.15 1559.04 1221.15 1550.57 Q1221.15 1541.82 1225.86 1536.69 Q1230.6 1531.54 1238.62 1531.54 Q1245.82 1531.54 1249.99 1536.18 Q1254.19 1540.8 1254.19 1548.76 M1248.33 1547.04 Q1248.27 1542.23 1245.63 1539.37 Q1243.02 1536.5 1238.69 1536.5 Q1233.79 1536.5 1230.83 1539.27 Q1227.9 1542.04 1227.45 1547.07 L1248.33 1547.04 Z" fill="#000000" fill-rule="nonzero" fill-opacity="1" /><path clip-path="url(#clip000)" d="M1293.43 1546.53 L1293.43 1568.04 L1287.58 1568.04 L1287.58 1546.72 Q1287.58 1541.66 1285.6 1539.14 Q1283.63 1536.63 1279.68 1536.63 Q1274.94 1536.63 1272.2 1539.65 Q1269.47 1542.68 1269.47 1547.9 L1269.47 1568.04 L1263.58 1568.04 L1263.58 1532.4 L1269.47 1532.4 L1269.47 1537.93 Q1271.57 1534.72 1274.4 1533.13 Q1277.26 1531.54 1280.99 1531.54 Q1287.13 1531.54 1290.28 1535.36 Q1293.43 1539.14 1293.43 1546.53 Z" fill="#000000" fill-rule="nonzero" fill-opacity="1" /><path clip-path="url(#clip000)" d="M1330.77 1533.76 L1330.77 1539.24 Q1328.29 1537.87 1325.77 1537.2 Q1323.29 1536.5 1320.74 1536.5 Q1315.05 1536.5 1311.89 1540.13 Q1308.74 1543.73 1308.74 1550.25 Q1308.74 1556.78 1311.89 1560.4 Q1315.05 1564 1320.74 1564 Q1323.29 1564 1325.77 1563.33 Q1328.29 1562.63 1330.77 1561.26 L1330.77 1566.68 Q1328.32 1567.82 1325.68 1568.39 Q1323.07 1568.97 1320.11 1568.97 Q1312.05 1568.97 1307.31 1563.91 Q1302.57 1558.85 1302.57 1550.25 Q1302.57 1541.53 1307.34 1536.53 Q1312.15 1531.54 1320.49 1531.54 Q1323.19 1531.54 1325.77 1532.11 Q1328.35 1532.65 1330.77 1533.76 Z" fill="#000000" fill-rule="nonzero" fill-opacity="1" /><path clip-path="url(#clip000)" d="M1355.79 1571.35 Q1353.3 1577.72 1350.95 1579.66 Q1348.59 1581.6 1344.65 1581.6 L1339.97 1581.6 L1339.97 1576.7 L1343.4 1576.7 Q1345.82 1576.7 1347.16 1575.56 Q1348.5 1574.41 1350.12 1570.14 L1351.17 1567.47 L1336.75 1532.4 L1342.96 1532.4 L1354.1 1560.28 L1365.24 1532.4 L1371.45 1532.4 L1355.79 1571.35 Z" fill="#000000" fill-rule="nonzero" fill-opacity="1" /><path clip-path="url(#clip000)" d="M1414.32 1518.58 Q1410.05 1525.9 1407.98 1533.06 Q1405.92 1540.23 1405.92 1547.58 Q1405.92 1554.93 1407.98 1562.16 Q1410.09 1569.35 1414.32 1576.64 L1409.23 1576.64 Q1404.45 1569.16 1402.06 1561.93 Q1399.71 1554.71 1399.71 1547.58 Q1399.71 1540.48 1402.06 1533.29 Q1404.42 1526.09 1409.23 1518.58 L1414.32 1518.58 Z" fill="#000000" fill-rule="nonzero" fill-opacity="1" /><path clip-path="url(#clip000)" d="M1425.94 1520.52 L1432.36 1520.52 L1432.36 1540 L1455.73 1540 L1455.73 1520.52 L1462.16 1520.52 L1462.16 1568.04 L1455.73 1568.04 L1455.73 1545.41 L1432.36 1545.41 L1432.36 1568.04 L1425.94 1568.04 L1425.94 1520.52 Z" fill="#000000" fill-rule="nonzero" fill-opacity="1" /><path clip-path="url(#clip000)" d="M1472.15 1532.4 L1499.97 1532.4 L1499.97 1537.74 L1477.94 1563.37 L1499.97 1563.37 L1499.97 1568.04 L1471.35 1568.04 L1471.35 1562.7 L1493.38 1537.07 L1472.15 1537.07 L1472.15 1532.4 Z" fill="#000000" fill-rule="nonzero" fill-opacity="1" /><path clip-path="url(#clip000)" d="M1507.99 1518.58 L1513.08 1518.58 Q1517.86 1526.09 1520.21 1533.29 Q1522.6 1540.48 1522.6 1547.58 Q1522.6 1554.71 1520.21 1561.93 Q1517.86 1569.16 1513.08 1576.64 L1507.99 1576.64 Q1512.22 1569.35 1514.29 1562.16 Q1516.39 1554.93 1516.39 1547.58 Q1516.39 1540.23 1514.29 1533.06 Q1512.22 1525.9 1507.99 1518.58 Z" fill="#000000" fill-rule="nonzero" fill-opacity="1" /><polyline clip-path="url(#clip000)" style="stroke:#000000; stroke-linecap:round; stroke-linejoin:round; stroke-width:4; stroke-opacity:1; fill:none" points="217.783,1423.18 217.783,123.472 "/>
<polyline clip-path="url(#clip000)" style="stroke:#000000; stroke-linecap:round; stroke-linejoin:round; stroke-width:4; stroke-opacity:1; fill:none" points="217.783,1343.7 236.681,1343.7 "/>
<polyline clip-path="url(#clip000)" style="stroke:#000000; stroke-linecap:round; stroke-linejoin:round; stroke-width:4; stroke-opacity:1; fill:none" points="217.783,1016.37 236.681,1016.37 "/>
<polyline clip-path="url(#clip000)" style="stroke:#000000; stroke-linecap:round; stroke-linejoin:round; stroke-width:4; stroke-opacity:1; fill:none" points="217.783,689.035 236.681,689.035 "/>
<polyline clip-path="url(#clip000)" style="stroke:#000000; stroke-linecap:round; stroke-linejoin:round; stroke-width:4; stroke-opacity:1; fill:none" points="217.783,361.702 236.681,361.702 "/>
<path clip-path="url(#clip000)" d="M116.644 1357.04 L124.283 1357.04 L124.283 1330.68 L115.973 1332.35 L115.973 1328.09 L124.237 1326.42 L128.913 1326.42 L128.913 1357.04 L136.552 1357.04 L136.552 1360.98 L116.644 1360.98 L116.644 1357.04 Z" fill="#000000" fill-rule="nonzero" fill-opacity="1" /><path clip-path="url(#clip000)" d="M145.996 1355.1 L150.88 1355.1 L150.88 1360.98 L145.996 1360.98 L145.996 1355.1 Z" fill="#000000" fill-rule="nonzero" fill-opacity="1" /><path clip-path="url(#clip000)" d="M161.876 1357.04 L169.514 1357.04 L169.514 1330.68 L161.204 1332.35 L161.204 1328.09 L169.468 1326.42 L174.144 1326.42 L174.144 1357.04 L181.783 1357.04 L181.783 1360.98 L161.876 1360.98 L161.876 1357.04 Z" fill="#000000" fill-rule="nonzero" fill-opacity="1" /><path clip-path="url(#clip000)" d="M117.015 1029.71 L124.654 1029.71 L124.654 1003.35 L116.343 1005.01 L116.343 1000.75 L124.607 999.088 L129.283 999.088 L129.283 1029.71 L136.922 1029.71 L136.922 1033.65 L117.015 1033.65 L117.015 1029.71 Z" fill="#000000" fill-rule="nonzero" fill-opacity="1" /><path clip-path="url(#clip000)" d="M146.366 1027.77 L151.251 1027.77 L151.251 1033.65 L146.366 1033.65 L146.366 1027.77 Z" fill="#000000" fill-rule="nonzero" fill-opacity="1" /><path clip-path="url(#clip000)" d="M165.464 1029.71 L181.783 1029.71 L181.783 1033.65 L159.839 1033.65 L159.839 1029.71 Q162.501 1026.96 167.084 1022.33 Q171.69 1017.68 172.871 1016.33 Q175.116 1013.81 175.996 1012.07 Q176.899 1010.31 176.899 1008.62 Q176.899 1005.87 174.954 1004.13 Q173.033 1002.4 169.931 1002.4 Q167.732 1002.4 165.278 1003.16 Q162.848 1003.93 160.07 1005.48 L160.07 1000.75 Q162.894 999.62 165.348 999.041 Q167.802 998.463 169.839 998.463 Q175.209 998.463 178.403 1001.15 Q181.598 1003.83 181.598 1008.32 Q181.598 1010.45 180.788 1012.37 Q180.001 1014.27 177.894 1016.87 Q177.315 1017.54 174.214 1020.75 Q171.112 1023.95 165.464 1029.71 Z" fill="#000000" fill-rule="nonzero" fill-opacity="1" /><path clip-path="url(#clip000)" d="M116.066 702.38 L123.705 702.38 L123.705 676.014 L115.394 677.681 L115.394 673.422 L123.658 671.755 L128.334 671.755 L128.334 702.38 L135.973 702.38 L135.973 706.315 L116.066 706.315 L116.066 702.38 Z" fill="#000000" fill-rule="nonzero" fill-opacity="1" /><path clip-path="url(#clip000)" d="M145.417 700.435 L150.302 700.435 L150.302 706.315 L145.417 706.315 L145.417 700.435 Z" fill="#000000" fill-rule="nonzero" fill-opacity="1" /><path clip-path="url(#clip000)" d="M174.653 687.681 Q178.01 688.398 179.885 690.667 Q181.783 692.935 181.783 696.269 Q181.783 701.384 178.264 704.185 Q174.746 706.986 168.264 706.986 Q166.089 706.986 163.774 706.546 Q161.482 706.13 159.028 705.273 L159.028 700.759 Q160.973 701.894 163.288 702.472 Q165.602 703.051 168.126 703.051 Q172.524 703.051 174.815 701.315 Q177.13 699.579 177.13 696.269 Q177.13 693.213 174.977 691.5 Q172.848 689.764 169.028 689.764 L165.001 689.764 L165.001 685.922 L169.214 685.922 Q172.663 685.922 174.491 684.556 Q176.32 683.167 176.32 680.574 Q176.32 677.912 174.422 676.5 Q172.547 675.065 169.028 675.065 Q167.107 675.065 164.908 675.482 Q162.709 675.898 160.07 676.778 L160.07 672.611 Q162.732 671.871 165.047 671.5 Q167.385 671.13 169.445 671.13 Q174.769 671.13 177.871 673.56 Q180.973 675.968 180.973 680.088 Q180.973 682.959 179.329 684.949 Q177.686 686.917 174.653 687.681 Z" fill="#000000" fill-rule="nonzero" fill-opacity="1" /><path clip-path="url(#clip000)" d="M114.931 375.047 L122.57 375.047 L122.57 348.682 L114.26 350.348 L114.26 346.089 L122.524 344.422 L127.2 344.422 L127.2 375.047 L134.839 375.047 L134.839 378.982 L114.931 378.982 L114.931 375.047 Z" fill="#000000" fill-rule="nonzero" fill-opacity="1" /><path clip-path="url(#clip000)" d="M144.283 373.103 L149.167 373.103 L149.167 378.982 L144.283 378.982 L144.283 373.103 Z" fill="#000000" fill-rule="nonzero" fill-opacity="1" /><path clip-path="url(#clip000)" d="M172.2 348.496 L160.394 366.945 L172.2 366.945 L172.2 348.496 M170.973 344.422 L176.852 344.422 L176.852 366.945 L181.783 366.945 L181.783 370.834 L176.852 370.834 L176.852 378.982 L172.2 378.982 L172.2 370.834 L156.598 370.834 L156.598 366.32 L170.973 344.422 Z" fill="#000000" fill-rule="nonzero" fill-opacity="1" /><path clip-path="url(#clip000)" d="M28.3562 1214.5 L28.3562 1208.64 L64.0042 1208.64 L64.0042 1214.5 L28.3562 1214.5 M14.479 1214.5 L14.479 1208.64 L21.895 1208.64 L21.895 1214.5 L14.479 1214.5 Z" fill="#000000" fill-rule="nonzero" fill-opacity="1" /><path clip-path="url(#clip000)" d="M42.4881 1166.76 L64.0042 1166.76 L64.0042 1172.61 L42.679 1172.61 Q37.6183 1172.61 35.1038 1174.59 Q32.5894 1176.56 32.5894 1180.51 Q32.5894 1185.25 35.6131 1187.99 Q38.6368 1190.73 43.8567 1190.73 L64.0042 1190.73 L64.0042 1196.61 L28.3562 1196.61 L28.3562 1190.73 L33.8944 1190.73 Q30.6797 1188.62 29.0883 1185.79 Q27.4968 1182.93 27.4968 1179.2 Q27.4968 1173.06 31.3163 1169.91 Q35.1038 1166.76 42.4881 1166.76 Z" fill="#000000" fill-rule="nonzero" fill-opacity="1" /><path clip-path="url(#clip000)" d="M28.3562 1159.28 L28.3562 1153.07 L58.275 1141.93 L28.3562 1130.79 L28.3562 1124.59 L64.0042 1137.95 L64.0042 1145.91 L28.3562 1159.28 Z" fill="#000000" fill-rule="nonzero" fill-opacity="1" /><path clip-path="url(#clip000)" d="M44.7161 1086.01 L47.5806 1086.01 L47.5806 1112.94 Q53.6281 1112.55 56.8109 1109.31 Q59.9619 1106.03 59.9619 1100.21 Q59.9619 1096.83 59.1344 1093.68 Q58.3069 1090.5 56.6518 1087.38 L62.1899 1087.38 Q63.5267 1090.53 64.227 1093.84 Q64.9272 1097.15 64.9272 1100.56 Q64.9272 1109.09 59.9619 1114.08 Q54.9967 1119.05 46.5303 1119.05 Q37.7774 1119.05 32.6531 1114.34 Q27.4968 1109.59 27.4968 1101.57 Q27.4968 1094.38 32.1438 1090.21 Q36.7589 1086.01 44.7161 1086.01 M42.9973 1091.87 Q38.1912 1091.93 35.3266 1094.57 Q32.4621 1097.18 32.4621 1101.51 Q32.4621 1106.41 35.2312 1109.37 Q38.0002 1112.3 43.0292 1112.75 L42.9973 1091.87 Z" fill="#000000" fill-rule="nonzero" fill-opacity="1" /><path clip-path="url(#clip000)" d="M33.8307 1055.74 Q33.2578 1056.73 33.0032 1057.9 Q32.7167 1059.05 32.7167 1060.45 Q32.7167 1065.42 35.9632 1068.09 Q39.1779 1070.73 45.2253 1070.73 L64.0042 1070.73 L64.0042 1076.62 L28.3562 1076.62 L28.3562 1070.73 L33.8944 1070.73 Q30.6479 1068.89 29.0883 1065.93 Q27.4968 1062.97 27.4968 1058.73 Q27.4968 1058.13 27.5923 1057.4 Q27.656 1056.66 27.8151 1055.77 L33.8307 1055.74 Z" fill="#000000" fill-rule="nonzero" fill-opacity="1" /><path clip-path="url(#clip000)" d="M29.4065 1026.87 L34.9447 1026.87 Q33.6716 1029.35 33.035 1032.03 Q32.3984 1034.7 32.3984 1037.57 Q32.3984 1041.93 33.7352 1044.12 Q35.072 1046.29 37.7456 1046.29 Q39.7826 1046.29 40.9603 1044.73 Q42.1061 1043.17 43.1565 1038.46 L43.6021 1036.45 Q44.9389 1030.21 47.3897 1027.6 Q49.8086 1024.96 54.1691 1024.96 Q59.1344 1024.96 62.0308 1028.91 Q64.9272 1032.82 64.9272 1039.7 Q64.9272 1042.56 64.3543 1045.68 Q63.8132 1048.77 62.6992 1052.21 L56.6518 1052.21 Q58.3387 1048.96 59.198 1045.81 Q60.0256 1042.66 60.0256 1039.57 Q60.0256 1035.43 58.6251 1033.21 Q57.1929 1030.98 54.6147 1030.98 Q52.2276 1030.98 50.9545 1032.6 Q49.6813 1034.19 48.5037 1039.64 L48.0262 1041.67 Q46.8804 1047.12 44.5251 1049.53 Q42.138 1051.95 38.0002 1051.95 Q32.9713 1051.95 30.2341 1048.39 Q27.4968 1044.82 27.4968 1038.27 Q27.4968 1035.02 27.9743 1032.16 Q28.4517 1029.29 29.4065 1026.87 Z" fill="#000000" fill-rule="nonzero" fill-opacity="1" /><path clip-path="url(#clip000)" d="M44.7161 985.145 L47.5806 985.145 L47.5806 1012.07 Q53.6281 1011.69 56.8109 1008.44 Q59.9619 1005.17 59.9619 999.34 Q59.9619 995.967 59.1344 992.816 Q58.3069 989.633 56.6518 986.513 L62.1899 986.513 Q63.5267 989.665 64.227 992.975 Q64.9272 996.285 64.9272 999.691 Q64.9272 1008.22 59.9619 1013.22 Q54.9967 1018.18 46.5303 1018.18 Q37.7774 1018.18 32.6531 1013.47 Q27.4968 1008.73 27.4968 1000.71 Q27.4968 993.516 32.1438 989.346 Q36.7589 985.145 44.7161 985.145 M42.9973 991.001 Q38.1912 991.065 35.3266 993.707 Q32.4621 996.317 32.4621 1000.65 Q32.4621 1005.55 35.2312 1008.51 Q38.0002 1011.44 43.0292 1011.88 L42.9973 991.001 Z" fill="#000000" fill-rule="nonzero" fill-opacity="1" /><path clip-path="url(#clip000)" d="M28.3562 958.218 L28.3562 952.361 L56.1743 945.041 L28.3562 937.752 L28.3562 930.845 L56.1743 923.525 L28.3562 916.236 L28.3562 910.38 L64.0042 919.705 L64.0042 926.612 L34.7856 934.283 L64.0042 941.985 L64.0042 948.892 L28.3562 958.218 Z" fill="#000000" fill-rule="nonzero" fill-opacity="1" /><path clip-path="url(#clip000)" d="M46.0847 885.299 Q46.0847 892.397 47.7079 895.134 Q49.3312 897.871 53.2461 897.871 Q56.3653 897.871 58.2114 895.834 Q60.0256 893.765 60.0256 890.232 Q60.0256 885.362 56.5881 882.434 Q53.1188 879.474 47.3897 879.474 L46.0847 879.474 L46.0847 885.299 M43.6657 873.618 L64.0042 873.618 L64.0042 879.474 L58.5933 879.474 Q61.8398 881.479 63.3994 884.471 Q64.9272 887.463 64.9272 891.792 Q64.9272 897.266 61.8716 900.513 Q58.7843 903.727 53.6281 903.727 Q47.6125 903.727 44.5569 899.717 Q41.5014 895.675 41.5014 887.686 L41.5014 879.474 L40.9285 879.474 Q36.8862 879.474 34.6901 882.148 Q32.4621 884.79 32.4621 889.596 Q32.4621 892.651 33.1941 895.548 Q33.9262 898.444 35.3903 901.118 L29.9795 901.118 Q28.7381 897.903 28.1334 894.879 Q27.4968 891.855 27.4968 888.991 Q27.4968 881.257 31.5072 877.437 Q35.5176 873.618 43.6657 873.618 Z" fill="#000000" fill-rule="nonzero" fill-opacity="1" /><path clip-path="url(#clip000)" d="M28.3562 865.756 L28.3562 859.549 L58.275 848.409 L28.3562 837.27 L28.3562 831.063 L64.0042 844.431 L64.0042 852.388 L28.3562 865.756 Z" fill="#000000" fill-rule="nonzero" fill-opacity="1" /><path clip-path="url(#clip000)" d="M44.7161 792.487 L47.5806 792.487 L47.5806 819.414 Q53.6281 819.032 56.8109 815.785 Q59.9619 812.507 59.9619 806.682 Q59.9619 803.308 59.1344 800.157 Q58.3069 796.975 56.6518 793.855 L62.1899 793.855 Q63.5267 797.006 64.227 800.317 Q64.9272 803.627 64.9272 807.032 Q64.9272 815.562 59.9619 820.56 Q54.9967 825.525 46.5303 825.525 Q37.7774 825.525 32.6531 820.814 Q27.4968 816.072 27.4968 808.051 Q27.4968 800.858 32.1438 796.688 Q36.7589 792.487 44.7161 792.487 M42.9973 798.343 Q38.1912 798.407 35.3266 801.049 Q32.4621 803.659 32.4621 807.987 Q32.4621 812.889 35.2312 815.849 Q38.0002 818.777 43.0292 819.223 L42.9973 798.343 Z" fill="#000000" fill-rule="nonzero" fill-opacity="1" /><path clip-path="url(#clip000)" d="M14.479 782.875 L14.479 777.018 L64.0042 777.018 L64.0042 782.875 L14.479 782.875 Z" fill="#000000" fill-rule="nonzero" fill-opacity="1" /><path clip-path="url(#clip000)" d="M44.7161 734.272 L47.5806 734.272 L47.5806 761.199 Q53.6281 760.817 56.8109 757.571 Q59.9619 754.293 59.9619 748.468 Q59.9619 745.094 59.1344 741.943 Q58.3069 738.76 56.6518 735.641 L62.1899 735.641 Q63.5267 738.792 64.227 742.102 Q64.9272 745.412 64.9272 748.818 Q64.9272 757.348 59.9619 762.345 Q54.9967 767.31 46.5303 767.31 Q37.7774 767.31 32.6531 762.6 Q27.4968 757.857 27.4968 749.837 Q27.4968 742.643 32.1438 738.474 Q36.7589 734.272 44.7161 734.272 M42.9973 740.129 Q38.1912 740.192 35.3266 742.834 Q32.4621 745.444 32.4621 749.773 Q32.4621 754.674 35.2312 757.635 Q38.0002 760.563 43.0292 761.008 L42.9973 740.129 Z" fill="#000000" fill-rule="nonzero" fill-opacity="1" /><path clip-path="url(#clip000)" d="M42.4881 695.028 L64.0042 695.028 L64.0042 700.884 L42.679 700.884 Q37.6183 700.884 35.1038 702.858 Q32.5894 704.831 32.5894 708.778 Q32.5894 713.52 35.6131 716.257 Q38.6368 718.995 43.8567 718.995 L64.0042 718.995 L64.0042 724.883 L28.3562 724.883 L28.3562 718.995 L33.8944 718.995 Q30.6797 716.894 29.0883 714.061 Q27.4968 711.197 27.4968 707.473 Q27.4968 701.33 31.3163 698.179 Q35.1038 695.028 42.4881 695.028 Z" fill="#000000" fill-rule="nonzero" fill-opacity="1" /><path clip-path="url(#clip000)" d="M45.7664 659.889 Q39.4007 659.889 35.8996 662.531 Q32.3984 665.141 32.3984 669.883 Q32.3984 674.594 35.8996 677.236 Q39.4007 679.846 45.7664 679.846 Q52.1003 679.846 55.6014 677.236 Q59.1026 674.594 59.1026 669.883 Q59.1026 665.141 55.6014 662.531 Q52.1003 659.889 45.7664 659.889 M59.58 654.033 Q68.683 654.033 73.1071 658.075 Q77.5631 662.117 77.5631 670.456 Q77.5631 673.544 77.0857 676.281 Q76.6401 679.018 75.6852 681.596 L69.9879 681.596 Q71.3884 679.018 72.0568 676.504 Q72.7252 673.989 72.7252 671.379 Q72.7252 665.618 69.7015 662.754 Q66.7096 659.889 60.6303 659.889 L57.7339 659.889 Q60.885 661.703 62.4446 664.536 Q64.0042 667.369 64.0042 671.316 Q64.0042 677.872 59.0071 681.883 Q54.01 685.893 45.7664 685.893 Q37.491 685.893 32.4939 681.883 Q27.4968 677.872 27.4968 671.316 Q27.4968 667.369 29.0564 664.536 Q30.616 661.703 33.7671 659.889 L28.3562 659.889 L28.3562 654.033 L59.58 654.033 Z" fill="#000000" fill-rule="nonzero" fill-opacity="1" /><path clip-path="url(#clip000)" d="M18.2347 636.177 L28.3562 636.177 L28.3562 624.114 L32.9077 624.114 L32.9077 636.177 L52.2594 636.177 Q56.6199 636.177 57.8613 634.999 Q59.1026 633.79 59.1026 630.129 L59.1026 624.114 L64.0042 624.114 L64.0042 630.129 Q64.0042 636.909 61.4897 639.487 Q58.9434 642.065 52.2594 642.065 L32.9077 642.065 L32.9077 646.362 L28.3562 646.362 L28.3562 642.065 L18.2347 642.065 L18.2347 636.177 Z" fill="#000000" fill-rule="nonzero" fill-opacity="1" /><path clip-path="url(#clip000)" d="M42.4881 586.779 L64.0042 586.779 L64.0042 592.635 L42.679 592.635 Q37.6183 592.635 35.1038 594.609 Q32.5894 596.582 32.5894 600.529 Q32.5894 605.271 35.6131 608.009 Q38.6368 610.746 43.8567 610.746 L64.0042 610.746 L64.0042 616.634 L14.479 616.634 L14.479 610.746 L33.8944 610.746 Q30.6797 608.645 29.0883 605.812 Q27.4968 602.948 27.4968 599.224 Q27.4968 593.081 31.3163 589.93 Q35.1038 586.779 42.4881 586.779 Z" fill="#000000" fill-rule="nonzero" fill-opacity="1" /><path clip-path="url(#clip000)" d="M14.5426 540.309 Q21.8632 544.574 29.0246 546.643 Q36.186 548.712 43.5384 548.712 Q50.8908 548.712 58.1159 546.643 Q65.3091 544.542 72.5979 540.309 L72.5979 545.402 Q65.1182 550.176 57.8931 552.563 Q50.668 554.919 43.5384 554.919 Q36.4406 554.919 29.2474 552.563 Q22.0542 550.208 14.5426 545.402 L14.5426 540.309 Z" fill="#000000" fill-rule="nonzero" fill-opacity="1" /><path clip-path="url(#clip000)" d="M35.1993 501.192 Q31.2526 498.996 29.3747 495.94 Q27.4968 492.885 27.4968 488.747 Q27.4968 483.177 31.4117 480.153 Q35.2948 477.13 42.4881 477.13 L64.0042 477.13 L64.0042 483.018 L42.679 483.018 Q37.5546 483.018 35.072 484.832 Q32.5894 486.646 32.5894 490.37 Q32.5894 494.922 35.6131 497.564 Q38.6368 500.205 43.8567 500.205 L64.0042 500.205 L64.0042 506.094 L42.679 506.094 Q37.5228 506.094 35.072 507.908 Q32.5894 509.722 32.5894 513.51 Q32.5894 517.997 35.6449 520.639 Q38.6686 523.281 43.8567 523.281 L64.0042 523.281 L64.0042 529.169 L28.3562 529.169 L28.3562 523.281 L33.8944 523.281 Q30.616 521.276 29.0564 518.475 Q27.4968 515.674 27.4968 511.823 Q27.4968 507.94 29.4702 505.234 Q31.4436 502.497 35.1993 501.192 Z" fill="#000000" fill-rule="nonzero" fill-opacity="1" /><path clip-path="url(#clip000)" d="M16.4842 441.163 L34.2127 423.881 L34.2127 430.278 L21.6404 444.283 L34.2127 458.287 L34.2127 464.685 L16.4842 447.402 L16.4842 441.163 Z" fill="#000000" fill-rule="nonzero" fill-opacity="1" /><path clip-path="url(#clip000)" d="M43.5384 413.791 L43.5384 396.635 L48.7583 396.635 L48.7583 413.791 L43.5384 413.791 Z" fill="#000000" fill-rule="nonzero" fill-opacity="1" /><path clip-path="url(#clip000)" d="M58.5933 385.368 L58.5933 374.865 L22.3406 374.865 L24.6323 386.291 L18.7758 386.291 L16.4842 374.928 L16.4842 368.499 L58.5933 368.499 L58.5933 357.995 L64.0042 357.995 L64.0042 385.368 L58.5933 385.368 Z" fill="#000000" fill-rule="nonzero" fill-opacity="1" /><path clip-path="url(#clip000)" d="M14.5426 346.76 L14.5426 341.667 Q22.0542 336.893 29.2474 334.538 Q36.4406 332.151 43.5384 332.151 Q50.668 332.151 57.8931 334.538 Q65.1182 336.893 72.5979 341.667 L72.5979 346.76 Q65.3091 342.527 58.1159 340.458 Q50.8908 338.357 43.5384 338.357 Q36.186 338.357 29.0246 340.458 Q21.8632 342.527 14.5426 346.76 Z" fill="#000000" fill-rule="nonzero" fill-opacity="1" /><path clip-path="url(#clip000)" d="M348.093 12.096 L356.276 12.096 L356.276 65.6895 L385.726 65.6895 L385.726 72.576 L348.093 72.576 L348.093 12.096 Z" fill="#000000" fill-rule="nonzero" fill-opacity="1" /><path clip-path="url(#clip000)" d="M393.989 27.2059 L401.443 27.2059 L401.443 72.576 L393.989 72.576 L393.989 27.2059 M393.989 9.54393 L401.443 9.54393 L401.443 18.9825 L393.989 18.9825 L393.989 9.54393 Z" fill="#000000" fill-rule="nonzero" fill-opacity="1" /><path clip-path="url(#clip000)" d="M454.753 45.1919 L454.753 72.576 L447.299 72.576 L447.299 45.4349 Q447.299 38.994 444.788 35.7938 Q442.276 32.5936 437.253 32.5936 Q431.217 32.5936 427.734 36.4419 Q424.25 40.2903 424.25 46.9338 L424.25 72.576 L416.756 72.576 L416.756 27.2059 L424.25 27.2059 L424.25 34.2544 Q426.923 30.163 430.529 28.1376 Q434.174 26.1121 438.914 26.1121 Q446.732 26.1121 450.743 30.9732 Q454.753 35.7938 454.753 45.1919 Z" fill="#000000" fill-rule="nonzero" fill-opacity="1" /><path clip-path="url(#clip000)" d="M508.428 48.0275 L508.428 51.6733 L474.157 51.6733 Q474.643 59.3701 478.775 63.421 Q482.947 67.4314 490.36 67.4314 Q494.654 67.4314 498.665 66.3781 Q502.716 65.3249 506.686 63.2184 L506.686 70.267 Q502.675 71.9684 498.462 72.8596 Q494.249 73.7508 489.915 73.7508 Q479.058 73.7508 472.699 67.4314 Q466.379 61.1119 466.379 50.3365 Q466.379 39.1965 472.374 32.6746 Q478.41 26.1121 488.619 26.1121 Q497.774 26.1121 503.08 32.0264 Q508.428 37.9003 508.428 48.0275 M500.974 45.84 Q500.893 39.7232 497.531 36.0774 Q494.209 32.4315 488.7 32.4315 Q482.461 32.4315 478.694 35.9558 Q474.967 39.4801 474.4 45.8805 L500.974 45.84 Z" fill="#000000" fill-rule="nonzero" fill-opacity="1" /><path clip-path="url(#clip000)" d="M541.28 49.7694 Q532.247 49.7694 528.763 51.8354 Q525.279 53.9013 525.279 58.8839 Q525.279 62.8538 527.872 65.2034 Q530.505 67.5124 535.001 67.5124 Q541.199 67.5124 544.926 63.1374 Q548.694 58.7219 548.694 51.4303 L548.694 49.7694 L541.28 49.7694 M556.147 46.6907 L556.147 72.576 L548.694 72.576 L548.694 65.6895 Q546.141 69.8214 542.334 71.8063 Q538.526 73.7508 533.017 73.7508 Q526.049 73.7508 521.917 69.8619 Q517.826 65.9325 517.826 59.3701 Q517.826 51.7138 522.93 47.825 Q528.074 43.9361 538.242 43.9361 L548.694 43.9361 L548.694 43.2069 Q548.694 38.0623 545.291 35.2672 Q541.929 32.4315 535.812 32.4315 Q531.923 32.4315 528.236 33.3632 Q524.55 34.295 521.147 36.1584 L521.147 29.2718 Q525.239 27.692 529.087 26.9223 Q532.935 26.1121 536.581 26.1121 Q546.425 26.1121 551.286 31.2163 Q556.147 36.3204 556.147 46.6907 Z" fill="#000000" fill-rule="nonzero" fill-opacity="1" /><path clip-path="url(#clip000)" d="M597.79 34.1734 Q596.535 33.4443 595.036 33.1202 Q593.578 32.7556 591.795 32.7556 Q585.476 32.7556 582.073 36.8875 Q578.711 40.9789 578.711 48.6757 L578.711 72.576 L571.217 72.576 L571.217 27.2059 L578.711 27.2059 L578.711 34.2544 Q581.06 30.1225 584.828 28.1376 Q588.595 26.1121 593.983 26.1121 Q594.752 26.1121 595.684 26.2337 Q596.616 26.3147 597.75 26.5172 L597.79 34.1734 Z" fill="#000000" fill-rule="nonzero" fill-opacity="1" /><path clip-path="url(#clip000)" d="M605.609 27.2059 L613.062 27.2059 L613.062 72.576 L605.609 72.576 L605.609 27.2059 M605.609 9.54393 L613.062 9.54393 L613.062 18.9825 L605.609 18.9825 L605.609 9.54393 Z" fill="#000000" fill-rule="nonzero" fill-opacity="1" /><path clip-path="url(#clip000)" d="M625.418 27.2059 L660.823 27.2059 L660.823 34.0114 L632.79 66.6212 L660.823 66.6212 L660.823 72.576 L624.405 72.576 L624.405 65.7705 L652.437 33.1607 L625.418 33.1607 L625.418 27.2059 Z" fill="#000000" fill-rule="nonzero" fill-opacity="1" /><path clip-path="url(#clip000)" d="M692.825 49.7694 Q683.791 49.7694 680.307 51.8354 Q676.824 53.9013 676.824 58.8839 Q676.824 62.8538 679.416 65.2034 Q682.049 67.5124 686.546 67.5124 Q692.744 67.5124 696.47 63.1374 Q700.238 58.7219 700.238 51.4303 L700.238 49.7694 L692.825 49.7694 M707.692 46.6907 L707.692 72.576 L700.238 72.576 L700.238 65.6895 Q697.686 69.8214 693.878 71.8063 Q690.07 73.7508 684.561 73.7508 Q677.593 73.7508 673.461 69.8619 Q669.37 65.9325 669.37 59.3701 Q669.37 51.7138 674.474 47.825 Q679.619 43.9361 689.787 43.9361 L700.238 43.9361 L700.238 43.2069 Q700.238 38.0623 696.835 35.2672 Q693.473 32.4315 687.356 32.4315 Q683.467 32.4315 679.781 33.3632 Q676.094 34.295 672.692 36.1584 L672.692 29.2718 Q676.783 27.692 680.631 26.9223 Q684.48 26.1121 688.126 26.1121 Q697.969 26.1121 702.83 31.2163 Q707.692 36.3204 707.692 46.6907 Z" fill="#000000" fill-rule="nonzero" fill-opacity="1" /><path clip-path="url(#clip000)" d="M730.417 14.324 L730.417 27.2059 L745.77 27.2059 L745.77 32.9987 L730.417 32.9987 L730.417 57.6282 Q730.417 63.1779 731.916 64.7578 Q733.455 66.3376 738.114 66.3376 L745.77 66.3376 L745.77 72.576 L738.114 72.576 Q729.485 72.576 726.204 69.3758 Q722.923 66.1351 722.923 57.6282 L722.923 32.9987 L717.454 32.9987 L717.454 27.2059 L722.923 27.2059 L722.923 14.324 L730.417 14.324 Z" fill="#000000" fill-rule="nonzero" fill-opacity="1" /><path clip-path="url(#clip000)" d="M755.573 27.2059 L763.027 27.2059 L763.027 72.576 L755.573 72.576 L755.573 27.2059 M755.573 9.54393 L763.027 9.54393 L763.027 18.9825 L755.573 18.9825 L755.573 9.54393 Z" fill="#000000" fill-rule="nonzero" fill-opacity="1" /><path clip-path="url(#clip000)" d="M796.204 32.4315 Q790.208 32.4315 786.725 37.1306 Q783.241 41.7891 783.241 49.9314 Q783.241 58.0738 786.684 62.7728 Q790.168 67.4314 796.204 67.4314 Q802.159 67.4314 805.642 62.7323 Q809.126 58.0333 809.126 49.9314 Q809.126 41.8701 805.642 37.1711 Q802.159 32.4315 796.204 32.4315 M796.204 26.1121 Q805.926 26.1121 811.476 32.4315 Q817.025 38.7509 817.025 49.9314 Q817.025 61.0714 811.476 67.4314 Q805.926 73.7508 796.204 73.7508 Q786.441 73.7508 780.891 67.4314 Q775.382 61.0714 775.382 49.9314 Q775.382 38.7509 780.891 32.4315 Q786.441 26.1121 796.204 26.1121 Z" fill="#000000" fill-rule="nonzero" fill-opacity="1" /><path clip-path="url(#clip000)" d="M867.095 45.1919 L867.095 72.576 L859.641 72.576 L859.641 45.4349 Q859.641 38.994 857.129 35.7938 Q854.618 32.5936 849.595 32.5936 Q843.559 32.5936 840.075 36.4419 Q836.591 40.2903 836.591 46.9338 L836.591 72.576 L829.097 72.576 L829.097 27.2059 L836.591 27.2059 L836.591 34.2544 Q839.265 30.163 842.87 28.1376 Q846.516 26.1121 851.256 26.1121 Q859.074 26.1121 863.084 30.9732 Q867.095 35.7938 867.095 45.1919 Z" fill="#000000" fill-rule="nonzero" fill-opacity="1" /><path clip-path="url(#clip000)" d="M925.914 32.4315 Q919.918 32.4315 916.435 37.1306 Q912.951 41.7891 912.951 49.9314 Q912.951 58.0738 916.394 62.7728 Q919.878 67.4314 925.914 67.4314 Q931.869 67.4314 935.352 62.7323 Q938.836 58.0333 938.836 49.9314 Q938.836 41.8701 935.352 37.1711 Q931.869 32.4315 925.914 32.4315 M925.914 26.1121 Q935.636 26.1121 941.186 32.4315 Q946.735 38.7509 946.735 49.9314 Q946.735 61.0714 941.186 67.4314 Q935.636 73.7508 925.914 73.7508 Q916.151 73.7508 910.601 67.4314 Q905.092 61.0714 905.092 49.9314 Q905.092 38.7509 910.601 32.4315 Q916.151 26.1121 925.914 26.1121 Z" fill="#000000" fill-rule="nonzero" fill-opacity="1" /><path clip-path="url(#clip000)" d="M982.059 9.54393 L982.059 15.7418 L974.93 15.7418 Q970.919 15.7418 969.339 17.3622 Q967.8 18.9825 967.8 23.1955 L967.8 27.2059 L980.074 27.2059 L980.074 32.9987 L967.8 32.9987 L967.8 72.576 L960.306 72.576 L960.306 32.9987 L953.176 32.9987 L953.176 27.2059 L960.306 27.2059 L960.306 24.0462 Q960.306 16.471 963.83 13.0277 Q967.354 9.54393 975.011 9.54393 L982.059 9.54393 Z" fill="#000000" fill-rule="nonzero" fill-opacity="1" /><path clip-path="url(#clip000)" d="M1010.33 27.2059 L1017.79 27.2059 L1027.11 62.6108 L1036.38 27.2059 L1045.17 27.2059 L1054.49 62.6108 L1063.77 27.2059 L1071.22 27.2059 L1059.35 72.576 L1050.56 72.576 L1040.8 35.3887 L1030.99 72.576 L1022.2 72.576 L1010.33 27.2059 Z" fill="#000000" fill-rule="nonzero" fill-opacity="1" /><path clip-path="url(#clip000)" d="M1103.14 49.7694 Q1094.11 49.7694 1090.62 51.8354 Q1087.14 53.9013 1087.14 58.8839 Q1087.14 62.8538 1089.73 65.2034 Q1092.37 67.5124 1096.86 67.5124 Q1103.06 67.5124 1106.79 63.1374 Q1110.55 58.7219 1110.55 51.4303 L1110.55 49.7694 L1103.14 49.7694 M1118.01 46.6907 L1118.01 72.576 L1110.55 72.576 L1110.55 65.6895 Q1108 69.8214 1104.19 71.8063 Q1100.39 73.7508 1094.88 73.7508 Q1087.91 73.7508 1083.78 69.8619 Q1079.69 65.9325 1079.69 59.3701 Q1079.69 51.7138 1084.79 47.825 Q1089.93 43.9361 1100.1 43.9361 L1110.55 43.9361 L1110.55 43.2069 Q1110.55 38.0623 1107.15 35.2672 Q1103.79 32.4315 1097.67 32.4315 Q1093.78 32.4315 1090.1 33.3632 Q1086.41 34.295 1083.01 36.1584 L1083.01 29.2718 Q1087.1 27.692 1090.95 26.9223 Q1094.8 26.1121 1098.44 26.1121 Q1108.29 26.1121 1113.15 31.2163 Q1118.01 36.3204 1118.01 46.6907 Z" fill="#000000" fill-rule="nonzero" fill-opacity="1" /><path clip-path="url(#clip000)" d="M1128.01 27.2059 L1135.91 27.2059 L1150.09 65.2844 L1164.27 27.2059 L1172.17 27.2059 L1155.15 72.576 L1145.03 72.576 L1128.01 27.2059 Z" fill="#000000" fill-rule="nonzero" fill-opacity="1" /><path clip-path="url(#clip000)" d="M1221.27 48.0275 L1221.27 51.6733 L1186.99 51.6733 Q1187.48 59.3701 1191.61 63.421 Q1195.78 67.4314 1203.2 67.4314 Q1207.49 67.4314 1211.5 66.3781 Q1215.55 65.3249 1219.52 63.2184 L1219.52 70.267 Q1215.51 71.9684 1211.3 72.8596 Q1207.09 73.7508 1202.75 73.7508 Q1191.9 73.7508 1185.54 67.4314 Q1179.22 61.1119 1179.22 50.3365 Q1179.22 39.1965 1185.21 32.6746 Q1191.25 26.1121 1201.46 26.1121 Q1210.61 26.1121 1215.92 32.0264 Q1221.27 37.9003 1221.27 48.0275 M1213.81 45.84 Q1213.73 39.7232 1210.37 36.0774 Q1207.05 32.4315 1201.54 32.4315 Q1195.3 32.4315 1191.53 35.9558 Q1187.8 39.4801 1187.24 45.8805 L1213.81 45.84 Z" fill="#000000" fill-rule="nonzero" fill-opacity="1" /><path clip-path="url(#clip000)" d="M1233.5 9.54393 L1240.95 9.54393 L1240.95 72.576 L1233.5 72.576 L1233.5 9.54393 Z" fill="#000000" fill-rule="nonzero" fill-opacity="1" /><path clip-path="url(#clip000)" d="M1295.36 48.0275 L1295.36 51.6733 L1261.09 51.6733 Q1261.57 59.3701 1265.7 63.421 Q1269.88 67.4314 1277.29 67.4314 Q1281.58 67.4314 1285.59 66.3781 Q1289.64 65.3249 1293.61 63.2184 L1293.61 70.267 Q1289.6 71.9684 1285.39 72.8596 Q1281.18 73.7508 1276.84 73.7508 Q1265.99 73.7508 1259.63 67.4314 Q1253.31 61.1119 1253.31 50.3365 Q1253.31 39.1965 1259.3 32.6746 Q1265.34 26.1121 1275.55 26.1121 Q1284.7 26.1121 1290.01 32.0264 Q1295.36 37.9003 1295.36 48.0275 M1287.9 45.84 Q1287.82 39.7232 1284.46 36.0774 Q1281.14 32.4315 1275.63 32.4315 Q1269.39 32.4315 1265.62 35.9558 Q1261.9 39.4801 1261.33 45.8805 L1287.9 45.84 Z" fill="#000000" fill-rule="nonzero" fill-opacity="1" /><path clip-path="url(#clip000)" d="M1345.3 45.1919 L1345.3 72.576 L1337.85 72.576 L1337.85 45.4349 Q1337.85 38.994 1335.34 35.7938 Q1332.83 32.5936 1327.8 32.5936 Q1321.77 32.5936 1318.28 36.4419 Q1314.8 40.2903 1314.8 46.9338 L1314.8 72.576 L1307.31 72.576 L1307.31 27.2059 L1314.8 27.2059 L1314.8 34.2544 Q1317.47 30.163 1321.08 28.1376 Q1324.73 26.1121 1329.46 26.1121 Q1337.28 26.1121 1341.29 30.9732 Q1345.3 35.7938 1345.3 45.1919 Z" fill="#000000" fill-rule="nonzero" fill-opacity="1" /><path clip-path="url(#clip000)" d="M1390.03 49.3643 Q1390.03 41.2625 1386.66 36.8065 Q1383.34 32.3505 1377.31 32.3505 Q1371.31 32.3505 1367.95 36.8065 Q1364.63 41.2625 1364.63 49.3643 Q1364.63 57.4256 1367.95 61.8816 Q1371.31 66.3376 1377.31 66.3376 Q1383.34 66.3376 1386.66 61.8816 Q1390.03 57.4256 1390.03 49.3643 M1397.48 66.9452 Q1397.48 78.5308 1392.33 84.1616 Q1387.19 89.8329 1376.58 89.8329 Q1372.65 89.8329 1369.16 89.2252 Q1365.68 88.6581 1362.4 87.4428 L1362.4 80.1917 Q1365.68 81.9741 1368.88 82.8248 Q1372.08 83.6755 1375.4 83.6755 Q1382.73 83.6755 1386.38 79.8271 Q1390.03 76.0193 1390.03 68.282 L1390.03 64.5957 Q1387.72 68.6061 1384.11 70.5911 Q1380.51 72.576 1375.48 72.576 Q1367.14 72.576 1362.03 66.2161 Q1356.93 59.8562 1356.93 49.3643 Q1356.93 38.832 1362.03 32.472 Q1367.14 26.1121 1375.48 26.1121 Q1380.51 26.1121 1384.11 28.0971 Q1387.72 30.082 1390.03 34.0924 L1390.03 27.2059 L1397.48 27.2059 L1397.48 66.9452 Z" fill="#000000" fill-rule="nonzero" fill-opacity="1" /><path clip-path="url(#clip000)" d="M1420.21 14.324 L1420.21 27.2059 L1435.56 27.2059 L1435.56 32.9987 L1420.21 32.9987 L1420.21 57.6282 Q1420.21 63.1779 1421.7 64.7578 Q1423.24 66.3376 1427.9 66.3376 L1435.56 66.3376 L1435.56 72.576 L1427.9 72.576 Q1419.27 72.576 1415.99 69.3758 Q1412.71 66.1351 1412.71 57.6282 L1412.71 32.9987 L1407.24 32.9987 L1407.24 27.2059 L1412.71 27.2059 L1412.71 14.324 L1420.21 14.324 Z" fill="#000000" fill-rule="nonzero" fill-opacity="1" /><path clip-path="url(#clip000)" d="M1483.08 45.1919 L1483.08 72.576 L1475.62 72.576 L1475.62 45.4349 Q1475.62 38.994 1473.11 35.7938 Q1470.6 32.5936 1465.58 32.5936 Q1459.54 32.5936 1456.06 36.4419 Q1452.57 40.2903 1452.57 46.9338 L1452.57 72.576 L1445.08 72.576 L1445.08 9.54393 L1452.57 9.54393 L1452.57 34.2544 Q1455.25 30.163 1458.85 28.1376 Q1462.5 26.1121 1467.24 26.1121 Q1475.05 26.1121 1479.06 30.9732 Q1483.08 35.7938 1483.08 45.1919 Z" fill="#000000" fill-rule="nonzero" fill-opacity="1" /><path clip-path="url(#clip000)" d="M1526.87 28.5427 L1526.87 35.5912 Q1523.71 33.9709 1520.3 33.1607 Q1516.9 32.3505 1513.25 32.3505 Q1507.7 32.3505 1504.91 34.0519 Q1502.15 35.7533 1502.15 39.156 Q1502.15 41.7486 1504.14 43.2475 Q1506.12 44.7058 1512.12 46.0426 L1514.67 46.6097 Q1522.61 48.3111 1525.93 51.4303 Q1529.3 54.509 1529.3 60.0587 Q1529.3 66.3781 1524.27 70.0644 Q1519.29 73.7508 1510.54 73.7508 Q1506.89 73.7508 1502.92 73.0216 Q1499 72.3329 1494.62 70.9151 L1494.62 63.2184 Q1498.75 65.3654 1502.76 66.4591 Q1506.77 67.5124 1510.7 67.5124 Q1515.97 67.5124 1518.8 65.73 Q1521.64 63.9071 1521.64 60.6258 Q1521.64 57.5877 1519.57 55.9673 Q1517.55 54.3469 1510.62 52.8481 L1508.03 52.2405 Q1501.1 50.7821 1498.02 47.7845 Q1494.94 44.7463 1494.94 39.4801 Q1494.94 33.0797 1499.48 29.5959 Q1504.02 26.1121 1512.36 26.1121 Q1516.5 26.1121 1520.14 26.7198 Q1523.79 27.3274 1526.87 28.5427 Z" fill="#000000" fill-rule="nonzero" fill-opacity="1" /><path clip-path="url(#clip000)" d="M1588.16 49.7694 Q1579.12 49.7694 1575.64 51.8354 Q1572.15 53.9013 1572.15 58.8839 Q1572.15 62.8538 1574.75 65.2034 Q1577.38 67.5124 1581.88 67.5124 Q1588.07 67.5124 1591.8 63.1374 Q1595.57 58.7219 1595.57 51.4303 L1595.57 49.7694 L1588.16 49.7694 M1603.02 46.6907 L1603.02 72.576 L1595.57 72.576 L1595.57 65.6895 Q1593.02 69.8214 1589.21 71.8063 Q1585.4 73.7508 1579.89 73.7508 Q1572.92 73.7508 1568.79 69.8619 Q1564.7 65.9325 1564.7 59.3701 Q1564.7 51.7138 1569.8 47.825 Q1574.95 43.9361 1585.12 43.9361 L1595.57 43.9361 L1595.57 43.2069 Q1595.57 38.0623 1592.17 35.2672 Q1588.8 32.4315 1582.69 32.4315 Q1578.8 32.4315 1575.11 33.3632 Q1571.43 34.295 1568.02 36.1584 L1568.02 29.2718 Q1572.11 27.692 1575.96 26.9223 Q1579.81 26.1121 1583.46 26.1121 Q1593.3 26.1121 1598.16 31.2163 Q1603.02 36.3204 1603.02 46.6907 Z" fill="#000000" fill-rule="nonzero" fill-opacity="1" /><path clip-path="url(#clip000)" d="M1656.09 45.1919 L1656.09 72.576 L1648.64 72.576 L1648.64 45.4349 Q1648.64 38.994 1646.12 35.7938 Q1643.61 32.5936 1638.59 32.5936 Q1632.55 32.5936 1629.07 36.4419 Q1625.59 40.2903 1625.59 46.9338 L1625.59 72.576 L1618.09 72.576 L1618.09 27.2059 L1625.59 27.2059 L1625.59 34.2544 Q1628.26 30.163 1631.86 28.1376 Q1635.51 26.1121 1640.25 26.1121 Q1648.07 26.1121 1652.08 30.9732 Q1656.09 35.7938 1656.09 45.1919 Z" fill="#000000" fill-rule="nonzero" fill-opacity="1" /><path clip-path="url(#clip000)" d="M1700.81 34.0924 L1700.81 9.54393 L1708.26 9.54393 L1708.26 72.576 L1700.81 72.576 L1700.81 65.7705 Q1698.46 69.8214 1694.86 71.8063 Q1691.29 73.7508 1686.27 73.7508 Q1678.05 73.7508 1672.86 67.1883 Q1667.72 60.6258 1667.72 49.9314 Q1667.72 39.2371 1672.86 32.6746 Q1678.05 26.1121 1686.27 26.1121 Q1691.29 26.1121 1694.86 28.0971 Q1698.46 30.0415 1700.81 34.0924 M1675.41 49.9314 Q1675.41 58.1548 1678.77 62.8538 Q1682.18 67.5124 1688.09 67.5124 Q1694.01 67.5124 1697.41 62.8538 Q1700.81 58.1548 1700.81 49.9314 Q1700.81 41.7081 1697.41 37.0496 Q1694.01 32.3505 1688.09 32.3505 Q1682.18 32.3505 1678.77 37.0496 Q1675.41 41.7081 1675.41 49.9314 Z" fill="#000000" fill-rule="nonzero" fill-opacity="1" /><path clip-path="url(#clip000)" d="M1772.96 9.54393 L1772.96 15.7418 L1765.83 15.7418 Q1761.82 15.7418 1760.24 17.3622 Q1758.7 18.9825 1758.7 23.1955 L1758.7 27.2059 L1770.97 27.2059 L1770.97 32.9987 L1758.7 32.9987 L1758.7 72.576 L1751.2 72.576 L1751.2 32.9987 L1744.07 32.9987 L1744.07 27.2059 L1751.2 27.2059 L1751.2 24.0462 Q1751.2 16.471 1754.73 13.0277 Q1758.25 9.54393 1765.91 9.54393 L1772.96 9.54393 Z" fill="#000000" fill-rule="nonzero" fill-opacity="1" /><path clip-path="url(#clip000)" d="M1805.49 34.1734 Q1804.23 33.4443 1802.73 33.1202 Q1801.27 32.7556 1799.49 32.7556 Q1793.17 32.7556 1789.77 36.8875 Q1786.41 40.9789 1786.41 48.6757 L1786.41 72.576 L1778.91 72.576 L1778.91 27.2059 L1786.41 27.2059 L1786.41 34.2544 Q1788.76 30.1225 1792.52 28.1376 Q1796.29 26.1121 1801.68 26.1121 Q1802.45 26.1121 1803.38 26.2337 Q1804.31 26.3147 1805.45 26.5172 L1805.49 34.1734 Z" fill="#000000" fill-rule="nonzero" fill-opacity="1" /><path clip-path="url(#clip000)" d="M1850.29 48.0275 L1850.29 51.6733 L1816.02 51.6733 Q1816.51 59.3701 1820.64 63.421 Q1824.81 67.4314 1832.22 67.4314 Q1836.52 67.4314 1840.53 66.3781 Q1844.58 65.3249 1848.55 63.2184 L1848.55 70.267 Q1844.54 71.9684 1840.32 72.8596 Q1836.11 73.7508 1831.78 73.7508 Q1820.92 73.7508 1814.56 67.4314 Q1808.24 61.1119 1808.24 50.3365 Q1808.24 39.1965 1814.24 32.6746 Q1820.27 26.1121 1830.48 26.1121 Q1839.64 26.1121 1844.94 32.0264 Q1850.29 37.9003 1850.29 48.0275 M1842.84 45.84 Q1842.75 39.7232 1839.39 36.0774 Q1836.07 32.4315 1830.56 32.4315 Q1824.32 32.4315 1820.56 35.9558 Q1816.83 39.4801 1816.26 45.8805 L1842.84 45.84 Z" fill="#000000" fill-rule="nonzero" fill-opacity="1" /><path clip-path="url(#clip000)" d="M1866.98 49.9314 Q1866.98 58.1548 1870.34 62.8538 Q1873.74 67.5124 1879.66 67.5124 Q1885.57 67.5124 1888.98 62.8538 Q1892.38 58.1548 1892.38 49.9314 Q1892.38 41.7081 1888.98 37.0496 Q1885.57 32.3505 1879.66 32.3505 Q1873.74 32.3505 1870.34 37.0496 Q1866.98 41.7081 1866.98 49.9314 M1892.38 65.7705 Q1890.03 69.8214 1886.42 71.8063 Q1882.86 73.7508 1877.84 73.7508 Q1869.61 73.7508 1864.43 67.1883 Q1859.28 60.6258 1859.28 49.9314 Q1859.28 39.2371 1864.43 32.6746 Q1869.61 26.1121 1877.84 26.1121 Q1882.86 26.1121 1886.42 28.0971 Q1890.03 30.0415 1892.38 34.0924 L1892.38 27.2059 L1899.83 27.2059 L1899.83 89.8329 L1892.38 89.8329 L1892.38 65.7705 Z" fill="#000000" fill-rule="nonzero" fill-opacity="1" /><path clip-path="url(#clip000)" d="M1914.42 54.671 L1914.42 27.2059 L1921.87 27.2059 L1921.87 54.3874 Q1921.87 60.8284 1924.38 64.0691 Q1926.89 67.2693 1931.92 67.2693 Q1937.95 67.2693 1941.43 63.421 Q1944.96 59.5726 1944.96 52.9291 L1944.96 27.2059 L1952.41 27.2059 L1952.41 72.576 L1944.96 72.576 L1944.96 65.6084 Q1942.25 69.7404 1938.64 71.7658 Q1935.07 73.7508 1930.34 73.7508 Q1922.52 73.7508 1918.47 68.8897 Q1914.42 64.0286 1914.42 54.671 M1933.17 26.1121 L1933.17 26.1121 Z" fill="#000000" fill-rule="nonzero" fill-opacity="1" /><path clip-path="url(#clip000)" d="M2006.57 48.0275 L2006.57 51.6733 L1972.3 51.6733 Q1972.79 59.3701 1976.92 63.421 Q1981.09 67.4314 1988.51 67.4314 Q1992.8 67.4314 1996.81 66.3781 Q2000.86 65.3249 2004.83 63.2184 L2004.83 70.267 Q2000.82 71.9684 1996.61 72.8596 Q1992.4 73.7508 1988.06 73.7508 Q1977.2 73.7508 1970.84 67.4314 Q1964.53 61.1119 1964.53 50.3365 Q1964.53 39.1965 1970.52 32.6746 Q1976.56 26.1121 1986.76 26.1121 Q1995.92 26.1121 2001.23 32.0264 Q2006.57 37.9003 2006.57 48.0275 M1999.12 45.84 Q1999.04 39.7232 1995.68 36.0774 Q1992.35 32.4315 1986.85 32.4315 Q1980.61 32.4315 1976.84 35.9558 Q1973.11 39.4801 1972.55 45.8805 L1999.12 45.84 Z" fill="#000000" fill-rule="nonzero" fill-opacity="1" /><path clip-path="url(#clip000)" d="M2056.52 45.1919 L2056.52 72.576 L2049.07 72.576 L2049.07 45.4349 Q2049.07 38.994 2046.56 35.7938 Q2044.04 32.5936 2039.02 32.5936 Q2032.99 32.5936 2029.5 36.4419 Q2026.02 40.2903 2026.02 46.9338 L2026.02 72.576 L2018.52 72.576 L2018.52 27.2059 L2026.02 27.2059 L2026.02 34.2544 Q2028.69 30.163 2032.3 28.1376 Q2035.94 26.1121 2040.68 26.1121 Q2048.5 26.1121 2052.51 30.9732 Q2056.52 35.7938 2056.52 45.1919 Z" fill="#000000" fill-rule="nonzero" fill-opacity="1" /><path clip-path="url(#clip000)" d="M2104.04 28.9478 L2104.04 35.9153 Q2100.88 34.1734 2097.68 33.3227 Q2094.52 32.4315 2091.28 32.4315 Q2084.03 32.4315 2080.02 37.0496 Q2076.01 41.6271 2076.01 49.9314 Q2076.01 58.2358 2080.02 62.8538 Q2084.03 67.4314 2091.28 67.4314 Q2094.52 67.4314 2097.68 66.5807 Q2100.88 65.6895 2104.04 63.9476 L2104.04 70.8341 Q2100.92 72.2924 2097.56 73.0216 Q2094.23 73.7508 2090.47 73.7508 Q2080.22 73.7508 2074.18 67.3098 Q2068.15 60.8689 2068.15 49.9314 Q2068.15 38.832 2074.22 32.472 Q2080.34 26.1121 2090.95 26.1121 Q2094.4 26.1121 2097.68 26.8413 Q2100.96 27.5299 2104.04 28.9478 Z" fill="#000000" fill-rule="nonzero" fill-opacity="1" /><path clip-path="url(#clip000)" d="M2117 27.2059 L2124.45 27.2059 L2124.45 72.576 L2117 72.576 L2117 27.2059 M2117 9.54393 L2124.45 9.54393 L2124.45 18.9825 L2117 18.9825 L2117 9.54393 Z" fill="#000000" fill-rule="nonzero" fill-opacity="1" /><path clip-path="url(#clip000)" d="M2178.86 48.0275 L2178.86 51.6733 L2144.59 51.6733 Q2145.07 59.3701 2149.21 63.421 Q2153.38 67.4314 2160.79 67.4314 Q2165.09 67.4314 2169.1 66.3781 Q2173.15 65.3249 2177.12 63.2184 L2177.12 70.267 Q2173.11 71.9684 2168.89 72.8596 Q2164.68 73.7508 2160.35 73.7508 Q2149.49 73.7508 2143.13 67.4314 Q2136.81 61.1119 2136.81 50.3365 Q2136.81 39.1965 2142.81 32.6746 Q2148.84 26.1121 2159.05 26.1121 Q2168.2 26.1121 2173.51 32.0264 Q2178.86 37.9003 2178.86 48.0275 M2171.4 45.84 Q2171.32 39.7232 2167.96 36.0774 Q2164.64 32.4315 2159.13 32.4315 Q2152.89 32.4315 2149.12 35.9558 Q2145.4 39.4801 2144.83 45.8805 L2171.4 45.84 Z" fill="#000000" fill-rule="nonzero" fill-opacity="1" /><path clip-path="url(#clip000)" d="M2220.02 28.5427 L2220.02 35.5912 Q2216.86 33.9709 2213.45 33.1607 Q2210.05 32.3505 2206.4 32.3505 Q2200.85 32.3505 2198.06 34.0519 Q2195.31 35.7533 2195.31 39.156 Q2195.31 41.7486 2197.29 43.2475 Q2199.27 44.7058 2205.27 46.0426 L2207.82 46.6097 Q2215.76 48.3111 2219.08 51.4303 Q2222.45 54.509 2222.45 60.0587 Q2222.45 66.3781 2217.42 70.0644 Q2212.44 73.7508 2203.69 73.7508 Q2200.04 73.7508 2196.07 73.0216 Q2192.15 72.3329 2187.77 70.9151 L2187.77 63.2184 Q2191.9 65.3654 2195.91 66.4591 Q2199.92 67.5124 2203.85 67.5124 Q2209.12 67.5124 2211.95 65.73 Q2214.79 63.9071 2214.79 60.6258 Q2214.79 57.5877 2212.72 55.9673 Q2210.7 54.3469 2203.77 52.8481 L2201.18 52.2405 Q2194.25 50.7821 2191.17 47.7845 Q2188.09 44.7463 2188.09 39.4801 Q2188.09 33.0797 2192.63 29.5959 Q2197.17 26.1121 2205.51 26.1121 Q2209.65 26.1121 2213.29 26.7198 Q2216.94 27.3274 2220.02 28.5427 Z" fill="#000000" fill-rule="nonzero" fill-opacity="1" /><circle clip-path="url(#clip002)" cx="278.207" cy="1386.4" r="14.4" fill="#009af9" fill-rule="evenodd" fill-opacity="1" stroke="#000000" stroke-opacity="1" stroke-width="3.2"/>
<circle clip-path="url(#clip002)" cx="1473.45" cy="579.924" r="14.4" fill="#009af9" fill-rule="evenodd" fill-opacity="1" stroke="#000000" stroke-opacity="1" stroke-width="3.2"/>
<circle clip-path="url(#clip002)" cx="2292.33" cy="200.408" r="14.4" fill="#009af9" fill-rule="evenodd" fill-opacity="1" stroke="#000000" stroke-opacity="1" stroke-width="3.2"/>
<polyline clip-path="url(#clip002)" style="stroke:#e26f46; stroke-linecap:round; stroke-linejoin:round; stroke-width:4; stroke-opacity:1; fill:none" points="278.207,1358.89 2292.33,160.256 "/>
<path clip-path="url(#clip000)" d="M288.949 364.684 L997.352 364.684 L997.352 166.796 L288.949 166.796  Z" fill="#ffffff" fill-rule="evenodd" fill-opacity="1"/>
<polyline clip-path="url(#clip000)" style="stroke:#000000; stroke-linecap:round; stroke-linejoin:round; stroke-width:4; stroke-opacity:1; fill:none" points="288.949,364.684 997.352,364.684 997.352,166.796 288.949,166.796 288.949,364.684 "/>
<polyline clip-path="url(#clip000)" style="stroke:#e26f46; stroke-linecap:round; stroke-linejoin:round; stroke-width:4; stroke-opacity:1; fill:none" points="312.671,265.74 455.002,265.74 "/>
<path clip-path="url(#clip000)" d="M478.724 245.43 L478.724 243.931 Q484.486 243.931 487.461 240.863 Q488.28 240.863 488.421 241.05 Q488.562 241.238 488.562 242.104 L488.562 269.017 Q488.562 270.446 489.264 270.891 Q489.967 271.336 493.035 271.336 L494.558 271.336 L494.558 272.811 Q492.871 272.671 486.781 272.671 Q480.692 272.671 479.029 272.811 L479.029 271.336 L480.551 271.336 Q483.573 271.336 484.299 270.914 Q485.025 270.469 485.025 269.017 L485.025 244.166 Q482.519 245.43 478.724 245.43 Z" fill="#000000" fill-rule="nonzero" fill-opacity="1" /><path clip-path="url(#clip000)" d="M502.474 284.124 Q502.474 283.89 502.661 283.375 L519.596 238.123 Q519.596 238.076 519.713 237.818 Q519.83 237.56 519.9 237.396 Q519.971 237.209 520.111 237.069 Q520.275 236.928 520.463 236.928 Q520.931 236.928 520.931 237.514 Q520.931 237.56 520.79 238.123 L503.809 283.422 Q503.528 284.241 503.341 284.476 Q503.177 284.71 502.896 284.71 Q502.474 284.71 502.474 284.124 Z" fill="#000000" fill-rule="nonzero" fill-opacity="1" /><path clip-path="url(#clip000)" d="M549.951 272.858 Q549.951 273.303 549.436 273.35 L548.382 273.35 Q547.304 273.35 546.836 273.186 Q546.367 273.022 545.829 272.272 Q545.501 271.804 544.681 269.626 Q543.885 267.424 542.713 264.098 Q541.566 260.772 540.793 258.805 L529.246 272.436 Q528.449 273.444 527.653 273.444 Q527.067 273.444 526.646 273.045 Q526.224 272.647 526.224 272.038 Q526.224 271.593 526.388 271.336 Q526.575 271.078 527.067 270.563 L540.324 257.423 L535.663 244.376 Q534.773 241.964 534.258 241.355 Q533.766 240.746 532.548 240.535 Q532.103 240.418 532.103 240.043 Q532.103 239.528 532.97 239.528 Q537.607 239.528 538.825 242.924 L548.616 270.211 Q549.155 271.781 549.717 272.436 Q549.951 272.741 549.951 272.858 Z" fill="#000000" fill-rule="nonzero" fill-opacity="1" /><path clip-path="url(#clip000)" d="M567.198 265.527 Q567.245 264.941 568.159 264.941 L597.554 264.941 Q598.936 264.941 598.959 265.48 Q598.959 266.066 597.648 266.042 L568.487 266.042 Q567.198 266.066 567.198 265.527 M567.198 256.158 Q567.198 255.572 568.206 255.596 L597.507 255.596 Q598.936 255.596 598.959 256.158 Q598.959 256.697 597.741 256.697 L568.159 256.697 Q567.198 256.697 567.198 256.158 Z" fill="#000000" fill-rule="nonzero" fill-opacity="1" /><path clip-path="url(#clip000)" d="M646.69 220.981 L646.69 219.482 Q652.452 219.482 655.427 216.413 Q656.247 216.413 656.387 216.601 Q656.528 216.788 656.528 217.655 L656.528 244.567 Q656.528 245.996 657.23 246.441 Q657.933 246.886 661.001 246.886 L662.524 246.886 L662.524 248.361 Q660.837 248.221 654.748 248.221 Q648.658 248.221 646.995 248.361 L646.995 246.886 L648.517 246.886 Q651.539 246.886 652.265 246.464 Q652.991 246.019 652.991 244.567 L652.991 219.716 Q650.485 220.981 646.69 220.981 Z" fill="#000000" fill-rule="nonzero" fill-opacity="1" /><path clip-path="url(#clip000)" d="M666.291 247.589 Q665.565 246.816 665.565 245.808 Q665.565 244.801 666.291 244.075 Q667.017 243.326 668.118 243.326 Q669.172 243.326 669.875 244.028 Q670.601 244.708 670.601 245.832 Q670.601 246.933 669.828 247.659 Q669.079 248.361 668.118 248.361 Q667.017 248.361 666.291 247.589 Z" fill="#000000" fill-rule="nonzero" fill-opacity="1" /><path clip-path="url(#clip000)" d="M678.762 248.361 Q678.762 247.495 678.832 247.237 Q678.926 246.98 679.301 246.581 L688.506 236.322 Q693.542 230.654 693.542 225.712 Q693.542 222.503 691.855 220.208 Q690.192 217.912 687.124 217.912 Q685.016 217.912 683.236 219.201 Q681.456 220.489 680.636 222.784 Q680.777 222.737 681.268 222.737 Q682.463 222.737 683.119 223.487 Q683.798 224.236 683.798 225.244 Q683.798 226.532 682.955 227.164 Q682.135 227.773 681.315 227.773 Q680.987 227.773 680.542 227.703 Q680.121 227.633 679.441 226.977 Q678.762 226.298 678.762 225.103 Q678.762 221.754 681.292 219.083 Q683.845 216.413 687.733 216.413 Q692.136 216.413 695.017 219.037 Q697.922 221.636 697.922 225.712 Q697.922 227.141 697.477 228.452 Q697.055 229.741 696.47 230.748 Q695.907 231.755 694.362 233.371 Q692.816 234.987 691.574 236.135 Q690.333 237.283 687.546 239.719 L682.463 244.661 L691.106 244.661 Q695.322 244.661 695.65 244.286 Q696.118 243.607 696.704 240.023 L697.922 240.023 L696.563 248.361 L678.762 248.361 Z" fill="#000000" fill-rule="nonzero" fill-opacity="1" /><path clip-path="url(#clip000)" d="M700.789 225.806 L702.359 215.945 L703.553 215.945 Q703.694 216.53 703.928 216.788 Q704.185 217.046 705.544 217.256 Q706.926 217.467 709.713 217.467 L721.354 217.467 Q721.354 218.568 720.933 219.154 L714.444 228.265 Q712.383 231.146 711.47 236.463 Q710.931 240.023 710.955 244.333 L710.955 246.769 Q710.955 249.416 708.729 249.416 Q706.528 249.416 706.528 246.769 Q706.528 237.611 712.43 228.733 Q713.063 227.82 715.381 224.564 Q717.724 221.309 717.817 221.168 L707.886 221.168 Q703.53 221.168 703.178 221.449 Q702.71 221.871 701.984 225.806 L700.789 225.806 Z" fill="#000000" fill-rule="nonzero" fill-opacity="1" /><path clip-path="url(#clip000)" d="M627.69 262.208 L745.69 262.208 L745.69 259.648 L627.69 259.648  Z" fill="#000000" fill-rule="evenodd" fill-opacity="1"/>
<path clip-path="url(#clip000)" d="M648.747 275.585 Q648.747 276.194 648.583 277.388 Q648.419 278.583 648.021 280.316 Q647.623 282.049 647.037 283.876 Q646.475 285.703 645.585 287.53 Q644.695 289.334 643.641 290.763 Q642.587 292.191 641.111 293.081 Q639.636 293.971 637.973 293.971 Q637.2 293.971 636.45 293.854 Q635.701 293.737 634.764 293.362 Q633.827 292.988 633.148 292.379 Q632.468 291.746 632 290.622 Q631.531 289.498 631.531 288.022 Q631.531 286.5 632.094 284.462 Q632.679 282.401 634.272 278.185 Q635.092 276.006 635.092 274.812 Q635.092 274.273 634.975 273.945 Q634.857 273.594 634.623 273.477 Q634.389 273.336 634.248 273.313 Q634.131 273.289 633.897 273.289 Q632.609 273.289 631.297 274.625 Q629.986 275.96 629.049 279.239 Q628.861 279.824 628.744 279.965 Q628.627 280.105 628.276 280.105 Q627.69 280.082 627.69 279.614 Q627.69 279.473 627.854 278.934 Q628.018 278.372 628.323 277.529 Q628.627 276.662 629.166 275.772 Q629.705 274.859 630.36 274.062 Q631.04 273.266 632 272.751 Q632.96 272.235 634.038 272.235 Q635.794 272.235 636.872 273.383 Q637.973 274.507 637.973 276.17 Q637.973 277.084 637.387 278.559 Q636.403 281.23 635.958 282.518 Q635.513 283.806 635.045 285.633 Q634.6 287.46 634.6 288.725 Q634.6 290.645 635.49 291.77 Q636.38 292.894 638.16 292.894 Q639.753 292.894 641.182 291.746 Q642.634 290.575 643.594 288.912 Q644.554 287.226 645.28 285.352 Q646.007 283.455 646.334 282.026 Q646.686 280.574 646.686 279.895 Q646.686 277.529 645.07 275.983 Q644.625 275.538 644.461 275.257 Q644.297 274.976 644.297 274.531 Q644.297 273.711 645.023 272.985 Q645.772 272.235 646.639 272.235 Q647.435 272.235 648.091 273.032 Q648.747 273.828 648.747 275.585 Z" fill="#000000" fill-rule="nonzero" fill-opacity="1" /><path clip-path="url(#clip000)" d="M681.166 297.973 Q681.166 298.105 681.018 298.613 Q680.871 299.121 680.51 299.908 Q680.166 300.695 679.674 301.417 Q679.198 302.122 678.411 302.646 Q677.641 303.155 676.755 303.155 Q675.575 303.155 674.788 302.368 Q674.001 301.581 674.001 300.4 Q674.001 299.761 674.444 298.547 Q676.526 293.006 676.526 291.022 Q676.526 288.677 674.706 288.677 Q673.673 288.677 672.739 289.103 Q671.804 289.53 671.197 290.12 Q670.591 290.71 670.115 291.382 Q669.64 292.055 669.427 292.497 Q669.23 292.94 669.181 293.137 L667.164 301.236 Q667 301.925 666.885 302.253 Q666.771 302.581 666.459 302.859 Q666.147 303.155 665.656 303.155 Q665.246 303.155 664.951 302.909 Q664.672 302.663 664.672 302.236 Q664.672 302.171 664.754 301.826 Q664.836 301.482 664.951 301.007 Q665.065 300.531 665.115 300.252 Q665.705 298.023 665.787 297.711 L666.721 293.809 Q667.23 291.874 667.23 291.022 Q667.23 288.677 665.41 288.677 Q664.508 288.677 663.655 289.021 Q662.819 289.349 662.245 289.808 Q661.671 290.268 661.147 290.907 Q660.639 291.53 660.376 291.956 Q660.13 292.366 659.933 292.776 L659.507 294.448 Q659.409 294.907 658.933 296.695 L658.196 299.728 Q657.671 301.99 657.556 302.204 Q657.392 302.663 657.031 302.909 Q656.671 303.155 656.31 303.155 Q655.9 303.155 655.621 302.909 Q655.343 302.663 655.343 302.236 Q655.343 302.171 655.392 301.925 Q655.441 301.679 655.523 301.335 Q655.605 300.99 655.638 300.794 L657.589 293.038 Q657.95 291.628 658.032 291.186 Q658.13 290.727 658.13 290.218 Q658.13 288.677 657.081 288.677 Q656.228 288.677 655.671 289.694 Q655.113 290.71 654.638 292.678 Q654.49 293.219 654.392 293.334 Q654.31 293.448 654.064 293.448 Q653.654 293.432 653.654 293.104 Q653.654 293.022 653.785 292.497 Q653.916 291.973 654.162 291.186 Q654.425 290.382 654.703 289.858 Q654.867 289.513 655.015 289.284 Q655.162 289.054 655.457 288.694 Q655.753 288.333 656.195 288.136 Q656.638 287.939 657.179 287.939 Q658.376 287.939 659.261 288.71 Q660.163 289.481 660.278 290.858 Q662.458 287.939 665.508 287.939 Q667.23 287.939 668.263 288.808 Q669.23 289.644 669.345 291.186 Q671.607 287.939 674.821 287.939 Q676.674 287.939 677.674 288.907 Q678.674 289.858 678.674 291.53 Q678.674 292.399 678.231 294.055 Q677.788 295.694 677.493 296.514 Q677.198 297.334 676.624 298.908 Q676.018 300.416 676.018 301.302 Q676.018 301.876 676.214 302.138 Q676.411 302.4 676.837 302.4 Q677.493 302.4 678.067 302.023 Q678.641 301.63 679.051 300.99 Q679.477 300.334 679.756 299.679 Q680.035 299.006 680.248 298.252 Q680.379 297.842 680.445 297.744 Q680.527 297.646 680.756 297.646 Q681.166 297.646 681.166 297.973 Z" fill="#000000" fill-rule="nonzero" fill-opacity="1" /><path clip-path="url(#clip000)" d="M696.155 298.892 Q696.286 299.039 696.286 299.187 Q696.286 299.334 695.958 299.761 Q695.647 300.187 694.974 300.761 Q694.302 301.335 693.433 301.876 Q692.564 302.417 691.285 302.777 Q690.007 303.155 688.662 303.155 Q686.252 303.155 684.809 301.433 Q683.383 299.711 683.383 297.072 Q683.383 295.383 683.94 293.891 Q684.498 292.383 685.399 291.317 Q686.318 290.251 687.465 289.481 Q688.629 288.694 689.843 288.316 Q691.056 287.939 692.187 287.939 Q693.843 287.939 694.811 288.775 Q695.778 289.612 695.778 290.792 Q695.778 291.071 695.696 291.415 Q695.63 291.76 695.401 292.301 Q695.188 292.842 694.63 293.383 Q694.073 293.907 693.253 294.252 Q691.433 295.022 688.121 295.022 L686.334 295.022 Q685.809 297.137 685.809 298.515 Q685.809 299.056 685.908 299.613 Q686.006 300.154 686.268 300.843 Q686.547 301.531 687.17 301.974 Q687.81 302.4 688.728 302.4 Q689.023 302.4 689.334 302.384 Q689.662 302.368 690.482 302.187 Q691.318 302.007 692.056 301.695 Q692.794 301.384 693.728 300.712 Q694.679 300.023 695.434 299.088 Q695.696 298.744 695.876 298.744 Q696.024 298.744 696.155 298.892 M694.663 290.792 Q694.663 289.89 693.991 289.284 Q693.335 288.677 692.187 288.677 Q691.826 288.677 691.384 288.759 Q690.941 288.841 690.203 289.185 Q689.482 289.53 688.842 290.104 Q688.203 290.661 687.564 291.76 Q686.924 292.842 686.547 294.284 L687.924 294.284 Q688.4 294.284 688.744 294.284 Q689.088 294.268 689.843 294.202 Q690.613 294.137 691.171 294.022 Q691.728 293.891 692.433 293.629 Q693.138 293.366 693.581 293.022 Q694.04 292.661 694.351 292.087 Q694.663 291.514 694.663 290.792 Z" fill="#000000" fill-rule="nonzero" fill-opacity="1" /><path clip-path="url(#clip000)" d="M714.116 297.973 Q713.673 300.089 713.099 301.302 Q712.181 303.155 710.624 303.155 Q709.443 303.155 708.607 302.433 Q707.771 301.712 707.574 300.63 Q705.426 303.155 703.196 303.155 Q701.229 303.155 699.983 301.663 Q698.737 300.154 698.737 297.777 Q698.737 295.383 699.917 293.088 Q701.114 290.792 703 289.366 Q704.885 287.939 706.82 287.939 Q708.869 287.939 709.919 290.087 Q710.001 289.497 710.378 289.054 Q710.755 288.612 711.329 288.612 Q711.771 288.612 712.034 288.857 Q712.296 289.087 712.296 289.513 Q712.296 289.726 712.067 290.661 L710.853 295.35 L710.115 298.383 Q709.837 299.498 709.755 299.908 Q709.689 300.318 709.689 300.859 Q709.689 302.4 710.689 302.4 Q711.181 302.4 711.575 302.089 Q711.968 301.777 712.28 301.121 Q712.591 300.466 712.788 299.859 Q712.985 299.236 713.247 298.252 Q713.329 297.859 713.395 297.76 Q713.477 297.646 713.706 297.646 Q714.116 297.646 714.116 297.973 M709.509 291.628 Q709.509 291.481 709.394 291.071 Q709.279 290.661 709.017 290.087 Q708.755 289.513 708.181 289.103 Q707.623 288.677 706.869 288.677 Q705.853 288.677 704.787 289.546 Q703.738 290.415 702.967 291.891 Q702.377 293.071 701.737 295.547 Q701.114 298.023 701.114 299.252 Q701.114 300.007 701.278 300.679 Q701.459 301.335 701.967 301.876 Q702.475 302.4 703.262 302.4 Q705.18 302.4 707.066 300.023 Q707.427 299.613 707.509 299.449 Q707.607 299.269 707.738 298.777 L709.41 292.202 Q709.509 291.71 709.509 291.628 Z" fill="#000000" fill-rule="nonzero" fill-opacity="1" /><path clip-path="url(#clip000)" d="M733.713 297.973 Q733.713 298.105 733.565 298.613 Q733.417 299.121 733.057 299.908 Q732.712 300.695 732.237 301.417 Q731.761 302.122 730.974 302.646 Q730.204 303.155 729.318 303.155 Q728.138 303.155 727.351 302.368 Q726.564 301.581 726.564 300.4 Q726.564 299.744 726.908 298.842 Q729.089 293.022 729.089 291.022 Q729.089 288.677 727.269 288.677 Q726.367 288.677 725.515 289.021 Q724.679 289.349 724.105 289.808 Q723.531 290.268 723.006 290.907 Q722.498 291.53 722.236 291.956 Q721.99 292.366 721.793 292.776 L721.367 294.448 Q721.268 294.907 720.793 296.695 L720.055 299.728 Q719.53 301.99 719.415 302.204 Q719.252 302.663 718.891 302.909 Q718.53 303.155 718.169 303.155 Q717.76 303.155 717.481 302.909 Q717.202 302.663 717.202 302.236 Q717.202 302.171 717.251 301.925 Q717.3 301.679 717.382 301.335 Q717.464 300.99 717.497 300.794 L719.448 293.038 Q719.809 291.628 719.891 291.186 Q719.989 290.727 719.989 290.218 Q719.989 288.677 718.94 288.677 Q718.087 288.677 717.53 289.694 Q716.973 290.71 716.497 292.678 Q716.349 293.219 716.251 293.334 Q716.169 293.448 715.923 293.448 Q715.513 293.432 715.513 293.104 Q715.513 293.022 715.644 292.481 Q715.776 291.94 716.022 291.169 Q716.284 290.382 716.53 289.858 Q716.743 289.464 716.858 289.284 Q716.989 289.087 717.3 288.71 Q717.628 288.316 718.055 288.136 Q718.497 287.939 719.038 287.939 Q720.252 287.939 721.137 288.726 Q722.022 289.497 722.137 290.858 Q724.318 287.939 727.367 287.939 Q729.171 287.939 730.204 288.89 Q731.237 289.841 731.237 291.53 Q731.237 291.923 731.155 292.432 Q731.089 292.924 730.925 293.547 Q730.778 294.17 730.647 294.645 Q730.515 295.121 730.253 295.891 Q729.991 296.645 729.876 296.973 Q729.761 297.301 729.482 298.072 Q729.22 298.826 729.187 298.908 Q728.581 300.433 728.581 301.302 Q728.581 301.876 728.761 302.138 Q728.958 302.4 729.384 302.4 Q730.532 302.4 731.384 301.269 Q732.253 300.121 732.811 298.252 Q732.942 297.842 733.008 297.744 Q733.09 297.646 733.319 297.646 Q733.713 297.646 733.713 297.973 Z" fill="#000000" fill-rule="nonzero" fill-opacity="1" /><path clip-path="url(#clip000)" d="M774.725 242.292 Q774.725 243.58 773.905 244.376 Q773.108 245.173 772.101 245.173 Q771.375 245.173 770.837 244.728 Q770.321 244.283 770.321 243.51 Q770.321 242.713 770.93 241.87 Q771.539 241.027 772.921 240.91 Q772.008 240.043 770.555 240.043 Q769.829 240.043 769.22 240.512 Q768.635 240.957 768.307 241.683 Q767.956 242.432 767.159 246.672 Q766.902 248.054 766.667 249.389 Q766.433 250.724 766.152 252.129 L770.134 252.129 Q770.649 252.129 770.86 252.153 Q771.071 252.176 771.235 252.293 Q771.422 252.41 771.422 252.668 Q771.422 253.324 771.118 253.488 Q770.837 253.628 769.993 253.628 L765.871 253.628 L762.99 268.829 Q762.92 269.274 762.615 270.68 Q762.334 272.062 761.655 274.334 Q760.976 276.629 760.296 277.988 Q759.922 278.76 759.43 279.487 Q758.961 280.236 758.282 280.986 Q757.603 281.735 756.713 282.18 Q755.823 282.649 754.886 282.649 Q753.293 282.649 752.052 281.759 Q750.81 280.869 750.81 279.346 Q750.81 278.058 751.607 277.261 Q752.426 276.465 753.434 276.465 Q754.16 276.465 754.675 276.91 Q755.214 277.355 755.214 278.128 Q755.214 278.456 755.097 278.831 Q754.98 279.206 754.722 279.627 Q754.464 280.072 753.902 280.377 Q753.34 280.681 752.567 280.728 Q753.48 281.595 754.886 281.595 Q755.331 281.595 755.729 281.407 Q756.127 281.243 756.455 280.822 Q756.806 280.4 757.064 279.978 Q757.322 279.58 757.579 278.807 Q757.837 278.058 758.001 277.496 Q758.165 276.934 758.376 275.926 Q758.61 274.919 758.727 274.31 Q758.844 273.725 759.055 272.577 L762.639 253.628 L759.477 253.628 Q758.914 253.628 758.68 253.605 Q758.469 253.581 758.305 253.464 Q758.142 253.324 758.142 253.043 Q758.142 252.598 758.329 252.41 Q758.54 252.199 758.774 252.176 Q759.008 252.129 759.57 252.129 L762.896 252.129 Q764.021 246.203 764.466 244.611 Q764.981 242.924 765.777 241.753 Q766.574 240.558 767.464 239.996 Q768.354 239.434 769.08 239.223 Q769.829 238.989 770.555 238.989 Q772.195 238.989 773.46 239.879 Q774.725 240.746 774.725 242.292 Z" fill="#000000" fill-rule="nonzero" fill-opacity="1" /><path clip-path="url(#clip000)" d="M819.045 260.14 Q819.326 260.421 819.326 260.819 Q819.326 261.217 819.045 261.498 Q818.764 261.779 818.366 261.779 L788.338 261.779 Q787.94 261.779 787.659 261.498 Q787.378 261.217 787.378 260.819 Q787.378 260.421 787.659 260.14 Q787.94 259.859 788.338 259.859 L818.366 259.859 Q818.764 259.859 819.045 260.14 Z" fill="#000000" fill-rule="nonzero" fill-opacity="1" /><path clip-path="url(#clip000)" d="M852.87 233.02 Q852.87 225.97 854.65 222.128 Q857.133 216.413 862.988 216.413 Q864.23 216.413 865.518 216.765 Q866.829 217.093 868.469 218.381 Q870.132 219.669 871.139 221.777 Q873.06 225.853 873.06 233.02 Q873.06 240.023 871.28 243.841 Q868.68 249.416 862.941 249.416 Q860.786 249.416 858.585 248.315 Q856.406 247.214 855.025 244.567 Q852.87 240.609 852.87 233.02 M856.851 232.434 Q856.851 239.672 857.367 242.553 Q857.952 245.668 859.545 247.026 Q861.161 248.361 862.941 248.361 Q864.862 248.361 866.455 246.933 Q868.071 245.481 868.563 242.365 Q869.101 239.297 869.078 232.434 Q869.078 225.759 868.61 223.089 Q867.977 219.973 866.291 218.732 Q864.628 217.467 862.941 217.467 Q862.309 217.467 861.63 217.655 Q860.974 217.842 860.014 218.381 Q859.053 218.919 858.304 220.255 Q857.578 221.59 857.226 223.604 Q856.851 226.204 856.851 232.434 Z" fill="#000000" fill-rule="nonzero" fill-opacity="1" /><path clip-path="url(#clip000)" d="M877.346 247.589 Q876.62 246.816 876.62 245.808 Q876.62 244.801 877.346 244.075 Q878.072 243.326 879.173 243.326 Q880.227 243.326 880.929 244.028 Q881.656 244.708 881.656 245.832 Q881.656 246.933 880.883 247.659 Q880.133 248.361 879.173 248.361 Q878.072 248.361 877.346 247.589 Z" fill="#000000" fill-rule="nonzero" fill-opacity="1" /><path clip-path="url(#clip000)" d="M889.817 248.361 Q889.817 247.495 889.887 247.237 Q889.981 246.98 890.355 246.581 L899.56 236.322 Q904.596 230.654 904.596 225.712 Q904.596 222.503 902.91 220.208 Q901.247 217.912 898.179 217.912 Q896.07 217.912 894.29 219.201 Q892.51 220.489 891.69 222.784 Q891.831 222.737 892.323 222.737 Q893.517 222.737 894.173 223.487 Q894.853 224.236 894.853 225.244 Q894.853 226.532 894.009 227.164 Q893.19 227.773 892.37 227.773 Q892.042 227.773 891.597 227.703 Q891.175 227.633 890.496 226.977 Q889.817 226.298 889.817 225.103 Q889.817 221.754 892.346 219.083 Q894.899 216.413 898.787 216.413 Q903.191 216.413 906.072 219.037 Q908.976 221.636 908.976 225.712 Q908.976 227.141 908.531 228.452 Q908.11 229.741 907.524 230.748 Q906.962 231.755 905.416 233.371 Q903.87 234.987 902.629 236.135 Q901.387 237.283 898.6 239.719 L893.517 244.661 L902.16 244.661 Q906.376 244.661 906.704 244.286 Q907.173 243.607 907.758 240.023 L908.976 240.023 L907.618 248.361 L889.817 248.361 Z" fill="#000000" fill-rule="nonzero" fill-opacity="1" /><path clip-path="url(#clip000)" d="M913.759 233.207 Q913.759 225.665 917.6 221.051 Q921.441 216.413 926.383 216.413 Q929.264 216.413 930.857 217.889 Q932.473 219.341 932.473 221.59 Q932.473 222.831 931.747 223.37 Q931.021 223.908 930.272 223.908 Q929.405 223.908 928.726 223.323 Q928.046 222.737 928.046 221.683 Q928.046 219.528 930.693 219.528 Q929.452 217.608 926.477 217.608 Q925.564 217.608 924.627 217.889 Q923.69 218.147 922.472 219.037 Q921.254 219.927 920.317 221.332 Q919.38 222.737 918.724 225.384 Q918.068 228.031 918.068 231.474 L918.068 232.622 Q920.036 227.867 924.065 227.89 Q928.093 227.89 930.881 230.959 Q933.668 234.027 933.668 238.571 Q933.668 243.232 930.763 246.324 Q927.859 249.416 923.784 249.416 Q921.957 249.416 920.294 248.643 Q918.654 247.893 917.108 246.16 Q915.586 244.427 914.672 241.101 Q913.759 237.775 913.759 233.207 M918.162 237.517 Q918.162 242.225 919.029 244.473 Q919.169 244.848 919.474 245.363 Q919.802 245.879 920.34 246.558 Q920.903 247.214 921.816 247.659 Q922.729 248.08 923.784 248.08 Q926.992 248.08 928.538 244.965 Q929.358 243.232 929.358 238.524 Q929.358 233.722 928.491 231.966 Q927.016 228.991 924.018 228.991 Q922.003 228.991 920.598 230.373 Q919.216 231.755 918.677 233.605 Q918.162 235.456 918.162 237.517 Z" fill="#000000" fill-rule="nonzero" fill-opacity="1" /><path clip-path="url(#clip000)" d="M937.701 233.02 Q937.701 225.97 939.481 222.128 Q941.964 216.413 947.819 216.413 Q949.061 216.413 950.349 216.765 Q951.66 217.093 953.3 218.381 Q954.963 219.669 955.97 221.777 Q957.891 225.853 957.891 233.02 Q957.891 240.023 956.111 243.841 Q953.511 249.416 947.772 249.416 Q945.617 249.416 943.416 248.315 Q941.237 247.214 939.856 244.567 Q937.701 240.609 937.701 233.02 M941.683 232.434 Q941.683 239.672 942.198 242.553 Q942.783 245.668 944.376 247.026 Q945.992 248.361 947.772 248.361 Q949.693 248.361 951.286 246.933 Q952.902 245.481 953.394 242.365 Q953.932 239.297 953.909 232.434 Q953.909 225.759 953.441 223.089 Q952.808 219.973 951.122 218.732 Q949.459 217.467 947.772 217.467 Q947.14 217.467 946.461 217.655 Q945.805 217.842 944.845 218.381 Q943.884 218.919 943.135 220.255 Q942.409 221.59 942.057 223.604 Q941.683 226.204 941.683 232.434 Z" fill="#000000" fill-rule="nonzero" fill-opacity="1" /><path clip-path="url(#clip000)" d="M847.87 262.208 L968.51 262.208 L968.51 259.648 L847.87 259.648  Z" fill="#000000" fill-rule="evenodd" fill-opacity="1"/>
<path clip-path="url(#clip000)" d="M871.597 305.448 Q871.597 305.893 871.081 305.94 L870.027 305.94 Q868.95 305.94 868.481 305.776 Q868.013 305.612 867.474 304.863 Q867.146 304.394 866.327 302.216 Q865.53 300.014 864.359 296.688 Q863.211 293.362 862.438 291.395 L850.891 305.027 Q850.095 306.034 849.298 306.034 Q848.713 306.034 848.291 305.636 Q847.87 305.238 847.87 304.629 Q847.87 304.184 848.034 303.926 Q848.221 303.668 848.713 303.153 L861.97 290.013 L857.309 276.967 Q856.419 274.554 855.904 273.945 Q855.412 273.336 854.194 273.125 Q853.749 273.008 853.749 272.633 Q853.749 272.118 854.615 272.118 Q859.253 272.118 860.471 275.514 L870.262 302.802 Q870.8 304.371 871.362 305.027 Q871.597 305.331 871.597 305.448 Z" fill="#000000" fill-rule="nonzero" fill-opacity="1" /><path clip-path="url(#clip000)" d="M903.986 310.036 Q903.986 310.167 903.838 310.675 Q903.691 311.184 903.33 311.971 Q902.986 312.758 902.494 313.479 Q902.019 314.184 901.232 314.709 Q900.461 315.217 899.576 315.217 Q898.395 315.217 897.608 314.43 Q896.821 313.643 896.821 312.463 Q896.821 311.823 897.264 310.61 Q899.346 305.068 899.346 303.084 Q899.346 300.74 897.526 300.74 Q896.493 300.74 895.559 301.166 Q894.624 301.592 894.017 302.182 Q893.411 302.773 892.935 303.445 Q892.46 304.117 892.247 304.56 Q892.05 305.003 892.001 305.199 L889.984 313.299 Q889.82 313.987 889.705 314.315 Q889.591 314.643 889.279 314.922 Q888.968 315.217 888.476 315.217 Q888.066 315.217 887.771 314.971 Q887.492 314.725 887.492 314.299 Q887.492 314.233 887.574 313.889 Q887.656 313.545 887.771 313.069 Q887.885 312.594 887.935 312.315 Q888.525 310.085 888.607 309.774 L889.541 305.871 Q890.05 303.937 890.05 303.084 Q890.05 300.74 888.23 300.74 Q887.328 300.74 886.475 301.084 Q885.639 301.412 885.065 301.871 Q884.492 302.33 883.967 302.969 Q883.459 303.592 883.196 304.019 Q882.95 304.429 882.754 304.839 L882.327 306.511 Q882.229 306.97 881.753 308.757 L881.016 311.79 Q880.491 314.053 880.376 314.266 Q880.212 314.725 879.852 314.971 Q879.491 315.217 879.13 315.217 Q878.72 315.217 878.442 314.971 Q878.163 314.725 878.163 314.299 Q878.163 314.233 878.212 313.987 Q878.261 313.741 878.343 313.397 Q878.425 313.053 878.458 312.856 L880.409 305.101 Q880.77 303.691 880.852 303.248 Q880.95 302.789 880.95 302.281 Q880.95 300.74 879.901 300.74 Q879.048 300.74 878.491 301.756 Q877.933 302.773 877.458 304.74 Q877.31 305.281 877.212 305.396 Q877.13 305.511 876.884 305.511 Q876.474 305.494 876.474 305.166 Q876.474 305.084 876.605 304.56 Q876.736 304.035 876.982 303.248 Q877.245 302.445 877.523 301.92 Q877.687 301.576 877.835 301.346 Q877.982 301.117 878.278 300.756 Q878.573 300.395 879.015 300.199 Q879.458 300.002 879.999 300.002 Q881.196 300.002 882.081 300.772 Q882.983 301.543 883.098 302.92 Q885.279 300.002 888.328 300.002 Q890.05 300.002 891.083 300.871 Q892.05 301.707 892.165 303.248 Q894.427 300.002 897.641 300.002 Q899.494 300.002 900.494 300.969 Q901.494 301.92 901.494 303.592 Q901.494 304.461 901.051 306.117 Q900.609 307.757 900.313 308.577 Q900.018 309.397 899.444 310.971 Q898.838 312.479 898.838 313.364 Q898.838 313.938 899.035 314.201 Q899.231 314.463 899.658 314.463 Q900.313 314.463 900.887 314.086 Q901.461 313.692 901.871 313.053 Q902.297 312.397 902.576 311.741 Q902.855 311.069 903.068 310.315 Q903.199 309.905 903.265 309.806 Q903.347 309.708 903.576 309.708 Q903.986 309.708 903.986 310.036 Z" fill="#000000" fill-rule="nonzero" fill-opacity="1" /><path clip-path="url(#clip000)" d="M918.975 310.954 Q919.106 311.102 919.106 311.249 Q919.106 311.397 918.778 311.823 Q918.467 312.249 917.795 312.823 Q917.122 313.397 916.253 313.938 Q915.384 314.479 914.106 314.84 Q912.827 315.217 911.482 315.217 Q909.072 315.217 907.629 313.495 Q906.203 311.774 906.203 309.134 Q906.203 307.445 906.76 305.953 Q907.318 304.445 908.219 303.379 Q909.138 302.314 910.285 301.543 Q911.449 300.756 912.663 300.379 Q913.876 300.002 915.007 300.002 Q916.663 300.002 917.631 300.838 Q918.598 301.674 918.598 302.855 Q918.598 303.133 918.516 303.478 Q918.45 303.822 918.221 304.363 Q918.008 304.904 917.45 305.445 Q916.893 305.97 916.073 306.314 Q914.253 307.085 910.941 307.085 L909.154 307.085 Q908.629 309.2 908.629 310.577 Q908.629 311.118 908.728 311.676 Q908.826 312.217 909.088 312.905 Q909.367 313.594 909.99 314.037 Q910.63 314.463 911.548 314.463 Q911.843 314.463 912.154 314.446 Q912.482 314.43 913.302 314.25 Q914.138 314.069 914.876 313.758 Q915.614 313.446 916.549 312.774 Q917.499 312.085 918.254 311.151 Q918.516 310.807 918.696 310.807 Q918.844 310.807 918.975 310.954 M917.483 302.855 Q917.483 301.953 916.811 301.346 Q916.155 300.74 915.007 300.74 Q914.647 300.74 914.204 300.822 Q913.761 300.904 913.023 301.248 Q912.302 301.592 911.663 302.166 Q911.023 302.724 910.384 303.822 Q909.744 304.904 909.367 306.347 L910.744 306.347 Q911.22 306.347 911.564 306.347 Q911.909 306.331 912.663 306.265 Q913.433 306.199 913.991 306.085 Q914.548 305.953 915.253 305.691 Q915.958 305.429 916.401 305.084 Q916.86 304.724 917.172 304.15 Q917.483 303.576 917.483 302.855 Z" fill="#000000" fill-rule="nonzero" fill-opacity="1" /><path clip-path="url(#clip000)" d="M936.936 310.036 Q936.493 312.151 935.92 313.364 Q935.001 315.217 933.444 315.217 Q932.263 315.217 931.427 314.496 Q930.591 313.774 930.394 312.692 Q928.246 315.217 926.017 315.217 Q924.049 315.217 922.803 313.725 Q921.557 312.217 921.557 309.839 Q921.557 307.445 922.737 305.15 Q923.934 302.855 925.82 301.428 Q927.705 300.002 929.64 300.002 Q931.689 300.002 932.739 302.15 Q932.821 301.559 933.198 301.117 Q933.575 300.674 934.149 300.674 Q934.592 300.674 934.854 300.92 Q935.116 301.15 935.116 301.576 Q935.116 301.789 934.887 302.724 L933.673 307.413 L932.936 310.446 Q932.657 311.561 932.575 311.971 Q932.509 312.381 932.509 312.922 Q932.509 314.463 933.509 314.463 Q934.001 314.463 934.395 314.151 Q934.788 313.84 935.1 313.184 Q935.411 312.528 935.608 311.921 Q935.805 311.298 936.067 310.315 Q936.149 309.921 936.215 309.823 Q936.297 309.708 936.526 309.708 Q936.936 309.708 936.936 310.036 M932.329 303.691 Q932.329 303.543 932.214 303.133 Q932.099 302.724 931.837 302.15 Q931.575 301.576 931.001 301.166 Q930.443 300.74 929.689 300.74 Q928.673 300.74 927.607 301.609 Q926.558 302.478 925.787 303.953 Q925.197 305.134 924.557 307.609 Q923.934 310.085 923.934 311.315 Q923.934 312.069 924.098 312.741 Q924.279 313.397 924.787 313.938 Q925.295 314.463 926.082 314.463 Q928 314.463 929.886 312.085 Q930.247 311.676 930.329 311.512 Q930.427 311.331 930.558 310.839 L932.231 304.265 Q932.329 303.773 932.329 303.691 Z" fill="#000000" fill-rule="nonzero" fill-opacity="1" /><path clip-path="url(#clip000)" d="M956.533 310.036 Q956.533 310.167 956.385 310.675 Q956.238 311.184 955.877 311.971 Q955.533 312.758 955.057 313.479 Q954.582 314.184 953.795 314.709 Q953.024 315.217 952.139 315.217 Q950.958 315.217 950.171 314.43 Q949.384 313.643 949.384 312.463 Q949.384 311.807 949.728 310.905 Q951.909 305.084 951.909 303.084 Q951.909 300.74 950.089 300.74 Q949.187 300.74 948.335 301.084 Q947.499 301.412 946.925 301.871 Q946.351 302.33 945.826 302.969 Q945.318 303.592 945.056 304.019 Q944.81 304.429 944.613 304.839 L944.187 306.511 Q944.088 306.97 943.613 308.757 L942.875 311.79 Q942.35 314.053 942.236 314.266 Q942.072 314.725 941.711 314.971 Q941.35 315.217 940.99 315.217 Q940.58 315.217 940.301 314.971 Q940.022 314.725 940.022 314.299 Q940.022 314.233 940.071 313.987 Q940.121 313.741 940.203 313.397 Q940.285 313.053 940.317 312.856 L942.268 305.101 Q942.629 303.691 942.711 303.248 Q942.809 302.789 942.809 302.281 Q942.809 300.74 941.76 300.74 Q940.908 300.74 940.35 301.756 Q939.793 302.773 939.317 304.74 Q939.17 305.281 939.071 305.396 Q938.989 305.511 938.743 305.511 Q938.333 305.494 938.333 305.166 Q938.333 305.084 938.465 304.543 Q938.596 304.002 938.842 303.232 Q939.104 302.445 939.35 301.92 Q939.563 301.527 939.678 301.346 Q939.809 301.15 940.121 300.772 Q940.448 300.379 940.875 300.199 Q941.317 300.002 941.859 300.002 Q943.072 300.002 943.957 300.789 Q944.843 301.559 944.957 302.92 Q947.138 300.002 950.188 300.002 Q951.991 300.002 953.024 300.953 Q954.057 301.904 954.057 303.592 Q954.057 303.986 953.975 304.494 Q953.909 304.986 953.745 305.609 Q953.598 306.232 953.467 306.708 Q953.336 307.183 953.073 307.954 Q952.811 308.708 952.696 309.036 Q952.581 309.364 952.303 310.134 Q952.04 310.889 952.007 310.971 Q951.401 312.495 951.401 313.364 Q951.401 313.938 951.581 314.201 Q951.778 314.463 952.204 314.463 Q953.352 314.463 954.204 313.332 Q955.073 312.184 955.631 310.315 Q955.762 309.905 955.828 309.806 Q955.91 309.708 956.139 309.708 Q956.533 309.708 956.533 310.036 Z" fill="#000000" fill-rule="nonzero" fill-opacity="1" /></svg>
